version 1
nodes
0 "ValveBiped.Bip01_Pelvis" -1
1 "ValveBiped.Bip01_Spine" 0
2 "ValveBiped.Bip01_Spine1" 1
3 "ValveBiped.Bip01_Spine2" 2
4 "ValveBiped.Bip01_Spine4" 3
5 "ValveBiped.Bip01_Neck1" 4
6 "ValveBiped.Bip01_Head1" 5
7 "ValveBiped.forward" 6
8 "ValveBiped.Bip01_R_Clavicle" 4
9 "ValveBiped.Bip01_R_UpperArm" 8
10 "ValveBiped.Bip01_R_Forearm" 9
11 "ValveBiped.Bip01_R_Hand" 10
12 "ValveBiped.Anim_Attachment_RH" 11
13 "ValveBiped.Bip01_R_Finger4" 11
14 "ValveBiped.Bip01_R_Finger41" 13
15 "ValveBiped.Bip01_R_Finger42" 14
16 "ValveBiped.Bip01_R_Finger3" 11
17 "ValveBiped.Bip01_R_Finger31" 16
18 "ValveBiped.Bip01_R_Finger32" 17
19 "ValveBiped.Bip01_R_Finger2" 11
20 "ValveBiped.Bip01_R_Finger21" 19
21 "ValveBiped.Bip01_R_Finger22" 20
22 "ValveBiped.Bip01_R_Finger1" 11
23 "ValveBiped.Bip01_R_Finger11" 22
24 "ValveBiped.Bip01_R_Finger12" 23
25 "ValveBiped.Bip01_R_Finger0" 11
26 "ValveBiped.Bip01_R_Finger01" 25
27 "ValveBiped.Bip01_R_Finger02" 26
28 "ValveBiped.Bip01_R_Ulna" 10
29 "ValveBiped.Bip01_R_Wrist" 10
30 "ValveBiped.Bip01_R_Shoulder" 9
31 "ValveBiped.Bip01_R_Bicep" 9
32 "ValveBiped.Bip01_R_Trapezius" 8
33 "ValveBiped.Bip01_L_Clavicle" 4
34 "ValveBiped.Bip01_L_UpperArm" 33
35 "ValveBiped.Bip01_L_Forearm" 34
36 "ValveBiped.Bip01_L_Hand" 35
37 "ValveBiped.Anim_Attachment_LH" 36
38 "ValveBiped.Bip01_L_Finger4" 36
39 "ValveBiped.Bip01_L_Finger41" 38
40 "ValveBiped.Bip01_L_Finger42" 39
41 "ValveBiped.Bip01_L_Finger3" 36
42 "ValveBiped.Bip01_L_Finger31" 41
43 "ValveBiped.Bip01_L_Finger32" 42
44 "ValveBiped.Bip01_L_Finger2" 36
45 "ValveBiped.Bip01_L_Finger21" 44
46 "ValveBiped.Bip01_L_Finger22" 45
47 "ValveBiped.Bip01_L_Finger1" 36
48 "ValveBiped.Bip01_L_Finger11" 47
49 "ValveBiped.Bip01_L_Finger12" 48
50 "ValveBiped.Bip01_L_Finger0" 36
51 "ValveBiped.Bip01_L_Finger01" 50
52 "ValveBiped.Bip01_L_Finger02" 51
53 "ValveBiped.Bip01_L_Ulna" 35
54 "ValveBiped.Bip01_L_Wrist" 35
55 "ValveBiped.Bip01_L_Shoulder" 34
56 "ValveBiped.Bip01_L_Bicep" 34
57 "ValveBiped.Bip01_L_Trapezius" 33
58 "ValveBiped.Bip01_R_Thigh" 0
59 "ValveBiped.Bip01_R_Calf" 58
60 "ValveBiped.Bip01_R_Foot" 59
61 "ValveBiped.Bip01_R_Toe0" 60
62 "ValveBiped.Bip01_L_Thigh" 0
63 "ValveBiped.Bip01_L_Calf" 62
64 "ValveBiped.Bip01_L_Foot" 63
end
skeleton
time 0
0  -0.000005 -0.533615 38.566917  1.570796 -0.000000 0.000000
1  0.000005 3.345128 -2.981901  1.570797 0.086286 1.570793
2  4.018296 -0.000029 -0.000024  0.000000 -0.000005 -0.029256
3  3.518550 0.000006 -0.000026  0.000000 -0.000038 0.100337
4  8.942602 0.000026 -0.000404  0.000008 0.000043 0.194105
5  3.307232 -0.000023 -0.000005  3.141592 -0.000000 0.400476
6  3.593705 0.000018 0.000007  -0.000000 0.000003 0.406592
7  1.999984 -3.000006 0.000012  -1.570790 -0.000002 -1.326468
8  2.033310 1.000771 -1.937615  1.473081 1.855094 -0.198683
9  6.028139 0.000065 0.000069  1.590088 -0.099551 0.273381
10  11.692569 0.000204 0.000026  -0.001726 0.013682 -0.311254
11  11.481683 0.000156 -0.000013  -1.564934 0.106610 0.044208
12  2.676065 -1.712449 0.000007  -1.570802 0.000003 -1.570855
13  3.859639 -0.132586 1.193102  0.366275 -0.149875 -0.332023
14  1.312549 0.000015 0.000006  0.148503 0.140473 -0.017321
15  0.729386 0.000008 0.000005  0.000017 -0.006139 -0.244264
16  3.942249 0.050320 0.431037  0.129736 -0.110547 -0.545316
17  1.539099 -0.000005 -0.000001  0.034171 0.141233 0.546468
18  1.196308 -0.000050 -0.000000  -0.000013 -0.009657 -0.430764
19  3.883632 -0.050350 -0.431044  -0.103682 -0.052851 -0.146761
20  1.719591 0.000019 -0.000012  -0.007599 0.030957 -0.099110
21  1.209150 0.000014 -0.000032  -0.000017 -0.004441 -0.216377
22  3.859828 -0.148940 -1.331283  -0.345584 0.028168 -0.268439
23  1.719424 0.000011 0.000008  -0.019993 -0.090338 0.128390
24  1.099684 0.000003 0.000008  -0.000016 -0.004192 -0.244322
25  0.805998 -0.359833 -1.318330  1.258253 0.364078 -0.444376
26  1.789769 -0.000005 0.000037  0.019256 -0.120173 0.075542
27  1.206989 -0.000013 0.000004  0.000008 -0.009612 0.362903
28  5.740845 0.000073 0.000009  0.000078 0.000001 0.000021
29  11.481683 0.000156 -0.000013  0.000140 -0.000001 0.000027
30  1.500008 0.000022 -0.000001  0.000001 0.000001 0.000018
31  5.560010 0.000093 -0.000009  0.000001 -0.000000 0.000033
32  5.166968 0.000058 0.000060  0.000002 -0.000008 -0.000002
33  2.033359 1.000751 1.937655  -1.544919 -1.855089 -0.198680
34  6.028133 0.000081 -0.000074  -1.520703 0.079998 0.279606
35  11.692538 -0.000543 -0.000002  0.001824 -0.014043 -0.318113
36  11.481673 0.000577 -0.000002  1.573197 -0.106594 0.044251
37  2.676121 -1.712387 0.000054  1.570795 0.000019 1.570775
38  3.859720 -0.142334 -1.191948  -0.373253 0.084829 -0.392590
39  1.312552 -0.000022 0.000023  -0.033211 -0.054307 0.096970
40  0.729370 -0.000030 -0.000009  0.000024 0.004970 -0.244303
41  3.942325 0.046839 -0.431421  -0.117935 0.118576 -0.428279
42  1.539070 0.000003 -0.000014  -0.020011 -0.129390 0.326113
43  1.196315 0.000073 -0.000007  0.000008 0.007370 -0.430797
44  3.883710 -0.046669 0.431465  0.093519 0.039474 -0.340164
45  1.719581 -0.000005 0.000003  0.034075 -0.016610 0.192356
46  1.209169 0.000009 -0.000017  -0.000005 0.003100 -0.216393
47  3.859875 -0.137829 1.332490  0.348571 -0.036139 -0.383817
48  1.719406 0.000008 -0.000024  0.108421 0.085473 0.261801
49  1.099665 0.000015 0.000003  -0.000005 0.002591 -0.244331
50  0.806050 -0.348879 1.321279  -1.284111 -0.334954 -0.484552
51  1.789777 0.000007 0.000010  0.019426 0.057122 0.062857
52  1.207006 0.000016 -0.000021  0.000005 0.011268 0.362850
53  5.740850 0.000291 0.000024  0.000683 0.000000 0.000043
54  11.481719 0.000580 0.000040  0.001274 0.000001 0.000066
55  1.499979 -0.000070 -0.000008  -0.000000 -0.000000 -0.000047
56  5.559987 -0.000257 -0.000034  0.000000 -0.000000 -0.000087
57  5.166950 0.000072 -0.000061  0.000001 -0.000014 0.000002
58  -3.890452 0.000004 0.000007  -1.570796 0.051841 -1.576021
59  17.848204 0.000190 -0.000003  -0.000003 0.000000 0.034052
60  16.525274 0.002452 0.000012  0.038612 0.040781 -1.071486
61  6.879458 0.000009 0.000020  -0.081332 -0.002949 -0.584375
62  3.890452 -0.000004 -0.000003  -1.570798 0.051841 -1.565574
63  17.848145 0.000069 -0.000001  0.000007 0.000000 0.034176
64  16.525263 0.000454 -0.000007  -0.027918 -0.040785 -1.071635
end
triangles
gun_sling
0  2.892354 -5.532868 57.788322  0.307096 -0.850052 0.427906  0.980600 0.135648 1 4 1.000000
0  4.559048 -5.197050 57.259300  0.306972 -0.850398 0.427307  0.955100 0.020148 1 4 1.000000
0  3.033756 -5.332573 58.084618  0.307120 -0.849986 0.428020  0.955100 0.135648 1 4 1.000000
gun_sling
0  4.417545 -5.396852 56.963203  0.306948 -0.850465 0.427192  0.980600 0.020148 1 4 1.000000
0  4.559048 -5.197050 57.259300  0.306972 -0.850398 0.427307  0.955100 0.020148 1 4 1.000000
0  2.892354 -5.532868 57.788322  0.307096 -0.850052 0.427906  0.980600 0.135648 1 4 1.000000
gun_sling
0  -1.609727 6.429688 53.267536  -0.358032 0.927964 -0.103422  0.381100 0.742948 1 3 1.000000
0  -1.899910 5.269816 50.930126  -0.310236 0.704937 -0.637822  0.254100 0.867448 1 3 1.000000
0  -3.018020 5.526718 52.397820  -0.651147 0.714125 -0.256970  0.381100 0.867448 1 3 1.000000
gun_sling
0  3.863996 6.929063 57.588692  0.137545 0.987466 -0.077406  0.254100 0.290048 1 4 1.000000
0  4.301710 6.931857 58.668392  0.200124 0.977538 0.066113  0.254100 0.218948 1 4 1.000000
0  4.030797 6.853666 57.528694  0.353930 0.919537 -0.170836  0.240900 0.290048 1 4 1.000000
gun_sling
0  3.863996 6.929063 57.588692  0.137545 0.987466 -0.077406  0.254100 0.290048 1 4 1.000000
0  4.030797 6.853666 57.528694  0.353930 0.919537 -0.170836  0.240900 0.290048 1 4 1.000000
0  3.164479 6.865473 56.030396  0.178221 0.976580 -0.120533  0.254100 0.394848 1 4 1.000000
gun_sling
0  3.863996 6.929063 57.588692  0.137545 0.987466 -0.077406  0.254100 0.290048 1 4 1.000000
0  3.164479 6.865473 56.030396  0.178221 0.976580 -0.120533  0.254100 0.394848 1 4 1.000000
0  2.044503 6.758051 58.237019  -0.293259 0.945137 0.143930  0.381100 0.290048 1 4 1.000000
gun_sling
0  2.044503 6.758051 58.237019  -0.293259 0.945137 0.143930  0.381100 0.290048 1 4 1.000000
0  3.164479 6.865473 56.030396  0.178221 0.976580 -0.120533  0.254100 0.394848 1 4 1.000000
0  1.459489 6.780357 56.941620  -0.267189 0.953884 0.136805  0.381100 0.394848 1 4 1.000000
gun_sling
0  3.164479 6.865473 56.030396  0.178221 0.976580 -0.120533  0.254100 0.394848 1 4 1.000000
0  0.697777 6.751365 55.655426  -0.208874 0.963752 0.165995  0.381100 0.507448 1 4 1.000000
0  1.459489 6.780357 56.941620  -0.267189 0.953884 0.136805  0.381100 0.394848 1 4 1.000000
gun_sling
0  2.204163 6.828330 54.423656  0.142854 0.973588 -0.178100  0.254100 0.507448 1 3 1.000000
0  0.697777 6.751365 55.655426  -0.208874 0.963752 0.165995  0.381100 0.507448 1 4 1.000000
0  3.164479 6.865473 56.030396  0.178221 0.976580 -0.120533  0.254100 0.394848 1 4 1.000000
gun_sling
0  1.181773 6.656924 53.229446  0.105368 0.929389 -0.353743  0.254100 0.611948 1 3 1.000000
0  0.697777 6.751365 55.655426  -0.208874 0.963752 0.165995  0.381100 0.507448 1 4 1.000000
0  2.204163 6.828330 54.423656  0.142854 0.973588 -0.178100  0.254100 0.507448 1 3 1.000000
gun_sling
0  2.204163 6.828330 54.423656  0.142854 0.973588 -0.178100  0.254100 0.507448 1 3 1.000000
0  2.334964 6.743629 54.318066  0.330160 0.890363 -0.313447  0.240900 0.507448 1 3 1.000000
0  1.181773 6.656924 53.229446  0.105368 0.929389 -0.353743  0.254100 0.611948 1 3 1.000000
gun_sling
0  1.181773 6.656924 53.229446  0.105368 0.929389 -0.353743  0.254100 0.611948 1 3 1.000000
0  2.334964 6.743629 54.318066  0.330160 0.890363 -0.313447  0.240900 0.507448 1 3 1.000000
0  1.295873 6.551427 53.121555  0.261391 0.811152 -0.523171  0.240900 0.611948 1 3 1.000000
gun_sling
0  1.181773 6.656924 53.229446  0.105368 0.929389 -0.353743  0.254100 0.611948 1 3 1.000000
0  1.295873 6.551427 53.121555  0.261391 0.811152 -0.523171  0.240900 0.611948 1 3 1.000000
0  -0.340818 6.024621 51.927834  0.042769 0.841700 -0.538249  0.254100 0.742948 1 3 1.000000
gun_sling
0  -0.340818 6.024621 51.927834  0.042769 0.841700 -0.538249  0.254100 0.742948 1 3 1.000000
0  1.295873 6.551427 53.121555  0.261391 0.811152 -0.523171  0.240900 0.611948 1 3 1.000000
0  -0.230717 5.890520 51.821339  0.195754 0.703377 -0.683331  0.240900 0.742948 1 3 1.000000
gun_sling
0  -1.725309 5.167813 50.794228  -0.135093 0.691918 -0.709224  0.240900 0.867448 1 3 1.000000
0  -0.340818 6.024621 51.927834  0.042769 0.841700 -0.538249  0.254100 0.742948 1 3 1.000000
0  -0.230717 5.890520 51.821339  0.195754 0.703377 -0.683331  0.240900 0.742948 1 3 1.000000
gun_sling
0  -1.899910 5.269816 50.930126  -0.310236 0.704937 -0.637822  0.254100 0.867448 1 3 1.000000
0  -0.340818 6.024621 51.927834  0.042769 0.841700 -0.538249  0.254100 0.742948 1 3 1.000000
0  -1.725309 5.167813 50.794228  -0.135093 0.691918 -0.709224  0.240900 0.867448 1 3 1.000000
gun_sling
0  -1.899910 5.269816 50.930126  -0.310236 0.704937 -0.637822  0.254100 0.867448 1 3 1.000000
0  -1.725309 5.167813 50.794228  -0.135093 0.691918 -0.709224  0.240900 0.867448 1 3 1.000000
0  -2.210710 4.982413 50.934029  -0.543040 0.578988 -0.608178  0.267400 0.894448 1 3 1.000000
gun_sling
0  -2.210710 4.982413 50.934029  -0.543040 0.578988 -0.608178  0.267400 0.894448 1 3 1.000000
0  -3.091218 5.165416 52.047825  -0.610632 0.609479 -0.505632  0.363100 0.894448 1 3 1.000000
0  -1.899910 5.269816 50.930126  -0.310236 0.704937 -0.637822  0.254100 0.867448 1 3 1.000000
gun_sling
0  -1.899910 5.269816 50.930126  -0.310236 0.704937 -0.637822  0.254100 0.867448 1 3 1.000000
0  -3.091218 5.165416 52.047825  -0.610632 0.609479 -0.505632  0.363100 0.894448 1 3 1.000000
0  -3.018020 5.526718 52.397820  -0.651147 0.714125 -0.256970  0.381100 0.867448 1 3 1.000000
gun_sling
0  -3.081523 5.472316 52.569618  -0.708176 0.704984 -0.038522  0.393400 0.867448 1 3 1.000000
0  -3.018020 5.526718 52.397820  -0.651147 0.714125 -0.256970  0.381100 0.867448 1 3 1.000000
0  -3.091218 5.165416 52.047825  -0.610632 0.609479 -0.505632  0.363100 0.894448 1 3 1.000000
gun_sling
0  -3.081523 5.472316 52.569618  -0.708176 0.704984 -0.038522  0.393400 0.867448 1 3 1.000000
0  -1.720929 6.311864 53.398331  -0.585353 0.785055 0.202610  0.393400 0.742948 1 3 1.000000
0  -3.018020 5.526718 52.397820  -0.651147 0.714125 -0.256970  0.381100 0.867448 1 3 1.000000
gun_sling
0  -3.018020 5.526718 52.397820  -0.651147 0.714125 -0.256970  0.381100 0.867448 1 3 1.000000
0  -1.720929 6.311864 53.398331  -0.585353 0.785055 0.202610  0.393400 0.742948 1 3 1.000000
0  -1.609727 6.429688 53.267536  -0.358032 0.927964 -0.103422  0.381100 0.742948 1 3 1.000000
gun_sling
0  -0.431139 6.863739 54.560543  0.039294 0.984823 -0.169053  0.393400 0.611948 1 3 1.000000
0  -1.609727 6.429688 53.267536  -0.358032 0.927964 -0.103422  0.381100 0.742948 1 3 1.000000
0  -1.720929 6.311864 53.398331  -0.585353 0.785055 0.202610  0.393400 0.742948 1 3 1.000000
gun_sling
0  1.181773 6.656924 53.229446  0.105368 0.929389 -0.353743  0.254100 0.611948 1 3 1.000000
0  -0.340818 6.024621 51.927834  0.042769 0.841700 -0.538249  0.254100 0.742948 1 3 1.000000
0  -0.303438 6.833726 54.464645  0.047278 0.982906 -0.177936  0.381100 0.611948 1 3 1.000000
gun_sling
0  -0.303438 6.833726 54.464645  0.047278 0.982906 -0.177936  0.381100 0.611948 1 3 1.000000
0  0.697777 6.751365 55.655426  -0.208874 0.963752 0.165995  0.381100 0.507448 1 4 1.000000
0  1.181773 6.656924 53.229446  0.105368 0.929389 -0.353743  0.254100 0.611948 1 3 1.000000
gun_sling
0  -0.340818 6.024621 51.927834  0.042769 0.841700 -0.538249  0.254100 0.742948 1 3 1.000000
0  -1.899910 5.269816 50.930126  -0.310236 0.704937 -0.637822  0.254100 0.867448 1 3 1.000000
0  -1.609727 6.429688 53.267536  -0.358032 0.927964 -0.103422  0.381100 0.742948 1 3 1.000000
gun_sling
0  -0.303438 6.833726 54.464645  0.047278 0.982906 -0.177936  0.381100 0.611948 1 3 1.000000
0  -0.340818 6.024621 51.927834  0.042769 0.841700 -0.538249  0.254100 0.742948 1 3 1.000000
0  -1.609727 6.429688 53.267536  -0.358032 0.927964 -0.103422  0.381100 0.742948 1 3 1.000000
gun_sling
0  -0.303438 6.833726 54.464645  0.047278 0.982906 -0.177936  0.381100 0.611948 1 3 1.000000
0  -1.609727 6.429688 53.267536  -0.358032 0.927964 -0.103422  0.381100 0.742948 1 3 1.000000
0  -0.431139 6.863739 54.560543  0.039294 0.984823 -0.169053  0.393400 0.611948 1 3 1.000000
gun_sling
0  -0.431139 6.863739 54.560543  0.039294 0.984823 -0.169053  0.393400 0.611948 1 3 1.000000
0  0.697777 6.751365 55.655426  -0.208874 0.963752 0.165995  0.381100 0.507448 1 4 1.000000
0  -0.303438 6.833726 54.464645  0.047278 0.982906 -0.177936  0.381100 0.611948 1 3 1.000000
gun_sling
0  0.583677 6.651862 55.753227  -0.424602 0.833968 0.352434  0.393400 0.507448 1 4 1.000000
0  0.697777 6.751365 55.655426  -0.208874 0.963752 0.165995  0.381100 0.507448 1 4 1.000000
0  -0.431139 6.863739 54.560543  0.039294 0.984823 -0.169053  0.393400 0.611948 1 3 1.000000
gun_sling
0  0.583677 6.651862 55.753227  -0.424602 0.833968 0.352434  0.393400 0.507448 1 4 1.000000
0  1.459489 6.780357 56.941620  -0.267189 0.953884 0.136805  0.381100 0.394848 1 4 1.000000
0  0.697777 6.751365 55.655426  -0.208874 0.963752 0.165995  0.381100 0.507448 1 4 1.000000
gun_sling
0  1.327390 6.680358 57.014820  -0.491340 0.833482 0.252770  0.393400 0.394848 1 4 1.000000
0  1.459489 6.780357 56.941620  -0.267189 0.953884 0.136805  0.381100 0.394848 1 4 1.000000
0  0.583677 6.651862 55.753227  -0.424602 0.833968 0.352434  0.393400 0.507448 1 4 1.000000
gun_sling
0  1.327390 6.680358 57.014820  -0.491340 0.833482 0.252770  0.393400 0.394848 1 4 1.000000
0  2.044503 6.758051 58.237019  -0.293259 0.945137 0.143930  0.381100 0.290048 1 4 1.000000
0  1.459489 6.780357 56.941620  -0.267189 0.953884 0.136805  0.381100 0.394848 1 4 1.000000
gun_sling
0  1.892804 6.650152 58.290520  -0.504401 0.828970 0.241636  0.393400 0.290048 1 4 1.000000
0  2.044503 6.758051 58.237019  -0.293259 0.945137 0.143930  0.381100 0.290048 1 4 1.000000
0  1.327390 6.680358 57.014820  -0.491340 0.833482 0.252770  0.393400 0.394848 1 4 1.000000
gun_sling
0  1.892804 6.650152 58.290520  -0.504401 0.828970 0.241636  0.393400 0.290048 1 4 1.000000
0  2.261614 6.620444 59.168217  -0.475705 0.818725 0.321551  0.393400 0.218948 1 4 1.000000
0  2.044503 6.758051 58.237019  -0.293259 0.945137 0.143930  0.381100 0.290048 1 4 1.000000
gun_sling
0  2.044503 6.758051 58.237019  -0.293259 0.945137 0.143930  0.381100 0.290048 1 4 1.000000
0  2.261614 6.620444 59.168217  -0.475705 0.818725 0.321551  0.393400 0.218948 1 4 1.000000
0  2.432712 6.731348 59.138611  -0.303949 0.922052 0.239655  0.381100 0.218948 1 4 1.000000
gun_sling
0  2.261614 6.620444 59.168217  -0.475705 0.818725 0.321551  0.393400 0.218948 1 4 1.000000
0  2.633018 6.608146 59.546009  -0.295701 0.676130 0.674840  0.378800 0.187448 1 4 1.000000
0  2.432712 6.731348 59.138611  -0.303949 0.922052 0.239655  0.381100 0.218948 1 4 1.000000
gun_sling
0  2.432712 6.731348 59.138611  -0.303949 0.922052 0.239655  0.381100 0.218948 1 4 1.000000
0  2.633018 6.608146 59.546009  -0.295701 0.676130 0.674840  0.378800 0.187448 1 4 1.000000
0  2.695618 6.719446 59.468708  -0.155073 0.812541 0.561898  0.371900 0.193948 1 4 1.000000
gun_sling
0  2.633018 6.608146 59.546009  -0.295701 0.676130 0.674840  0.378800 0.187448 1 4 1.000000
0  4.235112 6.880654 59.085793  0.233625 0.849171 0.473633  0.266600 0.193948 1 4 1.000000
0  2.695618 6.719446 59.468708  -0.155073 0.812541 0.561898  0.371900 0.193948 1 4 1.000000
gun_sling
0  4.301710 6.931857 58.668392  0.200124 0.977538 0.066113  0.254100 0.218948 1 4 1.000000
0  2.695618 6.719446 59.468708  -0.155073 0.812541 0.561898  0.371900 0.193948 1 4 1.000000
0  4.235112 6.880654 59.085793  0.233625 0.849171 0.473633  0.266600 0.193948 1 4 1.000000
gun_sling
0  4.348213 6.790154 59.115993  0.435698 0.755797 0.488813  0.259700 0.187448 1 4 1.000000
0  4.301710 6.931857 58.668392  0.200124 0.977538 0.066113  0.254100 0.218948 1 4 1.000000
0  4.235112 6.880654 59.085793  0.233625 0.849171 0.473633  0.266600 0.193948 1 4 1.000000
gun_sling
0  4.480409 6.861360 58.609688  0.371888 0.928113 0.017501  0.240900 0.218948 1 4 1.000000
0  4.301710 6.931857 58.668392  0.200124 0.977538 0.066113  0.254100 0.218948 1 4 1.000000
0  4.348213 6.790154 59.115993  0.435698 0.755797 0.488813  0.259700 0.187448 1 4 1.000000
gun_sling
0  4.030797 6.853666 57.528694  0.353930 0.919537 -0.170836  0.240900 0.290048 1 4 1.000000
0  4.301710 6.931857 58.668392  0.200124 0.977538 0.066113  0.254100 0.218948 1 4 1.000000
0  4.480409 6.861360 58.609688  0.371888 0.928113 0.017501  0.240900 0.218948 1 4 1.000000
gun_sling
0  4.348213 6.790154 59.115993  0.435698 0.755797 0.488813  0.259700 0.187448 1 4 1.000000
0  4.235112 6.880654 59.085793  0.233625 0.849171 0.473633  0.266600 0.193948 1 4 1.000000
0  2.633018 6.608146 59.546009  -0.295701 0.676130 0.674840  0.378800 0.187448 1 4 1.000000
gun_sling
0  2.432712 6.731348 59.138611  -0.303949 0.922052 0.239655  0.381100 0.218948 1 4 1.000000
0  2.695618 6.719446 59.468708  -0.155073 0.812541 0.561898  0.371900 0.193948 1 4 1.000000
0  4.301710 6.931857 58.668392  0.200124 0.977538 0.066113  0.254100 0.218948 1 4 1.000000
gun_sling
0  3.863996 6.929063 57.588692  0.137545 0.987466 -0.077406  0.254100 0.290048 1 4 1.000000
0  2.432712 6.731348 59.138611  -0.303949 0.922052 0.239655  0.381100 0.218948 1 4 1.000000
0  4.301710 6.931857 58.668392  0.200124 0.977538 0.066113  0.254100 0.218948 1 4 1.000000
gun_sling
0  2.044503 6.758051 58.237019  -0.293259 0.945137 0.143930  0.381100 0.290048 1 4 1.000000
0  2.432712 6.731348 59.138611  -0.303949 0.922052 0.239655  0.381100 0.218948 1 4 1.000000
0  3.863996 6.929063 57.588692  0.137545 0.987466 -0.077406  0.254100 0.290048 1 4 1.000000
gun_sling
0  2.204163 6.828330 54.423656  0.142854 0.973588 -0.178100  0.254100 0.507448 1 3 1.000000
0  3.310278 6.781574 55.952496  0.387475 0.891489 -0.234756  0.240900 0.394848 1 4 1.000000
0  2.334964 6.743629 54.318066  0.330160 0.890363 -0.313447  0.240900 0.507448 1 3 1.000000
gun_sling
0  3.164479 6.865473 56.030396  0.178221 0.976580 -0.120533  0.254100 0.394848 1 4 1.000000
0  3.310278 6.781574 55.952496  0.387475 0.891489 -0.234756  0.240900 0.394848 1 4 1.000000
0  2.204163 6.828330 54.423656  0.142854 0.973588 -0.178100  0.254100 0.507448 1 3 1.000000
gun_sling
0  3.164479 6.865473 56.030396  0.178221 0.976580 -0.120533  0.254100 0.394848 1 4 1.000000
0  4.030797 6.853666 57.528694  0.353930 0.919537 -0.170836  0.240900 0.290048 1 4 1.000000
0  3.310278 6.781574 55.952496  0.387475 0.891489 -0.234756  0.240900 0.394848 1 4 1.000000
gun_sling
0  2.984161 -5.046472 58.606918  0.309755 -0.782752 0.539769  0.019600 0.072548 1 4 1.000000
0  5.269954 -4.462657 58.141796  0.309760 -0.782727 0.539803  0.170500 0.020448 1 4 1.000000
0  3.241164 -4.559376 59.165821  0.309753 -0.782762 0.539756  0.019600 0.020448 1 4 1.000000
gun_sling
0  5.012946 -4.949753 57.582996  0.309762 -0.782717 0.539816  0.170500 0.072548 1 4 1.000000
0  5.269954 -4.462657 58.141796  0.309760 -0.782727 0.539803  0.170500 0.020448 1 4 1.000000
0  2.984161 -5.046472 58.606918  0.309755 -0.782752 0.539769  0.019600 0.072548 1 4 1.000000
gun_sling
0  -3.728900 -5.810997 51.403534  -0.690197 -0.716199 -0.103375  0.247500 0.020948 1 3 1.000000
0  -3.753501 -5.746997 51.547733  -0.752838 -0.639590 0.155434  0.247500 0.010248 1 3 1.000000
0  -3.922999 -5.242112 51.058132  -0.767076 -0.519245 -0.376800  0.221000 0.041348 1 3 1.000000
gun_sling
0  -3.753501 -5.746997 51.547733  -0.752838 -0.639590 0.155434  0.247500 0.010248 1 3 1.000000
0  -3.728900 -5.810997 51.403534  -0.690197 -0.716199 -0.103375  0.247500 0.020948 1 3 1.000000
0  -2.780804 -6.222734 51.985645  -0.477826 -0.823154 0.306757  0.335700 0.010248 1 3 1.000000
gun_sling
0  -2.780804 -6.222734 51.985645  -0.477826 -0.823154 0.306757  0.335700 0.010248 1 3 1.000000
0  -3.728900 -5.810997 51.403534  -0.690197 -0.716199 -0.103375  0.247500 0.020948 1 3 1.000000
0  -2.751002 -6.291233 51.848644  -0.379755 -0.924890 0.019099  0.335700 0.020948 1 3 1.000000
gun_sling
0  -2.780804 -6.222734 51.985645  -0.477826 -0.823154 0.306757  0.335700 0.010248 1 3 1.000000
0  -2.751002 -6.291233 51.848644  -0.379755 -0.924890 0.019099  0.335700 0.020948 1 3 1.000000
0  -1.008910 -6.761333 52.957458  -0.410852 -0.809536 0.419347  0.487400 0.010248 1 3 1.000000
gun_sling
0  2.457548 -5.990165 57.106915  0.029212 -0.835307 0.549007  0.886600 0.020948 1 4 1.000000
0  3.307227 -6.524747 54.772903  0.375141 -0.926955 0.004756  0.773800 0.148248 1 4 1.000000
0  4.172039 -5.907447 56.209198  0.526904 -0.806648 0.267754  0.886600 0.148248 1 4 1.000000
gun_sling
0  1.651437 -6.539863 55.788422  -0.112093 -0.938267 0.327246  0.773800 0.020948 1 4 1.000000
0  3.307227 -6.524747 54.772903  0.375141 -0.926955 0.004756  0.773800 0.148248 1 4 1.000000
0  2.457548 -5.990165 57.106915  0.029212 -0.835307 0.549007  0.886600 0.020948 1 4 1.000000
gun_sling
0  0.504783 -6.752704 54.186878  -0.168654 -0.953440 0.250016  0.628600 0.020948 1 3 1.000000
0  3.307227 -6.524747 54.772903  0.375141 -0.926955 0.004756  0.773800 0.148248 1 4 1.000000
0  1.651437 -6.539863 55.788422  -0.112093 -0.938267 0.327246  0.773800 0.020948 1 4 1.000000
gun_sling
0  0.504783 -6.752704 54.186878  -0.168654 -0.953440 0.250016  0.628600 0.020948 1 3 1.000000
0  1.651437 -6.539863 55.788422  -0.112093 -0.938267 0.327246  0.773800 0.020948 1 4 1.000000
0  0.412282 -6.660104 54.273468  -0.398485 -0.807102 0.435655  0.628600 0.010248 1 3 1.000000
gun_sling
0  -1.008910 -6.761333 52.957458  -0.410852 -0.809536 0.419347  0.487400 0.010248 1 3 1.000000
0  0.504783 -6.752704 54.186878  -0.168654 -0.953440 0.250016  0.628600 0.020948 1 3 1.000000
0  0.412282 -6.660104 54.273468  -0.398485 -0.807102 0.435655  0.628600 0.010248 1 3 1.000000
gun_sling
0  -0.948308 -6.850232 52.845657  -0.252814 -0.956304 0.146861  0.487400 0.020948 1 3 1.000000
0  0.504783 -6.752704 54.186878  -0.168654 -0.953440 0.250016  0.628600 0.020948 1 3 1.000000
0  -1.008910 -6.761333 52.957458  -0.410852 -0.809536 0.419347  0.487400 0.010248 1 3 1.000000
gun_sling
0  -2.751002 -6.291233 51.848644  -0.379755 -0.924890 0.019099  0.335700 0.020948 1 3 1.000000
0  -0.948308 -6.850232 52.845657  -0.252814 -0.956304 0.146861  0.487400 0.020948 1 3 1.000000
0  -1.008910 -6.761333 52.957458  -0.410852 -0.809536 0.419347  0.487400 0.010248 1 3 1.000000
gun_sling
0  -1.802091 -6.095632 50.204952  -0.122616 -0.857782 -0.499176  0.335700 0.148248 1 3 1.000000
0  -0.948308 -6.850232 52.845657  -0.252814 -0.956304 0.146861  0.487400 0.020948 1 3 1.000000
0  -2.751002 -6.291233 51.848644  -0.379755 -0.924890 0.019099  0.335700 0.020948 1 3 1.000000
gun_sling
0  -2.751002 -6.291233 51.848644  -0.379755 -0.924890 0.019099  0.335700 0.020948 1 3 1.000000
0  -3.728900 -5.810997 51.403534  -0.690197 -0.716199 -0.103375  0.247500 0.020948 1 3 1.000000
0  -1.802091 -6.095632 50.204952  -0.122616 -0.857782 -0.499176  0.335700 0.148248 1 3 1.000000
gun_sling
0  -1.802091 -6.095632 50.204952  -0.122616 -0.857782 -0.499176  0.335700 0.148248 1 3 1.000000
0  -3.728900 -5.810997 51.403534  -0.690197 -0.716199 -0.103375  0.247500 0.020948 1 3 1.000000
0  -2.972288 -5.523299 49.726837  -0.407149 -0.707688 -0.577415  0.247500 0.148248 1 3 1.000000
gun_sling
0  -3.728900 -5.810997 51.403534  -0.690197 -0.716199 -0.103375  0.247500 0.020948 1 3 1.000000
0  -3.922999 -5.242112 51.058132  -0.767076 -0.519245 -0.376800  0.221000 0.041348 1 3 1.000000
0  -2.972288 -5.523299 49.726837  -0.407149 -0.707688 -0.577415  0.247500 0.148248 1 3 1.000000
gun_sling
0  -2.972288 -5.523299 49.726837  -0.407149 -0.707688 -0.577415  0.247500 0.148248 1 3 1.000000
0  -3.922999 -5.242112 51.058132  -0.767076 -0.519245 -0.376800  0.221000 0.041348 1 3 1.000000
0  -3.318690 -5.198179 49.776337  -0.653354 -0.632863 -0.415467  0.221000 0.136848 1 3 1.000000
gun_sling
0  -2.866589 -5.413798 49.599243  -0.255397 -0.618954 -0.742743  0.247500 0.159148 1 3 1.000000
0  -2.972288 -5.523299 49.726837  -0.407149 -0.707688 -0.577415  0.247500 0.148248 1 3 1.000000
0  -3.318690 -5.198179 49.776337  -0.653354 -0.632863 -0.415467  0.221000 0.136848 1 3 1.000000
gun_sling
0  -2.866589 -5.413798 49.599243  -0.255397 -0.618954 -0.742743  0.247500 0.159148 1 3 1.000000
0  -1.697190 -5.997634 50.108353  0.027288 -0.719017 -0.694456  0.335700 0.159148 1 3 1.000000
0  -2.972288 -5.523299 49.726837  -0.407149 -0.707688 -0.577415  0.247500 0.148248 1 3 1.000000
gun_sling
0  -2.972288 -5.523299 49.726837  -0.407149 -0.707688 -0.577415  0.247500 0.148248 1 3 1.000000
0  -1.697190 -5.997634 50.108353  0.027288 -0.719017 -0.694456  0.335700 0.159148 1 3 1.000000
0  -1.802091 -6.095632 50.204952  -0.122616 -0.857782 -0.499176  0.335700 0.148248 1 3 1.000000
gun_sling
0  -1.802091 -6.095632 50.204952  -0.122616 -0.857782 -0.499176  0.335700 0.148248 1 3 1.000000
0  -1.697190 -5.997634 50.108353  0.027288 -0.719017 -0.694456  0.335700 0.159148 1 3 1.000000
0  0.227203 -6.835030 51.303364  0.085844 -0.932659 -0.350398  0.487400 0.148248 1 3 1.000000
gun_sling
0  -0.948308 -6.850232 52.845657  -0.252814 -0.956304 0.146861  0.487400 0.020948 1 3 1.000000
0  -1.802091 -6.095632 50.204952  -0.122616 -0.857782 -0.499176  0.335700 0.148248 1 3 1.000000
0  0.227203 -6.835030 51.303364  0.085844 -0.932659 -0.350398  0.487400 0.148248 1 3 1.000000
gun_sling
0  1.904292 -6.766702 52.851982  0.288712 -0.941894 -0.171701  0.628600 0.148248 1 3 1.000000
0  -0.948308 -6.850232 52.845657  -0.252814 -0.956304 0.146861  0.487400 0.020948 1 3 1.000000
0  0.227203 -6.835030 51.303364  0.085844 -0.932659 -0.350398  0.487400 0.148248 1 3 1.000000
gun_sling
0  0.504783 -6.752704 54.186878  -0.168654 -0.953440 0.250016  0.628600 0.020948 1 3 1.000000
0  -0.948308 -6.850232 52.845657  -0.252814 -0.956304 0.146861  0.487400 0.020948 1 3 1.000000
0  1.904292 -6.766702 52.851982  0.288712 -0.941894 -0.171701  0.628600 0.148248 1 3 1.000000
gun_sling
0  1.904292 -6.766702 52.851982  0.288712 -0.941894 -0.171701  0.628600 0.148248 1 3 1.000000
0  3.307227 -6.524747 54.772903  0.375141 -0.926955 0.004756  0.773800 0.148248 1 4 1.000000
0  0.504783 -6.752704 54.186878  -0.168654 -0.953440 0.250016  0.628600 0.020948 1 3 1.000000
gun_sling
0  1.904292 -6.766702 52.851982  0.288712 -0.941894 -0.171701  0.628600 0.148248 1 3 1.000000
0  3.407124 -6.433847 54.697098  0.591866 -0.788708 -0.166237  0.773800 0.159148 1 4 1.000000
0  3.307227 -6.524747 54.772903  0.375141 -0.926955 0.004756  0.773800 0.148248 1 4 1.000000
gun_sling
0  3.307227 -6.524747 54.772903  0.375141 -0.926955 0.004756  0.773800 0.148248 1 4 1.000000
0  3.407124 -6.433847 54.697098  0.591866 -0.788708 -0.166237  0.773800 0.159148 1 4 1.000000
0  4.172039 -5.907447 56.209198  0.526904 -0.806648 0.267754  0.886600 0.148248 1 4 1.000000
gun_sling
0  4.172039 -5.907447 56.209198  0.526904 -0.806648 0.267754  0.886600 0.148248 1 4 1.000000
0  3.407124 -6.433847 54.697098  0.591866 -0.788708 -0.166237  0.773800 0.159148 1 4 1.000000
0  4.267037 -5.820948 56.109699  0.716898 -0.692261 0.082653  0.886600 0.159148 1 4 1.000000
gun_sling
0  4.172039 -5.907447 56.209198  0.526904 -0.806648 0.267754  0.886600 0.148248 1 4 1.000000
0  4.267037 -5.820948 56.109699  0.716898 -0.692261 0.082653  0.886600 0.159148 1 4 1.000000
0  4.260440 -5.611052 56.581001  0.402647 -0.759678 0.510651  0.918000 0.143448 1 4 1.000000
gun_sling
0  4.260440 -5.611052 56.581001  0.402647 -0.759678 0.510651  0.918000 0.143448 1 4 1.000000
0  2.457548 -5.990165 57.106915  0.029212 -0.835307 0.549007  0.886600 0.020948 1 4 1.000000
0  4.172039 -5.907447 56.209198  0.526904 -0.806648 0.267754  0.886600 0.148248 1 4 1.000000
gun_sling
0  2.685951 -5.686068 57.402817  0.250874 -0.765265 0.592816  0.918000 0.024948 1 4 1.000000
0  2.457548 -5.990165 57.106915  0.029212 -0.835307 0.549007  0.886600 0.020948 1 4 1.000000
0  4.260440 -5.611052 56.581001  0.402647 -0.759678 0.510651  0.918000 0.143448 1 4 1.000000
gun_sling
0  2.298549 -5.916969 57.141220  -0.216711 -0.755997 0.617661  0.886600 0.010248 1 4 1.000000
0  2.457548 -5.990165 57.106915  0.029212 -0.835307 0.549007  0.886600 0.020948 1 4 1.000000
0  2.685951 -5.686068 57.402817  0.250874 -0.765265 0.592816  0.918000 0.024948 1 4 1.000000
gun_sling
0  2.298549 -5.916969 57.141220  -0.216711 -0.755997 0.617661  0.886600 0.010248 1 4 1.000000
0  1.651437 -6.539863 55.788422  -0.112093 -0.938267 0.327246  0.773800 0.020948 1 4 1.000000
0  2.457548 -5.990165 57.106915  0.029212 -0.835307 0.549007  0.886600 0.020948 1 4 1.000000
gun_sling
0  1.529238 -6.452665 55.849319  -0.355072 -0.816068 0.456024  0.773800 0.010248 1 4 1.000000
0  1.651437 -6.539863 55.788422  -0.112093 -0.938267 0.327246  0.773800 0.020948 1 4 1.000000
0  2.298549 -5.916969 57.141220  -0.216711 -0.755997 0.617661  0.886600 0.010248 1 4 1.000000
gun_sling
0  0.412282 -6.660104 54.273468  -0.398485 -0.807102 0.435655  0.628600 0.010248 1 3 1.000000
0  1.651437 -6.539863 55.788422  -0.112093 -0.938267 0.327246  0.773800 0.020948 1 4 1.000000
0  1.529238 -6.452665 55.849319  -0.355072 -0.816068 0.456024  0.773800 0.010248 1 4 1.000000
gun_sling
0  1.992193 -6.674601 52.764580  0.480968 -0.799819 -0.359109  0.628600 0.159148 1 3 1.000000
0  3.407124 -6.433847 54.697098  0.591866 -0.788708 -0.166237  0.773800 0.159148 1 4 1.000000
0  1.904292 -6.766702 52.851982  0.288712 -0.941894 -0.171701  0.628600 0.148248 1 3 1.000000
gun_sling
0  1.904292 -6.766702 52.851982  0.288712 -0.941894 -0.171701  0.628600 0.148248 1 3 1.000000
0  0.318103 -6.742635 51.214867  0.267528 -0.790512 -0.550926  0.487400 0.159148 1 3 1.000000
0  1.992193 -6.674601 52.764580  0.480968 -0.799819 -0.359109  0.628600 0.159148 1 3 1.000000
gun_sling
0  0.227203 -6.835030 51.303364  0.085844 -0.932659 -0.350398  0.487400 0.148248 1 3 1.000000
0  0.318103 -6.742635 51.214867  0.267528 -0.790512 -0.550926  0.487400 0.159148 1 3 1.000000
0  1.904292 -6.766702 52.851982  0.288712 -0.941894 -0.171701  0.628600 0.148248 1 3 1.000000
gun_sling
0  0.227203 -6.835030 51.303364  0.085844 -0.932659 -0.350398  0.487400 0.148248 1 3 1.000000
0  -1.697190 -5.997634 50.108353  0.027288 -0.719017 -0.694456  0.335700 0.159148 1 3 1.000000
0  0.318103 -6.742635 51.214867  0.267528 -0.790512 -0.550926  0.487400 0.159148 1 3 1.000000
gun_sling
0  6.881667 0.038136 61.391033  0.702532 -0.272565 0.657386  0.010100 0.434448 1 4 1.000000
0  6.814363 1.764035 61.938343  0.660543 0.088948 0.745501  0.010100 0.547948 1 4 1.000000
0  6.665868 -0.005066 61.602337  0.471809 -0.313299 0.824160  0.030800 0.434448 1 4 1.000000
gun_sling
0  6.459669 -1.646862 60.930252  0.461175 -0.535448 0.707541  0.030800 0.316648 1 4 1.000000
0  6.881667 0.038136 61.391033  0.702532 -0.272565 0.657386  0.010100 0.434448 1 4 1.000000
0  6.665868 -0.005066 61.602337  0.471809 -0.313299 0.824160  0.030800 0.434448 1 4 1.000000
gun_sling
0  6.671564 -1.610061 60.693153  0.676204 -0.519280 0.522586  0.010100 0.316648 1 4 1.000000
0  6.881667 0.038136 61.391033  0.702532 -0.272565 0.657386  0.010100 0.434448 1 4 1.000000
0  6.459669 -1.646862 60.930252  0.461175 -0.535448 0.707541  0.030800 0.316648 1 4 1.000000
gun_sling
0  5.844659 -3.478862 59.167000  0.426977 -0.746741 0.509969  0.030800 0.176548 1 4 1.000000
0  6.671564 -1.610061 60.693153  0.676204 -0.519280 0.522586  0.010100 0.316648 1 4 1.000000
0  6.459669 -1.646862 60.930252  0.461175 -0.535448 0.707541  0.030800 0.316648 1 4 1.000000
gun_sling
0  6.104656 -3.428757 58.866901  0.570500 -0.738643 0.359078  0.010100 0.176548 1 4 1.000000
0  6.671564 -1.610061 60.693153  0.676204 -0.519280 0.522586  0.010100 0.316648 1 4 1.000000
0  5.844659 -3.478862 59.167000  0.426977 -0.746741 0.509969  0.030800 0.176548 1 4 1.000000
gun_sling
0  5.844659 -3.478862 59.167000  0.426977 -0.746741 0.509969  0.030800 0.176548 1 4 1.000000
0  5.283562 -3.917160 58.879105  0.271327 -0.872785 0.405743  0.060500 0.133248 1 4 1.000000
0  6.104656 -3.428757 58.866901  0.570500 -0.738643 0.359078  0.010100 0.176548 1 4 1.000000
gun_sling
0  6.104656 -3.428757 58.866901  0.570500 -0.738643 0.359078  0.010100 0.176548 1 4 1.000000
0  5.283562 -3.917160 58.879105  0.271327 -0.872785 0.405743  0.060500 0.133248 1 4 1.000000
0  5.291154 -3.998558 58.534798  0.289876 -0.929940 0.226240  0.048500 0.113448 1 4 1.000000
gun_sling
0  5.291154 -3.998558 58.534798  0.289876 -0.929940 0.226240  0.048500 0.113448 1 4 1.000000
0  5.283562 -3.917160 58.879105  0.271327 -0.872785 0.405743  0.060500 0.133248 1 4 1.000000
0  3.489664 -3.872573 59.445530  -0.130637 -0.865518 0.483542  0.184700 0.113448 1 4 1.000000
gun_sling
0  3.489664 -3.872573 59.445530  -0.130637 -0.865518 0.483542  0.184700 0.113448 1 4 1.000000
0  5.283562 -3.917160 58.879105  0.271327 -0.872785 0.405743  0.060500 0.133248 1 4 1.000000
0  3.663566 -3.765071 59.678326  -0.034724 -0.751980 0.658271  0.180000 0.133248 1 4 1.000000
gun_sling
0  3.663566 -3.765071 59.678326  -0.034724 -0.751980 0.658271  0.180000 0.133248 1 4 1.000000
0  3.272069 -3.036380 60.125233  -0.343181 -0.621108 0.704594  0.222800 0.176548 1 4 1.000000
0  3.489664 -3.872573 59.445530  -0.130637 -0.865518 0.483542  0.184700 0.113448 1 4 1.000000
gun_sling
0  3.576669 -3.171175 60.148533  -0.075157 -0.668912 0.739532  0.202800 0.176548 1 4 1.000000
0  3.272069 -3.036380 60.125233  -0.343181 -0.621108 0.704594  0.222800 0.176548 1 4 1.000000
0  3.663566 -3.765071 59.678326  -0.034724 -0.751980 0.658271  0.180000 0.133248 1 4 1.000000
gun_sling
0  3.907274 -1.580183 61.700581  -0.046537 -0.497293 0.866334  0.202800 0.316648 1 4 1.000000
0  3.272069 -3.036380 60.125233  -0.343181 -0.621108 0.704594  0.222800 0.176548 1 4 1.000000
0  3.576669 -3.171175 60.148533  -0.075157 -0.668912 0.739532  0.202800 0.176548 1 4 1.000000
gun_sling
0  3.576669 -3.171175 60.148533  -0.075157 -0.668912 0.739532  0.202800 0.176548 1 4 1.000000
0  6.459669 -1.646862 60.930252  0.461175 -0.535448 0.707541  0.030800 0.316648 1 4 1.000000
0  3.907274 -1.580183 61.700581  -0.046537 -0.497293 0.866334  0.202800 0.316648 1 4 1.000000
gun_sling
0  6.459669 -1.646862 60.930252  0.461175 -0.535448 0.707541  0.030800 0.316648 1 4 1.000000
0  4.052073 -0.103582 62.104080  0.113483 -0.252730 0.960859  0.202800 0.434448 1 4 1.000000
0  3.907274 -1.580183 61.700581  -0.046537 -0.497293 0.866334  0.202800 0.316648 1 4 1.000000
gun_sling
0  6.665868 -0.005066 61.602337  0.471809 -0.313299 0.824160  0.030800 0.434448 1 4 1.000000
0  4.052073 -0.103582 62.104080  0.113483 -0.252730 0.960859  0.202800 0.434448 1 4 1.000000
0  6.459669 -1.646862 60.930252  0.461175 -0.535448 0.707541  0.030800 0.316648 1 4 1.000000
gun_sling
0  6.597167 1.726433 62.133549  0.414277 0.049548 0.908801  0.030800 0.547948 1 4 1.000000
0  4.052073 -0.103582 62.104080  0.113483 -0.252730 0.960859  0.202800 0.434448 1 4 1.000000
0  6.665868 -0.005066 61.602337  0.471809 -0.313299 0.824160  0.030800 0.434448 1 4 1.000000
gun_sling
0  6.665868 -0.005066 61.602337  0.471809 -0.313299 0.824160  0.030800 0.434448 1 4 1.000000
0  6.814363 1.764035 61.938343  0.660543 0.088948 0.745501  0.010100 0.547948 1 4 1.000000
0  6.597167 1.726433 62.133549  0.414277 0.049548 0.908801  0.030800 0.547948 1 4 1.000000
gun_sling
0  6.597167 1.726433 62.133549  0.414277 0.049548 0.908801  0.030800 0.547948 1 4 1.000000
0  6.814363 1.764035 61.938343  0.660543 0.088948 0.745501  0.010100 0.547948 1 4 1.000000
0  6.304657 2.941635 61.773071  0.383580 0.382722 0.840470  0.030800 0.624348 1 4 1.000000
gun_sling
0  6.304657 2.941635 61.773071  0.383580 0.382722 0.840470  0.030800 0.624348 1 4 1.000000
0  6.814363 1.764035 61.938343  0.660543 0.088948 0.745501  0.010100 0.547948 1 4 1.000000
0  6.512156 2.990639 61.567974  0.588317 0.421025 0.690377  0.010100 0.624348 1 4 1.000000
gun_sling
0  3.663566 -3.765071 59.678326  -0.034724 -0.751980 0.658271  0.180000 0.133248 1 4 1.000000
0  5.283562 -3.917160 58.879105  0.271327 -0.872785 0.405743  0.060500 0.133248 1 4 1.000000
0  3.576669 -3.171175 60.148533  -0.075157 -0.668912 0.739532  0.202800 0.176548 1 4 1.000000
gun_sling
0  3.576669 -3.171175 60.148533  -0.075157 -0.668912 0.739532  0.202800 0.176548 1 4 1.000000
0  5.283562 -3.917160 58.879105  0.271327 -0.872785 0.405743  0.060500 0.133248 1 4 1.000000
0  5.844659 -3.478862 59.167000  0.426977 -0.746741 0.509969  0.030800 0.176548 1 4 1.000000
gun_sling
0  5.844659 -3.478862 59.167000  0.426977 -0.746741 0.509969  0.030800 0.176548 1 4 1.000000
0  6.459669 -1.646862 60.930252  0.461175 -0.535448 0.707541  0.030800 0.316648 1 4 1.000000
0  3.576669 -3.171175 60.148533  -0.075157 -0.668912 0.739532  0.202800 0.176548 1 4 1.000000
gun_sling
0  3.637274 -1.509683 61.618382  -0.366228 -0.458398 0.809783  0.222800 0.316648 1 4 1.000000
0  3.272069 -3.036380 60.125233  -0.343181 -0.621108 0.704594  0.222800 0.176548 1 4 1.000000
0  3.907274 -1.580183 61.700581  -0.046537 -0.497293 0.866334  0.202800 0.316648 1 4 1.000000
gun_sling
0  3.907274 -1.580183 61.700581  -0.046537 -0.497293 0.866334  0.202800 0.316648 1 4 1.000000
0  3.761408 -0.136328 62.108929  0.017379 -0.219952 0.975356  0.222800 0.434448 1 4 1.000000
0  3.637274 -1.509683 61.618382  -0.366228 -0.458398 0.809783  0.222800 0.316648 1 4 1.000000
gun_sling
0  4.052073 -0.103582 62.104080  0.113483 -0.252730 0.960859  0.202800 0.434448 1 4 1.000000
0  3.761408 -0.136328 62.108929  0.017379 -0.219952 0.975356  0.222800 0.434448 1 4 1.000000
0  3.907274 -1.580183 61.700581  -0.046537 -0.497293 0.866334  0.202800 0.316648 1 4 1.000000
gun_sling
0  3.761408 -0.136328 62.108929  0.017379 -0.219952 0.975356  0.222800 0.434448 1 4 1.000000
0  4.052073 -0.103582 62.104080  0.113483 -0.252730 0.960859  0.202800 0.434448 1 4 1.000000
0  3.743670 1.453017 62.362675  -0.450772 -0.120532 0.884464  0.222800 0.547948 1 4 1.000000
gun_sling
0  3.513263 2.405021 62.058998  -0.795972 -0.078844 0.600177  0.222800 0.624348 1 4 1.000000
0  3.743670 1.453017 62.362675  -0.450772 -0.120532 0.884464  0.222800 0.547948 1 4 1.000000
0  3.778065 2.460920 62.417896  -0.304210 0.116188 0.945493  0.202800 0.624348 1 4 1.000000
gun_sling
0  3.778065 2.460920 62.417896  -0.304210 0.116188 0.945493  0.202800 0.624348 1 4 1.000000
0  3.743670 1.453017 62.362675  -0.450772 -0.120532 0.884464  0.222800 0.547948 1 4 1.000000
0  4.014071 1.463818 62.489376  -0.103519 -0.079587 0.991438  0.202800 0.547948 1 4 1.000000
gun_sling
0  3.743670 1.453017 62.362675  -0.450772 -0.120532 0.884464  0.222800 0.547948 1 4 1.000000
0  4.052073 -0.103582 62.104080  0.113483 -0.252730 0.960859  0.202800 0.434448 1 4 1.000000
0  4.014071 1.463818 62.489376  -0.103519 -0.079587 0.991438  0.202800 0.547948 1 4 1.000000
gun_sling
0  4.014071 1.463818 62.489376  -0.103519 -0.079587 0.991438  0.202800 0.547948 1 4 1.000000
0  4.052073 -0.103582 62.104080  0.113483 -0.252730 0.960859  0.202800 0.434448 1 4 1.000000
0  6.597167 1.726433 62.133549  0.414277 0.049548 0.908801  0.030800 0.547948 1 4 1.000000
gun_sling
0  6.597167 1.726433 62.133549  0.414277 0.049548 0.908801  0.030800 0.547948 1 4 1.000000
0  6.304657 2.941635 61.773071  0.383580 0.382722 0.840470  0.030800 0.624348 1 4 1.000000
0  4.014071 1.463818 62.489376  -0.103519 -0.079587 0.991438  0.202800 0.547948 1 4 1.000000
gun_sling
0  4.014071 1.463818 62.489376  -0.103519 -0.079587 0.991438  0.202800 0.547948 1 4 1.000000
0  6.304657 2.941635 61.773071  0.383580 0.382722 0.840470  0.030800 0.624348 1 4 1.000000
0  3.778065 2.460920 62.417896  -0.304210 0.116188 0.945493  0.202800 0.624348 1 4 1.000000
gun_sling
0  5.871144 4.118743 61.330208  0.281594 0.627024 0.726324  0.030800 0.709048 1 4 1.000000
0  3.778065 2.460920 62.417896  -0.304210 0.116188 0.945493  0.202800 0.624348 1 4 1.000000
0  6.304657 2.941635 61.773071  0.383580 0.382722 0.840470  0.030800 0.624348 1 4 1.000000
gun_sling
0  3.411458 3.425623 62.146626  -0.399627 0.383079 0.832795  0.202800 0.709048 1 4 1.000000
0  3.778065 2.460920 62.417896  -0.304210 0.116188 0.945493  0.202800 0.624348 1 4 1.000000
0  5.871144 4.118743 61.330208  0.281594 0.627024 0.726324  0.030800 0.709048 1 4 1.000000
gun_sling
0  5.871144 4.118743 61.330208  0.281594 0.627024 0.726324  0.030800 0.709048 1 4 1.000000
0  3.009444 4.274529 60.940186  -0.253365 0.603897 0.755721  0.202800 0.791848 1 4 1.000000
0  3.411458 3.425623 62.146626  -0.399627 0.383079 0.832795  0.202800 0.709048 1 4 1.000000
gun_sling
0  5.396432 5.047849 60.197468  0.307646 0.622409 0.719696  0.030800 0.791848 1 4 1.000000
0  3.009444 4.274529 60.940186  -0.253365 0.603897 0.755721  0.202800 0.791848 1 4 1.000000
0  5.871144 4.118743 61.330208  0.281594 0.627024 0.726324  0.030800 0.709048 1 4 1.000000
gun_sling
0  5.396432 5.047849 60.197468  0.307646 0.622409 0.719696  0.030800 0.791848 1 4 1.000000
0  4.948526 6.059853 60.015484  0.369836 0.268022 0.889599  0.030800 0.867948 1 4 1.000000
0  3.009444 4.274529 60.940186  -0.253365 0.603897 0.755721  0.202800 0.791848 1 4 1.000000
gun_sling
0  3.009444 4.274529 60.940186  -0.253365 0.603897 0.755721  0.202800 0.791848 1 4 1.000000
0  4.948526 6.059853 60.015484  0.369836 0.268022 0.889599  0.030800 0.867948 1 4 1.000000
0  2.580232 5.183037 60.212601  -0.218883 0.228590 0.948597  0.202800 0.867948 1 4 1.000000
gun_sling
0  4.948526 6.059853 60.015484  0.369836 0.268022 0.889599  0.030800 0.867948 1 4 1.000000
0  4.731425 6.253849 60.076382  0.200470 0.249521 0.947392  0.043100 0.884648 1 4 1.000000
0  2.580232 5.183037 60.212601  -0.218883 0.228590 0.948597  0.202800 0.867948 1 4 1.000000
gun_sling
0  6.304657 2.941635 61.773071  0.383580 0.382722 0.840470  0.030800 0.624348 1 4 1.000000
0  6.512156 2.990639 61.567974  0.588317 0.421025 0.690377  0.010100 0.624348 1 4 1.000000
0  5.871144 4.118743 61.330208  0.281594 0.627024 0.726324  0.030800 0.709048 1 4 1.000000
gun_sling
0  5.871144 4.118743 61.330208  0.281594 0.627024 0.726324  0.030800 0.709048 1 4 1.000000
0  6.512156 2.990639 61.567974  0.588317 0.421025 0.690377  0.010100 0.624348 1 4 1.000000
0  6.070242 4.186843 61.095810  0.444231 0.685000 0.577437  0.010100 0.709048 1 4 1.000000
gun_sling
0  5.871144 4.118743 61.330208  0.281594 0.627024 0.726324  0.030800 0.709048 1 4 1.000000
0  6.070242 4.186843 61.095810  0.444231 0.685000 0.577437  0.010100 0.709048 1 4 1.000000
0  5.396432 5.047849 60.197468  0.307646 0.622409 0.719696  0.030800 0.791848 1 4 1.000000
gun_sling
0  5.396432 5.047849 60.197468  0.307646 0.622409 0.719696  0.030800 0.791848 1 4 1.000000
0  6.070242 4.186843 61.095810  0.444231 0.685000 0.577437  0.010100 0.709048 1 4 1.000000
0  5.592029 5.141954 59.933666  0.539940 0.556505 0.631480  0.010100 0.791848 1 4 1.000000
gun_sling
0  5.396432 5.047849 60.197468  0.307646 0.622409 0.719696  0.030800 0.791848 1 4 1.000000
0  5.592029 5.141954 59.933666  0.539940 0.556505 0.631480  0.010100 0.791848 1 4 1.000000
0  4.948526 6.059853 60.015484  0.369836 0.268022 0.889599  0.030800 0.867948 1 4 1.000000
gun_sling
0  4.948526 6.059853 60.015484  0.369836 0.268022 0.889599  0.030800 0.867948 1 4 1.000000
0  5.592029 5.141954 59.933666  0.539940 0.556505 0.631480  0.010100 0.791848 1 4 1.000000
0  5.162823 6.166050 59.837879  0.508300 0.314822 0.801572  0.010100 0.867948 1 4 1.000000
gun_sling
0  5.162823 6.166050 59.837879  0.508300 0.314822 0.801572  0.010100 0.867948 1 4 1.000000
0  4.761723 6.482648 59.948589  0.229541 0.446977 0.864594  0.034200 0.898948 1 4 1.000000
0  4.948526 6.059853 60.015484  0.369836 0.268022 0.889599  0.030800 0.867948 1 4 1.000000
gun_sling
0  4.948526 6.059853 60.015484  0.369836 0.268022 0.889599  0.030800 0.867948 1 4 1.000000
0  4.761723 6.482648 59.948589  0.229541 0.446977 0.864594  0.034200 0.898948 1 4 1.000000
0  4.731425 6.253849 60.076382  0.200470 0.249521 0.947392  0.043100 0.884648 1 4 1.000000
gun_sling
0  4.731425 6.253849 60.076382  0.200470 0.249521 0.947392  0.043100 0.884648 1 4 1.000000
0  4.761723 6.482648 59.948589  0.229541 0.446977 0.864594  0.034200 0.898948 1 4 1.000000
0  2.549431 5.475436 60.252705  -0.179845 0.148849 0.972368  0.196200 0.884648 1 4 1.000000
gun_sling
0  2.580232 5.183037 60.212601  -0.218883 0.228590 0.948597  0.202800 0.867948 1 4 1.000000
0  4.731425 6.253849 60.076382  0.200470 0.249521 0.947392  0.043100 0.884648 1 4 1.000000
0  2.549431 5.475436 60.252705  -0.179845 0.148849 0.972368  0.196200 0.884648 1 4 1.000000
gun_sling
0  2.288429 5.563337 60.137806  -0.283285 0.196365 0.938717  0.209900 0.898948 1 4 1.000000
0  2.580232 5.183037 60.212601  -0.218883 0.228590 0.948597  0.202800 0.867948 1 4 1.000000
0  2.549431 5.475436 60.252705  -0.179845 0.148849 0.972368  0.196200 0.884648 1 4 1.000000
gun_sling
0  2.302532 5.042435 60.148899  -0.341184 0.265334 0.901771  0.222800 0.867948 1 4 1.000000
0  2.580232 5.183037 60.212601  -0.218883 0.228590 0.948597  0.202800 0.867948 1 4 1.000000
0  2.288429 5.563337 60.137806  -0.283285 0.196365 0.938717  0.209900 0.898948 1 4 1.000000
gun_sling
0  2.302532 5.042435 60.148899  -0.341184 0.265334 0.901771  0.222800 0.867948 1 4 1.000000
0  2.740444 4.168930 60.865788  -0.409349 0.504141 0.760444  0.222800 0.791848 1 4 1.000000
0  2.580232 5.183037 60.212601  -0.218883 0.228590 0.948597  0.202800 0.867948 1 4 1.000000
gun_sling
0  2.580232 5.183037 60.212601  -0.218883 0.228590 0.948597  0.202800 0.867948 1 4 1.000000
0  2.740444 4.168930 60.865788  -0.409349 0.504141 0.760444  0.222800 0.791848 1 4 1.000000
0  3.009444 4.274529 60.940186  -0.253365 0.603897 0.755721  0.202800 0.791848 1 4 1.000000
gun_sling
0  2.740444 4.168930 60.865788  -0.409349 0.504141 0.760444  0.222800 0.791848 1 4 1.000000
0  3.155256 3.330824 61.793140  -0.802158 0.175432 0.570759  0.222800 0.709048 1 4 1.000000
0  3.009444 4.274529 60.940186  -0.253365 0.603897 0.755721  0.202800 0.791848 1 4 1.000000
gun_sling
0  3.009444 4.274529 60.940186  -0.253365 0.603897 0.755721  0.202800 0.791848 1 4 1.000000
0  3.155256 3.330824 61.793140  -0.802158 0.175432 0.570759  0.222800 0.709048 1 4 1.000000
0  3.411458 3.425623 62.146626  -0.399627 0.383079 0.832795  0.202800 0.709048 1 4 1.000000
gun_sling
0  3.155256 3.330824 61.793140  -0.802158 0.175432 0.570759  0.222800 0.709048 1 4 1.000000
0  3.513263 2.405021 62.058998  -0.795972 -0.078844 0.600177  0.222800 0.624348 1 4 1.000000
0  3.411458 3.425623 62.146626  -0.399627 0.383079 0.832795  0.202800 0.709048 1 4 1.000000
gun_sling
0  3.411458 3.425623 62.146626  -0.399627 0.383079 0.832795  0.202800 0.709048 1 4 1.000000
0  3.513263 2.405021 62.058998  -0.795972 -0.078844 0.600177  0.222800 0.624348 1 4 1.000000
0  3.778065 2.460920 62.417896  -0.304210 0.116188 0.945493  0.202800 0.624348 1 4 1.000000
gun_sling
0  2.549431 5.475436 60.252705  -0.179845 0.148849 0.972368  0.196200 0.884648 1 4 1.000000
0  4.761723 6.482648 59.948589  0.229541 0.446977 0.864594  0.034200 0.898948 1 4 1.000000
0  2.288429 5.563337 60.137806  -0.283285 0.196365 0.938717  0.209900 0.898948 1 4 1.000000
gun_sling
0  -2.038911 5.171013 51.220226  -0.439513 0.783853 -0.438637  0.852300 0.920648 1 3 1.000000
0  -3.053909 4.406210 50.870522  -0.534919 0.752119 -0.384941  0.767200 0.920648 1 3 1.000000
0  -2.649519 5.302614 52.067219  -0.492313 0.768274 -0.409125  0.852300 0.990148 1 3 1.000000
gun_sling
0  -2.649519 5.302614 52.067219  -0.492313 0.768274 -0.409125  0.852300 0.990148 1 3 1.000000
0  -3.053909 4.406210 50.870522  -0.534919 0.752119 -0.384941  0.767200 0.920648 1 3 1.000000
0  -3.554616 4.479909 51.785618  -0.589633 0.731289 -0.342855  0.767200 0.990148 1 3 1.000000
gun_sling
0  -4.306504 3.258306 50.484314  -0.691029 0.675806 -0.256445  0.653500 0.920648 1 3 1.000000
0  -3.554616 4.479909 51.785618  -0.589633 0.731289 -0.342855  0.767200 0.990148 1 3 1.000000
0  -3.053909 4.406210 50.870522  -0.534919 0.752119 -0.384941  0.767200 0.920648 1 3 1.000000
gun_sling
0  -4.654911 3.225506 51.470009  -0.723549 0.654476 -0.219403  0.653500 0.990148 1 3 1.000000
0  -3.554616 4.479909 51.785618  -0.589633 0.731289 -0.342855  0.767200 0.990148 1 3 1.000000
0  -4.306504 3.258306 50.484314  -0.691029 0.675806 -0.256445  0.653500 0.920648 1 3 1.000000
gun_sling
0  -4.306504 3.258306 50.484314  -0.691029 0.675806 -0.256445  0.653500 0.920648 1 3 1.000000
0  -5.352499 1.961600 50.126610  -0.855220 0.479548 -0.196551  0.542200 0.920648 1 3 1.000000
0  -4.654911 3.225506 51.470009  -0.723549 0.654476 -0.219403  0.653500 0.990148 1 3 1.000000
gun_sling
0  -4.654911 3.225506 51.470009  -0.723549 0.654476 -0.219403  0.653500 0.990148 1 3 1.000000
0  -5.352499 1.961600 50.126610  -0.855220 0.479548 -0.196551  0.542200 0.920648 1 3 1.000000
0  -5.612607 1.920003 51.145309  -0.862001 0.465311 -0.201098  0.542200 0.990148 1 3 1.000000
gun_sling
0  -5.352499 1.961600 50.126610  -0.855220 0.479548 -0.196551  0.542200 0.920648 1 3 1.000000
0  -6.019602 0.495199 50.919010  -0.967537 0.178022 -0.179387  0.443700 0.990148 1 3 1.000000
0  -5.612607 1.920003 51.145309  -0.862001 0.465311 -0.201098  0.542200 0.990148 1 3 1.000000
gun_sling
0  -5.843841 0.607774 49.994041  -0.968282 0.194984 -0.156244  0.443700 0.920648 1 3 1.000000
0  -6.019602 0.495199 50.919010  -0.967537 0.178022 -0.179387  0.443700 0.990148 1 3 1.000000
0  -5.352499 1.961600 50.126610  -0.855220 0.479548 -0.196551  0.542200 0.920648 1 3 1.000000
gun_sling
0  -5.843841 0.607774 49.994041  -0.968282 0.194984 -0.156244  0.443700 0.920648 1 3 1.000000
0  -6.019301 -0.991603 50.734409  -0.983365 -0.045896 -0.175747  0.345000 0.990148 1 3 1.000000
0  -6.019602 0.495199 50.919010  -0.967537 0.178022 -0.179387  0.443700 0.990148 1 3 1.000000
gun_sling
0  -5.864042 -0.857533 49.809402  -0.979801 -0.051898 -0.193124  0.345000 0.920648 1 3 1.000000
0  -6.019301 -0.991603 50.734409  -0.983365 -0.045896 -0.175747  0.345000 0.990148 1 3 1.000000
0  -5.843841 0.607774 49.994041  -0.968282 0.194984 -0.156244  0.443700 0.920648 1 3 1.000000
gun_sling
0  -6.019301 -0.991603 50.734409  -0.983365 -0.045896 -0.175747  0.345000 0.990148 1 3 1.000000
0  -5.864042 -0.857533 49.809402  -0.979801 -0.051898 -0.193124  0.345000 0.920648 1 3 1.000000
0  -5.800097 -2.512010 50.560814  -0.912188 -0.288167 -0.291330  0.242900 0.990148 1 3 1.000000
gun_sling
0  -5.800097 -2.512010 50.560814  -0.912188 -0.288167 -0.291330  0.242900 0.990148 1 3 1.000000
0  -5.864042 -0.857533 49.809402  -0.979801 -0.051898 -0.193124  0.345000 0.920648 1 3 1.000000
0  -5.534393 -2.386711 49.673813  -0.901741 -0.300631 -0.310619  0.242900 0.920648 1 3 1.000000
gun_sling
0  -5.534393 -2.386711 49.673813  -0.901741 -0.300631 -0.310619  0.242900 0.920648 1 3 1.000000
0  -5.102296 -3.917713 50.534725  -0.775017 -0.550286 -0.310697  0.138500 0.990148 1 3 1.000000
0  -5.800097 -2.512010 50.560814  -0.912188 -0.288167 -0.291330  0.242900 0.990148 1 3 1.000000
gun_sling
0  -4.720989 -3.998018 49.570126  -0.727907 -0.644480 -0.234089  0.138500 0.920648 1 3 1.000000
0  -5.102296 -3.917713 50.534725  -0.775017 -0.550286 -0.310697  0.138500 0.990148 1 3 1.000000
0  -5.534393 -2.386711 49.673813  -0.901741 -0.300631 -0.310619  0.242900 0.920648 1 3 1.000000
gun_sling
0  -3.959889 -4.615814 49.742630  -0.608316 -0.711790 -0.351150  0.061400 0.920648 1 3 1.000000
0  -5.102296 -3.917713 50.534725  -0.775017 -0.550286 -0.310697  0.138500 0.990148 1 3 1.000000
0  -4.720989 -3.998018 49.570126  -0.727907 -0.644480 -0.234089  0.138500 0.920648 1 3 1.000000
gun_sling
0  -4.377995 -4.805219 50.689629  -0.607181 -0.701875 -0.372428  0.061400 0.990148 1 3 1.000000
0  -5.102296 -3.917713 50.534725  -0.775017 -0.550286 -0.310697  0.138500 0.990148 1 3 1.000000
0  -3.959889 -4.615814 49.742630  -0.608316 -0.711790 -0.351150  0.061400 0.920648 1 3 1.000000
gun_sling
0  -3.959889 -4.615814 49.742630  -0.608316 -0.711790 -0.351150  0.061400 0.920648 1 3 1.000000
0  -3.364791 -5.219996 49.982437  -0.551212 -0.760218 -0.343852  0.010000 0.920648 1 3 1.000000
0  -4.377995 -4.805219 50.689629  -0.607181 -0.701875 -0.372428  0.061400 0.990148 1 3 1.000000
gun_sling
0  -4.377995 -4.805219 50.689629  -0.607181 -0.701875 -0.372428  0.061400 0.990148 1 3 1.000000
0  -3.364791 -5.219996 49.982437  -0.551212 -0.760218 -0.343852  0.010000 0.920648 1 3 1.000000
0  -3.782897 -5.263566 50.929531  -0.518493 -0.812565 -0.266277  0.010000 0.990148 1 3 1.000000
gun_sling
0  3.903322 6.446524 60.049698  0.007868 0.090586 0.995858  0.715000 0.233048 1 4 1.000000
0  3.246827 5.867342 60.080521  0.009058 0.042890 0.999039  0.689200 0.180148 1 4 1.000000
0  4.020825 6.095949 60.047409  0.040651 0.007100 0.999148  0.689200 0.233048 1 4 1.000000
gun_sling
0  3.122425 6.375582 60.050953  0.041909 0.025405 0.998798  0.715000 0.180148 1 4 1.000000
0  3.246827 5.867342 60.080521  0.009058 0.042890 0.999039  0.689200 0.180148 1 4 1.000000
0  3.903322 6.446524 60.049698  0.007868 0.090586 0.995858  0.715000 0.233048 1 4 1.000000
gun_sling
0  3.826421 6.746254 59.995586  -0.063082 0.753524 0.654387  0.732100 0.233048 1 4 1.000000
0  3.122425 6.375582 60.050953  0.041909 0.025405 0.998798  0.715000 0.180148 1 4 1.000000
0  3.903322 6.446524 60.049698  0.007868 0.090586 0.995858  0.715000 0.233048 1 4 1.000000
gun_sling
0  3.038622 6.669592 60.074970  -0.047199 0.801942 0.595534  0.732100 0.180148 1 4 1.000000
0  3.122425 6.375582 60.050953  0.041909 0.025405 0.998798  0.715000 0.180148 1 4 1.000000
0  3.826421 6.746254 59.995586  -0.063082 0.753524 0.654387  0.732100 0.233048 1 4 1.000000
gun_sling
0  3.763117 6.671949 59.444500  -0.131206 0.991001 0.026477  0.748400 0.233048 1 4 1.000000
0  3.038622 6.669592 60.074970  -0.047199 0.801942 0.595534  0.732100 0.180148 1 4 1.000000
0  3.826421 6.746254 59.995586  -0.063082 0.753524 0.654387  0.732100 0.233048 1 4 1.000000
gun_sling
0  2.975019 6.551344 59.529308  -0.132543 0.990624 0.033099  0.748400 0.180148 1 4 1.000000
0  3.038622 6.669592 60.074970  -0.047199 0.801942 0.595534  0.732100 0.180148 1 4 1.000000
0  3.763117 6.671949 59.444500  -0.131206 0.991001 0.026477  0.748400 0.233048 1 4 1.000000
gun_sling
0  3.763117 6.671949 59.444500  -0.131206 0.991001 0.026477  0.748400 0.233048 1 4 1.000000
0  3.691612 6.754935 59.009804  -0.108789 0.967322 0.229026  0.777100 0.233048 1 4 1.000000
0  2.975019 6.551344 59.529308  -0.132543 0.990624 0.033099  0.748400 0.180148 1 4 1.000000
gun_sling
0  2.975019 6.551344 59.529308  -0.132543 0.990624 0.033099  0.748400 0.180148 1 4 1.000000
0  3.691612 6.754935 59.009804  -0.108789 0.967322 0.229026  0.777100 0.233048 1 4 1.000000
0  2.925313 6.671173 59.101509  -0.071624 0.958271 0.276742  0.777100 0.180148 1 4 1.000000
gun_sling
0  3.587739 -5.940312 56.301510  0.310977 -0.798591 0.515311  0.430400 0.235148 1 4 1.000000
0  3.098647 -5.593962 57.133411  0.284025 -0.841269 0.459996  0.468200 0.181948 1 4 1.000000
0  2.871843 -5.979121 56.673313  0.310907 -0.798632 0.515290  0.430400 0.181948 1 4 1.000000
gun_sling
0  3.814643 -5.555154 56.761410  0.283991 -0.841950 0.458770  0.468200 0.235148 1 4 1.000000
0  3.098647 -5.593962 57.133411  0.284025 -0.841269 0.459996  0.468200 0.181948 1 4 1.000000
0  3.587739 -5.940312 56.301510  0.310977 -0.798591 0.515311  0.430400 0.235148 1 4 1.000000
gun_sling
0  3.814643 -5.555154 56.761410  0.283991 -0.841950 0.458770  0.468200 0.235148 1 4 1.000000
0  3.998746 -5.329358 57.140701  0.257606 -0.876597 0.406468  0.500000 0.235148 1 4 1.000000
0  3.098647 -5.593962 57.133411  0.284025 -0.841269 0.459996  0.468200 0.181948 1 4 1.000000
gun_sling
0  3.098647 -5.593962 57.133411  0.284025 -0.841269 0.459996  0.468200 0.181948 1 4 1.000000
0  3.998746 -5.329358 57.140701  0.257606 -0.876597 0.406468  0.500000 0.235148 1 4 1.000000
0  3.282950 -5.366866 57.512512  0.257054 -0.874935 0.410381  0.500000 0.181948 1 4 1.000000
gun_sling
0  4.185449 -5.090253 57.529701  0.271121 -0.854374 0.443326  0.532800 0.235148 1 4 1.000000
0  3.282950 -5.366866 57.512512  0.257054 -0.874935 0.410381  0.500000 0.181948 1 4 1.000000
0  3.998746 -5.329358 57.140701  0.257606 -0.876597 0.406468  0.500000 0.235148 1 4 1.000000
gun_sling
0  3.469954 -5.122765 57.901413  0.271335 -0.855336 0.441336  0.532800 0.181948 1 4 1.000000
0  3.282950 -5.366866 57.512512  0.257054 -0.874935 0.410381  0.500000 0.181948 1 4 1.000000
0  4.185449 -5.090253 57.529701  0.271121 -0.854374 0.443326  0.532800 0.235148 1 4 1.000000
gun_sling
0  4.185449 -5.090253 57.529701  0.271121 -0.854374 0.443326  0.532800 0.235148 1 4 1.000000
0  4.340847 -4.845459 57.870407  0.291359 -0.829547 0.476404  0.562400 0.235148 1 4 1.000000
0  3.469954 -5.122765 57.901413  0.271335 -0.855336 0.441336  0.532800 0.181948 1 4 1.000000
gun_sling
0  3.469954 -5.122765 57.901413  0.271335 -0.855336 0.441336  0.532800 0.181948 1 4 1.000000
0  4.340847 -4.845459 57.870407  0.291359 -0.829547 0.476404  0.562400 0.235148 1 4 1.000000
0  3.639556 -4.884266 58.236511  0.289770 -0.820154 0.493337  0.562400 0.181948 1 4 1.000000
gun_sling
0  4.482554 -4.610861 58.179005  0.311651 -0.768528 0.558783  0.590500 0.235148 1 4 1.000000
0  3.639556 -4.884266 58.236511  0.289770 -0.820154 0.493337  0.562400 0.181948 1 4 1.000000
0  4.340847 -4.845459 57.870407  0.291359 -0.829547 0.476404  0.562400 0.235148 1 4 1.000000
gun_sling
0  3.773058 -4.614066 58.552608  0.302132 -0.740572 0.600224  0.590500 0.181948 1 4 1.000000
0  3.639556 -4.884266 58.236511  0.289770 -0.820154 0.493337  0.562400 0.181948 1 4 1.000000
0  4.482554 -4.610861 58.179005  0.311651 -0.768528 0.558783  0.590500 0.235148 1 4 1.000000
gun_sling
0  4.482554 -4.610861 58.179005  0.311651 -0.768528 0.558783  0.590500 0.235148 1 4 1.000000
0  4.670558 -4.153563 58.617611  0.301528 -0.698410 0.649080  0.637000 0.235148 1 4 1.000000
0  3.773058 -4.614066 58.552608  0.302132 -0.740572 0.600224  0.590500 0.181948 1 4 1.000000
gun_sling
0  3.773058 -4.614066 58.552608  0.302132 -0.740572 0.600224  0.590500 0.181948 1 4 1.000000
0  4.670558 -4.153563 58.617611  0.301528 -0.698410 0.649080  0.637000 0.235148 1 4 1.000000
0  3.974361 -4.068969 59.010914  0.293635 -0.699742 0.651261  0.637000 0.181948 1 4 1.000000
gun_sling
0  4.670558 -4.153563 58.617611  0.301528 -0.698410 0.649080  0.637000 0.235148 1 4 1.000000
0  4.779757 -3.850963 58.889690  0.288355 -0.704961 0.647983  0.661900 0.235148 1 4 1.000000
0  3.974361 -4.068969 59.010914  0.293635 -0.699742 0.651261  0.637000 0.181948 1 4 1.000000
gun_sling
0  3.974361 -4.068969 59.010914  0.293635 -0.699742 0.651261  0.637000 0.181948 1 4 1.000000
0  4.779757 -3.850963 58.889690  0.288355 -0.704961 0.647983  0.661900 0.235148 1 4 1.000000
0  4.079361 -3.790570 59.287498  0.290464 -0.727309 0.621814  0.661900 0.181948 1 4 1.000000
end
