version 1
nodes
0 "ValveBiped.Bip01_Pelvis" -1
1 "ValveBiped.Bip01_Spine" 0
2 "ValveBiped.Bip01_Spine1" 1
3 "ValveBiped.Bip01_Spine2" 2
4 "ValveBiped.Bip01_Spine4" 3
5 "ValveBiped.Bip01_Neck1" 4
6 "ValveBiped.Bip01_Head1" 5
7 "ValveBiped.forward" 6
8 "ValveBiped.Bip01_R_Clavicle" 4
9 "ValveBiped.Bip01_R_UpperArm" 8
10 "ValveBiped.Bip01_R_Forearm" 9
11 "ValveBiped.Bip01_R_Hand" 10
12 "ValveBiped.Anim_Attachment_RH" 11
13 "ValveBiped.Bip01_R_Finger4" 11
14 "ValveBiped.Bip01_R_Finger41" 13
15 "ValveBiped.Bip01_R_Finger42" 14
16 "ValveBiped.Bip01_R_Finger3" 11
17 "ValveBiped.Bip01_R_Finger31" 16
18 "ValveBiped.Bip01_R_Finger32" 17
19 "ValveBiped.Bip01_R_Finger2" 11
20 "ValveBiped.Bip01_R_Finger21" 19
21 "ValveBiped.Bip01_R_Finger22" 20
22 "ValveBiped.Bip01_R_Finger1" 11
23 "ValveBiped.Bip01_R_Finger11" 22
24 "ValveBiped.Bip01_R_Finger12" 23
25 "ValveBiped.Bip01_R_Finger0" 11
26 "ValveBiped.Bip01_R_Finger01" 25
27 "ValveBiped.Bip01_R_Finger02" 26
28 "ValveBiped.Bip01_R_Ulna" 10
29 "ValveBiped.Bip01_R_Wrist" 10
30 "ValveBiped.Bip01_R_Shoulder" 9
31 "ValveBiped.Bip01_R_Bicep" 9
32 "ValveBiped.Bip01_R_Trapezius" 8
33 "ValveBiped.Bip01_L_Clavicle" 4
34 "ValveBiped.Bip01_L_UpperArm" 33
35 "ValveBiped.Bip01_L_Forearm" 34
36 "ValveBiped.Bip01_L_Hand" 35
37 "ValveBiped.Anim_Attachment_LH" 36
38 "ValveBiped.Bip01_L_Finger4" 36
39 "ValveBiped.Bip01_L_Finger41" 38
40 "ValveBiped.Bip01_L_Finger42" 39
41 "ValveBiped.Bip01_L_Finger3" 36
42 "ValveBiped.Bip01_L_Finger31" 41
43 "ValveBiped.Bip01_L_Finger32" 42
44 "ValveBiped.Bip01_L_Finger2" 36
45 "ValveBiped.Bip01_L_Finger21" 44
46 "ValveBiped.Bip01_L_Finger22" 45
47 "ValveBiped.Bip01_L_Finger1" 36
48 "ValveBiped.Bip01_L_Finger11" 47
49 "ValveBiped.Bip01_L_Finger12" 48
50 "ValveBiped.Bip01_L_Finger0" 36
51 "ValveBiped.Bip01_L_Finger01" 50
52 "ValveBiped.Bip01_L_Finger02" 51
53 "ValveBiped.Bip01_L_Ulna" 35
54 "ValveBiped.Bip01_L_Wrist" 35
55 "ValveBiped.Bip01_L_Shoulder" 34
56 "ValveBiped.Bip01_L_Bicep" 34
57 "ValveBiped.Bip01_L_Trapezius" 33
58 "ValveBiped.Bip01_R_Thigh" 0
59 "ValveBiped.Bip01_R_Calf" 58
60 "ValveBiped.Bip01_R_Foot" 59
61 "ValveBiped.Bip01_R_Toe0" 60
62 "ValveBiped.Bip01_L_Thigh" 0
63 "ValveBiped.Bip01_L_Calf" 62
64 "ValveBiped.Bip01_L_Foot" 63
65 "ValveBiped.Bip01_L_Toe0" 64
end
skeleton
time 0
0  -0.000005 -0.533615 38.566917  1.570796 -0.000000 0.000000
1  0.000005 3.345128 -2.981901  1.570797 0.086286 1.570793
2  4.018296 -0.000028 -0.000024  0.000000 -0.000005 -0.029254
3  3.518551 -0.000001 -0.000026  0.000000 -0.000038 0.100336
4  8.942602 0.000017 -0.000404  0.000008 0.000043 0.194105
5  3.307233 -0.000028 -0.000004  3.141592 -0.000000 0.400475
6  3.593712 0.000024 0.000008  -0.000000 0.000003 0.406593
7  1.999990 -3.000009 0.000013  -1.570791 -0.000002 -1.326467
8  2.033316 1.000768 -1.937615  1.473080 1.855094 -0.198685
9  6.028141 0.000068 0.000069  1.590087 -0.099559 0.273381
10  11.692570 0.000116 0.000026  -0.001726 0.013682 -0.311263
11  11.481683 0.000167 -0.000014  -1.564931 0.106610 0.044209
12  2.676064 -1.712448 0.000009  -1.570803 -0.000000 -1.570837
13  3.859637 -0.132585 1.193103  0.366274 -0.149876 -0.332023
14  1.312546 0.000019 0.000006  0.148503 0.140474 -0.017321
15  0.729383 0.000010 0.000003  0.000018 -0.006139 -0.244264
16  3.942246 0.050323 0.431038  0.129735 -0.110550 -0.545315
17  1.539103 -0.000013 -0.000004  0.034173 0.141234 0.546467
18  1.196313 -0.000049 -0.000000  -0.000013 -0.009656 -0.430764
19  3.883633 -0.050349 -0.431043  -0.103682 -0.052852 -0.146760
20  1.719595 0.000014 -0.000013  -0.007599 0.030958 -0.099111
21  1.209153 0.000020 -0.000029  -0.000017 -0.004441 -0.216376
22  3.859829 -0.148942 -1.331281  -0.345584 0.028167 -0.268439
23  1.719425 0.000012 0.000009  -0.019993 -0.090337 0.128389
24  1.099685 -0.000000 0.000009  -0.000015 -0.004194 -0.244320
25  0.805998 -0.359838 -1.318331  1.258251 0.364078 -0.444376
26  1.789770 -0.000004 0.000032  0.019257 -0.120173 0.075543
27  1.206990 -0.000012 0.000004  0.000006 -0.009612 0.362902
28  5.740845 0.000078 0.000011  0.000078 0.000001 0.000021
29  11.481683 0.000167 -0.000014  0.000140 -0.000001 0.000027
30  1.500006 0.000010 -0.000001  0.000000 0.000001 0.000010
31  5.560010 0.000051 -0.000009  0.000000 0.000000 0.000023
32  5.166967 0.000056 0.000060  0.000003 -0.000009 -0.000002
33  2.033364 1.000747 1.937656  -1.544920 -1.855089 -0.198681
34  6.028135 0.000080 -0.000075  -1.520702 0.079998 0.279606
35  11.692542 -0.000540 0.000001  0.001825 -0.014043 -0.318125
36  11.481671 0.000712 -0.000000  1.573196 -0.106598 0.044266
37  2.676114 -1.712401 0.000062  1.570791 0.000019 1.570768
38  3.859723 -0.142354 -1.191937  -0.373251 0.084828 -0.392593
39  1.312554 -0.000021 0.000025  -0.033212 -0.054308 0.096968
40  0.729371 -0.000024 -0.000010  0.000024 0.004970 -0.244303
41  3.942326 0.046822 -0.431409  -0.117933 0.118575 -0.428282
42  1.539071 -0.000001 -0.000012  -0.020012 -0.129392 0.326112
43  1.196313 0.000068 -0.000007  0.000008 0.007370 -0.430797
44  3.883708 -0.046690 0.431477  0.093520 0.039473 -0.340168
45  1.719585 -0.000001 0.000006  0.034075 -0.016610 0.192357
46  1.209167 0.000010 -0.000016  -0.000005 0.003100 -0.216392
47  3.859869 -0.137851 1.332502  0.348574 -0.036141 -0.383819
48  1.719408 0.000000 -0.000021  0.108419 0.085472 0.261799
49  1.099664 0.000015 0.000003  -0.000004 0.002592 -0.244330
50  0.806044 -0.348883 1.321283  -1.284109 -0.334957 -0.484557
51  1.789776 0.000005 0.000012  0.019426 0.057122 0.062857
52  1.207008 0.000015 -0.000020  0.000005 0.011268 0.362850
53  5.740849 0.000359 0.000028  0.000683 0.000000 0.000056
54  11.481724 0.000717 0.000042  0.001274 0.000001 0.000074
55  1.499978 -0.000069 -0.000008  0.000000 -0.000000 -0.000047
56  5.559988 -0.000256 -0.000036  0.000001 -0.000000 -0.000087
57  5.166950 0.000070 -0.000062  0.000001 -0.000014 -0.000002
58  -3.890452 0.000004 0.000007  -1.570796 0.051841 -1.576021
59  17.848209 0.000193 -0.000005  -0.000003 -0.000000 0.034052
60  16.525280 0.002456 0.000008  0.038612 0.040781 -1.071486
61  6.879457 0.000009 0.000019  -0.081332 -0.002949 -0.584375
62  3.890452 -0.000004 -0.000003  -1.570798 0.051841 -1.565574
63  17.848141 0.000070 -0.000003  0.000007 0.000000 0.034176
64  16.525267 0.000453 -0.000008  -0.027918 -0.040785 -1.071632
65  3.992084 2.504415 2.697954  1.559981 -0.937007 -0.583286
end
triangles
jetpack_cody
0  -0.007099 6.446552 61.623848  -0.000002 -0.982202 0.187825  0.439080 0.904044 2 3 0.600000 1 0.400000
0  -0.862844 6.446552 61.623848  0.000000 -0.982202 0.187825  0.400388 0.904104 2 3 0.600000 1 0.400000
0  -0.212467 5.622061 57.312305  -0.000005 -0.982202 0.187826  0.429617 0.732381 2 3 0.600000 1 0.400000
jetpack_cody
0  -0.862844 6.446552 61.623848  0.989026 0.080180 0.124095  0.400388 0.904104 2 3 0.600000 1 0.400000
0  -0.244244 5.621078 57.566185  0.983841 0.129496 0.123644  0.428188 0.742493 2 3 0.600000 1 0.400000
0  -0.212467 5.622061 57.312305  0.983841 0.129495 0.123644  0.429617 0.732381 2 3 0.600000 1 0.400000
jetpack_cody
0  -0.862844 6.446552 61.623848  0.989026 0.080180 0.124095  0.400388 0.904104 2 3 0.600000 1 0.400000
0  -0.995237 6.442460 62.681656  0.992177 0.010017 0.124439  0.394438 0.946235 2 3 0.600000 1 0.400000
0  -0.244244 5.621078 57.566185  0.983841 0.129496 0.123644  0.428188 0.742493 2 3 0.600000 1 0.400000
jetpack_cody
0  -0.995237 6.442460 62.681656  -0.012362 -0.987560 0.156757  0.394438 0.946235 2 3 0.600000 1 0.400000
0  -0.549526 5.621077 57.542114  -0.034652 -0.988191 0.149260  0.414468 0.741535 2 3 0.600000 1 0.400000
0  -0.244244 5.621078 57.566185  -0.012355 -0.987560 0.156757  0.428188 0.742493 2 3 0.600000 1 0.400000
jetpack_cody
0  -0.995237 6.442460 62.681656  -0.012362 -0.987560 0.156757  0.394438 0.946235 2 3 0.600000 1 0.400000
0  -2.267163 6.442460 62.581352  -0.037336 -0.988229 0.148353  0.337274 0.942240 2 3 0.600000 1 0.400000
0  -0.549526 5.621077 57.542114  -0.034652 -0.988191 0.149260  0.414468 0.741535 2 3 0.600000 1 0.400000
jetpack_cody
0  -2.267163 6.442460 62.581352  -0.037336 -0.988229 0.148353  0.337274 0.942240 2 3 0.600000 1 0.400000
0  -0.761280 5.621078 57.452919  -0.087097 -0.988085 0.126893  0.404951 0.737982 2 3 0.600000 1 0.400000
0  -0.549526 5.621077 57.542114  -0.034652 -0.988191 0.149260  0.414468 0.741535 2 3 0.600000 1 0.400000
jetpack_cody
0  -2.267163 6.442460 62.581352  -0.037336 -0.988229 0.148353  0.337274 0.942240 2 3 0.600000 1 0.400000
0  -3.149423 6.442460 62.209702  -0.083135 -0.988167 0.128894  0.297622 0.927438 2 3 0.600000 1 0.400000
0  -0.761280 5.621078 57.452919  -0.087097 -0.988085 0.126893  0.404951 0.737982 2 3 0.600000 1 0.400000
jetpack_cody
0  -3.149423 6.442460 62.209702  -0.083135 -0.988167 0.128894  0.297622 0.927438 2 3 0.600000 1 0.400000
0  -0.933905 5.621078 57.285271  -0.140453 -0.985612 0.094033  0.397193 0.731305 2 3 0.600000 1 0.400000
0  -0.761280 5.621078 57.452919  -0.087097 -0.988085 0.126893  0.404951 0.737982 2 3 0.600000 1 0.400000
jetpack_cody
0  -3.149423 6.442460 62.209702  -0.083135 -0.988167 0.128894  0.297622 0.927438 2 3 0.600000 1 0.400000
0  -3.868647 6.442464 61.511250  -0.130105 -0.986306 0.101352  0.265298 0.899620 2 3 0.600000 1 0.400000
0  -0.933905 5.621078 57.285271  -0.140453 -0.985612 0.094033  0.397193 0.731305 2 3 0.600000 1 0.400000
jetpack_cody
0  -3.868647 6.442464 61.511250  -0.130105 -0.986306 0.101352  0.265298 0.899620 2 3 0.600000 1 0.400000
0  -1.046578 5.621079 57.059410  -0.192337 -0.980106 0.048983  0.392129 0.722309 2 3 0.600000 1 0.400000
0  -0.933905 5.621078 57.285271  -0.140453 -0.985612 0.094033  0.397193 0.731305 2 3 0.600000 1 0.400000
jetpack_cody
0  -3.868647 6.442464 61.511250  -0.130105 -0.986306 0.101352  0.265298 0.899620 2 3 0.600000 1 0.400000
0  -4.338083 6.442465 60.570213  -0.176331 -0.982217 0.064483  0.244200 0.862140 2 3 0.600000 1 0.400000
0  -1.046578 5.621079 57.059410  -0.192337 -0.980106 0.048983  0.392129 0.722309 2 3 0.600000 1 0.400000
jetpack_cody
0  -4.338083 6.442465 60.570213  -0.176331 -0.982217 0.064483  0.244200 0.862140 2 3 0.600000 1 0.400000
0  -1.085708 5.621079 56.802578  -0.240667 -0.970564 -0.009179  0.390370 0.712080 2 3 0.600000 1 0.400000
0  -1.046578 5.621079 57.059410  -0.192337 -0.980106 0.048983  0.392129 0.722309 2 3 0.600000 1 0.400000
jetpack_cody
0  -4.338083 6.442465 60.570213  -0.176331 -0.982217 0.064483  0.244200 0.862140 2 3 0.600000 1 0.400000
0  -4.501113 6.442470 59.500114  -0.222459 -0.974824 0.015170  0.236872 0.819520 2 3 0.600000 1 0.400000
0  -1.085708 5.621079 56.802578  -0.240667 -0.970564 -0.009179  0.390370 0.712080 2 3 0.600000 1 0.400000
jetpack_cody
0  -4.501113 6.442470 59.500114  -0.222459 -0.974824 0.015170  0.236872 0.819520 2 3 0.600000 1 0.400000
0  -0.857686 5.621088 54.724434  -0.239829 -0.970038 -0.038851  0.400618 0.629310 2 3 0.600000 1 0.400000
0  -1.085708 5.621079 56.802578  -0.240667 -0.970564 -0.009179  0.390370 0.712080 2 3 0.600000 1 0.400000
jetpack_cody
0  -4.501113 6.442470 59.500114  -0.222459 -0.974824 0.015170  0.236872 0.819520 2 3 0.600000 1 0.400000
0  -3.551081 6.442502 50.841728  -0.214937 -0.974954 -0.057159  0.279567 0.474669 2 3 0.600000 1 0.400000
0  -0.857686 5.621088 54.724434  -0.239829 -0.970038 -0.038851  0.400618 0.629310 2 3 0.600000 1 0.400000
jetpack_cody
0  -3.551081 6.442502 50.841728  -0.214937 -0.974954 -0.057159  0.279567 0.474669 2 3 0.600000 1 0.400000
0  -0.781931 5.621089 54.495880  -0.183339 -0.980021 -0.077104  0.404022 0.620208 2 3 0.600000 1 0.400000
0  -0.857686 5.621088 54.724434  -0.239829 -0.970038 -0.038851  0.400618 0.629310 2 3 0.600000 1 0.400000
jetpack_cody
0  -3.551081 6.442502 50.841728  -0.214937 -0.974954 -0.057159  0.279567 0.474669 2 3 0.600000 1 0.400000
0  -3.235458 6.442504 49.889511  -0.160788 -0.982911 -0.089633  0.293752 0.436743 2 3 0.600000 1 0.400000
0  -0.781931 5.621089 54.495880  -0.183339 -0.980021 -0.077104  0.404022 0.620208 2 3 0.600000 1 0.400000
jetpack_cody
0  -3.235458 6.442504 49.889511  -0.160788 -0.982911 -0.089633  0.293752 0.436743 2 3 0.600000 1 0.400000
0  -0.665870 5.621089 54.326248  -0.118934 -0.986861 -0.109365  0.409239 0.613451 2 3 0.600000 1 0.400000
0  -0.781931 5.621089 54.495880  -0.183339 -0.980021 -0.077104  0.404022 0.620208 2 3 0.600000 1 0.400000
jetpack_cody
0  -3.235458 6.442504 49.889511  -0.160788 -0.982911 -0.089633  0.293752 0.436743 2 3 0.600000 1 0.400000
0  -2.751902 6.442507 49.182755  -0.103105 -0.987889 -0.115950  0.315485 0.408594 2 3 0.600000 1 0.400000
0  -0.665870 5.621089 54.326248  -0.118934 -0.986861 -0.109365  0.409239 0.613451 2 3 0.600000 1 0.400000
jetpack_cody
0  -2.751902 6.442507 49.182755  -0.103105 -0.987889 -0.115950  0.315485 0.408594 2 3 0.600000 1 0.400000
0  -0.523500 5.621089 54.235989  -0.041097 -0.989669 -0.137354  0.415637 0.609856 2 3 0.600000 1 0.400000
0  -0.665870 5.621089 54.326248  -0.118934 -0.986861 -0.109365  0.409239 0.613451 2 3 0.600000 1 0.400000
jetpack_cody
0  -2.751902 6.442507 49.182755  -0.103105 -0.987889 -0.115950  0.315485 0.408594 2 3 0.600000 1 0.400000
0  -2.158735 6.442508 48.806702  -0.041171 -0.989669 -0.137331  0.342143 0.393616 2 3 0.600000 1 0.400000
0  -0.523500 5.621089 54.235989  -0.041097 -0.989669 -0.137354  0.415637 0.609856 2 3 0.600000 1 0.400000
jetpack_cody
0  -2.158735 6.442508 48.806702  -0.041171 -0.989669 -0.137331  0.342143 0.393616 2 3 0.600000 1 0.400000
0  -0.244226 5.621089 54.231209  -0.002547 -0.988858 -0.148843  0.428188 0.609666 2 3 0.600000 1 0.400000
0  -0.523500 5.621089 54.235989  -0.041097 -0.989669 -0.137354  0.415637 0.609856 2 3 0.600000 1 0.400000
jetpack_cody
0  -2.158735 6.442508 48.806702  -0.041171 -0.989669 -0.137331  0.342143 0.393616 2 3 0.600000 1 0.400000
0  -0.995160 6.442508 48.786781  -0.002548 -0.988858 -0.148841  0.394438 0.392823 2 3 0.600000 1 0.400000
0  -0.244226 5.621089 54.231209  -0.002547 -0.988858 -0.148843  0.428188 0.609666 2 3 0.600000 1 0.400000
jetpack_cody
0  -0.995160 6.442508 48.786781  0.992294 0.006237 -0.123746  0.394438 0.392823 2 3 0.600000 1 0.400000
0  -0.212451 5.622071 54.486042  0.988719 0.084598 -0.123604  0.429617 0.619816 2 3 0.600000 1 0.400000
0  -0.244226 5.621089 54.231209  0.988720 0.084591 -0.123604  0.428188 0.609666 2 3 0.600000 1 0.400000
jetpack_cody
0  -0.995160 6.442508 48.786781  0.992294 0.006237 -0.123746  0.394438 0.392823 2 3 0.600000 1 0.400000
0  -0.862778 6.446595 49.848526  0.990923 0.052365 -0.123810  0.400388 0.435110 2 3 0.600000 1 0.400000
0  -0.212451 5.622071 54.486042  0.988719 0.084598 -0.123604  0.429617 0.619816 2 3 0.600000 1 0.400000
jetpack_cody
0  -0.862778 6.446595 49.848526  0.000002 -0.984560 -0.175049  0.400388 0.435110 2 3 0.600000 1 0.400000
0  -0.007060 5.622070 54.486042  0.000000 -0.984560 -0.175049  0.439080 0.619756 2 3 0.600000 1 0.400000
0  -0.212451 5.622071 54.486042  -0.000005 -0.984560 -0.175049  0.429617 0.619816 2 3 0.600000 1 0.400000
jetpack_cody
0  -0.862778 6.446595 49.848526  0.000002 -0.984560 -0.175049  0.400388 0.435110 2 3 0.600000 1 0.400000
0  -0.007035 6.446594 49.848534  0.000001 -0.984560 -0.175049  0.439080 0.435051 2 3 0.600000 1 0.400000
0  -0.007060 5.622070 54.486042  0.000000 -0.984560 -0.175049  0.439080 0.619756 2 3 0.600000 1 0.400000
jetpack_cody
0  -0.007035 6.446594 49.848534  0.000001 -0.984560 -0.175049  0.439080 0.435051 2 3 0.600000 1 0.400000
0  0.198332 5.622071 54.486042  0.000004 -0.984560 -0.175049  0.429850 0.619756 2 3 0.600000 1 0.400000
0  -0.007060 5.622070 54.486042  0.000000 -0.984560 -0.175049  0.439080 0.619756 2 3 0.600000 1 0.400000
jetpack_cody
0  -0.007035 6.446594 49.848534  0.000001 -0.984560 -0.175049  0.439080 0.435051 2 3 0.600000 1 0.400000
0  0.848708 6.446594 49.848537  0.000000 -0.984560 -0.175049  0.400621 0.435051 2 3 0.600000 1 0.400000
0  0.198332 5.622071 54.486042  0.000004 -0.984560 -0.175049  0.429850 0.619756 2 3 0.600000 1 0.400000
jetpack_cody
0  0.848708 6.446594 49.848537  -0.990922 0.052373 -0.123819  0.400621 0.435051 2 3 0.600000 1 0.400000
0  0.230107 5.621089 54.231209  -0.988714 0.084657 -0.123603  0.428421 0.609606 2 3 0.600000 1 0.400000
0  0.198332 5.622071 54.486042  -0.988714 0.084657 -0.123603  0.429850 0.619756 2 3 0.600000 1 0.400000
jetpack_cody
0  0.848708 6.446594 49.848537  -0.990922 0.052373 -0.123819  0.400621 0.435051 2 3 0.600000 1 0.400000
0  0.981099 6.442508 48.786793  -0.992293 0.006239 -0.123756  0.394671 0.392763 2 3 0.600000 1 0.400000
0  0.230107 5.621089 54.231209  -0.988714 0.084657 -0.123603  0.428421 0.609606 2 3 0.600000 1 0.400000
jetpack_cody
0  0.981099 6.442508 48.786793  0.002549 -0.988858 -0.148841  0.394671 0.392763 2 3 0.600000 1 0.400000
0  0.509383 5.621089 54.235992  0.041097 -0.989669 -0.137352  0.415870 0.609797 2 3 0.600000 1 0.400000
0  0.230107 5.621089 54.231209  0.002542 -0.988858 -0.148841  0.428421 0.609606 2 3 0.600000 1 0.400000
jetpack_cody
0  0.981099 6.442508 48.786793  0.002549 -0.988858 -0.148841  0.394671 0.392763 2 3 0.600000 1 0.400000
0  2.144674 6.442508 48.806725  0.041174 -0.989669 -0.137331  0.342376 0.393556 2 3 0.600000 1 0.400000
0  0.509383 5.621089 54.235992  0.041097 -0.989669 -0.137352  0.415870 0.609797 2 3 0.600000 1 0.400000
jetpack_cody
0  2.144674 6.442508 48.806725  0.041174 -0.989669 -0.137331  0.342376 0.393556 2 3 0.600000 1 0.400000
0  0.651752 5.621089 54.326256  0.118935 -0.986861 -0.109362  0.409471 0.613391 2 3 0.600000 1 0.400000
0  0.509383 5.621089 54.235992  0.041097 -0.989669 -0.137352  0.415870 0.609797 2 3 0.600000 1 0.400000
jetpack_cody
0  2.144674 6.442508 48.806725  0.041174 -0.989669 -0.137331  0.342376 0.393556 2 3 0.600000 1 0.400000
0  2.737837 6.442508 49.182785  0.103109 -0.987889 -0.115949  0.315718 0.408534 2 3 0.600000 1 0.400000
0  0.651752 5.621089 54.326256  0.118935 -0.986861 -0.109362  0.409471 0.613391 2 3 0.600000 1 0.400000
jetpack_cody
0  2.737837 6.442508 49.182785  0.103109 -0.987889 -0.115949  0.315718 0.408534 2 3 0.600000 1 0.400000
0  0.767811 5.621089 54.495888  0.183335 -0.980022 -0.077101  0.404255 0.620148 2 3 0.600000 1 0.400000
0  0.651752 5.621089 54.326256  0.118935 -0.986861 -0.109362  0.409471 0.613391 2 3 0.600000 1 0.400000
jetpack_cody
0  2.737837 6.442508 49.182785  0.103109 -0.987889 -0.115949  0.315718 0.408534 2 3 0.600000 1 0.400000
0  3.221386 6.442504 49.889545  0.160789 -0.982910 -0.089632  0.293985 0.436683 2 3 0.600000 1 0.400000
0  0.767811 5.621089 54.495888  0.183335 -0.980022 -0.077101  0.404255 0.620148 2 3 0.600000 1 0.400000
jetpack_cody
0  3.221386 6.442504 49.889545  0.160789 -0.982910 -0.089632  0.293985 0.436683 2 3 0.600000 1 0.400000
0  0.843562 5.621088 54.724442  0.239828 -0.970038 -0.038849  0.400851 0.629250 2 3 0.600000 1 0.400000
0  0.767811 5.621089 54.495888  0.183335 -0.980022 -0.077101  0.404255 0.620148 2 3 0.600000 1 0.400000
jetpack_cody
0  3.221386 6.442504 49.889545  0.160789 -0.982910 -0.089632  0.293985 0.436683 2 3 0.600000 1 0.400000
0  3.536997 6.442502 50.841766  0.214938 -0.974954 -0.057158  0.279801 0.474609 2 3 0.600000 1 0.400000
0  0.843562 5.621088 54.724442  0.239828 -0.970038 -0.038849  0.400851 0.629250 2 3 0.600000 1 0.400000
jetpack_cody
0  3.536997 6.442502 50.841766  0.214938 -0.974954 -0.057158  0.279801 0.474609 2 3 0.600000 1 0.400000
0  1.071561 5.621079 56.802589  0.240668 -0.970564 -0.009178  0.390603 0.712020 2 3 0.600000 1 0.400000
0  0.843562 5.621088 54.724442  0.239828 -0.970038 -0.038849  0.400851 0.629250 2 3 0.600000 1 0.400000
jetpack_cody
0  3.536997 6.442502 50.841766  0.214938 -0.974954 -0.057158  0.279801 0.474609 2 3 0.600000 1 0.400000
0  4.486936 6.442471 59.500160  0.222461 -0.974824 0.015172  0.237105 0.819460 2 3 0.600000 1 0.400000
0  1.071561 5.621079 56.802589  0.240668 -0.970564 -0.009178  0.390603 0.712020 2 3 0.600000 1 0.400000
jetpack_cody
0  4.486936 6.442471 59.500160  0.222461 -0.974824 0.015172  0.237105 0.819460 2 3 0.600000 1 0.400000
0  1.032429 5.621078 57.059418  0.192339 -0.980105 0.048981  0.392362 0.722249 2 3 0.600000 1 0.400000
0  1.071561 5.621079 56.802589  0.240668 -0.970564 -0.009178  0.390603 0.712020 2 3 0.600000 1 0.400000
jetpack_cody
0  4.486936 6.442471 59.500160  0.222461 -0.974824 0.015172  0.237105 0.819460 2 3 0.600000 1 0.400000
0  4.323896 6.442466 60.570263  0.176331 -0.982216 0.064485  0.244433 0.862080 2 3 0.600000 1 0.400000
0  1.032429 5.621078 57.059418  0.192339 -0.980105 0.048981  0.392362 0.722249 2 3 0.600000 1 0.400000
jetpack_cody
0  4.323896 6.442466 60.570263  0.176331 -0.982216 0.064485  0.244433 0.862080 2 3 0.600000 1 0.400000
0  0.919755 5.621078 57.285278  0.140453 -0.985612 0.094030  0.397426 0.731245 2 3 0.600000 1 0.400000
0  1.032429 5.621078 57.059418  0.192339 -0.980105 0.048981  0.392362 0.722249 2 3 0.600000 1 0.400000
jetpack_cody
0  4.323896 6.442466 60.570263  0.176331 -0.982216 0.064485  0.244433 0.862080 2 3 0.600000 1 0.400000
0  3.854449 6.442464 61.511284  0.130105 -0.986306 0.101354  0.265531 0.899560 2 3 0.600000 1 0.400000
0  0.919755 5.621078 57.285278  0.140453 -0.985612 0.094030  0.397426 0.731245 2 3 0.600000 1 0.400000
jetpack_cody
0  3.854449 6.442464 61.511284  0.130105 -0.986306 0.101354  0.265531 0.899560 2 3 0.600000 1 0.400000
0  0.747129 5.621077 57.452934  0.087091 -0.988085 0.126896  0.405184 0.737922 2 3 0.600000 1 0.400000
0  0.919755 5.621078 57.285278  0.140453 -0.985612 0.094030  0.397426 0.731245 2 3 0.600000 1 0.400000
jetpack_cody
0  3.854449 6.442464 61.511284  0.130105 -0.986306 0.101354  0.265531 0.899560 2 3 0.600000 1 0.400000
0  3.135217 6.442461 62.209732  0.083135 -0.988167 0.128896  0.297855 0.927378 2 3 0.600000 1 0.400000
0  0.747129 5.621077 57.452934  0.087091 -0.988085 0.126896  0.405184 0.737922 2 3 0.600000 1 0.400000
jetpack_cody
0  3.135217 6.442461 62.209732  0.083135 -0.988167 0.128896  0.297855 0.927378 2 3 0.600000 1 0.400000
0  0.535371 5.621078 57.542122  0.034651 -0.988190 0.149262  0.414701 0.741475 2 3 0.600000 1 0.400000
0  0.747129 5.621077 57.452934  0.087091 -0.988085 0.126896  0.405184 0.737922 2 3 0.600000 1 0.400000
jetpack_cody
0  3.135217 6.442461 62.209732  0.083135 -0.988167 0.128896  0.297855 0.927378 2 3 0.600000 1 0.400000
0  2.252954 6.442460 62.581375  0.037335 -0.988229 0.148353  0.337506 0.942180 2 3 0.600000 1 0.400000
0  0.535371 5.621078 57.542122  0.034651 -0.988190 0.149262  0.414701 0.741475 2 3 0.600000 1 0.400000
jetpack_cody
0  2.252954 6.442460 62.581375  0.037335 -0.988229 0.148353  0.337506 0.942180 2 3 0.600000 1 0.400000
0  0.230089 5.621077 57.566193  -0.918363 -0.346865 0.190510  0.428421 0.742433 2 3 0.600000 1 0.400000
0  0.535371 5.621078 57.542122  0.034651 -0.988190 0.149262  0.414701 0.741475 2 3 0.600000 1 0.400000
jetpack_cody
0  2.252954 6.442460 62.581375  0.037335 -0.988229 0.148353  0.337506 0.942180 2 3 0.600000 1 0.400000
0  0.981026 6.442460 62.681664  0.007824 -0.987502 0.157413  0.394671 0.946175 2 3 0.600000 1 0.400000
0  0.230089 5.621077 57.566193  -0.918363 -0.346865 0.190510  0.428421 0.742433 2 3 0.600000 1 0.400000
jetpack_cody
0  0.981026 6.442460 62.681664  0.007824 -0.987502 0.157413  0.394671 0.946175 2 3 0.600000 1 0.400000
0  0.198316 5.622061 57.312305  -0.983838 0.129534 0.123628  0.429850 0.732321 2 3 0.600000 1 0.400000
0  0.230089 5.621077 57.566193  -0.918363 -0.346865 0.190510  0.428421 0.742433 2 3 0.600000 1 0.400000
jetpack_cody
0  0.981026 6.442460 62.681664  -0.992184 0.009434 0.124428  0.394671 0.946175 2 3 0.600000 1 0.400000
0  0.848645 6.446550 61.623856  -0.989027 0.080182 0.124083  0.400621 0.904044 2 3 0.600000 1 0.400000
0  0.198316 5.622061 57.312305  -0.983838 0.129537 0.123625  0.429850 0.732321 2 3 0.600000 1 0.400000
jetpack_cody
0  0.848645 6.446550 61.623856  -0.000004 -0.982202 0.187826  0.400621 0.904044 2 3 0.600000 1 0.400000
0  -0.007076 5.622060 57.312305  -0.000001 -0.982203 0.187825  0.439080 0.732321 2 3 0.600000 1 0.400000
0  0.198316 5.622061 57.312305  0.000006 -0.982203 0.187825  0.429850 0.732321 2 3 0.600000 1 0.400000
jetpack_cody
0  0.848645 6.446550 61.623856  -0.000004 -0.982202 0.187826  0.400621 0.904044 2 3 0.600000 1 0.400000
0  -0.007099 6.446552 61.623848  -0.000002 -0.982202 0.187825  0.439080 0.904044 2 3 0.600000 1 0.400000
0  -0.007076 5.622060 57.312305  -0.000001 -0.982203 0.187825  0.439080 0.732321 2 3 0.600000 1 0.400000
jetpack_cody
0  -0.007099 6.446552 61.623848  -0.000002 -0.982202 0.187825  0.439080 0.904044 2 3 0.600000 1 0.400000
0  -0.212467 5.622061 57.312305  -0.000005 -0.982202 0.187826  0.448311 0.732321 2 3 0.600000 1 0.400000
0  -0.007076 5.622060 57.312305  -0.000001 -0.982203 0.187825  0.439080 0.732321 2 3 0.600000 1 0.400000
jetpack_cody
0  -0.517994 9.057716 51.050209  -0.625122 0.718929 -0.303915  0.726320 0.457113 2 3 0.600000 1 0.400000
0  -0.007037 8.438035 50.193878  0.000005 0.810133 -0.586246  0.700483 0.419580 2 3 0.600000 1 0.400000
0  -0.814342 8.438033 50.193871  -0.367523 0.809205 -0.458382  0.741305 0.419580 2 3 0.600000 1 0.400000
jetpack_cody
0  0.503910 9.057716 51.050217  0.625106 0.718941 -0.303919  0.674646 0.457113 2 3 0.600000 1 0.400000
0  0.800267 8.438033 50.193878  0.367544 0.809200 -0.458374  0.659661 0.419580 2 3 0.600000 1 0.400000
0  -0.007042 9.057716 51.050217  0.000004 0.810133 -0.586246  0.700483 0.457113 2 3 0.600000 1 0.400000
jetpack_cody
0  0.800267 8.438033 50.193878  0.367544 0.809200 -0.458374  0.659661 0.419580 2 3 0.600000 1 0.400000
0  -0.007037 8.438035 50.193878  0.000005 0.810133 -0.586246  0.700483 0.419580 2 3 0.600000 1 0.400000
0  -0.007042 9.057716 51.050217  0.000004 0.810133 -0.586246  0.700483 0.457113 2 3 0.600000 1 0.400000
jetpack_cody
0  -0.517994 9.057716 51.050209  -0.625122 0.718929 -0.303915  0.726320 0.457113 2 3 0.600000 1 0.400000
0  -0.007042 9.057716 51.050217  0.000004 0.810133 -0.586246  0.700483 0.457113 2 3 0.600000 1 0.400000
0  -0.007037 8.438035 50.193878  0.000005 0.810133 -0.586246  0.700483 0.419580 2 3 0.600000 1 0.400000
jetpack_cody
0  -0.007042 9.057716 51.050217  -0.000000 1.000000 0.000004  0.700483 0.457113 2 3 0.600000 1 0.400000
0  -0.517994 9.057716 51.050209  0.000000 1.000000 0.000004  0.726320 0.457113 2 3 0.600000 1 0.400000
0  -0.518467 9.057694 57.166893  0.000000 1.000000 0.000004  0.726342 0.725209 2 3 0.600000 1 0.400000
jetpack_cody
0  -0.517994 9.057716 51.050209  -0.625122 0.718929 -0.303915  0.726320 0.457113 2 3 0.600000 1 0.400000
0  -0.814342 8.438033 50.193871  -0.367523 0.809205 -0.458382  0.741305 0.419580 2 3 0.600000 1 0.400000
0  -0.518467 9.057694 57.166893  -0.625038 0.719035 0.303836  0.726342 0.725209 2 3 0.600000 1 0.400000
jetpack_cody
0  -1.344368 9.154300 61.572727  -0.031251 0.934319 0.355066  0.768103 0.918318 2 3 0.600000 1 0.400000
0  -2.173966 9.154301 61.488991  -0.101567 0.940858 0.323220  0.810053 0.914648 2 3 0.600000 1 0.400000
0  -2.139232 8.655585 62.205971  -0.197177 0.514372 0.834591  0.808296 0.946074 2 3 0.600000 1 0.400000
jetpack_cody
0  -1.344368 9.154300 61.572727  -0.031251 0.934319 0.355066  0.768103 0.918318 2 3 0.600000 1 0.400000
0  -2.139232 8.655585 62.205971  -0.197177 0.514372 0.834591  0.808296 0.946074 2 3 0.600000 1 0.400000
0  -0.939303 8.655581 62.300598  -0.069547 0.466155 0.881965  0.747621 0.950221 2 3 0.600000 1 0.400000
jetpack_cody
0  -1.344830 9.154312 58.048431  0.776376 0.630270 -0.000034  0.768128 0.763847 2 3 0.600000 1 0.400000
0  -1.344368 9.154300 61.572727  0.776294 0.630371 -0.000099  0.768103 0.918318 2 3 0.600000 1 0.400000
0  -0.939303 8.655581 62.300598  0.967003 0.241685 0.080579  0.747621 0.950221 2 3 0.600000 1 0.400000
jetpack_cody
0  -1.344830 9.154312 58.048431  0.776376 0.630270 -0.000034  0.768128 0.763847 2 3 0.600000 1 0.400000
0  -0.939303 8.655581 62.300598  0.967003 0.241685 0.080579  0.747621 0.950221 2 3 0.600000 1 0.400000
0  -0.939973 8.655596 58.025078  0.824493 0.565871 -0.000029  0.747656 0.762824 2 3 0.600000 1 0.400000
jetpack_cody
0  -1.344304 9.154341 49.972404  0.776265 0.630406 0.000068  0.768103 0.409872 2 3 0.600000 1 0.400000
0  -1.344830 9.154312 58.048431  0.776376 0.630270 -0.000034  0.768128 0.763847 2 3 0.600000 1 0.400000
0  -0.939973 8.655596 58.025078  0.824493 0.565871 -0.000029  0.747656 0.762824 2 3 0.600000 1 0.400000
jetpack_cody
0  -0.939229 8.655633 49.192226  0.968568 0.235074 -0.081338  0.747621 0.375677 2 3 0.600000 1 0.400000
0  -1.344304 9.154341 49.972404  0.776265 0.630406 0.000068  0.768103 0.409872 2 3 0.600000 1 0.400000
0  -0.939973 8.655596 58.025078  0.824493 0.565871 -0.000029  0.747656 0.762824 2 3 0.600000 1 0.400000
jetpack_cody
0  -0.814342 8.438033 50.193871  0.942853 0.330038 -0.045858  0.741305 0.419580 2 3 0.600000 1 0.400000
0  -0.939229 8.655633 49.192226  0.968568 0.235074 -0.081338  0.747621 0.375677 2 3 0.600000 1 0.400000
0  -0.939973 8.655596 58.025078  0.824493 0.565871 -0.000029  0.747656 0.762824 2 3 0.600000 1 0.400000
jetpack_cody
0  -0.814342 8.438033 50.193871  0.942853 0.330038 -0.045858  0.741305 0.419580 2 3 0.600000 1 0.400000
0  -0.939973 8.655596 58.025078  0.824493 0.565871 -0.000029  0.747656 0.762824 2 3 0.600000 1 0.400000
0  -0.815080 8.438005 58.023232  0.867280 0.497820 -0.000026  0.741340 0.762742 2 3 0.600000 1 0.400000
jetpack_cody
0  -0.518467 9.057694 57.166893  -0.625038 0.719035 0.303836  0.726342 0.725209 2 3 0.600000 1 0.400000
0  -0.814342 8.438033 50.193871  -0.367523 0.809205 -0.458382  0.741305 0.419580 2 3 0.600000 1 0.400000
0  -0.815080 8.438005 58.023232  -0.367562 0.809239 0.458291  0.741340 0.762742 2 3 0.600000 1 0.400000
jetpack_cody
0  -0.518467 9.057694 57.166893  -0.625038 0.719035 0.303836  0.726342 0.725209 2 3 0.600000 1 0.400000
0  -0.815080 8.438005 58.023232  -0.367562 0.809239 0.458291  0.741340 0.762742 2 3 0.600000 1 0.400000
0  -0.007075 9.057694 57.166893  0.000000 0.810130 0.586250  0.700483 0.725209 2 3 0.600000 1 0.400000
jetpack_cody
0  -0.007042 9.057716 51.050217  -0.000000 1.000000 0.000004  0.700483 0.457113 2 3 0.600000 1 0.400000
0  -0.518467 9.057694 57.166893  0.000000 1.000000 0.000004  0.726342 0.725209 2 3 0.600000 1 0.400000
0  -0.007075 9.057694 57.166893  -0.000000 1.000000 0.000004  0.700483 0.725209 2 3 0.600000 1 0.400000
jetpack_cody
0  -0.007042 9.057716 51.050217  -0.000000 1.000000 0.000004  0.700483 0.457113 2 3 0.600000 1 0.400000
0  -0.007075 9.057694 57.166893  -0.000000 1.000000 0.000004  0.700483 0.725209 2 3 0.600000 1 0.400000
0  0.504317 9.057694 57.166901  -0.000000 1.000000 0.000003  0.674624 0.725209 2 3 0.600000 1 0.400000
jetpack_cody
0  0.503910 9.057716 51.050217  0.000000 1.000000 0.000004  0.674646 0.457113 2 3 0.600000 1 0.400000
0  -0.007042 9.057716 51.050217  -0.000000 1.000000 0.000004  0.700483 0.457113 2 3 0.600000 1 0.400000
0  0.504317 9.057694 57.166901  -0.000000 1.000000 0.000003  0.674624 0.725209 2 3 0.600000 1 0.400000
jetpack_cody
0  0.503910 9.057716 51.050217  0.625106 0.718941 -0.303919  0.674646 0.457113 2 3 0.600000 1 0.400000
0  0.504317 9.057694 57.166901  0.625028 0.719039 0.303846  0.674624 0.725209 2 3 0.600000 1 0.400000
0  0.800919 8.438006 58.023239  0.367540 0.809239 0.458308  0.659626 0.762742 2 3 0.600000 1 0.400000
jetpack_cody
0  0.800267 8.438033 50.193878  0.367544 0.809200 -0.458374  0.659661 0.419580 2 3 0.600000 1 0.400000
0  0.503910 9.057716 51.050217  0.625106 0.718941 -0.303919  0.674646 0.457113 2 3 0.600000 1 0.400000
0  0.800919 8.438006 58.023239  0.367540 0.809239 0.458308  0.659626 0.762742 2 3 0.600000 1 0.400000
jetpack_cody
0  0.800267 8.438033 50.193878  -0.942851 0.330043 -0.045868  0.659661 0.419580 2 3 0.600000 1 0.400000
0  0.800919 8.438006 58.023239  -0.867283 0.497816 -0.000035  0.659626 0.762742 2 3 0.600000 1 0.400000
0  0.925813 8.655601 58.025093  -0.824495 0.565870 -0.000029  0.653310 0.762824 2 3 0.600000 1 0.400000
jetpack_cody
0  0.925165 8.655628 49.192238  -0.968569 0.235066 -0.081353  0.653345 0.375677 2 3 0.600000 1 0.400000
0  0.800267 8.438033 50.193878  -0.942851 0.330043 -0.045868  0.659661 0.419580 2 3 0.600000 1 0.400000
0  0.925813 8.655601 58.025093  -0.824495 0.565870 -0.000029  0.653310 0.762824 2 3 0.600000 1 0.400000
jetpack_cody
0  0.925165 8.655628 49.192238  -0.968569 0.235066 -0.081353  0.653345 0.375677 2 3 0.600000 1 0.400000
0  0.925813 8.655601 58.025093  -0.824495 0.565870 -0.000029  0.653310 0.762824 2 3 0.600000 1 0.400000
0  1.330668 9.154312 58.048450  -0.776376 0.630270 -0.000027  0.632838 0.763847 2 3 0.600000 1 0.400000
jetpack_cody
0  -1.344368 9.154300 61.572727  -0.031251 0.934319 0.355066  0.768103 0.918318 2 3 0.600000 1 0.400000
0  -1.344830 9.154312 58.048431  -0.000000 1.000000 0.000004  0.768128 0.763847 2 3 0.600000 1 0.400000
0  -2.173966 9.154301 61.488991  -0.101567 0.940858 0.323220  0.810053 0.914648 2 3 0.600000 1 0.400000
jetpack_cody
0  -1.344830 9.154312 58.048431  -0.000000 1.000000 0.000004  0.768128 0.763847 2 3 0.600000 1 0.400000
0  -2.749410 9.154301 61.178715  -0.217653 0.940247 0.261846  0.839151 0.901049 2 3 0.600000 1 0.400000
0  -2.173966 9.154301 61.488991  -0.101567 0.940858 0.323220  0.810053 0.914648 2 3 0.600000 1 0.400000
jetpack_cody
0  -1.344830 9.154312 58.048431  -0.000000 1.000000 0.000004  0.768128 0.763847 2 3 0.600000 1 0.400000
0  -3.218512 9.154303 60.595596  -0.287488 0.943494 0.164836  0.862872 0.875491 2 3 0.600000 1 0.400000
0  -2.749410 9.154301 61.178715  -0.217653 0.940247 0.261846  0.839151 0.901049 2 3 0.600000 1 0.400000
jetpack_cody
0  -3.218512 9.154303 60.595596  -0.287488 0.943494 0.164836  0.862872 0.875491 2 3 0.600000 1 0.400000
0  -1.344830 9.154312 58.048431  -0.000000 1.000000 0.000004  0.768128 0.763847 2 3 0.600000 1 0.400000
0  -3.524695 9.154305 59.809975  -0.327251 0.942020 0.074190  0.878354 0.841056 2 3 0.600000 1 0.400000
jetpack_cody
0  -1.344830 9.154312 58.048431  -0.000000 1.000000 0.000004  0.768128 0.763847 2 3 0.600000 1 0.400000
0  -3.631029 9.154308 58.916580  -0.359623 0.933036 -0.010713  0.883731 0.801899 2 3 0.600000 1 0.400000
0  -3.524695 9.154305 59.809975  -0.327251 0.942020 0.074190  0.878354 0.841056 2 3 0.600000 1 0.400000
jetpack_cody
0  -1.344830 9.154312 58.048431  -0.000000 1.000000 0.000004  0.768128 0.763847 2 3 0.600000 1 0.400000
0  -3.011374 9.154335 51.688000  -0.442307 0.894560 -0.064238  0.852400 0.485068 2 3 0.600000 1 0.400000
0  -3.631029 9.154308 58.916580  -0.359623 0.933036 -0.010713  0.883731 0.801899 2 3 0.600000 1 0.400000
jetpack_cody
0  -1.344830 9.154312 58.048431  -0.000000 1.000000 0.000004  0.768128 0.763847 2 3 0.600000 1 0.400000
0  -2.805512 9.154340 50.893040  -0.413400 0.899115 -0.143850  0.841991 0.450224 2 3 0.600000 1 0.400000
0  -3.011374 9.154335 51.688000  -0.442307 0.894560 -0.064238  0.852400 0.485068 2 3 0.600000 1 0.400000
jetpack_cody
0  -0.007081 8.438004 58.023232  -0.000003 0.810130 0.586251  0.700483 0.762742 2 3 0.600000 1 0.400000
0  -0.007075 9.057694 57.166893  0.000000 0.810130 0.586250  0.700483 0.725209 2 3 0.600000 1 0.400000
0  -0.815080 8.438005 58.023232  -0.367562 0.809239 0.458291  0.741340 0.762742 2 3 0.600000 1 0.400000
jetpack_cody
0  -0.007081 8.438004 58.023232  -0.000003 0.810130 0.586251  0.700483 0.762742 2 3 0.600000 1 0.400000
0  0.504317 9.057694 57.166901  0.625028 0.719039 0.303846  0.674624 0.725209 2 3 0.600000 1 0.400000
0  -0.007075 9.057694 57.166893  0.000000 0.810130 0.586250  0.700483 0.725209 2 3 0.600000 1 0.400000
jetpack_cody
0  -0.007081 8.438004 58.023232  -0.000003 0.810130 0.586251  0.700483 0.762742 2 3 0.600000 1 0.400000
0  0.800919 8.438006 58.023239  0.367540 0.809239 0.458308  0.659626 0.762742 2 3 0.600000 1 0.400000
0  0.504317 9.057694 57.166901  0.625028 0.719039 0.303846  0.674624 0.725209 2 3 0.600000 1 0.400000
jetpack_cody
0  0.800919 8.438006 58.023239  -0.000002 1.000000 0.000004  0.659626 0.762742 2 3 0.600000 1 0.400000
0  -0.007081 8.438004 58.023232  -0.000000 1.000000 0.000004  0.700483 0.762742 2 3 0.600000 1 0.400000
0  0.800209 8.437995 61.302681  -0.000000 1.000000 0.000003  0.659661 0.906481 2 3 0.600000 1 0.400000
jetpack_cody
0  0.800919 8.438006 58.023239  -0.867283 0.497816 -0.000035  0.659626 0.762742 2 3 0.600000 1 0.400000
0  0.800209 8.437995 61.302681  -0.943188 0.329032 0.046202  0.659661 0.906481 2 3 0.600000 1 0.400000
0  0.925096 8.655581 62.300606  -0.967002 0.241697 0.080562  0.653345 0.950221 2 3 0.600000 1 0.400000
jetpack_cody
0  0.925813 8.655601 58.025093  -0.824495 0.565870 -0.000029  0.653310 0.762824 2 3 0.600000 1 0.400000
0  0.800919 8.438006 58.023239  -0.867283 0.497816 -0.000035  0.659626 0.762742 2 3 0.600000 1 0.400000
0  0.925096 8.655581 62.300606  -0.967002 0.241697 0.080562  0.653345 0.950221 2 3 0.600000 1 0.400000
jetpack_cody
0  -0.007081 8.438004 58.023232  -0.000000 1.000000 0.000004  0.700483 0.762742 2 3 0.600000 1 0.400000
0  -0.007097 8.437995 61.302673  -0.000000 1.000000 0.000003  0.700483 0.906481 2 3 0.600000 1 0.400000
0  0.800209 8.437995 61.302681  -0.000000 1.000000 0.000003  0.659661 0.906481 2 3 0.600000 1 0.400000
jetpack_cody
0  -0.007081 8.438004 58.023232  -0.000000 1.000000 0.000004  0.700483 0.762742 2 3 0.600000 1 0.400000
0  -0.814404 8.437995 61.302673  0.000000 1.000000 0.000003  0.741305 0.906481 2 3 0.600000 1 0.400000
0  -0.007097 8.437995 61.302673  -0.000000 1.000000 0.000003  0.700483 0.906481 2 3 0.600000 1 0.400000
jetpack_cody
0  -0.814404 8.437995 61.302673  0.000000 1.000000 0.000003  0.741305 0.906481 2 3 0.600000 1 0.400000
0  -0.007081 8.438004 58.023232  -0.000000 1.000000 0.000004  0.700483 0.762742 2 3 0.600000 1 0.400000
0  -0.815080 8.438005 58.023232  0.000001 1.000000 0.000004  0.741340 0.762742 2 3 0.600000 1 0.400000
jetpack_cody
0  -0.939303 8.655581 62.300598  0.967003 0.241685 0.080579  0.747621 0.950221 2 3 0.600000 1 0.400000
0  -0.814404 8.437995 61.302673  0.943186 0.329036 0.046212  0.741305 0.906481 2 3 0.600000 1 0.400000
0  -0.815080 8.438005 58.023232  0.867280 0.497820 -0.000026  0.741340 0.762742 2 3 0.600000 1 0.400000
jetpack_cody
0  -0.939973 8.655596 58.025078  0.824493 0.565871 -0.000029  0.747656 0.762824 2 3 0.600000 1 0.400000
0  -0.939303 8.655581 62.300598  0.967003 0.241685 0.080579  0.747621 0.950221 2 3 0.600000 1 0.400000
0  -0.815080 8.438005 58.023232  0.867280 0.497820 -0.000026  0.741340 0.762742 2 3 0.600000 1 0.400000
jetpack_cody
0  2.125029 8.655585 62.205994  0.199356 0.519508 0.830884  0.592670 0.946074 2 3 0.600000 1 0.400000
0  2.735215 9.154300 61.178745  0.237073 0.932549 0.272301  0.561815 0.901049 2 3 0.600000 1 0.400000
0  2.159770 9.154300 61.489014  0.114986 0.935972 0.332768  0.590913 0.914648 2 3 0.600000 1 0.400000
jetpack_cody
0  0.925096 8.655581 62.300606  0.072038 0.467410 0.881100  0.653345 0.950221 2 3 0.600000 1 0.400000
0  2.125029 8.655585 62.205994  0.199356 0.519508 0.830884  0.592670 0.946074 2 3 0.600000 1 0.400000
0  2.159770 9.154300 61.489014  0.114986 0.935972 0.332768  0.590913 0.914648 2 3 0.600000 1 0.400000
jetpack_cody
0  0.925096 8.655581 62.300606  0.072038 0.467410 0.881100  0.653345 0.950221 2 3 0.600000 1 0.400000
0  2.159770 9.154300 61.489014  0.114986 0.935972 0.332768  0.590913 0.914648 2 3 0.600000 1 0.400000
0  1.330170 9.154301 61.572742  0.036445 0.931826 0.361070  0.632863 0.918318 2 3 0.600000 1 0.400000
jetpack_cody
0  0.925813 8.655601 58.025093  -0.824495 0.565870 -0.000029  0.653310 0.762824 2 3 0.600000 1 0.400000
0  0.925096 8.655581 62.300606  -0.967002 0.241697 0.080562  0.653345 0.950221 2 3 0.600000 1 0.400000
0  1.330170 9.154301 61.572742  -0.776313 0.630347 -0.000126  0.632863 0.918318 2 3 0.600000 1 0.400000
jetpack_cody
0  0.925813 8.655601 58.025093  -0.824495 0.565870 -0.000029  0.653310 0.762824 2 3 0.600000 1 0.400000
0  1.330170 9.154301 61.572742  -0.776313 0.630347 -0.000126  0.632863 0.918318 2 3 0.600000 1 0.400000
0  1.330668 9.154312 58.048450  -0.776376 0.630270 -0.000027  0.632838 0.763847 2 3 0.600000 1 0.400000
jetpack_cody
0  1.330668 9.154312 58.048450  0.000000 1.000000 0.000004  0.632838 0.763847 2 3 0.600000 1 0.400000
0  1.330170 9.154301 61.572742  0.036445 0.931826 0.361070  0.632863 0.918318 2 3 0.600000 1 0.400000
0  2.159770 9.154300 61.489014  0.114986 0.935972 0.332768  0.590913 0.914648 2 3 0.600000 1 0.400000
jetpack_cody
0  1.330668 9.154312 58.048450  0.000000 1.000000 0.000004  0.632838 0.763847 2 3 0.600000 1 0.400000
0  2.159770 9.154300 61.489014  0.114986 0.935972 0.332768  0.590913 0.914648 2 3 0.600000 1 0.400000
0  2.735215 9.154300 61.178745  0.237073 0.932549 0.272301  0.561815 0.901049 2 3 0.600000 1 0.400000
jetpack_cody
0  1.330668 9.154312 58.048450  0.000000 1.000000 0.000004  0.632838 0.763847 2 3 0.600000 1 0.400000
0  2.735215 9.154300 61.178745  0.237073 0.932549 0.272301  0.561815 0.901049 2 3 0.600000 1 0.400000
0  3.204324 9.154303 60.595642  0.303808 0.937145 0.171638  0.538094 0.875491 2 3 0.600000 1 0.400000
jetpack_cody
0  3.510517 9.154308 59.810013  0.334752 0.939044 0.078338  0.522612 0.841057 2 3 0.600000 1 0.400000
0  1.330668 9.154312 58.048450  0.000000 1.000000 0.000004  0.632838 0.763847 2 3 0.600000 1 0.400000
0  3.204324 9.154303 60.595642  0.303808 0.937145 0.171638  0.538094 0.875491 2 3 0.600000 1 0.400000
jetpack_cody
0  1.330668 9.154312 58.048450  0.000000 1.000000 0.000004  0.632838 0.763847 2 3 0.600000 1 0.400000
0  3.510517 9.154308 59.810013  0.334752 0.939044 0.078338  0.522612 0.841057 2 3 0.600000 1 0.400000
0  3.616858 9.154309 58.916626  0.356064 0.934458 -0.002611  0.517235 0.801899 2 3 0.600000 1 0.400000
jetpack_cody
0  1.330668 9.154312 58.048450  0.000000 1.000000 0.000004  0.632838 0.763847 2 3 0.600000 1 0.400000
0  3.616858 9.154309 58.916626  0.356064 0.934458 -0.002611  0.517235 0.801899 2 3 0.600000 1 0.400000
0  2.997282 9.154334 51.688034  0.433058 0.898976 -0.065602  0.548566 0.485068 2 3 0.600000 1 0.400000
jetpack_cody
0  2.791429 9.154341 50.893066  0.392229 0.908861 -0.141875  0.558975 0.450224 2 3 0.600000 1 0.400000
0  1.330668 9.154312 58.048450  0.000000 1.000000 0.000004  0.632838 0.763847 2 3 0.600000 1 0.400000
0  2.997282 9.154334 51.688034  0.433058 0.898976 -0.065602  0.548566 0.485068 2 3 0.600000 1 0.400000
jetpack_cody
0  1.330668 9.154312 58.048450  0.000000 1.000000 0.000004  0.632838 0.763847 2 3 0.600000 1 0.400000
0  2.791429 9.154341 50.893066  0.392229 0.908861 -0.141875  0.558975 0.450224 2 3 0.600000 1 0.400000
0  2.476040 9.154341 50.303020  0.314035 0.919577 -0.236135  0.574924 0.424362 2 3 0.600000 1 0.400000
jetpack_cody
0  1.330668 9.154312 58.048450  0.000000 1.000000 0.000004  0.632838 0.763847 2 3 0.600000 1 0.400000
0  2.476040 9.154341 50.303020  0.314035 0.919577 -0.236135  0.574924 0.424362 2 3 0.600000 1 0.400000
0  2.089159 9.154342 49.989052  0.142141 0.935348 -0.323914  0.594487 0.410601 2 3 0.600000 1 0.400000
jetpack_cody
0  0.925165 8.655628 49.192238  -0.968569 0.235066 -0.081353  0.653345 0.375677 2 3 0.600000 1 0.400000
0  1.330668 9.154312 58.048450  -0.776376 0.630270 -0.000027  0.632838 0.763847 2 3 0.600000 1 0.400000
0  1.330230 9.154344 49.972416  -0.776256 0.630418 0.000044  0.632863 0.409872 2 3 0.600000 1 0.400000
jetpack_cody
0  1.330230 9.154344 49.972416  0.006159 0.948135 -0.317809  0.632863 0.409872 2 3 0.600000 1 0.400000
0  1.330668 9.154312 58.048450  0.000000 1.000000 0.000004  0.632838 0.763847 2 3 0.600000 1 0.400000
0  2.089159 9.154342 49.989052  0.142141 0.935348 -0.323914  0.594487 0.410601 2 3 0.600000 1 0.400000
jetpack_cody
0  2.022878 8.655629 49.211044  0.233062 0.521532 -0.820784  0.597838 0.376501 2 3 0.600000 1 0.400000
0  1.330230 9.154344 49.972416  0.006159 0.948135 -0.317809  0.632863 0.409872 2 3 0.600000 1 0.400000
0  2.089159 9.154342 49.989052  0.142141 0.935348 -0.323914  0.594487 0.410601 2 3 0.600000 1 0.400000
jetpack_cody
0  2.582465 8.655631 49.565819  0.603857 0.480282 -0.636149  0.569542 0.392051 2 3 0.600000 1 0.400000
0  2.022878 8.655629 49.211044  0.233062 0.521532 -0.820784  0.597838 0.376501 2 3 0.600000 1 0.400000
0  2.089159 9.154342 49.989052  0.142141 0.935348 -0.323914  0.594487 0.410601 2 3 0.600000 1 0.400000
jetpack_cody
0  2.582465 8.655631 49.565819  0.603857 0.480282 -0.636149  0.569542 0.392051 2 3 0.600000 1 0.400000
0  2.089159 9.154342 49.989052  0.142141 0.935348 -0.323914  0.594487 0.410601 2 3 0.600000 1 0.400000
0  2.476040 9.154341 50.303020  0.314035 0.919577 -0.236135  0.574924 0.424362 2 3 0.600000 1 0.400000
jetpack_cody
0  3.038644 8.655624 50.232574  0.805729 0.434477 -0.402530  0.546475 0.421275 2 3 0.600000 1 0.400000
0  2.582465 8.655631 49.565819  0.603857 0.480282 -0.636149  0.569542 0.392051 2 3 0.600000 1 0.400000
0  2.476040 9.154341 50.303020  0.314035 0.919577 -0.236135  0.574924 0.424362 2 3 0.600000 1 0.400000
jetpack_cody
0  3.038644 8.655624 50.232574  0.805729 0.434477 -0.402530  0.546475 0.421275 2 3 0.600000 1 0.400000
0  2.476040 9.154341 50.303020  0.314035 0.919577 -0.236135  0.574924 0.424362 2 3 0.600000 1 0.400000
0  2.791429 9.154341 50.893066  0.392229 0.908861 -0.141875  0.558975 0.450224 2 3 0.600000 1 0.400000
jetpack_cody
0  3.336391 8.655626 51.130890  0.895202 0.399288 -0.197948  0.531419 0.460648 2 3 0.600000 1 0.400000
0  3.038644 8.655624 50.232574  0.805729 0.434477 -0.402530  0.546475 0.421275 2 3 0.600000 1 0.400000
0  2.791429 9.154341 50.893066  0.392229 0.908861 -0.141875  0.558975 0.450224 2 3 0.600000 1 0.400000
jetpack_cody
0  3.336391 8.655626 51.130890  0.895202 0.399288 -0.197948  0.531419 0.460648 2 3 0.600000 1 0.400000
0  2.791429 9.154341 50.893066  0.392229 0.908861 -0.141875  0.558975 0.450224 2 3 0.600000 1 0.400000
0  2.997282 9.154334 51.688034  0.433058 0.898976 -0.065602  0.548566 0.485068 2 3 0.600000 1 0.400000
jetpack_cody
0  4.232560 8.655596 59.299194  0.879788 0.474573 0.027442  0.486101 0.818668 2 3 0.600000 1 0.400000
0  3.336391 8.655626 51.130890  0.895202 0.399288 -0.197948  0.531419 0.460648 2 3 0.600000 1 0.400000
0  2.997282 9.154334 51.688034  0.433058 0.898976 -0.065602  0.548566 0.485068 2 3 0.600000 1 0.400000
jetpack_cody
0  4.232560 8.655596 59.299194  0.879788 0.474573 0.027442  0.486101 0.818668 2 3 0.600000 1 0.400000
0  2.997282 9.154334 51.688034  0.433058 0.898976 -0.065602  0.548566 0.485068 2 3 0.600000 1 0.400000
0  3.616858 9.154309 58.916626  0.356064 0.934458 -0.002611  0.517235 0.801899 2 3 0.600000 1 0.400000
jetpack_cody
0  4.078748 8.655588 60.308723  0.822461 0.503993 0.263723  0.493878 0.862915 2 3 0.600000 1 0.400000
0  4.232560 8.655596 59.299194  0.879788 0.474573 0.027442  0.486101 0.818668 2 3 0.600000 1 0.400000
0  3.616858 9.154309 58.916626  0.356064 0.934458 -0.002611  0.517235 0.801899 2 3 0.600000 1 0.400000
jetpack_cody
0  4.078748 8.655588 60.308723  0.822461 0.503993 0.263723  0.493878 0.862915 2 3 0.600000 1 0.400000
0  3.616858 9.154309 58.916626  0.356064 0.934458 -0.002611  0.517235 0.801899 2 3 0.600000 1 0.400000
0  3.510517 9.154308 59.810013  0.334752 0.939044 0.078338  0.522612 0.841057 2 3 0.600000 1 0.400000
jetpack_cody
0  3.635873 8.655585 61.196472  0.691780 0.516510 0.504637  0.516273 0.901826 2 3 0.600000 1 0.400000
0  4.078748 8.655588 60.308723  0.822461 0.503993 0.263723  0.493878 0.862915 2 3 0.600000 1 0.400000
0  3.510517 9.154308 59.810013  0.334752 0.939044 0.078338  0.522612 0.841057 2 3 0.600000 1 0.400000
jetpack_cody
0  3.635873 8.655585 61.196472  0.691780 0.516510 0.504637  0.516273 0.901826 2 3 0.600000 1 0.400000
0  3.510517 9.154308 59.810013  0.334752 0.939044 0.078338  0.522612 0.841057 2 3 0.600000 1 0.400000
0  3.204324 9.154303 60.595642  0.303808 0.937145 0.171638  0.538094 0.875491 2 3 0.600000 1 0.400000
jetpack_cody
0  2.957352 8.655582 61.855385  0.473095 0.517583 0.712944  0.550582 0.930707 2 3 0.600000 1 0.400000
0  3.635873 8.655585 61.196472  0.691780 0.516510 0.504637  0.516273 0.901826 2 3 0.600000 1 0.400000
0  3.204324 9.154303 60.595642  0.303808 0.937145 0.171638  0.538094 0.875491 2 3 0.600000 1 0.400000
jetpack_cody
0  2.957352 8.655582 61.855385  0.473095 0.517583 0.712944  0.550582 0.930707 2 3 0.600000 1 0.400000
0  3.204324 9.154303 60.595642  0.303808 0.937145 0.171638  0.538094 0.875491 2 3 0.600000 1 0.400000
0  2.735215 9.154300 61.178745  0.237073 0.932549 0.272301  0.561815 0.901049 2 3 0.600000 1 0.400000
jetpack_cody
0  2.125029 8.655585 62.205994  0.199356 0.519508 0.830884  0.592670 0.946074 2 3 0.600000 1 0.400000
0  2.957352 8.655582 61.855385  0.473095 0.517583 0.712944  0.550582 0.930707 2 3 0.600000 1 0.400000
0  2.735215 9.154300 61.178745  0.237073 0.932549 0.272301  0.561815 0.901049 2 3 0.600000 1 0.400000
jetpack_cody
0  2.022878 8.655629 49.211044  0.233062 0.521532 -0.820784  0.597838 0.376501 2 3 0.600000 1 0.400000
0  0.925165 8.655628 49.192238  0.014821 0.501034 -0.865301  0.653345 0.375677 2 3 0.600000 1 0.400000
0  1.330230 9.154344 49.972416  0.006159 0.948135 -0.317809  0.632863 0.409872 2 3 0.600000 1 0.400000
jetpack_cody
0  -0.939229 8.655633 49.192226  -0.015315 0.501312 -0.865131  0.747621 0.375677 2 3 0.600000 1 0.400000
0  -2.036943 8.655632 49.211021  -0.235883 0.524832 -0.817870  0.803127 0.376501 2 3 0.600000 1 0.400000
0  -2.103232 9.154340 49.989029  -0.161406 0.928559 -0.334255  0.806479 0.410601 2 3 0.600000 1 0.400000
jetpack_cody
0  -2.036943 8.655632 49.211021  -0.235883 0.524832 -0.817870  0.803127 0.376501 2 3 0.600000 1 0.400000
0  -2.490118 9.154340 50.302994  -0.342547 0.907052 -0.244783  0.826042 0.424362 2 3 0.600000 1 0.400000
0  -2.103232 9.154340 49.989029  -0.161406 0.928559 -0.334255  0.806479 0.410601 2 3 0.600000 1 0.400000
jetpack_cody
0  -2.036943 8.655632 49.211021  -0.235883 0.524832 -0.817870  0.803127 0.376501 2 3 0.600000 1 0.400000
0  -2.596533 8.655631 49.565788  -0.598069 0.494007 -0.631087  0.831424 0.392051 2 3 0.600000 1 0.400000
0  -2.490118 9.154340 50.302994  -0.342547 0.907052 -0.244783  0.826042 0.424362 2 3 0.600000 1 0.400000
jetpack_cody
0  -0.939229 8.655633 49.192226  -0.015315 0.501312 -0.865131  0.747621 0.375677 2 3 0.600000 1 0.400000
0  -2.103232 9.154340 49.989029  -0.161406 0.928559 -0.334255  0.806479 0.410601 2 3 0.600000 1 0.400000
0  -1.344304 9.154341 49.972404  -0.006992 0.947758 -0.318914  0.768103 0.409872 2 3 0.600000 1 0.400000
jetpack_cody
0  -2.103232 9.154340 49.989029  -0.161406 0.928559 -0.334255  0.806479 0.410601 2 3 0.600000 1 0.400000
0  -1.344830 9.154312 58.048431  -0.000000 1.000000 0.000004  0.768128 0.763847 2 3 0.600000 1 0.400000
0  -1.344304 9.154341 49.972404  -0.006992 0.947758 -0.318914  0.768103 0.409872 2 3 0.600000 1 0.400000
jetpack_cody
0  -2.103232 9.154340 49.989029  -0.161406 0.928559 -0.334255  0.806479 0.410601 2 3 0.600000 1 0.400000
0  -2.490118 9.154340 50.302994  -0.342547 0.907052 -0.244783  0.826042 0.424362 2 3 0.600000 1 0.400000
0  -1.344830 9.154312 58.048431  -0.000000 1.000000 0.000004  0.768128 0.763847 2 3 0.600000 1 0.400000
jetpack_cody
0  -2.490118 9.154340 50.302994  -0.342547 0.907052 -0.244783  0.826042 0.424362 2 3 0.600000 1 0.400000
0  -2.805512 9.154340 50.893040  -0.413400 0.899115 -0.143850  0.841991 0.450224 2 3 0.600000 1 0.400000
0  -1.344830 9.154312 58.048431  -0.000000 1.000000 0.000004  0.768128 0.763847 2 3 0.600000 1 0.400000
jetpack_cody
0  -2.490118 9.154340 50.302994  -0.342547 0.907052 -0.244783  0.826042 0.424362 2 3 0.600000 1 0.400000
0  -2.596533 8.655631 49.565788  -0.598069 0.494007 -0.631087  0.831424 0.392051 2 3 0.600000 1 0.400000
0  -2.805512 9.154340 50.893040  -0.413400 0.899115 -0.143850  0.841991 0.450224 2 3 0.600000 1 0.400000
jetpack_cody
0  -2.596533 8.655631 49.565788  -0.598069 0.494007 -0.631087  0.831424 0.392051 2 3 0.600000 1 0.400000
0  -3.052721 8.655624 50.232540  -0.794851 0.453540 -0.403130  0.854491 0.421275 2 3 0.600000 1 0.400000
0  -2.805512 9.154340 50.893040  -0.413400 0.899115 -0.143850  0.841991 0.450224 2 3 0.600000 1 0.400000
jetpack_cody
0  -3.011374 9.154335 51.688000  -0.442307 0.894560 -0.064238  0.852400 0.485068 2 3 0.600000 1 0.400000
0  -2.805512 9.154340 50.893040  -0.413400 0.899115 -0.143850  0.841991 0.450224 2 3 0.600000 1 0.400000
0  -3.052721 8.655624 50.232540  -0.794851 0.453540 -0.403130  0.854491 0.421275 2 3 0.600000 1 0.400000
jetpack_cody
0  -3.011374 9.154335 51.688000  -0.442307 0.894560 -0.064238  0.852400 0.485068 2 3 0.600000 1 0.400000
0  -3.052721 8.655624 50.232540  -0.794851 0.453540 -0.403130  0.854491 0.421275 2 3 0.600000 1 0.400000
0  -3.350477 8.655622 51.130856  -0.887650 0.413963 -0.201773  0.869547 0.460648 2 3 0.600000 1 0.400000
jetpack_cody
0  -3.631029 9.154308 58.916580  -0.359623 0.933036 -0.010713  0.883731 0.801899 2 3 0.600000 1 0.400000
0  -3.011374 9.154335 51.688000  -0.442307 0.894560 -0.064238  0.852400 0.485068 2 3 0.600000 1 0.400000
0  -3.350477 8.655622 51.130856  -0.887650 0.413963 -0.201773  0.869547 0.460648 2 3 0.600000 1 0.400000
jetpack_cody
0  -3.631029 9.154308 58.916580  -0.359623 0.933036 -0.010713  0.883731 0.801899 2 3 0.600000 1 0.400000
0  -3.350477 8.655622 51.130856  -0.887650 0.413963 -0.201773  0.869547 0.460648 2 3 0.600000 1 0.400000
0  -4.246731 8.655591 59.299149  -0.881531 0.471612 0.022011  0.914865 0.818667 2 3 0.600000 1 0.400000
jetpack_cody
0  -3.524695 9.154305 59.809975  -0.327251 0.942020 0.074190  0.878354 0.841056 2 3 0.600000 1 0.400000
0  -3.631029 9.154308 58.916580  -0.359623 0.933036 -0.010713  0.883731 0.801899 2 3 0.600000 1 0.400000
0  -4.246731 8.655591 59.299149  -0.881531 0.471612 0.022011  0.914865 0.818667 2 3 0.600000 1 0.400000
jetpack_cody
0  -3.524695 9.154305 59.809975  -0.327251 0.942020 0.074190  0.878354 0.841056 2 3 0.600000 1 0.400000
0  -4.246731 8.655591 59.299149  -0.881531 0.471612 0.022011  0.914865 0.818667 2 3 0.600000 1 0.400000
0  -4.092933 8.655588 60.308678  -0.829386 0.494191 0.260563  0.907088 0.862915 2 3 0.600000 1 0.400000
jetpack_cody
0  -3.218512 9.154303 60.595596  -0.287488 0.943494 0.164836  0.862872 0.875491 2 3 0.600000 1 0.400000
0  -3.524695 9.154305 59.809975  -0.327251 0.942020 0.074190  0.878354 0.841056 2 3 0.600000 1 0.400000
0  -4.092933 8.655588 60.308678  -0.829386 0.494191 0.260563  0.907088 0.862915 2 3 0.600000 1 0.400000
jetpack_cody
0  -3.218512 9.154303 60.595596  -0.287488 0.943494 0.164836  0.862872 0.875491 2 3 0.600000 1 0.400000
0  -4.092933 8.655588 60.308678  -0.829386 0.494191 0.260563  0.907088 0.862915 2 3 0.600000 1 0.400000
0  -3.650066 8.655584 61.196430  -0.700047 0.503304 0.506575  0.884694 0.901826 2 3 0.600000 1 0.400000
jetpack_cody
0  -2.749410 9.154301 61.178715  -0.217653 0.940247 0.261846  0.839151 0.901049 2 3 0.600000 1 0.400000
0  -3.218512 9.154303 60.595596  -0.287488 0.943494 0.164836  0.862872 0.875491 2 3 0.600000 1 0.400000
0  -3.650066 8.655584 61.196430  -0.700047 0.503304 0.506575  0.884694 0.901826 2 3 0.600000 1 0.400000
jetpack_cody
0  -2.749410 9.154301 61.178715  -0.217653 0.940247 0.261846  0.839151 0.901049 2 3 0.600000 1 0.400000
0  -3.650066 8.655584 61.196430  -0.700047 0.503304 0.506575  0.884694 0.901826 2 3 0.600000 1 0.400000
0  -2.971555 8.655587 61.855354  -0.476358 0.506078 0.719004  0.850384 0.930707 2 3 0.600000 1 0.400000
jetpack_cody
0  -2.173966 9.154301 61.488991  -0.101567 0.940858 0.323220  0.810053 0.914648 2 3 0.600000 1 0.400000
0  -2.749410 9.154301 61.178715  -0.217653 0.940247 0.261846  0.839151 0.901049 2 3 0.600000 1 0.400000
0  -2.971555 8.655587 61.855354  -0.476358 0.506078 0.719004  0.850384 0.930707 2 3 0.600000 1 0.400000
jetpack_cody
0  -2.173966 9.154301 61.488991  -0.101567 0.940858 0.323220  0.810053 0.914648 2 3 0.600000 1 0.400000
0  -2.971555 8.655587 61.855354  -0.476358 0.506078 0.719004  0.850384 0.930707 2 3 0.600000 1 0.400000
0  -2.139232 8.655585 62.205971  -0.197177 0.514372 0.834591  0.808296 0.946074 2 3 0.600000 1 0.400000
jetpack_cody
0  -3.149423 6.442460 62.209702  -0.541453 0.175174 0.822279  0.074441 0.947428 2 3 0.600000 1 0.400000
0  -3.650066 8.655584 61.196430  -0.700047 0.503304 0.506575  0.167705 0.905042 2 3 0.600000 1 0.400000
0  -3.868647 6.442464 61.511250  -0.793168 0.161852 0.587101  0.074441 0.918211 2 3 0.600000 1 0.400000
jetpack_cody
0  -2.971555 8.655587 61.855354  -0.476358 0.506078 0.719004  0.167705 0.932605 2 3 0.600000 1 0.400000
0  -3.650066 8.655584 61.196430  -0.700047 0.503304 0.506575  0.167705 0.905042 2 3 0.600000 1 0.400000
0  -3.149423 6.442460 62.209702  -0.541453 0.175174 0.822279  0.074441 0.947428 2 3 0.600000 1 0.400000
jetpack_cody
0  -2.267163 6.442460 62.581352  -0.234243 0.175722 0.956165  0.074441 0.962974 2 3 0.600000 1 0.400000
0  -2.971555 8.655587 61.855354  -0.476358 0.506078 0.719004  0.167705 0.932605 2 3 0.600000 1 0.400000
0  -3.149423 6.442460 62.209702  -0.541453 0.175174 0.822279  0.074441 0.947428 2 3 0.600000 1 0.400000
jetpack_cody
0  -2.139232 8.655585 62.205971  -0.197177 0.514372 0.834591  0.167705 0.947271 2 3 0.600000 1 0.400000
0  -2.971555 8.655587 61.855354  -0.476358 0.506078 0.719004  0.167705 0.932605 2 3 0.600000 1 0.400000
0  -2.267163 6.442460 62.581352  -0.234243 0.175722 0.956165  0.074441 0.962974 2 3 0.600000 1 0.400000
jetpack_cody
0  -0.995237 6.442460 62.681656  -0.077456 0.171076 0.982209  0.074441 0.967170 2 3 0.600000 1 0.400000
0  -2.139232 8.655585 62.205971  -0.197177 0.514372 0.834591  0.167705 0.947271 2 3 0.600000 1 0.400000
0  -2.267163 6.442460 62.581352  -0.234243 0.175722 0.956165  0.074441 0.962974 2 3 0.600000 1 0.400000
jetpack_cody
0  -0.939303 8.655581 62.300598  -0.069547 0.466155 0.881965  0.167705 0.951229 2 3 0.600000 1 0.400000
0  -2.139232 8.655585 62.205971  -0.197177 0.514372 0.834591  0.167705 0.947271 2 3 0.600000 1 0.400000
0  -0.995237 6.442460 62.681656  -0.077456 0.171076 0.982209  0.074441 0.967170 2 3 0.600000 1 0.400000
jetpack_cody
0  -0.814404 8.437995 61.302673  0.943186 0.329036 0.046212  0.158535 0.909485 2 3 0.600000 1 0.400000
0  -0.939303 8.655581 62.300598  0.967003 0.241685 0.080579  0.167705 0.951229 2 3 0.600000 1 0.400000
0  -0.995237 6.442460 62.681656  0.992177 0.010017 0.124439  0.074441 0.967170 2 3 0.600000 1 0.400000
jetpack_cody
0  -0.814404 8.437995 61.302673  0.943186 0.329036 0.046212  0.158535 0.909485 2 3 0.600000 1 0.400000
0  -0.995237 6.442460 62.681656  0.992177 0.010017 0.124439  0.074441 0.967170 2 3 0.600000 1 0.400000
0  -0.862844 6.446552 61.623848  0.989026 0.080180 0.124095  0.074613 0.922920 2 3 0.600000 1 0.400000
jetpack_cody
0  -0.007097 8.437995 61.302673  -0.000006 0.159220 0.987243  0.158535 0.909485 2 3 0.600000 1 0.400000
0  -0.814404 8.437995 61.302673  0.000000 0.159220 0.987243  0.158535 0.909485 2 3 0.600000 1 0.400000
0  -0.862844 6.446552 61.623848  0.000000 0.159220 0.987243  0.074613 0.922920 2 3 0.600000 1 0.400000
jetpack_cody
0  -0.007097 8.437995 61.302673  -0.000006 0.159220 0.987243  0.158535 0.909485 2 3 0.600000 1 0.400000
0  -0.862844 6.446552 61.623848  0.000000 0.159220 0.987243  0.074613 0.922920 2 3 0.600000 1 0.400000
0  -0.007099 6.446552 61.623848  -0.000009 0.159220 0.987243  0.074613 0.922920 2 3 0.600000 1 0.400000
jetpack_cody
0  0.848645 6.446550 61.623856  -0.000016 0.159220 0.987243  0.074613 0.922920 2 3 0.600000 1 0.400000
0  -0.007097 8.437995 61.302673  -0.000006 0.159220 0.987243  0.158535 0.909485 2 3 0.600000 1 0.400000
0  -0.007099 6.446552 61.623848  -0.000009 0.159220 0.987243  0.074613 0.922920 2 3 0.600000 1 0.400000
jetpack_cody
0  0.800209 8.437995 61.302681  -0.000009 0.159220 0.987243  0.158535 0.909485 2 3 0.600000 1 0.400000
0  -0.007097 8.437995 61.302673  -0.000006 0.159220 0.987243  0.158535 0.909485 2 3 0.600000 1 0.400000
0  0.848645 6.446550 61.623856  -0.000016 0.159220 0.987243  0.074613 0.922920 2 3 0.600000 1 0.400000
jetpack_cody
0  0.981026 6.442460 62.681664  -0.992184 0.009434 0.124428  0.074441 0.967170 2 3 0.600000 1 0.400000
0  0.800209 8.437995 61.302681  -0.943188 0.329032 0.046202  0.158535 0.909485 2 3 0.600000 1 0.400000
0  0.848645 6.446550 61.623856  -0.989027 0.080182 0.124083  0.074613 0.922920 2 3 0.600000 1 0.400000
jetpack_cody
0  0.925096 8.655581 62.300606  -0.967002 0.241697 0.080562  0.167705 0.951229 2 3 0.600000 1 0.400000
0  0.800209 8.437995 61.302681  -0.943188 0.329032 0.046202  0.158535 0.909485 2 3 0.600000 1 0.400000
0  0.981026 6.442460 62.681664  -0.992184 0.009434 0.124428  0.074441 0.967170 2 3 0.600000 1 0.400000
jetpack_cody
0  2.125029 8.655585 62.205994  0.199356 0.519508 0.830884  0.167705 0.947271 2 3 0.600000 1 0.400000
0  0.925096 8.655581 62.300606  0.072038 0.467410 0.881100  0.167705 0.951229 2 3 0.600000 1 0.400000
0  0.981026 6.442460 62.681664  0.077445 0.171075 0.982210  0.074441 0.967170 2 3 0.600000 1 0.400000
jetpack_cody
0  2.125029 8.655585 62.205994  0.199356 0.519508 0.830884  0.167705 0.947271 2 3 0.600000 1 0.400000
0  0.981026 6.442460 62.681664  0.077445 0.171075 0.982210  0.074441 0.967170 2 3 0.600000 1 0.400000
0  2.252954 6.442460 62.581375  0.234232 0.175721 0.956168  0.074441 0.962974 2 3 0.600000 1 0.400000
jetpack_cody
0  2.125029 8.655585 62.205994  0.199356 0.519508 0.830884  0.167705 0.947271 2 3 0.600000 1 0.400000
0  2.252954 6.442460 62.581375  0.234232 0.175721 0.956168  0.074441 0.962974 2 3 0.600000 1 0.400000
0  2.957352 8.655582 61.855385  0.473095 0.517583 0.712944  0.167705 0.932605 2 3 0.600000 1 0.400000
jetpack_cody
0  2.252954 6.442460 62.581375  0.234232 0.175721 0.956168  0.074441 0.962974 2 3 0.600000 1 0.400000
0  3.135217 6.442461 62.209732  0.541442 0.175173 0.822287  0.074441 0.947428 2 3 0.600000 1 0.400000
0  2.957352 8.655582 61.855385  0.473095 0.517583 0.712944  0.167705 0.932605 2 3 0.600000 1 0.400000
jetpack_cody
0  2.957352 8.655582 61.855385  0.473095 0.517583 0.712944  0.167705 0.932605 2 3 0.600000 1 0.400000
0  3.135217 6.442461 62.209732  0.541442 0.175173 0.822287  0.074441 0.947428 2 3 0.600000 1 0.400000
0  3.635873 8.655585 61.196472  0.691780 0.516510 0.504637  0.167705 0.905042 2 3 0.600000 1 0.400000
jetpack_cody
0  3.135217 6.442461 62.209732  0.541442 0.175173 0.822287  0.074441 0.947428 2 3 0.600000 1 0.400000
0  3.854449 6.442464 61.511284  0.793160 0.161851 0.587113  0.074441 0.918211 2 3 0.600000 1 0.400000
0  3.635873 8.655585 61.196472  0.691780 0.516510 0.504637  0.167705 0.905042 2 3 0.600000 1 0.400000
jetpack_cody
0  3.635873 8.655585 61.196472  0.691780 0.516510 0.504637  0.167705 0.905042 2 3 0.600000 1 0.400000
0  3.854449 6.442464 61.511284  0.793160 0.161851 0.587113  0.074441 0.918211 2 3 0.600000 1 0.400000
0  4.078748 8.655588 60.308723  0.822461 0.503993 0.263723  0.167705 0.867906 2 3 0.600000 1 0.400000
jetpack_cody
0  3.854449 6.442464 61.511284  0.793160 0.161851 0.587113  0.074441 0.918211 2 3 0.600000 1 0.400000
0  4.323896 6.442466 60.570263  0.941505 0.140490 0.306317  0.074441 0.878847 2 3 0.600000 1 0.400000
0  4.078748 8.655588 60.308723  0.822461 0.503993 0.263723  0.167705 0.867906 2 3 0.600000 1 0.400000
jetpack_cody
0  4.078748 8.655588 60.308723  0.822461 0.503993 0.263723  0.167705 0.867906 2 3 0.600000 1 0.400000
0  4.323896 6.442466 60.570263  0.941505 0.140490 0.306317  0.074441 0.878847 2 3 0.600000 1 0.400000
0  4.232560 8.655596 59.299194  0.879788 0.474573 0.027442  0.167705 0.825676 2 3 0.600000 1 0.400000
jetpack_cody
0  4.323896 6.442466 60.570263  0.941505 0.140490 0.306317  0.074441 0.878847 2 3 0.600000 1 0.400000
0  4.486936 6.442471 59.500160  0.992782 0.116644 0.027905  0.074441 0.834083 2 3 0.600000 1 0.400000
0  4.232560 8.655596 59.299194  0.879788 0.474573 0.027442  0.167705 0.825676 2 3 0.600000 1 0.400000
jetpack_cody
0  4.232560 8.655596 59.299194  0.879788 0.474573 0.027442  0.167705 0.825676 2 3 0.600000 1 0.400000
0  4.486936 6.442471 59.500160  0.992782 0.116644 0.027905  0.074441 0.834083 2 3 0.600000 1 0.400000
0  3.336391 8.655626 51.130890  0.895202 0.399288 -0.197948  0.167705 0.483988 2 3 0.600000 1 0.400000
jetpack_cody
0  4.486936 6.442471 59.500160  0.992782 0.116644 0.027905  0.074441 0.834083 2 3 0.600000 1 0.400000
0  3.536997 6.442502 50.841766  0.968885 0.116363 -0.218451  0.074441 0.471894 2 3 0.600000 1 0.400000
0  3.336391 8.655626 51.130890  0.895202 0.399288 -0.197948  0.167705 0.483988 2 3 0.600000 1 0.400000
jetpack_cody
0  3.336391 8.655626 51.130890  0.895202 0.399288 -0.197948  0.167705 0.483988 2 3 0.600000 1 0.400000
0  3.536997 6.442502 50.841766  0.968885 0.116363 -0.218451  0.074441 0.471894 2 3 0.600000 1 0.400000
0  3.038644 8.655624 50.232574  0.805729 0.434477 -0.402530  0.167705 0.446410 2 3 0.600000 1 0.400000
jetpack_cody
0  3.536997 6.442502 50.841766  0.968885 0.116363 -0.218451  0.074441 0.471894 2 3 0.600000 1 0.400000
0  3.221386 6.442504 49.889545  0.883028 0.142236 -0.447248  0.074441 0.432062 2 3 0.600000 1 0.400000
0  3.038644 8.655624 50.232574  0.805729 0.434477 -0.402530  0.167705 0.446410 2 3 0.600000 1 0.400000
jetpack_cody
0  3.038644 8.655624 50.232574  0.805729 0.434477 -0.402530  0.167705 0.446410 2 3 0.600000 1 0.400000
0  3.221386 6.442504 49.889545  0.883028 0.142236 -0.447248  0.074441 0.432062 2 3 0.600000 1 0.400000
0  2.582465 8.655631 49.565819  0.603857 0.480282 -0.636149  0.167705 0.418519 2 3 0.600000 1 0.400000
jetpack_cody
0  3.221386 6.442504 49.889545  0.883028 0.142236 -0.447248  0.074441 0.432062 2 3 0.600000 1 0.400000
0  2.737837 6.442508 49.182785  0.678306 0.171287 -0.714536  0.074441 0.402497 2 3 0.600000 1 0.400000
0  2.582465 8.655631 49.565819  0.603857 0.480282 -0.636149  0.167705 0.418519 2 3 0.600000 1 0.400000
jetpack_cody
0  2.582465 8.655631 49.565819  0.603857 0.480282 -0.636149  0.167705 0.418519 2 3 0.600000 1 0.400000
0  2.737837 6.442508 49.182785  0.678306 0.171287 -0.714536  0.074441 0.402497 2 3 0.600000 1 0.400000
0  2.022878 8.655629 49.211044  0.233062 0.521532 -0.820784  0.167705 0.403679 2 3 0.600000 1 0.400000
jetpack_cody
0  2.737837 6.442508 49.182785  0.678306 0.171287 -0.714536  0.074441 0.402497 2 3 0.600000 1 0.400000
0  2.144674 6.442508 48.806725  0.281958 0.187419 -0.940943  0.074441 0.386766 2 3 0.600000 1 0.400000
0  2.022878 8.655629 49.211044  0.233062 0.521532 -0.820784  0.167705 0.403679 2 3 0.600000 1 0.400000
jetpack_cody
0  2.022878 8.655629 49.211044  0.233062 0.521532 -0.820784  0.167705 0.403679 2 3 0.600000 1 0.400000
0  2.144674 6.442508 48.806725  0.281958 0.187419 -0.940943  0.074441 0.386766 2 3 0.600000 1 0.400000
0  0.925165 8.655628 49.192238  0.014821 0.501034 -0.865301  0.167705 0.402893 2 3 0.600000 1 0.400000
jetpack_cody
0  2.144674 6.442508 48.806725  0.281958 0.187419 -0.940943  0.074441 0.386766 2 3 0.600000 1 0.400000
0  0.981099 6.442508 48.786793  0.016846 0.180588 -0.983415  0.074441 0.385933 2 3 0.600000 1 0.400000
0  0.925165 8.655628 49.192238  0.014821 0.501034 -0.865301  0.167705 0.402893 2 3 0.600000 1 0.400000
jetpack_cody
0  0.981099 6.442508 48.786793  -0.992293 0.006239 -0.123756  0.074441 0.385933 2 3 0.600000 1 0.400000
0  0.848708 6.446594 49.848537  -0.990922 0.052373 -0.123819  0.074613 0.430347 2 3 0.600000 1 0.400000
0  0.925165 8.655628 49.192238  -0.968569 0.235066 -0.081353  0.167705 0.402893 2 3 0.600000 1 0.400000
jetpack_cody
0  0.848708 6.446594 49.848537  -0.990922 0.052373 -0.123819  0.074613 0.430347 2 3 0.600000 1 0.400000
0  0.800267 8.438033 50.193878  -0.942851 0.330043 -0.045868  0.158535 0.444792 2 3 0.600000 1 0.400000
0  0.925165 8.655628 49.192238  -0.968569 0.235066 -0.081353  0.167705 0.402893 2 3 0.600000 1 0.400000
jetpack_cody
0  0.848708 6.446594 49.848537  0.000009 0.170863 -0.985295  0.074613 0.430347 2 3 0.600000 1 0.400000
0  -0.007035 6.446594 49.848534  0.000008 0.170864 -0.985295  0.074613 0.430347 2 3 0.600000 1 0.400000
0  0.800267 8.438033 50.193878  0.000006 0.170864 -0.985295  0.158535 0.444792 2 3 0.600000 1 0.400000
jetpack_cody
0  -0.007035 6.446594 49.848534  0.000008 0.170864 -0.985295  0.074613 0.430347 2 3 0.600000 1 0.400000
0  -0.007037 8.438035 50.193878  0.000005 0.170864 -0.985295  0.158535 0.444793 2 3 0.600000 1 0.400000
0  0.800267 8.438033 50.193878  0.000006 0.170864 -0.985295  0.158535 0.444792 2 3 0.600000 1 0.400000
jetpack_cody
0  -0.007035 6.446594 49.848534  0.000008 0.170864 -0.985295  0.074613 0.430347 2 3 0.600000 1 0.400000
0  -0.814342 8.438033 50.193871  0.000005 0.170864 -0.985295  0.158535 0.444792 2 3 0.600000 1 0.400000
0  -0.007037 8.438035 50.193878  0.000005 0.170864 -0.985295  0.158535 0.444793 2 3 0.600000 1 0.400000
jetpack_cody
0  -0.007035 6.446594 49.848534  0.000008 0.170864 -0.985295  0.074613 0.430347 2 3 0.600000 1 0.400000
0  -0.862778 6.446595 49.848526  0.000009 0.170864 -0.985295  0.074613 0.430347 2 3 0.600000 1 0.400000
0  -0.814342 8.438033 50.193871  0.000005 0.170864 -0.985295  0.158535 0.444792 2 3 0.600000 1 0.400000
jetpack_cody
0  -0.862778 6.446595 49.848526  0.990923 0.052365 -0.123810  0.074613 0.430347 2 3 0.600000 1 0.400000
0  -0.939229 8.655633 49.192226  0.968568 0.235074 -0.081338  0.167705 0.402893 2 3 0.600000 1 0.400000
0  -0.814342 8.438033 50.193871  0.942853 0.330038 -0.045858  0.158535 0.444792 2 3 0.600000 1 0.400000
jetpack_cody
0  -0.862778 6.446595 49.848526  0.990923 0.052365 -0.123810  0.074613 0.430347 2 3 0.600000 1 0.400000
0  -0.995160 6.442508 48.786781  0.992294 0.006237 -0.123746  0.074441 0.385933 2 3 0.600000 1 0.400000
0  -0.939229 8.655633 49.192226  0.968568 0.235074 -0.081338  0.167705 0.402893 2 3 0.600000 1 0.400000
jetpack_cody
0  -0.995160 6.442508 48.786781  -0.016846 0.180587 -0.983415  0.074441 0.385933 2 3 0.600000 1 0.400000
0  -2.158735 6.442508 48.806702  -0.281951 0.187419 -0.940945  0.074441 0.386766 2 3 0.600000 1 0.400000
0  -0.939229 8.655633 49.192226  -0.015315 0.501312 -0.865131  0.167705 0.402893 2 3 0.600000 1 0.400000
jetpack_cody
0  -2.036943 8.655632 49.211021  -0.235883 0.524832 -0.817870  0.167705 0.403679 2 3 0.600000 1 0.400000
0  -0.939229 8.655633 49.192226  -0.015315 0.501312 -0.865131  0.167705 0.402893 2 3 0.600000 1 0.400000
0  -2.158735 6.442508 48.806702  -0.281951 0.187419 -0.940945  0.074441 0.386766 2 3 0.600000 1 0.400000
jetpack_cody
0  -2.751902 6.442507 49.182755  -0.678296 0.171288 -0.714545  0.074441 0.402497 2 3 0.600000 1 0.400000
0  -2.036943 8.655632 49.211021  -0.235883 0.524832 -0.817870  0.167705 0.403679 2 3 0.600000 1 0.400000
0  -2.158735 6.442508 48.806702  -0.281951 0.187419 -0.940945  0.074441 0.386766 2 3 0.600000 1 0.400000
jetpack_cody
0  -2.596533 8.655631 49.565788  -0.598069 0.494007 -0.631087  0.167705 0.418519 2 3 0.600000 1 0.400000
0  -2.036943 8.655632 49.211021  -0.235883 0.524832 -0.817870  0.167705 0.403679 2 3 0.600000 1 0.400000
0  -2.751902 6.442507 49.182755  -0.678296 0.171288 -0.714545  0.074441 0.402497 2 3 0.600000 1 0.400000
jetpack_cody
0  -3.235458 6.442504 49.889511  -0.883021 0.142236 -0.447261  0.074441 0.432062 2 3 0.600000 1 0.400000
0  -2.596533 8.655631 49.565788  -0.598069 0.494007 -0.631087  0.167705 0.418519 2 3 0.600000 1 0.400000
0  -2.751902 6.442507 49.182755  -0.678296 0.171288 -0.714545  0.074441 0.402497 2 3 0.600000 1 0.400000
jetpack_cody
0  -3.052721 8.655624 50.232540  -0.794851 0.453540 -0.403130  0.167705 0.446410 2 3 0.600000 1 0.400000
0  -2.596533 8.655631 49.565788  -0.598069 0.494007 -0.631087  0.167705 0.418519 2 3 0.600000 1 0.400000
0  -3.235458 6.442504 49.889511  -0.883021 0.142236 -0.447261  0.074441 0.432062 2 3 0.600000 1 0.400000
jetpack_cody
0  -3.551081 6.442502 50.841728  -0.968883 0.116363 -0.218463  0.074441 0.471894 2 3 0.600000 1 0.400000
0  -3.052721 8.655624 50.232540  -0.794851 0.453540 -0.403130  0.167705 0.446410 2 3 0.600000 1 0.400000
0  -3.235458 6.442504 49.889511  -0.883021 0.142236 -0.447261  0.074441 0.432062 2 3 0.600000 1 0.400000
jetpack_cody
0  -3.350477 8.655622 51.130856  -0.887650 0.413963 -0.201773  0.167705 0.483988 2 3 0.600000 1 0.400000
0  -3.052721 8.655624 50.232540  -0.794851 0.453540 -0.403130  0.167705 0.446410 2 3 0.600000 1 0.400000
0  -3.551081 6.442502 50.841728  -0.968883 0.116363 -0.218463  0.074441 0.471894 2 3 0.600000 1 0.400000
jetpack_cody
0  -4.501113 6.442470 59.500114  -0.992782 0.116646 0.027897  0.074441 0.834084 2 3 0.600000 1 0.400000
0  -3.350477 8.655622 51.130856  -0.887650 0.413963 -0.201773  0.167705 0.483988 2 3 0.600000 1 0.400000
0  -3.551081 6.442502 50.841728  -0.968883 0.116363 -0.218463  0.074441 0.471894 2 3 0.600000 1 0.400000
jetpack_cody
0  -4.246731 8.655591 59.299149  -0.881531 0.471612 0.022011  0.167705 0.825676 2 3 0.600000 1 0.400000
0  -3.350477 8.655622 51.130856  -0.887650 0.413963 -0.201773  0.167705 0.483988 2 3 0.600000 1 0.400000
0  -4.501113 6.442470 59.500114  -0.992782 0.116646 0.027897  0.074441 0.834084 2 3 0.600000 1 0.400000
jetpack_cody
0  -4.338083 6.442465 60.570213  -0.941510 0.140490 0.306303  0.074441 0.878847 2 3 0.600000 1 0.400000
0  -4.246731 8.655591 59.299149  -0.881531 0.471612 0.022011  0.167705 0.825676 2 3 0.600000 1 0.400000
0  -4.501113 6.442470 59.500114  -0.992782 0.116646 0.027897  0.074441 0.834084 2 3 0.600000 1 0.400000
jetpack_cody
0  -4.092933 8.655588 60.308678  -0.829386 0.494191 0.260563  0.167705 0.867906 2 3 0.600000 1 0.400000
0  -4.246731 8.655591 59.299149  -0.881531 0.471612 0.022011  0.167705 0.825676 2 3 0.600000 1 0.400000
0  -4.338083 6.442465 60.570213  -0.941510 0.140490 0.306303  0.074441 0.878847 2 3 0.600000 1 0.400000
jetpack_cody
0  -3.868647 6.442464 61.511250  -0.793168 0.161852 0.587101  0.074441 0.918211 2 3 0.600000 1 0.400000
0  -4.092933 8.655588 60.308678  -0.829386 0.494191 0.260563  0.167705 0.867906 2 3 0.600000 1 0.400000
0  -4.338083 6.442465 60.570213  -0.941510 0.140490 0.306303  0.074441 0.878847 2 3 0.600000 1 0.400000
jetpack_cody
0  -3.650066 8.655584 61.196430  -0.700047 0.503304 0.506575  0.167705 0.905042 2 3 0.600000 1 0.400000
0  -4.092933 8.655588 60.308678  -0.829386 0.494191 0.260563  0.167705 0.867906 2 3 0.600000 1 0.400000
0  -3.868647 6.442464 61.511250  -0.793168 0.161852 0.587101  0.074441 0.918211 2 3 0.600000 1 0.400000
end
