version 1
nodes
0 "ValveBiped.Bip01_Pelvis" -1
1 "ValveBiped.Bip01_Spine" 0
2 "ValveBiped.Bip01_Spine1" 1
3 "ValveBiped.Bip01_Spine2" 2
4 "ValveBiped.Bip01_Spine4" 3
5 "ValveBiped.Bip01_Neck1" 4
6 "ValveBiped.Bip01_Head1" 5
7 "ValveBiped.forward" 6
8 "ValveBiped.Bip01_R_Clavicle" 4
9 "ValveBiped.Bip01_R_UpperArm" 8
10 "ValveBiped.Bip01_R_Forearm" 9
11 "ValveBiped.Bip01_R_Hand" 10
12 "ValveBiped.Anim_Attachment_RH" 11
13 "ValveBiped.Bip01_R_Finger4" 11
14 "ValveBiped.Bip01_R_Finger41" 13
15 "ValveBiped.Bip01_R_Finger42" 14
16 "ValveBiped.Bip01_R_Finger3" 11
17 "ValveBiped.Bip01_R_Finger31" 16
18 "ValveBiped.Bip01_R_Finger32" 17
19 "ValveBiped.Bip01_R_Finger2" 11
20 "ValveBiped.Bip01_R_Finger21" 19
21 "ValveBiped.Bip01_R_Finger22" 20
22 "ValveBiped.Bip01_R_Finger1" 11
23 "ValveBiped.Bip01_R_Finger11" 22
24 "ValveBiped.Bip01_R_Finger12" 23
25 "ValveBiped.Bip01_R_Finger0" 11
26 "ValveBiped.Bip01_R_Finger01" 25
27 "ValveBiped.Bip01_R_Finger02" 26
28 "ValveBiped.Bip01_R_Ulna" 10
29 "ValveBiped.Bip01_R_Wrist" 10
30 "ValveBiped.Bip01_R_Shoulder" 9
31 "ValveBiped.Bip01_R_Bicep" 9
32 "ValveBiped.Bip01_R_Trapezius" 8
33 "ValveBiped.Bip01_L_Clavicle" 4
34 "ValveBiped.Bip01_L_UpperArm" 33
35 "ValveBiped.Bip01_L_Forearm" 34
36 "ValveBiped.Bip01_L_Hand" 35
37 "ValveBiped.Anim_Attachment_LH" 36
38 "ValveBiped.Bip01_L_Finger4" 36
39 "ValveBiped.Bip01_L_Finger41" 38
40 "ValveBiped.Bip01_L_Finger42" 39
41 "ValveBiped.Bip01_L_Finger3" 36
42 "ValveBiped.Bip01_L_Finger31" 41
43 "ValveBiped.Bip01_L_Finger32" 42
44 "ValveBiped.Bip01_L_Finger2" 36
45 "ValveBiped.Bip01_L_Finger21" 44
46 "ValveBiped.Bip01_L_Finger22" 45
47 "ValveBiped.Bip01_L_Finger1" 36
48 "ValveBiped.Bip01_L_Finger11" 47
49 "ValveBiped.Bip01_L_Finger12" 48
50 "ValveBiped.Bip01_L_Finger0" 36
51 "ValveBiped.Bip01_L_Finger01" 50
52 "ValveBiped.Bip01_L_Finger02" 51
53 "ValveBiped.Bip01_L_Ulna" 35
54 "ValveBiped.Bip01_L_Wrist" 35
55 "ValveBiped.Bip01_L_Shoulder" 34
56 "ValveBiped.Bip01_L_Bicep" 34
57 "ValveBiped.Bip01_L_Trapezius" 33
58 "ValveBiped.Bip01_R_Thigh" 0
59 "ValveBiped.Bip01_R_Calf" 58
60 "ValveBiped.Bip01_R_Foot" 59
61 "ValveBiped.Bip01_R_Toe0" 60
62 "ValveBiped.Bip01_L_Thigh" 0
63 "ValveBiped.Bip01_L_Calf" 62
64 "ValveBiped.Bip01_L_Foot" 63
65 "ValveBiped.Bip01_L_Toe0" 64
end
skeleton
time 0
0  -0.000005 -0.533615 38.566917  1.570796 -0.000000 0.000000
1  0.000005 3.345128 -2.981901  1.570797 0.086286 1.570793
2  4.018296 -0.000027 -0.000024  0.000000 -0.000005 -0.029254
3  3.518547 -0.000001 -0.000026  0.000000 -0.000038 0.100336
4  8.942602 0.000019 -0.000404  0.000008 0.000043 0.194102
5  3.307233 -0.000012 -0.000004  3.141592 -0.000000 0.400480
6  3.593704 0.000030 0.000008  -0.000000 0.000003 0.406593
7  1.999991 -3.000002 0.000013  -1.570791 -0.000002 -1.326470
8  2.033309 1.000778 -1.937614  1.473084 1.855095 -0.198677
9  6.028139 0.000074 0.000063  1.590088 -0.099553 0.273382
10  11.692583 0.000171 0.000031  -0.001727 0.013682 -0.311267
11  11.481688 0.000265 -0.000008  -1.564931 0.106610 0.044217
12  2.676056 -1.712443 0.000010  -1.570803 -0.000000 -1.570856
13  3.859640 -0.132578 1.193107  0.366274 -0.149876 -0.332022
14  1.312545 0.000019 0.000006  0.148502 0.140474 -0.017322
15  0.729383 0.000007 0.000006  0.000018 -0.006140 -0.244264
16  3.942239 0.050331 0.431038  0.129736 -0.110551 -0.545313
17  1.539097 -0.000013 -0.000003  0.034172 0.141235 0.546465
18  1.196316 -0.000052 0.000001  -0.000013 -0.009656 -0.430764
19  3.883629 -0.050346 -0.431042  -0.103684 -0.052851 -0.146761
20  1.719589 0.000025 -0.000009  -0.007598 0.030956 -0.099110
21  1.209154 0.000018 -0.000027  -0.000017 -0.004442 -0.216377
22  3.859826 -0.148934 -1.331282  -0.345586 0.028165 -0.268437
23  1.719427 0.000003 0.000004  -0.019992 -0.090334 0.128389
24  1.099677 -0.000001 0.000006  -0.000014 -0.004194 -0.244321
25  0.805994 -0.359830 -1.318331  1.258251 0.364078 -0.444376
26  1.789780 0.000002 0.000039  0.019256 -0.120173 0.075542
27  1.206990 -0.000020 0.000006  0.000007 -0.009612 0.362903
28  5.740847 0.000128 0.000014  0.000078 0.000001 0.000031
29  11.481688 0.000265 -0.000008  0.000140 -0.000001 0.000031
30  1.500008 0.000017 0.000005  -0.000000 0.000001 0.000015
31  5.560011 0.000079 -0.000003  -0.000000 0.000000 0.000021
32  5.166970 0.000063 0.000056  0.000002 -0.000009 0.000004
33  2.033354 1.000757 1.937656  -1.544923 -1.855087 -0.198675
34  6.028134 0.000071 -0.000074  -1.520701 0.079995 0.279604
35  11.692539 -0.000520 -0.000004  0.001825 -0.014043 -0.318137
36  11.481677 0.000877 -0.000014  1.573199 -0.106581 0.044281
37  2.676146 -1.712351 0.000066  1.570790 0.000023 1.570769
38  3.859723 -0.142286 -1.191933  -0.373251 0.084826 -0.392575
39  1.312558 -0.000018 0.000021  -0.033213 -0.054308 0.096967
40  0.729366 -0.000033 -0.000008  0.000024 0.004970 -0.244303
41  3.942322 0.046894 -0.431406  -0.117935 0.118572 -0.428265
42  1.539063 0.000002 -0.000015  -0.020012 -0.129391 0.326112
43  1.196316 0.000071 -0.000009  0.000008 0.007370 -0.430797
44  3.883712 -0.046621 0.431480  0.093520 0.039469 -0.340148
45  1.719585 -0.000009 0.000004  0.034073 -0.016609 0.192354
46  1.209171 0.000010 -0.000016  -0.000005 0.003100 -0.216393
47  3.859870 -0.137775 1.332505  0.348571 -0.036143 -0.383802
48  1.719410 0.000005 -0.000022  0.108419 0.085472 0.261801
49  1.099662 0.000013 0.000005  -0.000002 0.002595 -0.244332
50  0.806050 -0.348862 1.321285  -1.284111 -0.334960 -0.484539
51  1.789777 0.000013 0.000014  0.019426 0.057122 0.062857
52  1.207012 0.000025 -0.000030  0.000005 0.011267 0.362850
53  5.740857 0.000443 0.000021  0.000683 -0.000000 0.000064
54  11.481730 0.000881 0.000028  0.001274 0.000001 0.000089
55  1.499981 -0.000067 -0.000005  0.000000 0.000000 -0.000046
56  5.559987 -0.000246 -0.000034  0.000000 0.000000 -0.000097
57  5.166954 0.000064 -0.000061  0.000003 -0.000014 -0.000006
58  -3.890452 0.000004 0.000007  -1.570796 0.051841 -1.576021
59  17.848217 0.000196 -0.000005  -0.000003 -0.000000 0.034052
60  16.525282 0.002461 0.000007  0.038612 0.040779 -1.071471
61  6.879452 -0.000099 0.000015  -0.081332 -0.002949 -0.584392
62  3.890452 -0.000004 -0.000003  -1.570798 0.051841 -1.565574
63  17.848137 0.000071 -0.000005  0.000007 0.000000 0.034176
64  16.525274 0.000452 -0.000009  -0.027917 -0.040784 -1.071622
65  0.291741 1.702503 -0.050131  -2.321944 -0.501976 -1.744247
end
triangles
shoulder_antenna
0  -8.279597 -0.674833 59.542942  0.006981 -0.956843 -0.290520  0.771484 0.263672 1 30 1.000000
0  -7.095790 -0.726267 59.740788  0.010464 -0.950750 -0.309784  0.833984 0.373047 1 30 1.000000
0  -7.405803 -0.887560 60.190723  0.013939 -0.944264 -0.328894  0.771484 0.373047 1 30 1.000000
shoulder_antenna
0  -8.279597 -0.674833 59.542942  0.006981 -0.956843 -0.290520  0.771484 0.263672 1 30 1.000000
0  -7.840017 -0.533292 59.048317  0.003668 -0.962262 -0.272100  0.833984 0.263672 1 30 1.000000
0  -7.095790 -0.726267 59.740788  0.010464 -0.950750 -0.309784  0.833984 0.373047 1 30 1.000000
shoulder_antenna
0  -5.856286 1.164488 61.815544  -0.565149 -0.156900 0.809932  0.558594 0.962891 1 30 1.000000
0  -5.653400 2.187740 62.128811  -0.538937 -0.147064 0.829409  0.714844 0.916016 1 30 1.000000
0  -6.139846 2.003403 61.780041  -0.557771 -0.154104 0.815563  0.632812 0.843750 1 30 1.000000
shoulder_antenna
0  -7.351181 0.665515 60.652866  -0.587567 -0.185104 0.787719  0.343750 0.777344 1 30 1.000000
0  -6.139846 2.003403 61.780041  -0.557771 -0.154104 0.815563  0.632812 0.843750 1 30 1.000000
0  -6.799232 2.128588 61.335915  -0.572146 -0.159717 0.804450  0.576172 0.746094 1 30 1.000000
shoulder_antenna
0  -5.856286 1.164488 61.815544  -0.565149 -0.156900 0.809932  0.558594 0.962891 1 30 1.000000
0  -6.139846 2.003403 61.780041  -0.557771 -0.154104 0.815563  0.632812 0.843750 1 30 1.000000
0  -7.351181 0.665515 60.652866  -0.587567 -0.185104 0.787719  0.343750 0.777344 1 30 1.000000
shoulder_antenna
0  -7.351181 0.665515 60.652866  -0.587567 -0.185104 0.787719  0.343750 0.777344 1 30 1.000000
0  -6.476288 0.003952 61.143627  -0.581860 -0.181375 0.792806  0.345703 0.962891 1 30 1.000000
0  -5.856286 1.164488 61.815544  -0.565149 -0.156900 0.809932  0.558594 0.962891 1 30 1.000000
shoulder_antenna
0  -7.351181 0.665515 60.652866  -0.587567 -0.185104 0.787719  0.343750 0.777344 1 30 1.000000
0  -7.405803 -0.887560 60.190723  -0.608042 -0.206707 0.766523  0.119141 0.880859 1 30 1.000000
0  -6.476288 0.003952 61.143627  -0.581860 -0.181375 0.792806  0.345703 0.962891 1 30 1.000000
shoulder_antenna
0  -7.351181 0.665515 60.652866  -0.587567 -0.185104 0.787719  0.343750 0.777344 1 30 1.000000
0  -8.279597 -0.674833 59.542942  -0.614612 -0.205045 0.761714  0.048828 0.738281 1 30 1.000000
0  -7.405803 -0.887560 60.190723  -0.608042 -0.206707 0.766523  0.119141 0.880859 1 30 1.000000
shoulder_antenna
0  -6.213571 2.119021 60.468597  0.718136 0.026966 -0.695380  0.576172 0.746094 1 30 1.000000
0  -5.714129 2.077492 60.982769  0.754004 0.000707 -0.656869  0.632812 0.843750 1 30 1.000000
0  -6.700328 0.896513 59.918507  0.720159 -0.056213 -0.691528  0.343750 0.777344 1 30 1.000000
shoulder_antenna
0  -7.095790 -0.726267 59.740788  0.682608 -0.086883 -0.725602  0.119141 0.880859 1 30 1.000000
0  -7.840017 -0.533292 59.048317  0.667495 -0.081609 -0.740129  0.048828 0.738281 1 30 1.000000
0  -6.700328 0.896513 59.918507  0.720159 -0.056213 -0.691528  0.343750 0.777344 1 30 1.000000
shoulder_antenna
0  -6.700328 0.896513 59.918507  0.720159 -0.056213 -0.691528  0.343750 0.777344 1 30 1.000000
0  -6.053405 0.077429 60.695839  0.731626 -0.066061 -0.678498  0.345703 0.962891 1 30 1.000000
0  -7.095790 -0.726267 59.740788  0.682608 -0.086883 -0.725602  0.119141 0.880859 1 30 1.000000
shoulder_antenna
0  -6.700328 0.896513 59.918507  0.720159 -0.056213 -0.691528  0.343750 0.777344 1 30 1.000000
0  -5.453182 1.162986 61.301270  0.755923 -0.018397 -0.654402  0.558594 0.962891 1 30 1.000000
0  -6.053405 0.077429 60.695839  0.731626 -0.066061 -0.678498  0.345703 0.962891 1 30 1.000000
shoulder_antenna
0  -5.714129 2.077492 60.982769  0.754004 0.000707 -0.656869  0.632812 0.843750 1 30 1.000000
0  -5.453182 1.162986 61.301270  0.755923 -0.018397 -0.654402  0.558594 0.962891 1 30 1.000000
0  -6.700328 0.896513 59.918507  0.720159 -0.056213 -0.691528  0.343750 0.777344 1 30 1.000000
shoulder_antenna
0  -5.714129 2.077492 60.982769  0.754004 0.000707 -0.656869  0.632812 0.843750 1 30 1.000000
0  -5.212343 2.180979 61.615543  0.782979 0.006786 -0.622011  0.714844 0.916016 1 30 1.000000
0  -5.453182 1.162986 61.301270  0.755923 -0.018397 -0.654402  0.558594 0.962891 1 30 1.000000
shoulder_antenna
0  -6.042142 1.784497 61.411896  -0.722151 0.479710 -0.498374  0.976562 0.025391 1 30 1.000000
0  -3.087655 9.631828 64.684181  -0.722053 0.479725 -0.498501  0.933594 0.972656 1 30 1.000000
0  -5.966802 1.797713 61.315445  -0.722152 0.479710 -0.498373  0.933594 0.025391 1 30 1.000000
shoulder_antenna
0  -6.042142 1.784497 61.411896  -0.722151 0.479710 -0.498374  0.976562 0.025391 1 30 1.000000
0  -3.163019 9.618612 64.780624  -0.722052 0.479726 -0.498502  0.976562 0.972656 1 30 1.000000
0  -3.087655 9.631828 64.684181  -0.722053 0.479725 -0.498501  0.933594 0.972656 1 30 1.000000
shoulder_antenna
0  -5.799880 1.637428 61.538902  0.108466 -0.426072 0.898164  0.976562 0.025391 1 30 1.000000
0  -3.044976 9.505283 64.938644  0.108455 -0.426082 0.898160  0.933594 0.972656 1 30 1.000000
0  -5.924123 1.671160 61.569904  0.108466 -0.426072 0.898164  0.933594 0.025391 1 30 1.000000
shoulder_antenna
0  -5.799880 1.637428 61.538902  0.108466 -0.426072 0.898164  0.976562 0.025391 1 30 1.000000
0  -2.920745 9.471551 64.907639  0.108455 -0.426082 0.898160  0.976562 0.972656 1 30 1.000000
0  -3.044976 9.505283 64.938644  0.108455 -0.426082 0.898160  0.933594 0.972656 1 30 1.000000
shoulder_antenna
0  -3.087655 9.631828 64.684181  -0.108426 0.426078 -0.898165  0.976562 0.972656 1 30 1.000000
0  -5.842575 1.763982 61.284439  -0.108459 0.426083 -0.898159  0.933594 0.025391 1 30 1.000000
0  -5.966802 1.797713 61.315445  -0.108460 0.426083 -0.898159  0.976562 0.025391 1 30 1.000000
shoulder_antenna
0  -3.087655 9.631828 64.684181  -0.108426 0.426078 -0.898165  0.976562 0.972656 1 30 1.000000
0  -2.963422 9.598107 64.653183  -0.108426 0.426078 -0.898165  0.933594 0.972656 1 30 1.000000
0  -5.842575 1.763982 61.284439  -0.108459 0.426083 -0.898159  0.933594 0.025391 1 30 1.000000
shoulder_antenna
0  -6.024459 1.732077 61.517300  -0.935522 0.227632 0.270153  0.976562 0.025391 1 30 1.000000
0  -3.163019 9.618612 64.780624  -0.935498 0.227623 0.270243  0.933594 0.972656 1 30 1.000000
0  -6.042142 1.784497 61.411896  -0.935522 0.227632 0.270152  0.933594 0.025391 1 30 1.000000
shoulder_antenna
0  -6.024459 1.732077 61.517300  -0.935522 0.227632 0.270153  0.976562 0.025391 1 30 1.000000
0  -3.145321 9.566200 64.886040  -0.935498 0.227623 0.270243  0.976562 0.972656 1 30 1.000000
0  -3.163019 9.618612 64.780624  -0.935498 0.227623 0.270243  0.933594 0.972656 1 30 1.000000
shoulder_antenna
0  -5.724552 1.650644 61.442444  0.722215 -0.479698 0.498293  0.976562 0.025391 1 30 1.000000
0  -2.920745 9.471551 64.907639  0.722194 -0.479699 0.498322  0.933594 0.972656 1 30 1.000000
0  -5.799880 1.637428 61.538902  0.722215 -0.479698 0.498292  0.933594 0.025391 1 30 1.000000
shoulder_antenna
0  -5.724552 1.650644 61.442444  0.722215 -0.479698 0.498293  0.976562 0.025391 1 30 1.000000
0  -2.845410 9.484766 64.811180  0.722194 -0.479699 0.498322  0.976562 0.972656 1 30 1.000000
0  -2.920745 9.471551 64.907639  0.722194 -0.479699 0.498322  0.933594 0.972656 1 30 1.000000
shoulder_antenna
0  -5.742225 1.703066 61.337044  0.935527 -0.227672 -0.270100  0.976562 0.025391 1 30 1.000000
0  -2.845410 9.484766 64.811180  0.935520 -0.227650 -0.270145  0.933594 0.972656 1 30 1.000000
0  -5.724552 1.650644 61.442444  0.935528 -0.227672 -0.270099  0.933594 0.025391 1 30 1.000000
shoulder_antenna
0  -5.742225 1.703066 61.337044  0.935527 -0.227672 -0.270100  0.976562 0.025391 1 30 1.000000
0  -2.863090 9.537187 64.705780  0.935520 -0.227650 -0.270145  0.976562 0.972656 1 30 1.000000
0  -2.845410 9.484766 64.811180  0.935520 -0.227650 -0.270145  0.933594 0.972656 1 30 1.000000
shoulder_antenna
0  -5.924123 1.671160 61.569904  -0.533304 -0.161131 0.830436  0.976562 0.025391 1 30 1.000000
0  -3.145321 9.566200 64.886040  -0.533168 -0.161161 0.830517  0.933594 0.972656 1 30 1.000000
0  -6.024459 1.732077 61.517300  -0.533306 -0.161131 0.830435  0.933594 0.025391 1 30 1.000000
shoulder_antenna
0  -5.924123 1.671160 61.569904  -0.533304 -0.161131 0.830436  0.976562 0.025391 1 30 1.000000
0  -3.044976 9.505283 64.938644  -0.533167 -0.161161 0.830518  0.976562 0.972656 1 30 1.000000
0  -3.145321 9.566200 64.886040  -0.533168 -0.161161 0.830517  0.933594 0.972656 1 30 1.000000
shoulder_antenna
0  -5.842575 1.763982 61.284439  0.533187 0.161169 -0.830504  0.976562 0.025391 1 30 1.000000
0  -2.863090 9.537187 64.705780  0.533214 0.161151 -0.830490  0.933594 0.972656 1 30 1.000000
0  -5.742225 1.703066 61.337044  0.533186 0.161169 -0.830504  0.933594 0.025391 1 30 1.000000
shoulder_antenna
0  -5.842575 1.763982 61.284439  0.533187 0.161169 -0.830504  0.976562 0.025391 1 30 1.000000
0  -2.963422 9.598107 64.653183  0.533214 0.161151 -0.830490  0.976562 0.972656 1 30 1.000000
0  -2.863090 9.537187 64.705780  0.533214 0.161151 -0.830490  0.933594 0.972656 1 30 1.000000
shoulder_antenna
0  -6.799232 2.128588 61.335915  0.076961 0.992702 0.092845  0.251953 0.427734 1 30 1.000000
0  -5.714129 2.077492 60.982769  -0.029597 0.998687 0.041821  0.091797 0.558594 1 30 1.000000
0  -6.213571 2.119021 60.468597  0.055644 0.998097 0.026565  0.080078 0.427734 1 30 1.000000
shoulder_antenna
0  -6.799232 2.128588 61.335915  0.076967 0.992699 0.092867  0.251953 0.427734 1 30 1.000000
0  -6.139846 2.003403 61.780041  -0.067367 0.997644 0.012971  0.242188 0.558594 1 30 1.000000
0  -5.714129 2.077492 60.982769  -0.029630 0.998686 0.041824  0.091797 0.558594 1 30 1.000000
shoulder_antenna
0  -5.212343 2.180979 61.615543  -0.202127 0.975524 -0.086589  0.111328 0.675781 1 30 1.000000
0  -5.714129 2.077492 60.982769  -0.029630 0.998686 0.041824  0.091797 0.558594 1 30 1.000000
0  -6.139846 2.003403 61.780041  -0.067367 0.997644 0.012971  0.242188 0.558594 1 30 1.000000
shoulder_antenna
0  -5.212343 2.180979 61.615543  -0.202127 0.975524 -0.086589  0.111328 0.675781 1 30 1.000000
0  -6.139846 2.003403 61.780041  -0.067367 0.997644 0.012971  0.242188 0.558594 1 30 1.000000
0  -5.653400 2.187740 62.128811  -0.218373 0.955103 -0.200231  0.228516 0.675781 1 30 1.000000
shoulder_antenna
0  -3.087655 9.631828 64.684181  0.328896 0.866425 0.375680  0.869141 0.865234 1 30 1.000000
0  -3.163019 9.618612 64.780624  0.328743 0.866508 0.375623  0.896484 0.890625 1 30 1.000000
0  -3.145321 9.566200 64.886040  0.328920 0.866421 0.375669  0.896484 0.931641 1 30 1.000000
shoulder_antenna
0  -3.145321 9.566200 64.886040  0.328920 0.866421 0.375669  0.896484 0.931641 1 30 1.000000
0  -3.044976 9.505283 64.938644  0.328969 0.866388 0.375702  0.869141 0.957031 1 30 1.000000
0  -3.087655 9.631828 64.684181  0.328896 0.866425 0.375680  0.869141 0.865234 1 30 1.000000
shoulder_antenna
0  -3.044976 9.505283 64.938644  0.328969 0.866388 0.375702  0.869141 0.957031 1 30 1.000000
0  -2.963422 9.598107 64.653183  0.329003 0.866377 0.375697  0.828125 0.865234 1 30 1.000000
0  -3.087655 9.631828 64.684181  0.328896 0.866425 0.375680  0.869141 0.865234 1 30 1.000000
shoulder_antenna
0  -2.963422 9.598107 64.653183  0.329003 0.866377 0.375697  0.828125 0.865234 1 30 1.000000
0  -3.044976 9.505283 64.938644  0.328969 0.866388 0.375702  0.869141 0.957031 1 30 1.000000
0  -2.920745 9.471551 64.907639  0.329029 0.866362 0.375707  0.828125 0.957031 1 30 1.000000
shoulder_antenna
0  -2.863090 9.537187 64.705780  0.329114 0.866339 0.375688  0.800781 0.890625 1 30 1.000000
0  -2.963422 9.598107 64.653183  0.329003 0.866377 0.375697  0.828125 0.865234 1 30 1.000000
0  -2.920745 9.471551 64.907639  0.329029 0.866362 0.375707  0.828125 0.957031 1 30 1.000000
shoulder_antenna
0  -2.920745 9.471551 64.907639  0.329029 0.866362 0.375707  0.828125 0.957031 1 30 1.000000
0  -2.845410 9.484766 64.811180  0.329056 0.866362 0.375686  0.800781 0.931641 1 30 1.000000
0  -2.863090 9.537187 64.705780  0.329114 0.866339 0.375688  0.800781 0.890625 1 30 1.000000
shoulder_antenna
0  -5.856286 1.164488 61.815544  0.686235 -0.475987 0.550016  0.771484 0.681641 1 30 1.000000
0  -5.212343 2.180979 61.615543  0.721454 -0.338139 0.604290  0.833984 0.792969 1 30 1.000000
0  -5.653400 2.187740 62.128811  0.713645 -0.330576 0.617601  0.771484 0.792969 1 30 1.000000
shoulder_antenna
0  -5.856286 1.164488 61.815544  0.686235 -0.475987 0.550016  0.771484 0.681641 1 30 1.000000
0  -5.453182 1.162986 61.301270  0.682842 -0.496098 0.536296  0.833984 0.681641 1 30 1.000000
0  -5.212343 2.180979 61.615543  0.721454 -0.338139 0.604290  0.833984 0.792969 1 30 1.000000
shoulder_antenna
0  -6.476288 0.003952 61.143627  0.552310 -0.749605 0.364755  0.771484 0.537109 1 30 1.000000
0  -5.453182 1.162986 61.301270  0.682842 -0.496098 0.536296  0.833984 0.681641 1 30 1.000000
0  -5.856286 1.164488 61.815544  0.686235 -0.475987 0.550016  0.771484 0.681641 1 30 1.000000
shoulder_antenna
0  -6.476288 0.003952 61.143627  0.552310 -0.749605 0.364755  0.771484 0.537109 1 30 1.000000
0  -6.053405 0.077429 60.695839  0.539109 -0.748413 0.386314  0.833984 0.537109 1 30 1.000000
0  -5.453182 1.162986 61.301270  0.682842 -0.496098 0.536296  0.833984 0.681641 1 30 1.000000
shoulder_antenna
0  -7.095790 -0.726267 59.740788  0.568739 -0.805185 0.167965  0.833984 0.373047 1 30 1.000000
0  -6.053405 0.077429 60.695839  0.539109 -0.748413 0.386314  0.833984 0.537109 1 30 1.000000
0  -6.476288 0.003952 61.143627  0.552310 -0.749605 0.364755  0.771484 0.537109 1 30 1.000000
shoulder_antenna
0  -7.095790 -0.726267 59.740788  0.568739 -0.805185 0.167965  0.833984 0.373047 1 30 1.000000
0  -6.476288 0.003952 61.143627  0.552310 -0.749605 0.364755  0.771484 0.537109 1 30 1.000000
0  -7.405803 -0.887560 60.190723  0.607866 -0.781859 0.138545  0.771484 0.373047 1 30 1.000000
shoulder_antenna
0  -5.724552 1.650644 61.442444  -0.329062 -0.866346 -0.375716  0.800781 0.931641 1 30 1.000000
0  -5.799880 1.637428 61.538902  -0.328988 -0.866383 -0.375696  0.828125 0.957031 1 30 1.000000
0  -5.742225 1.703066 61.337044  -0.329022 -0.866374 -0.375686  0.800781 0.890625 1 30 1.000000
shoulder_antenna
0  -5.842575 1.763982 61.284439  -0.328998 -0.866381 -0.375693  0.828125 0.865234 1 30 1.000000
0  -5.742225 1.703066 61.337044  -0.329022 -0.866374 -0.375686  0.800781 0.890625 1 30 1.000000
0  -5.799880 1.637428 61.538902  -0.328988 -0.866383 -0.375696  0.828125 0.957031 1 30 1.000000
shoulder_antenna
0  -5.799880 1.637428 61.538902  -0.328988 -0.866383 -0.375696  0.828125 0.957031 1 30 1.000000
0  -5.924123 1.671160 61.569904  -0.328988 -0.866383 -0.375696  0.869141 0.957031 1 30 1.000000
0  -5.842575 1.763982 61.284439  -0.328998 -0.866381 -0.375693  0.828125 0.865234 1 30 1.000000
shoulder_antenna
0  -5.966802 1.797713 61.315445  -0.329002 -0.866377 -0.375697  0.869141 0.865234 1 30 1.000000
0  -5.842575 1.763982 61.284439  -0.328998 -0.866381 -0.375693  0.828125 0.865234 1 30 1.000000
0  -5.924123 1.671160 61.569904  -0.328988 -0.866383 -0.375696  0.869141 0.957031 1 30 1.000000
shoulder_antenna
0  -5.924123 1.671160 61.569904  -0.328988 -0.866383 -0.375696  0.869141 0.957031 1 30 1.000000
0  -6.024459 1.732077 61.517300  -0.329014 -0.866374 -0.375693  0.896484 0.931641 1 30 1.000000
0  -5.966802 1.797713 61.315445  -0.329002 -0.866377 -0.375697  0.869141 0.865234 1 30 1.000000
shoulder_antenna
0  -6.042142 1.784497 61.411896  -0.328988 -0.866387 -0.375687  0.896484 0.890625 1 30 1.000000
0  -5.966802 1.797713 61.315445  -0.329002 -0.866377 -0.375697  0.869141 0.865234 1 30 1.000000
0  -6.024459 1.732077 61.517300  -0.329014 -0.866374 -0.375693  0.896484 0.931641 1 30 1.000000
end
