version 1
nodes
0 "ValveBiped.Bip01_Pelvis" -1
1 "ValveBiped.Bip01_Spine" 0
2 "ValveBiped.Bip01_Spine1" 1
3 "ValveBiped.Bip01_Spine2" 2
4 "ValveBiped.Bip01_Spine4" 3
5 "ValveBiped.Bip01_Neck1" 4
6 "ValveBiped.Bip01_Head1" 5
7 "ValveBiped.forward" 6
8 "ValveBiped.Bip01_R_Clavicle" 4
9 "ValveBiped.Bip01_R_UpperArm" 8
10 "ValveBiped.Bip01_R_Forearm" 9
11 "ValveBiped.Bip01_R_Hand" 10
12 "ValveBiped.Anim_Attachment_RH" 11
13 "ValveBiped.Bip01_R_Finger4" 11
14 "ValveBiped.Bip01_R_Finger41" 13
15 "ValveBiped.Bip01_R_Finger42" 14
16 "ValveBiped.Bip01_R_Finger3" 11
17 "ValveBiped.Bip01_R_Finger31" 16
18 "ValveBiped.Bip01_R_Finger32" 17
19 "ValveBiped.Bip01_R_Finger2" 11
20 "ValveBiped.Bip01_R_Finger21" 19
21 "ValveBiped.Bip01_R_Finger22" 20
22 "ValveBiped.Bip01_R_Finger1" 11
23 "ValveBiped.Bip01_R_Finger11" 22
24 "ValveBiped.Bip01_R_Finger12" 23
25 "ValveBiped.Bip01_R_Finger0" 11
26 "ValveBiped.Bip01_R_Finger01" 25
27 "ValveBiped.Bip01_R_Finger02" 26
28 "ValveBiped.Bip01_R_Ulna" 10
29 "ValveBiped.Bip01_R_Wrist" 10
30 "ValveBiped.Bip01_R_Shoulder" 9
31 "ValveBiped.Bip01_R_Bicep" 9
32 "ValveBiped.Bip01_R_Trapezius" 8
33 "ValveBiped.Bip01_L_Clavicle" 4
34 "ValveBiped.Bip01_L_UpperArm" 33
35 "ValveBiped.Bip01_L_Forearm" 34
36 "ValveBiped.Bip01_L_Hand" 35
37 "ValveBiped.Anim_Attachment_LH" 36
38 "ValveBiped.Bip01_L_Finger4" 36
39 "ValveBiped.Bip01_L_Finger41" 38
40 "ValveBiped.Bip01_L_Finger42" 39
41 "ValveBiped.Bip01_L_Finger3" 36
42 "ValveBiped.Bip01_L_Finger31" 41
43 "ValveBiped.Bip01_L_Finger32" 42
44 "ValveBiped.Bip01_L_Finger2" 36
45 "ValveBiped.Bip01_L_Finger21" 44
46 "ValveBiped.Bip01_L_Finger22" 45
47 "ValveBiped.Bip01_L_Finger1" 36
48 "ValveBiped.Bip01_L_Finger11" 47
49 "ValveBiped.Bip01_L_Finger12" 48
50 "ValveBiped.Bip01_L_Finger0" 36
51 "ValveBiped.Bip01_L_Finger01" 50
52 "ValveBiped.Bip01_L_Finger02" 51
53 "ValveBiped.Bip01_L_Ulna" 35
54 "ValveBiped.Bip01_L_Wrist" 35
55 "ValveBiped.Bip01_L_Shoulder" 34
56 "ValveBiped.Bip01_L_Bicep" 34
57 "ValveBiped.Bip01_L_Trapezius" 33
58 "ValveBiped.Bip01_R_Thigh" 0
59 "ValveBiped.Bip01_R_Calf" 58
60 "ValveBiped.Bip01_R_Foot" 59
61 "ValveBiped.Bip01_R_Toe0" 60
62 "ValveBiped.Bip01_L_Thigh" 0
63 "ValveBiped.Bip01_L_Calf" 62
64 "ValveBiped.Bip01_L_Foot" 63
65 "ValveBiped.Bip01_L_Toe0" 64
end
skeleton
time 0
0  -0.000005 -0.533615 38.566917  1.570796 -0.000000 0.000000
1  0.000005 3.345128 -2.981901  1.570797 0.086286 1.570793
2  4.018296 -0.000028 -0.000024  0.000000 -0.000005 -0.029254
3  3.518551 -0.000001 -0.000026  0.000000 -0.000038 0.100336
4  8.942602 0.000017 -0.000404  0.000008 0.000043 0.194105
5  3.307233 -0.000028 -0.000005  3.141592 -0.000000 0.400475
6  3.593712 0.000024 0.000008  -0.000000 0.000003 0.406593
7  1.999987 -3.000009 0.000013  -1.570790 -0.000002 -1.326465
8  2.033316 1.000768 -1.937615  1.473080 1.855094 -0.198685
9  6.028141 0.000068 0.000069  1.590087 -0.099567 0.273381
10  11.692568 0.000023 0.000027  -0.001726 0.013682 -0.311271
11  11.481687 0.000169 -0.000011  -1.564932 0.106610 0.044209
12  2.676065 -1.712450 0.000008  -1.570803 0.000001 -1.570839
13  3.859635 -0.132589 1.193104  0.366275 -0.149875 -0.332023
14  1.312550 0.000014 0.000006  0.148502 0.140474 -0.017321
15  0.729384 0.000007 0.000004  0.000018 -0.006139 -0.244264
16  3.942248 0.050320 0.431039  0.129735 -0.110549 -0.545315
17  1.539102 -0.000006 -0.000004  0.034173 0.141233 0.546468
18  1.196309 -0.000055 0.000000  -0.000013 -0.009657 -0.430765
19  3.883631 -0.050351 -0.431043  -0.103681 -0.052852 -0.146760
20  1.719595 0.000017 -0.000012  -0.007600 0.030958 -0.099111
21  1.209154 0.000021 -0.000030  -0.000017 -0.004441 -0.216376
22  3.859827 -0.148942 -1.331283  -0.345582 0.028168 -0.268438
23  1.719431 0.000009 0.000006  -0.019994 -0.090337 0.128389
24  1.099682 0.000006 0.000006  -0.000015 -0.004194 -0.244321
25  0.805996 -0.359839 -1.318331  1.258252 0.364078 -0.444376
26  1.789768 -0.000004 0.000042  0.019257 -0.120173 0.075543
27  1.206991 -0.000013 0.000003  0.000007 -0.009612 0.362903
28  5.740847 0.000079 0.000014  0.000078 0.000001 0.000021
29  11.481687 0.000169 -0.000011  0.000140 -0.000001 0.000016
30  1.500005 -0.000001 -0.000002  0.000001 0.000001 0.000002
31  5.560008 0.000008 -0.000009  0.000001 0.000000 0.000010
32  5.166965 0.000056 0.000060  0.000003 -0.000009 -0.000002
33  2.033364 1.000747 1.937656  -1.544920 -1.855089 -0.198682
34  6.028134 0.000077 -0.000076  -1.520702 0.079994 0.279606
35  11.692542 -0.000494 -0.000005  0.001826 -0.014043 -0.318129
36  11.481672 0.000805 -0.000007  1.573196 -0.106595 0.044274
37  2.676124 -1.712387 0.000060  1.570790 0.000020 1.570772
38  3.859725 -0.142337 -1.191938  -0.373251 0.084828 -0.392589
39  1.312550 -0.000027 0.000023  -0.033212 -0.054308 0.096968
40  0.729367 -0.000032 -0.000011  0.000024 0.004970 -0.244303
41  3.942328 0.046840 -0.431411  -0.117934 0.118575 -0.428277
42  1.539068 -0.000002 -0.000012  -0.020012 -0.129392 0.326111
43  1.196315 0.000075 -0.000009  0.000008 0.007371 -0.430798
44  3.883710 -0.046672 0.431476  0.093520 0.039472 -0.340162
45  1.719582 -0.000014 0.000005  0.034075 -0.016610 0.192355
46  1.209171 0.000008 -0.000015  -0.000005 0.003100 -0.216393
47  3.859872 -0.137833 1.332500  0.348573 -0.036141 -0.383815
48  1.719406 0.000004 -0.000022  0.108419 0.085472 0.261800
49  1.099663 0.000016 0.000007  -0.000004 0.002592 -0.244331
50  0.806045 -0.348879 1.321282  -1.284109 -0.334957 -0.484553
51  1.789773 0.000007 0.000011  0.019426 0.057122 0.062857
52  1.207008 0.000018 -0.000017  0.000005 0.011268 0.362851
53  5.740850 0.000405 0.000022  0.000683 0.000000 0.000060
54  11.481727 0.000810 0.000035  0.001273 0.000001 0.000081
55  1.499980 -0.000064 -0.000009  0.000001 -0.000000 -0.000043
56  5.559988 -0.000234 -0.000037  0.000001 -0.000000 -0.000083
57  5.166948 0.000067 -0.000063  0.000002 -0.000014 -0.000006
58  -3.890452 0.000004 0.000007  -1.570796 0.051841 -1.576021
59  17.848209 0.000193 -0.000002  -0.000003 -0.000000 0.034052
60  16.525284 0.002456 0.000008  0.038612 0.040781 -1.071486
61  6.879457 0.000009 0.000020  -0.081332 -0.002949 -0.584375
62  3.890452 -0.000004 -0.000003  -1.570798 0.051841 -1.565574
63  17.848141 0.000071 -0.000003  0.000007 0.000000 0.034176
64  16.525270 0.000453 -0.000008  -0.027918 -0.040784 -1.071626
65  3.992097 2.504389 2.697953  1.559981 -0.937008 -0.583292
end
triangles
shoulder_antenna
0  7.753983 -0.648635 59.295910  0.288025 -0.956843 0.038642  0.771484 0.263672 1 55 1.000000
0  7.428133 -0.700070 60.451057  0.306790 -0.950750 0.044208  0.833984 0.373047 1 55 1.000000
0  7.014713 -0.861363 60.093796  0.325405 -0.944265 0.049748  0.771484 0.373047 1 55 1.000000
shoulder_antenna
0  7.753983 -0.648635 59.295910  0.288025 -0.956843 0.038642  0.771484 0.263672 1 55 1.000000
0  8.197682 -0.507095 59.786842  0.270079 -0.962261 0.033338  0.833984 0.263672 1 55 1.000000
0  7.428133 -0.700070 60.451057  0.306790 -0.950750 0.044208  0.833984 0.373047 1 55 1.000000
shoulder_antenna
0  5.230503 1.190685 61.456749  -0.743423 -0.156899 -0.650158  0.558594 0.962891 1 55 1.000000
0  4.896966 2.213938 61.624237  -0.765643 -0.147064 -0.626230  0.714844 0.916016 1 55 1.000000
0  5.296740 2.029600 61.178757  -0.749825 -0.154103 -0.643440  0.632812 0.843750 1 55 1.000000
shoulder_antenna
0  6.549368 0.691713 60.097660  -0.718894 -0.185103 -0.670022  0.343750 0.777344 1 55 1.000000
0  5.296740 2.029600 61.178757  -0.749825 -0.154103 -0.643440  0.632812 0.843750 1 55 1.000000
0  5.810167 2.154785 60.571774  -0.737202 -0.159719 -0.656523  0.576172 0.746094 1 55 1.000000
shoulder_antenna
0  5.230503 1.190685 61.456749  -0.743423 -0.156899 -0.650158  0.558594 0.962891 1 55 1.000000
0  5.296740 2.029600 61.178757  -0.749825 -0.154103 -0.643440  0.632812 0.843750 1 55 1.000000
0  6.549368 0.691713 60.097660  -0.718894 -0.185103 -0.670022  0.343750 0.777344 1 55 1.000000
shoulder_antenna
0  6.549368 0.691713 60.097660  -0.718894 -0.185103 -0.670022  0.343750 0.777344 1 55 1.000000
0  5.966063 0.030149 60.913773  -0.724572 -0.181373 -0.664905  0.345703 0.962891 1 55 1.000000
0  5.230503 1.190685 61.456749  -0.743423 -0.156899 -0.650158  0.558594 0.962891 1 55 1.000000
shoulder_antenna
0  6.549368 0.691713 60.097660  -0.718894 -0.185103 -0.670022  0.343750 0.777344 1 55 1.000000
0  7.014713 -0.861363 60.093796  -0.695591 -0.206706 -0.688060  0.119141 0.880859 1 55 1.000000
0  5.966063 0.030149 60.913773  -0.724572 -0.181373 -0.664905  0.345703 0.962891 1 55 1.000000
shoulder_antenna
0  6.549368 0.691713 60.097660  -0.718894 -0.185103 -0.670022  0.343750 0.777344 1 55 1.000000
0  7.753983 -0.648635 59.295910  -0.690095 -0.205045 -0.694065  0.048828 0.738281 1 55 1.000000
0  7.014713 -0.861363 60.093796  -0.695591 -0.206706 -0.688060  0.119141 0.880859 1 55 1.000000
shoulder_antenna
0  6.608397 2.145219 61.248585  0.612856 0.026967 0.789734  0.576172 0.746094 1 55 1.000000
0  6.042793 2.103689 61.688934  0.570664 0.000706 0.821184  0.632812 0.843750 1 55 1.000000
0  7.208322 0.922710 60.824764  0.608807 -0.056214 0.791324  0.343750 0.777344 1 55 1.000000
shoulder_antenna
0  7.428133 -0.700070 60.451057  0.646777 -0.086885 0.757714  0.119141 0.880859 1 55 1.000000
0  8.197682 -0.507095 59.786842  0.662867 -0.081611 0.744276  0.048828 0.738281 1 55 1.000000
0  7.208322 0.922710 60.824764  0.608807 -0.056214 0.791324  0.343750 0.777344 1 55 1.000000
shoulder_antenna
0  7.208322 0.922710 60.824764  0.608807 -0.056214 0.791324  0.343750 0.777344 1 55 1.000000
0  6.365032 0.103626 61.382996  0.594602 -0.066062 0.801302  0.345703 0.962891 1 55 1.000000
0  7.428133 -0.700070 60.451057  0.646777 -0.086885 0.757714  0.119141 0.880859 1 55 1.000000
shoulder_antenna
0  7.208322 0.922710 60.824764  0.608807 -0.056214 0.791324  0.343750 0.777344 1 55 1.000000
0  5.697713 1.189183 61.913567  0.568000 -0.018399 0.822823  0.558594 0.962891 1 55 1.000000
0  6.365032 0.103626 61.382996  0.594602 -0.066062 0.801302  0.345703 0.962891 1 55 1.000000
shoulder_antenna
0  6.042793 2.103689 61.688934  0.570664 0.000706 0.821184  0.632812 0.843750 1 55 1.000000
0  5.697713 1.189183 61.913567  0.568000 -0.018399 0.822823  0.558594 0.962891 1 55 1.000000
0  7.208322 0.922710 60.824764  0.608807 -0.056214 0.791324  0.343750 0.777344 1 55 1.000000
shoulder_antenna
0  6.042793 2.103689 61.688934  0.570664 0.000706 0.821184  0.632812 0.843750 1 55 1.000000
0  5.359040 2.207176 62.118671  0.532858 0.006784 0.846178  0.714844 0.916016 1 55 1.000000
0  5.697713 1.189183 61.913567  0.568000 -0.018399 0.822823  0.558594 0.962891 1 55 1.000000
shoulder_antenna
0  5.652020 1.810695 61.316051  0.574236 0.479675 -0.663449  0.976562 0.025391 1 55 1.000000
0  2.076869 9.658026 63.895802  0.574267 0.479725 -0.663386  0.933594 0.972656 2 55 0.915941 5 0.084059
0  5.739680 1.823910 61.401466  0.574236 0.479675 -0.663449  0.933594 0.025391 1 55 1.000000
shoulder_antenna
0  5.652020 1.810695 61.316051  0.574236 0.479675 -0.663449  0.976562 0.025391 1 55 1.000000
0  1.989218 9.644810 63.810364  0.574268 0.479725 -0.663386  0.976562 0.972656 2 55 0.915991 5 0.084009
0  2.076869 9.658026 63.895802  0.574267 0.479725 -0.663386  0.933594 0.972656 2 55 0.915941 5 0.084059
shoulder_antenna
0  5.499339 1.663625 61.543007  -0.904610 -0.426127 0.009789  0.976562 0.025391 1 55 1.000000
0  1.819265 9.531481 63.910458  -0.904644 -0.426056 0.009785  0.933594 0.972656 2 55 0.916011 5 0.083989
0  5.482079 1.697357 61.416122  -0.904610 -0.426128 0.009789  0.933594 0.025391 1 55 1.000000
shoulder_antenna
0  5.499339 1.663625 61.543007  -0.904610 -0.426127 0.009789  0.976562 0.025391 1 55 1.000000
0  1.836525 9.497748 64.037331  -0.904644 -0.426056 0.009785  0.976562 0.972656 2 55 0.915952 5 0.084048
0  1.819265 9.531481 63.910458  -0.904644 -0.426056 0.009785  0.933594 0.972656 2 55 0.916011 5 0.083989
shoulder_antenna
0  2.076869 9.658026 63.895802  0.904643 0.426057 -0.009804  0.976562 0.972656 2 55 0.915941 5 0.084059
0  5.756945 1.790179 61.528336  0.904613 0.426120 -0.009820  0.933594 0.025391 1 55 1.000000
0  5.739680 1.823910 61.401466  0.904613 0.426121 -0.009820  0.976562 0.025391 1 55 1.000000
shoulder_antenna
0  2.076869 9.658026 63.895802  0.904643 0.426057 -0.009804  0.976562 0.972656 2 55 0.915941 5 0.084059
0  2.094127 9.624305 64.022675  0.904643 0.426057 -0.009804  0.933594 0.972656 2 55 0.915838 5 0.084162
0  5.756945 1.790179 61.528336  0.904613 0.426120 -0.009820  0.933594 0.025391 1 55 1.000000
shoulder_antenna
0  5.545321 1.758274 61.322124  -0.166517 0.227645 -0.959401  0.976562 0.025391 1 55 1.000000
0  1.989218 9.644810 63.810364  -0.166534 0.227611 -0.959406  0.933594 0.972656 2 55 0.915991 5 0.084009
0  5.652020 1.810695 61.316051  -0.166517 0.227645 -0.959401  0.933594 0.025391 1 55 1.000000
shoulder_antenna
0  5.545321 1.758274 61.322124  -0.166517 0.227645 -0.959401  0.976562 0.025391 1 55 1.000000
0  1.882504 9.592398 63.816452  -0.166535 0.227611 -0.959406  0.976562 0.972656 2 55 0.916017 5 0.083983
0  1.989218 9.644810 63.810364  -0.166534 0.227611 -0.959406  0.933594 0.972656 2 55 0.915991 5 0.084009
shoulder_antenna
0  5.586998 1.676841 61.628410  -0.574139 -0.479693 0.663520  0.976562 0.025391 1 55 1.000000
0  1.836525 9.497748 64.037331  -0.574172 -0.479688 0.663495  0.933594 0.972656 2 55 0.915952 5 0.084048
0  5.499339 1.663625 61.543007  -0.574138 -0.479693 0.663520  0.933594 0.025391 1 55 1.000000
shoulder_antenna
0  5.586998 1.676841 61.628410  -0.574139 -0.479693 0.663520  0.976562 0.025391 1 55 1.000000
0  1.924187 9.510963 64.122742  -0.574172 -0.479688 0.663495  0.976562 0.972656 2 55 0.915842 5 0.084158
0  1.836525 9.497748 64.037331  -0.574172 -0.479688 0.663495  0.933594 0.972656 2 55 0.915952 5 0.084048
shoulder_antenna
0  5.693700 1.729263 61.622345  0.166401 -0.227674 0.959414  0.976562 0.025391 1 55 1.000000
0  1.924187 9.510963 64.122742  0.166434 -0.227651 0.959414  0.933594 0.972656 2 55 0.915842 5 0.084158
0  5.586998 1.676841 61.628410  0.166401 -0.227674 0.959414  0.933594 0.025391 1 55 1.000000
shoulder_antenna
0  5.693700 1.729263 61.622345  0.166401 -0.227674 0.959414  0.976562 0.025391 1 55 1.000000
0  2.030890 9.563384 64.116669  0.166434 -0.227651 0.959414  0.976562 0.972656 2 55 0.915687 5 0.084313
0  1.924187 9.510963 64.122742  0.166434 -0.227651 0.959414  0.933594 0.972656 2 55 0.915842 5 0.084158
shoulder_antenna
0  5.482079 1.697357 61.416122  -0.767312 -0.161141 -0.620698  0.976562 0.025391 1 55 1.000000
0  1.882504 9.592398 63.816452  -0.767370 -0.161158 -0.620622  0.933594 0.972656 2 55 0.916017 5 0.083983
0  5.545321 1.758274 61.322124  -0.767311 -0.161141 -0.620699  0.933594 0.025391 1 55 1.000000
shoulder_antenna
0  5.482079 1.697357 61.416122  -0.767312 -0.161141 -0.620698  0.976562 0.025391 1 55 1.000000
0  1.819265 9.531481 63.910458  -0.767370 -0.161158 -0.620622  0.976562 0.972656 2 55 0.916011 5 0.083989
0  1.882504 9.592398 63.816452  -0.767370 -0.161158 -0.620622  0.933594 0.972656 2 55 0.916017 5 0.083983
shoulder_antenna
0  5.756945 1.790179 61.528336  0.767323 0.161163 0.620679  0.976562 0.025391 1 55 1.000000
0  2.030890 9.563384 64.116669  0.767326 0.161142 0.620680  0.933594 0.972656 2 55 0.915687 5 0.084313
0  5.693700 1.729263 61.622345  0.767323 0.161163 0.620679  0.933594 0.025391 1 55 1.000000
shoulder_antenna
0  5.756945 1.790179 61.528336  0.767323 0.161163 0.620679  0.976562 0.025391 1 55 1.000000
0  2.094127 9.624305 64.022675  0.767326 0.161141 0.620680  0.976562 0.972656 2 55 0.915838 5 0.084162
0  2.030890 9.563384 64.116669  0.767326 0.161142 0.620680  0.933594 0.972656 2 55 0.915687 5 0.084313
shoulder_antenna
0  5.810167 2.154785 60.571774  -0.100689 0.992702 0.066370  0.251953 0.427734 1 55 1.000000
0  6.042793 2.103689 61.688934  -0.038338 0.998687 -0.033983  0.091797 0.558594 1 55 1.000000
0  6.608397 2.145219 61.248585  -0.032479 0.998097 0.052414  0.080078 0.427734 1 55 1.000000
shoulder_antenna
0  5.810167 2.154785 60.571774  -0.100711 0.992699 0.066374  0.251953 0.427734 1 55 1.000000
0  5.296740 2.029600 61.178757  -0.005541 0.997644 -0.068380  0.242188 0.558594 1 55 1.000000
0  6.042793 2.103689 61.688934  -0.038339 0.998686 -0.034017  0.091797 0.558594 1 55 1.000000
shoulder_antenna
0  5.359040 2.207176 62.118671  0.108129 0.975524 -0.191470  0.111328 0.675781 1 55 1.000000
0  6.042793 2.103689 61.688934  -0.038339 0.998686 -0.034017  0.091797 0.558594 1 55 1.000000
0  5.296740 2.029600 61.178757  -0.005541 0.997644 -0.068380  0.242188 0.558594 1 55 1.000000
shoulder_antenna
0  5.359040 2.207176 62.118671  0.108129 0.975524 -0.191470  0.111328 0.675781 1 55 1.000000
0  5.296740 2.029600 61.178757  -0.005541 0.997644 -0.068380  0.242188 0.558594 1 55 1.000000
0  4.896966 2.213938 61.624237  0.222864 0.955103 -0.195217  0.228516 0.675781 1 55 1.000000
shoulder_antenna
0  2.076869 9.658026 63.895802  -0.409333 0.866414 0.285960  0.869141 0.865234 2 55 0.915941 5 0.084059
0  1.989218 9.644810 63.810364  -0.409240 0.866500 0.285834  0.896484 0.890625 2 55 0.915991 5 0.084009
0  1.882504 9.592398 63.816452  -0.409317 0.866400 0.286025  0.896484 0.931641 2 55 0.916017 5 0.083983
shoulder_antenna
0  1.882504 9.592398 63.816452  -0.409317 0.866400 0.286025  0.896484 0.931641 2 55 0.916017 5 0.083983
0  1.819265 9.531481 63.910458  -0.409342 0.866387 0.286030  0.869141 0.957031 2 55 0.916011 5 0.083989
0  2.076869 9.658026 63.895802  -0.409333 0.866414 0.285960  0.869141 0.865234 2 55 0.915941 5 0.084059
shoulder_antenna
0  1.819265 9.531481 63.910458  -0.409342 0.866387 0.286030  0.869141 0.957031 2 55 0.916011 5 0.083989
0  2.094127 9.624305 64.022675  -0.409360 0.866379 0.286026  0.828125 0.865234 2 55 0.915838 5 0.084162
0  2.076869 9.658026 63.895802  -0.409333 0.866414 0.285960  0.869141 0.865234 2 55 0.915941 5 0.084059
shoulder_antenna
0  2.094127 9.624305 64.022675  -0.409360 0.866379 0.286026  0.828125 0.865234 2 55 0.915838 5 0.084162
0  1.819265 9.531481 63.910458  -0.409342 0.866387 0.286030  0.869141 0.957031 2 55 0.916011 5 0.083989
0  1.836525 9.497748 64.037331  -0.409355 0.866374 0.286050  0.828125 0.957031 2 55 0.915952 5 0.084048
shoulder_antenna
0  2.030890 9.563384 64.116669  -0.409376 0.866346 0.286105  0.800781 0.890625 2 55 0.915687 5 0.084313
0  2.094127 9.624305 64.022675  -0.409360 0.866379 0.286026  0.828125 0.865234 2 55 0.915838 5 0.084162
0  1.836525 9.497748 64.037331  -0.409355 0.866374 0.286050  0.828125 0.957031 2 55 0.915952 5 0.084048
shoulder_antenna
0  1.836525 9.497748 64.037331  -0.409355 0.866374 0.286050  0.828125 0.957031 2 55 0.915952 5 0.084048
0  1.924187 9.510963 64.122742  -0.409383 0.866357 0.286063  0.800781 0.931641 2 55 0.915842 5 0.084158
0  2.030890 9.563384 64.116669  -0.409376 0.866346 0.286105  0.800781 0.890625 2 55 0.915687 5 0.084313
shoulder_antenna
0  5.230503 1.190685 61.456749  -0.621624 -0.475985 0.622111  0.771484 0.681641 1 55 1.000000
0  5.359040 2.207176 62.118671  -0.679416 -0.338137 0.651196  0.833984 0.792969 1 55 1.000000
0  4.896966 2.213938 61.624237  -0.691794 -0.330572 0.641984  0.771484 0.792969 1 55 1.000000
shoulder_antenna
0  5.230503 1.190685 61.456749  -0.621624 -0.475985 0.622111  0.771484 0.681641 1 55 1.000000
0  5.697713 1.189183 61.913567  -0.607616 -0.496097 0.620234  0.833984 0.681641 1 55 1.000000
0  5.359040 2.207176 62.118671  -0.679416 -0.338137 0.651196  0.833984 0.792969 1 55 1.000000
shoulder_antenna
0  5.966063 0.030149 60.913773  -0.422848 -0.749606 0.509205  0.771484 0.537109 1 55 1.000000
0  5.697713 1.189183 61.913567  -0.607616 -0.496097 0.620234  0.833984 0.681641 1 55 1.000000
0  5.230503 1.190685 61.456749  -0.621624 -0.475985 0.622111  0.771484 0.681641 1 55 1.000000
shoulder_antenna
0  5.966063 0.030149 60.913773  -0.422848 -0.749606 0.509205  0.771484 0.537109 1 55 1.000000
0  6.365032 0.103626 61.382996  -0.442836 -0.748416 0.493730  0.833984 0.537109 1 55 1.000000
0  5.697713 1.189183 61.913567  -0.607616 -0.496097 0.620234  0.833984 0.681641 1 55 1.000000
shoulder_antenna
0  7.428133 -0.700070 60.451057  -0.229022 -0.805188 0.547011  0.833984 0.373047 1 55 1.000000
0  6.365032 0.103626 61.382996  -0.442836 -0.748416 0.493730  0.833984 0.537109 1 55 1.000000
0  5.966063 0.030149 60.913773  -0.422848 -0.749606 0.509205  0.771484 0.537109 1 55 1.000000
shoulder_antenna
0  7.428133 -0.700070 60.451057  -0.229022 -0.805188 0.547011  0.833984 0.373047 1 55 1.000000
0  5.966063 0.030149 60.913773  -0.422848 -0.749606 0.509205  0.771484 0.537109 1 55 1.000000
0  7.014713 -0.861363 60.093796  -0.204046 -0.781863 0.589114  0.771484 0.373047 1 55 1.000000
shoulder_antenna
0  5.586998 1.676841 61.628410  0.409324 -0.866365 -0.286122  0.800781 0.931641 1 55 1.000000
0  5.499339 1.663625 61.543007  0.409334 -0.866390 -0.286032  0.828125 0.957031 1 55 1.000000
0  5.693700 1.729263 61.622345  0.409361 -0.866376 -0.286034  0.800781 0.890625 1 55 1.000000
shoulder_antenna
0  5.756945 1.790179 61.528336  0.409361 -0.866377 -0.286031  0.828125 0.865234 1 55 1.000000
0  5.693700 1.729263 61.622345  0.409361 -0.866376 -0.286034  0.800781 0.890625 1 55 1.000000
0  5.499339 1.663625 61.543007  0.409334 -0.866390 -0.286032  0.828125 0.957031 1 55 1.000000
shoulder_antenna
0  5.499339 1.663625 61.543007  0.409334 -0.866390 -0.286032  0.828125 0.957031 1 55 1.000000
0  5.482079 1.697357 61.416122  0.409338 -0.866387 -0.286034  0.869141 0.957031 1 55 1.000000
0  5.756945 1.790179 61.528336  0.409361 -0.866377 -0.286031  0.828125 0.865234 1 55 1.000000
shoulder_antenna
0  5.739680 1.823910 61.401466  0.409346 -0.866376 -0.286055  0.869141 0.865234 1 55 1.000000
0  5.756945 1.790179 61.528336  0.409361 -0.866377 -0.286031  0.828125 0.865234 1 55 1.000000
0  5.482079 1.697357 61.416122  0.409338 -0.866387 -0.286034  0.869141 0.957031 1 55 1.000000
shoulder_antenna
0  5.482079 1.697357 61.416122  0.409338 -0.866387 -0.286034  0.869141 0.957031 1 55 1.000000
0  5.545321 1.758274 61.322124  0.409327 -0.866384 -0.286061  0.896484 0.931641 1 55 1.000000
0  5.739680 1.823910 61.401466  0.409346 -0.866376 -0.286055  0.869141 0.865234 1 55 1.000000
shoulder_antenna
0  5.652020 1.810695 61.316051  0.409274 -0.866404 -0.286076  0.896484 0.890625 1 55 1.000000
0  5.739680 1.823910 61.401466  0.409346 -0.866376 -0.286055  0.869141 0.865234 1 55 1.000000
0  5.545321 1.758274 61.322124  0.409327 -0.866384 -0.286061  0.896484 0.931641 1 55 1.000000
end
