# Blender 4.4.3
# www.blender.org
mtllib holster.mtl
o kama_holster_left
v 8.555257 38.159851 -1.488679
v 8.567291 38.037071 -1.486360
v 8.545533 38.272552 -1.888863
v 8.970671 33.784267 -1.837204
v 8.827102 33.770206 -1.837287
v 8.924451 33.982674 -2.147944
v 8.970728 33.781105 -1.406057
v 8.962882 34.000374 -1.410162
v 8.964502 33.987762 -2.085717
v 8.568676 38.125320 -2.171176
v 8.554705 38.335548 -2.177124
v 8.516832 38.142174 -2.226463
v 8.556517 38.348076 -2.228747
v 8.380351 38.330799 -2.228852
v 8.827157 33.767029 -1.406141
v 8.683566 33.752964 -1.406225
v 8.807583 33.971222 -2.148012
v 8.690681 33.959766 -2.148081
v 8.283066 38.119274 -2.226597
v 8.683511 33.756130 -1.837371
v 8.648696 33.969589 -1.410347
v 8.650331 33.956993 -2.085900
v 8.253105 38.006268 -1.486544
v 8.235418 38.092644 -2.171372
v 8.229208 38.241528 -1.889050
v 8.208306 38.301601 -2.177325
v 8.204162 38.313545 -2.228954
v 8.399961 38.130707 -2.226531
v 8.241076 38.129066 -1.488863
v 9.705976 32.510342 5.769274
v 9.607117 36.456459 5.396316
v 10.125254 35.444382 6.890955
v 9.565884 32.563087 7.783658
v 7.518396 36.200096 5.407160
v 7.788767 32.327293 5.677058
v 7.373583 38.192852 5.381395
v 9.452233 38.528053 5.352589
v 9.068169 41.216667 9.206656
v 9.484429 34.587246 9.391085
v 7.554097 34.290520 9.384809
v 7.075248 40.890892 9.224971
v 7.302848 40.825710 8.969147
v 8.876850 41.075729 8.983701
v 9.289610 38.614296 5.483147
v 7.502432 38.313332 5.517791
v 7.570744 32.308578 7.632260
v 8.353047 38.608208 -2.038680
v 8.510934 38.623699 -2.038586
v 8.505638 38.541759 -2.152960
v 8.361019 38.527588 -2.153045
v 8.216412 38.513420 -2.153130
v 8.195138 38.592724 -2.038773
v 8.305198 39.096832 -2.110509
v 8.515163 39.117420 -2.110384
v 8.259484 39.563999 -2.225758
v 8.505150 39.588066 -2.225614
v 8.243805 39.727051 -2.742058
v 8.497191 39.751892 -2.741909
v 8.498797 39.603622 -3.082869
v 8.258413 39.580063 -3.083009
v 8.095214 39.076256 -2.110631
v 8.013793 39.539936 -2.225901
v 7.990416 39.702213 -2.742204
v 8.018006 39.556484 -3.083152
v 8.292794 39.229065 -3.055803
v 8.540394 39.253326 -3.055659
v 8.535477 39.124920 -2.981541
v 8.305170 39.102333 -2.981677
v 8.527962 38.895222 -2.812686
v 8.327304 38.875538 -2.812806
v 8.515670 38.735889 -2.705039
v 8.342594 38.718922 -2.705141
v 8.045171 39.204788 -3.055948
v 8.074846 39.079777 -2.981810
v 8.126611 38.855881 -2.812922
v 8.169479 38.701954 -2.705241
v 8.712442 40.060318 -0.006820
v 8.743727 39.741104 -0.000795
v 9.021049 39.768284 -0.000631
v 8.692109 40.275166 -1.255813
v 8.969432 40.302349 -1.255651
v 8.989765 40.087498 -0.006659
v 8.660402 40.598763 -1.261921
v 8.937723 40.625942 -1.261758
v 8.091772 41.273685 -1.960824
v 7.524740 41.218121 -1.961155
v 7.489988 41.572659 -1.967850
v 8.140009 40.781391 -1.951531
v 7.572980 40.725822 -1.951862
v 8.679741 35.273827 -1.847569
v 8.112713 35.218273 -1.847899
v 8.184020 34.490593 -1.834164
v 8.751047 34.546177 -1.833833
v 9.318079 34.601746 -1.833502
v 9.246767 35.329403 -1.847239
v 8.707036 40.836952 -1.951199
v 8.658799 41.329262 -1.960491
v 8.624054 41.683815 -1.967185
v 8.057019 41.628235 -1.967519
v 7.470149 39.616268 -0.001539
v 7.747472 39.643448 -0.001379
v 7.716189 39.962681 -0.007402
v 7.438865 39.935478 -0.007565
v 7.418537 40.150372 -1.256556
v 7.386827 40.473949 -1.262665
v 7.695860 40.177536 -1.256396
v 7.664153 40.501129 -1.262503
v 7.433657 39.996113 -1.253645
v 7.710978 40.023285 -1.253483
v 7.742690 39.699699 -1.247374
v 7.465369 39.672527 -1.247536
v 7.485698 39.457642 0.001454
v 7.516969 39.138420 0.007481
v 7.763016 39.484825 0.001616
v 7.794297 39.165604 0.007643
v 7.422909 40.098366 -0.010639
v 7.700231 40.125546 -0.010477
v 7.668951 40.444759 -0.016501
v 7.391623 40.417561 -0.016665
v 7.371298 40.632442 -1.265658
v 7.339584 40.956024 -1.271765
v 7.648616 40.659615 -1.265495
v 7.616905 40.983204 -1.271604
v 8.859494 32.689396 7.366890
v 6.216257 44.110241 7.954832
v 6.098105 44.954712 8.040529
v 6.243766 44.900288 8.501629
v 6.361921 44.055908 8.415933
v 6.922538 42.276863 7.742537
v 7.068196 42.222443 8.203536
v 7.407990 38.275814 7.355647
v 7.553651 38.221489 7.816747
v 7.918045 34.620350 6.988757
v 8.063707 34.566124 7.449857
v 7.929566 34.518822 7.911457
v 7.419511 38.174381 8.278247
v 6.934052 42.175137 8.665037
v 6.227680 44.008808 8.877534
v 6.109621 44.852985 8.963130
v 8.044056 41.766186 -2.918365
v 8.331806 41.794395 -2.918195
v 8.003257 42.187141 -3.702496
v 8.017577 42.041916 -3.851712
v 7.711787 42.011932 -3.851892
v 8.571974 40.301697 -1.934436
v 8.463771 40.435188 -3.380251
v 8.372834 41.263573 -1.971299
v 8.095432 41.236378 -1.971461
v 7.818003 41.209198 -1.971622
v 7.756304 41.738014 -2.918530
v 7.634879 42.151024 -3.702713
v 7.845577 40.786301 -4.356627
v 7.896372 40.882023 -4.419980
v 8.138131 40.814976 -4.356455
v 8.129354 40.904877 -4.419839
v 7.891248 40.379074 -3.380587
v 7.897615 40.072273 -2.925177
v 7.809375 40.226971 -1.934882
v 8.371634 42.223228 -3.702281
v 8.323340 42.071869 -3.851534
v 8.430649 40.843643 -4.356287
v 8.177523 40.407154 -3.380419
v 7.957666 39.859127 -3.384309
v 7.903329 39.665874 -1.913854
v 8.044167 39.109108 -1.908685
v 8.163936 38.487343 -1.901142
v 8.362342 40.927700 -4.419705
v 8.148737 40.711700 -5.187726
v 7.683300 40.666096 -5.187994
v 7.774539 40.753933 -5.306704
v 8.141137 40.789860 -5.306490
v 8.327600 42.267994 -3.878048
v 8.451722 42.427711 -4.340584
v 7.984542 42.381931 -4.340858
v 8.614174 40.757320 -5.187449
v 8.507725 40.825806 -5.306271
v 7.999545 42.230415 -4.605710
v 7.629581 42.194180 -4.605918
v 7.517360 42.336128 -4.341130
v 7.669588 42.203491 -3.878436
v 7.998598 42.235756 -3.878239
v 8.369507 42.266693 -4.605488
v 8.747375 34.574551 -0.311081
v 8.674232 35.316406 0.436313
v 8.180348 34.518974 -0.311416
v 9.314400 34.630119 -0.310752
v 9.241261 35.371983 0.436647
v 7.565601 40.787529 0.326676
v 7.520685 41.250343 -0.448743
v 7.485802 41.606369 -0.455464
v 8.052835 41.661968 -0.455130
v 8.619858 41.717529 -0.454799
v 8.654752 41.361523 -0.448080
v 8.699654 40.898670 0.327338
v 8.132630 40.843109 0.327006
v 8.107203 35.260838 0.435983
v 8.087721 41.305946 -0.448409
v 8.575914 38.592419 -2.926181
v 8.627947 38.741402 -3.167396
v 8.588545 38.964321 -3.274387
v 8.539036 38.795956 -3.448591
v 8.537458 39.058094 -3.363240
v 8.499576 39.912235 -3.383995
v 8.516567 40.132919 -2.924817
v 8.228639 39.885685 -3.384153
v 8.588699 39.733047 -1.913452
v 8.558628 39.159550 -1.908384
v 8.561852 38.526333 -1.900910
v 8.579583 38.511593 -2.821763
v 8.645006 38.426979 -3.146919
v 8.086305 39.013870 -3.363503
v 8.311900 39.035984 -3.363372
v 8.135756 38.756424 -3.448828
v 8.337414 38.776176 -3.448711
v 8.058802 38.685631 -3.167728
v 8.054324 38.911968 -3.274698
v 8.138489 38.549561 -2.926438
v 8.150461 38.469517 -2.822014
v 8.103095 38.373852 -3.147237
v 8.129735 38.531475 -3.389993
v 8.359159 38.553951 -3.389859
v 8.588552 38.576435 -3.389724
v 8.374067 38.400417 -3.147079
v 8.365039 38.490559 -2.821889
v 8.796902 34.075981 -1.447153
v 9.704379 34.164894 -1.446624
v 9.703681 34.170303 -1.158164
v 8.796207 34.081364 -1.158694
v 7.888703 33.992405 -1.159225
v 7.867312 34.210598 -1.149741
v 7.805490 34.203781 -1.190197
v 7.806060 34.199402 -1.425040
v 7.889400 33.987026 -1.447683
v 9.682293 34.388466 -1.148682
v 8.774817 34.299557 -1.149209
v 7.204480 40.974331 -1.277416
v 7.142661 40.967529 -1.317873
v 7.143227 40.963146 -1.552716
v 7.183855 41.186661 -1.583586
v 7.183153 41.192013 -1.295130
v 8.090662 41.280983 -1.294599
v 8.111989 41.063290 -1.276887
v 8.998138 41.369915 -1.294067
v 9.019464 41.152241 -1.276354
v 9.081484 41.157539 -1.316739
v 9.744308 34.393803 -1.189062
v 9.744881 34.389427 -1.423905
v 8.091357 41.275589 -1.583056
v 8.998832 41.364532 -1.582527
v 9.082045 41.153172 -1.551582
v 7.374372 42.000546 -0.453356
v 7.111194 41.962631 -1.095591
v 8.015054 42.051239 -1.095061
v 7.377468 41.976616 -1.737518
v 8.017241 42.034290 -2.003089
v 8.655712 42.101906 -1.736768
v 8.918911 42.139816 -1.094533
v 8.652615 42.125839 -0.452606
v 8.012863 42.068161 -0.187034
v 9.036591 39.609657 0.002363
v 8.759272 39.582458 0.002197
v 9.067877 39.290424 0.008387
v 8.790554 39.263241 0.008223
v 8.707225 40.120911 -1.252900
v 8.984549 40.148098 -1.252739
v 9.016266 39.824512 -1.246631
v 8.738939 39.797333 -1.246792
v 7.938793 40.606155 0.598153
v 8.153629 40.627201 0.598281
v 7.939473 40.600906 0.317531
v 8.154314 40.621979 0.317661
v 8.369121 40.643024 0.317785
v 8.368443 40.648247 0.598407
v 7.090117 42.177647 -1.099650
v 7.356392 42.191631 -1.741578
v 7.996171 42.249310 -2.007149
v 8.634640 42.316921 -1.740830
v 8.897838 42.354824 -1.098591
v 8.631539 42.340847 -0.456665
v 7.991787 42.283173 -0.191092
v 7.353299 42.215576 -0.457412
v 8.332539 36.589916 0.393244
v 8.331858 36.595139 0.673867
v 8.546700 36.616188 0.673995
v 8.761517 36.637234 0.674119
v 8.762197 36.632019 0.393498
v 9.683054 34.382580 -1.464337
v 8.775578 34.293648 -1.464866
v 8.112753 41.057415 -1.592541
v 9.020227 41.146355 -1.592009
v 7.868075 34.204720 -1.465396
v 7.205240 40.968449 -1.593073
v 8.890488 41.108036 -1.270859
v 8.613155 41.080841 -1.271021
v 8.942524 40.569572 -0.015758
v 8.665197 40.542400 -0.015920
v 8.644868 40.757248 -1.264912
v 8.922191 40.784428 -1.264752
v 8.973799 40.250362 -0.009732
v 8.696480 40.223190 -0.009894
v 8.547378 36.610966 0.393371
v 7.993982 42.266254 -1.099120
v 8.004857 42.152218 -0.579112
v 7.640833 42.113682 -0.730960
v 7.710492 41.402889 -0.717544
v 7.560438 41.381268 -1.083670
v 7.490784 42.092052 -1.097088
v 7.712258 41.389256 -1.449647
v 7.642594 42.100014 -1.463065
v 8.077013 41.422138 -1.601041
v 8.007357 42.132919 -1.614457
v 8.371346 42.171455 -1.462638
v 8.441003 41.460659 -1.449222
v 8.521400 42.193062 -1.096486
v 8.591059 41.482296 -1.083067
v 8.369579 42.185112 -0.730535
v 8.439236 41.474297 -0.717119
v 8.074508 41.441422 -0.565697
vn 0.9952 0.0976 0.0033
vn 0.9950 0.0997 0.0105
vn 0.9956 0.0933 -0.0108
vn 0.6952 -0.6851 -0.2176
vn 0.0935 -0.9531 -0.2877
vn 0.4471 -0.3730 -0.8130
vn 0.7475 -0.6642 -0.0050
vn 0.9978 0.0662 0.0006
vn 0.9335 -0.1522 -0.3248
vn 0.9338 0.0745 -0.3500
vn 0.9968 0.0800 0.0079
vn 0.3959 0.0035 -0.9183
vn 0.9248 -0.2373 -0.2972
vn 0.0602 -0.6094 -0.7906
vn 0.0975 -0.9952 -0.0073
vn -0.6044 -0.7967 -0.0058
vn 0.0478 -0.4829 -0.8744
vn -0.3653 -0.4526 -0.8135
vn -0.3879 -0.0733 -0.9188
vn -0.5488 -0.8070 -0.2183
vn -0.9917 -0.1288 -0.0006
vn -0.8858 -0.3305 -0.3258
vn -0.9954 -0.0953 0.0093
vn -0.9301 -0.1082 -0.3511
vn -0.9947 -0.1017 -0.0120
vn -0.9933 -0.1149 0.0067
vn -0.8608 -0.4123 -0.2983
vn 0.0020 -0.0150 -0.9999
vn -0.9952 -0.0975 0.0021
vn 0.5932 -0.6032 -0.5332
vn 0.5907 -0.0063 -0.8069
vn 0.9997 0.0095 -0.0207
vn 0.5924 -0.7085 0.3836
vn -0.6852 -0.0860 -0.7232
vn -0.5009 -0.6418 -0.5807
vn -0.6477 0.2840 -0.7070
vn 0.5417 0.4258 -0.7247
vn 0.4605 0.7918 0.4013
vn 0.5799 -0.2173 0.7851
vn -0.6163 -0.3094 0.7242
vn -0.6574 0.6234 0.4234
vn -0.1048 0.7471 -0.6564
vn -0.1660 0.7324 -0.6604
vn -0.4447 0.8164 -0.3685
vn 0.2283 0.9268 -0.2981
vn -0.6424 -0.7197 0.2633
vn -0.0379 0.3918 -0.9193
vn 0.7086 0.2470 -0.6610
vn 0.7166 0.6908 -0.0961
vn -0.0965 0.9854 -0.1402
vn -0.8369 0.5387 -0.0970
vn -0.7423 0.1048 -0.6618
vn 0.0193 -0.1909 -0.9814
vn 0.6504 -0.1429 -0.7460
vn 0.0670 -0.6799 -0.7302
vn 0.7894 -0.3799 -0.4821
vn 0.0974 -0.9939 0.0508
vn 0.7997 -0.6001 0.0170
vn 0.8664 -0.2426 0.4365
vn 0.0499 -0.5139 0.8564
vn -0.6094 -0.2664 -0.7468
vn -0.7001 -0.5259 -0.4830
vn -0.6679 -0.7440 0.0161
vn -0.8033 -0.4063 0.4356
vn -0.0296 0.2960 0.9547
vn 0.7554 0.2727 0.5958
vn 0.6257 0.4264 0.6532
vn -0.0541 0.5474 0.8351
vn 0.5946 0.4367 0.6750
vn -0.0571 0.5773 0.8145
vn 0.6590 0.5787 0.4805
vn -0.0778 0.7905 0.6075
vn -0.7947 0.1208 0.5949
vn -0.6973 0.2967 0.6524
vn -0.6689 0.3129 0.6743
vn -0.7594 0.4397 0.4796
vn -0.0549 0.5547 0.8302
vn 0.0806 -0.8255 0.5587
vn 0.6225 -0.6304 0.4639
vn 0.0550 -0.5560 -0.8294
vn 0.6439 -0.3847 -0.6614
vn 0.5565 0.5013 0.6626
vn -0.0806 0.8263 -0.5575
vn 0.4886 0.7400 -0.4622
vn 0.0024 -0.0186 -0.9998
vn -0.7020 -0.0822 -0.7074
vn -0.6296 0.5062 -0.5894
vn -0.7020 -0.0821 -0.7074
vn -0.5169 -0.6415 -0.5668
vn 0.0707 -0.7168 -0.6937
vn 0.6323 -0.5289 -0.5661
vn 0.7054 0.0558 -0.7066
vn 0.5200 0.6189 -0.5887
vn -0.0671 0.6891 -0.7216
vn -0.4888 -0.7393 0.4632
vn -0.6440 0.3836 0.6619
vn -0.5562 -0.5023 -0.6621
vn -0.6224 0.6311 -0.4629
vn 0.0549 -0.5560 -0.8294
vn -0.0807 0.8263 -0.5575
vn -0.6440 0.3837 0.6619
vn -0.5562 -0.5024 -0.6621
vn -0.6225 0.6311 -0.4629
vn -0.0872 0.9931 -0.0782
vn 0.9285 0.2629 -0.2623
vn 0.9464 0.1608 -0.2800
vn 0.9904 0.1383 0.0021
vn 0.9669 0.2545 0.0180
vn 0.9278 0.2656 -0.2618
vn 0.9720 0.2347 0.0133
vn 0.9476 0.1510 -0.2816
vn 0.9916 0.1293 0.0031
vn 0.9465 0.1602 -0.2802
vn 0.9905 0.1376 0.0058
vn 0.9522 0.1040 0.2874
vn 0.9532 0.0959 0.2868
vn 0.9335 0.2071 0.2926
vn 0.9340 0.2049 0.2925
vn 0.9521 0.1040 0.2874
vn -0.0857 0.8718 0.4824
vn 0.6374 0.6776 0.3669
vn -0.0965 0.9855 -0.1394
vn -0.0924 0.9413 0.3246
vn -0.9455 0.2731 -0.1774
vn 0.9937 0.0760 -0.0825
vn 0.8728 -0.1960 -0.4471
vn 0.7302 0.6276 0.2702
vn -0.0853 0.8675 0.4900
vn -0.8384 0.4739 0.2693
vn -0.7572 0.5409 0.3661
vn -0.7125 0.6918 -0.1173
vn -0.6154 -0.5674 -0.5472
vn -0.6841 -0.6593 -0.3120
vn 0.0763 -0.7750 -0.6274
vn 0.0917 -0.9329 -0.3482
vn -0.8176 -0.3616 -0.4480
vn -0.9827 -0.1790 -0.0475
vn -0.9894 -0.1183 -0.0836
vn 0.5648 0.8170 -0.1165
vn 0.8747 0.4515 -0.1763
vn 0.7144 -0.4371 -0.5464
vn 0.0542 -0.5480 -0.8347
vn -0.6866 -0.1239 -0.7164
vn -0.9466 -0.1955 -0.2562
vn -0.9489 -0.2231 -0.2234
vn -0.9473 -0.1886 -0.2591
vn 0.7995 -0.5138 -0.3110
vn 0.0963 -0.9812 -0.1675
vn -0.6561 -0.7147 -0.2424
vn -0.3392 -0.2213 -0.9143
vn 0.0264 -0.2634 -0.9643
vn 0.5103 0.5226 0.6830
vn 0.6374 0.7701 -0.0265
vn -0.0969 0.9895 -0.1070
vn 0.7826 -0.5737 -0.2416
vn 0.3767 -0.1511 -0.9139
vn -0.0661 0.6784 -0.7317
vn -0.4826 0.5320 -0.6957
vn -0.7748 0.6317 -0.0273
vn -0.6028 0.4135 0.6823
vn -0.0633 0.6406 0.7652
vn 0.3709 0.6157 -0.6952
vn 0.0896 -0.9161 0.3908
vn 0.0360 -0.3724 0.9274
vn -0.5595 -0.7717 0.3025
vn 0.6983 -0.6484 0.3032
vn 0.6535 -0.2284 0.7216
vn -0.6488 0.3345 0.6835
vn -0.8572 0.1937 0.4771
vn -0.6322 0.5301 0.5651
vn -0.0708 0.7181 0.6924
vn 0.5166 0.6427 0.5658
vn 0.8028 0.3564 0.4781
vn 0.5707 0.4541 0.6842
vn -0.0494 0.4989 0.8653
vn -0.5976 -0.3510 0.7209
vn -0.0494 0.4985 0.8655
vn 0.9718 0.1401 0.1898
vn 0.9955 0.0947 -0.0030
vn 0.9700 0.1666 -0.1770
vn 0.5131 0.0709 -0.8554
vn 0.6429 0.2109 -0.7363
vn 0.6984 0.0119 -0.7156
vn 0.9988 0.0152 -0.0464
vn 0.0014 -0.0085 -1.0000
vn 0.9669 -0.0079 -0.2551
vn 0.9744 -0.0347 -0.2223
vn 0.9662 -0.0011 -0.2579
vn 0.8530 -0.5095 0.1131
vn 0.7281 -0.6807 -0.0809
vn -0.6709 0.0820 -0.7370
vn -0.0136 0.1447 -0.9894
vn -0.5161 -0.0300 -0.8560
vn -0.0023 0.0290 -0.9996
vn -0.9949 -0.1004 -0.0042
vn -0.9837 -0.0249 -0.1781
vn -0.9807 -0.0513 0.1887
vn -0.7380 -0.6654 0.1122
vn -0.5819 -0.8091 -0.0817
vn -0.5174 -0.4925 -0.6998
vn 0.0580 -0.5873 -0.8073
vn 0.6040 -0.3826 -0.6992
vn 0.0966 -0.9845 -0.1466
vn 0.0976 -0.9952 0.0037
vn 0.0727 -0.7378 -0.6710
vn 0.5559 -0.6107 -0.5639
vn 0.5531 -0.5892 0.5890
vn 0.0694 -0.7123 0.6984
vn -0.4289 -0.6854 0.5884
vn -0.2806 -0.0391 0.9590
vn -0.8763 -0.1768 0.4482
vn -0.8741 -0.1934 -0.4457
vn -0.4261 -0.7070 -0.5645
vn 0.2817 0.0160 0.9594
vn 0.0006 -0.0122 0.9999
vn -0.2864 0.0198 0.9579
vn -0.8956 0.0200 0.4445
vn -0.8933 0.0033 -0.4494
vn -0.5531 0.5892 -0.5890
vn -0.5559 0.6107 0.5640
vn -0.0727 0.7379 0.6710
vn -0.0054 0.0495 0.9988
vn 0.4261 0.7069 0.5645
vn 0.2760 0.0749 0.9582
vn 0.8741 0.1934 0.4455
vn 0.8934 -0.0033 0.4493
vn 0.8955 -0.0200 -0.4446
vn -0.0694 0.7123 -0.6984
vn 0.4289 0.6854 -0.5884
vn 0.8762 0.1768 -0.4483
vn -0.4862 -0.6705 0.5604
vn -0.7112 -0.7029 0.0114
vn 0.0975 -0.9951 0.0188
vn -0.4836 -0.6909 -0.5374
vn 0.0633 -0.6416 -0.7644
vn 0.6091 -0.5838 -0.5367
vn 0.8341 -0.5514 0.0123
vn 0.6065 -0.5634 0.5610
vn 0.0596 -0.6127 0.7881
vn 0.5564 0.5013 0.6626
vn 0.0550 -0.5559 -0.8294
vn -0.6323 0.5290 0.5661
vn -0.0706 0.7168 0.6937
vn -0.7727 0.6346 -0.0137
vn -0.0975 0.9951 -0.0188
vn 0.6348 0.7726 -0.0128
vn 0.5169 0.6415 0.5668
vn -0.8342 0.5514 -0.0123
vn -0.6065 0.5633 -0.5611
vn -0.0596 0.6127 -0.7881
vn 0.4862 0.6705 -0.5604
vn 0.7112 0.7029 -0.0114
vn 0.4836 0.6909 0.5374
vn -0.0633 0.6416 0.7644
vn -0.6091 0.5838 0.5367
vn -0.6348 -0.7726 0.0128
vn -0.5197 -0.6200 0.5877
vn 0.0672 -0.6905 0.7202
vn 0.6295 -0.5074 0.5884
vn 0.7727 -0.6346 0.0137
vn 0.2862 -0.0198 -0.9580
vn 0.0054 -0.0495 -0.9988
vn -0.0006 0.0122 -0.9999
vn 0.2805 0.0391 -0.9591
vn -0.2758 -0.0749 -0.9583
vn -0.2816 -0.0160 -0.9594
vn -0.0548 0.5547 0.8302
vn 0.6439 -0.3848 -0.6614
vn 0.6225 -0.6304 0.4638
vn 0.0806 -0.8254 0.5587
vn -0.0024 0.0186 0.9998
vn -0.7054 -0.0558 0.7066
vn -0.9952 -0.0975 -0.0006
vn 0.9952 0.0975 0.0006
vn 0.7020 0.0822 0.7074
vn 0.7020 0.0821 0.7074
vt 0.249305 0.785521
vt 0.243191 0.785645
vt 0.254842 0.765768
vt 0.033103 0.767786
vt 0.027119 0.764989
vt 0.042383 0.752984
vt 0.031127 0.788513
vt 0.042672 0.789277
vt 0.042840 0.756110
vt 0.247466 0.751825
vt 0.257808 0.751529
vt 0.248188 0.748135
vt 0.258537 0.749355
vt 0.257159 0.740779
vt 0.023759 0.787145
vt 0.040004 0.748668
vt 0.247420 0.742337
vt 0.734227 0.116341
vt 0.728124 0.290005
vt 0.681518 0.238128
vt 0.645869 0.113013
vt 0.806495 0.288202
vt 0.800946 0.136454
vt 0.812737 0.366573
vt 0.722576 0.372815
vt 0.555570 0.455486
vt 0.584560 0.193186
vt 0.489406 0.160035
vt 0.489406 0.455486
vt 0.489406 0.469079
vt 0.553766 0.475460
vt 0.724240 0.386131
vt 0.811072 0.379195
vt 0.966426 0.469079
vt 0.966426 0.455486
vt 0.966426 0.180841
vt 0.865169 0.102748
vt 0.795120 0.038526
vt 0.576376 0.059471
vt 0.468578 0.845579
vt 0.465569 0.850159
vt 0.461851 0.843601
vt 0.466788 0.842503
vt 0.484389 0.848995
vt 0.486027 0.856028
vt 0.496457 0.840084
vt 0.503793 0.844513
vt 0.498989 0.823843
vt 0.507780 0.822158
vt 0.498734 0.808021
vt 0.493129 0.814516
vt 0.485084 0.811618
vt 0.486472 0.802677
vt 0.478818 0.804163
vt 0.481403 0.812193
vt 0.468592 0.811734
vt 0.473615 0.817141
vt 0.464351 0.819776
vt 0.470227 0.822158
vt 0.451905 0.684467
vt 0.425194 0.684467
vt 0.425194 0.666974
vt 0.413624 0.666974
vt 0.413624 0.573198
vt 0.425194 0.573198
vt 0.451905 0.666974
vt 0.425194 0.546626
vt 0.451905 0.546626
vt 0.451905 0.573198
vt 0.463959 0.573198
vt 0.463959 0.666974
vt 0.350263 0.806841
vt 0.350470 0.838762
vt 0.368035 0.838762
vt 0.325830 0.806841
vt 0.326097 0.838762
vt 0.052792 0.806841
vt 0.053148 0.838762
vt 0.016700 0.838762
vt 0.016700 0.806841
vt 0.368035 0.806841
vt 0.802600 0.676860
vt 0.914708 0.531676
vt 0.951245 0.580327
vt 0.806638 0.500908
vt 0.754717 0.507831
vt 0.643377 0.582058
vt 0.473593 0.451047
vt 0.473593 0.488082
vt 0.451954 0.488082
vt 0.451954 0.451047
vt 0.473593 0.356170
vt 0.451954 0.356170
vt 0.473593 0.184864
vt 0.451954 0.184864
vt 0.473593 0.020771
vt 0.451954 0.020771
vt 0.430732 0.020771
vt 0.430732 0.184864
vt 0.430732 0.356170
vt 0.430732 0.451047
vt 0.430732 0.488082
vt 0.289883 0.749322
vt 0.299752 0.738628
vt 0.253956 0.717843
vt 0.248629 0.708129
vt 0.264575 0.698528
vt 0.391177 0.778923
vt 0.373511 0.707078
vt 0.343509 0.781169
vt 0.334143 0.791262
vt 0.265863 0.706724
vt 0.336624 0.659699
vt 0.332628 0.653213
vt 0.351529 0.650886
vt 0.349305 0.648271
vt 0.399239 0.729912
vt 0.380127 0.695312
vt 0.410626 0.708019
vt 0.425994 0.722707
vt 0.418723 0.738632
vt 0.426046 0.763379
vt 0.419324 0.779512
vt 0.447779 0.779603
vt 0.450246 0.769518
vt 0.475007 0.774803
vt 0.479149 0.782395
vt 0.346161 0.601941
vt 0.332541 0.611630
vt 0.330699 0.608109
vt 0.330094 0.593782
vt 0.257287 0.694517
vt 0.250760 0.674257
vt 0.232025 0.672201
vt 0.241175 0.650290
vt 0.254072 0.661675
vt 0.242028 0.700022
vt 0.038339 0.944758
vt 0.081617 0.986623
vt 0.054925 0.924767
vt 0.084179 0.960658
vt 0.084179 0.852199
vt 0.054925 0.852199
vt 0.015688 0.852199
vt 0.361909 0.852199
vt 0.361909 0.960731
vt 0.394109 0.925272
vt 0.394109 0.852199
vt 0.413452 0.852199
vt 0.413452 0.925844
vt 0.426402 0.949091
vt 0.442135 0.852199
vt 0.366566 0.986623
vt 0.398315 0.953680
vt 0.459653 0.738591
vt 0.469403 0.743563
vt 0.475134 0.732225
vt 0.466491 0.720626
vt 0.447276 0.729271
vt 0.455434 0.714910
vt 0.464231 0.706666
vt 0.450635 0.709318
vt 0.440609 0.724709
vt 0.411769 0.695217
vt 0.480004 0.769802
vt 0.491887 0.784042
vt 0.490487 0.769180
vt 0.489909 0.765999
vt 0.481245 0.736352
vt 0.479976 0.720324
vt 0.451069 0.697669
vt 0.466055 0.697173
vt 0.473711 0.710124
vt 0.479877 0.701633
vt 0.490945 0.715803
vt 0.492576 0.734447
vt 0.498416 0.764060
vt 0.021185 0.554744
vt 0.031356 0.507902
vt 0.040784 0.514964
vt 0.035785 0.558091
vt 0.049426 0.514611
vt 0.049100 0.510906
vt 0.046083 0.500196
vt 0.047848 0.559630
vt 0.382872 0.514611
vt 0.383199 0.510906
vt 0.386216 0.500195
vt 0.400943 0.507901
vt 0.391515 0.514963
vt 0.396513 0.558091
vt 0.384450 0.559630
vt 0.411114 0.554744
vt 0.133513 0.657000
vt 0.165191 0.670123
vt 0.165191 0.625328
vt 0.196870 0.657000
vt 0.209986 0.625322
vt 0.120396 0.625322
vt 0.498066 0.680156
vt 0.508713 0.680156
vt 0.498066 0.666313
vt 0.508713 0.666313
vt 0.095492 0.697851
vt 0.095492 0.687192
vt 0.061206 0.697851
vt 0.061206 0.687192
vt 0.026920 0.697851
vt 0.026920 0.687192
vt 0.129778 0.687192
vt 0.129778 0.697851
vt 0.164064 0.687192
vt 0.164064 0.697851
vt 0.224156 0.709827
vt 0.025330 0.709827
vt 0.025330 0.723672
vt 0.224156 0.723672
vt 0.025330 0.734319
vt 0.224156 0.734319
vt 0.030663 0.606775
vt 0.030641 0.574564
vt 0.270783 0.574509
vt 0.270774 0.606714
vt 0.278538 0.574515
vt 0.278513 0.606738
vt 0.270809 0.609326
vt 0.030628 0.609393
vt 0.022924 0.606799
vt 0.022885 0.574576
vt 0.485595 0.679935
vt 0.485595 0.666091
vt 0.474948 0.679935
vt 0.474948 0.666091
vt 0.097330 0.654202
vt 0.110446 0.622522
vt 0.065651 0.622530
vt 0.065651 0.667325
vt 0.033973 0.654202
vt 0.020856 0.622522
vt 0.506621 0.575726
vt 0.506621 0.556180
vt 0.471386 0.556180
vt 0.471386 0.536633
vt 0.506621 0.536633
vt 0.471386 0.517086
vt 0.506621 0.517086
vt 0.471386 0.497539
vt 0.506621 0.497539
vt 0.471386 0.575726
s 1
usemtl holsters
f 1/1/1 2/2/2 3/3/3
f 4/4/4 5/5/5 6/6/6
f 4/4/4 7/7/7 5/5/5
f 7/7/7 4/4/4 8/8/8
f 4/4/4 9/9/9 8/8/8
f 2/2/2 8/8/8 9/9/9
f 10/10/10 2/2/2 9/9/9
f 3/3/3 2/2/2 10/10/10
f 11/11/11 3/3/3 10/10/10
f 11/11/11 10/10/10 12/12/12
f 13/13/13 11/11/11 12/12/12
f 14/14/14 13/13/13 12/12/12
f 6/6/6 9/9/9 4/4/4
f 9/9/9 6/6/6 10/10/10
f 6/6/6 12/12/12 10/10/10
f 7/7/7 15/15/15 5/5/5
f 5/5/5 15/15/15 16/7/16
f 17/16/17 18/6/18 19/12/19
f 18/6/18 17/16/17 5/5/5
f 20/4/20 18/6/18 5/5/5
f 20/4/20 5/5/5 16/7/16
f 16/7/16 21/8/21 20/4/20
f 21/8/21 22/9/22 20/4/20
f 22/9/22 21/8/21 23/2/23
f 24/10/24 22/9/22 23/2/23
f 24/10/24 23/2/23 25/3/25
f 26/11/26 24/10/24 25/3/25
f 19/12/19 24/10/24 26/11/26
f 27/13/27 19/12/19 26/11/26
f 27/13/27 14/14/14 19/12/19
f 14/14/14 28/17/28 19/12/19
f 28/17/28 14/14/14 12/12/12
f 28/17/28 12/12/12 17/16/17
f 12/12/12 6/6/6 17/16/17
f 5/5/5 17/16/17 6/6/6
f 20/4/20 22/9/22 18/6/18
f 18/6/18 22/9/22 24/10/24
f 19/12/19 18/6/18 24/10/24
f 28/17/28 17/16/17 19/12/19
f 25/3/25 23/2/23 29/1/29
f 30/18/30 31/19/31 32/20/32
f 32/20/32 33/21/33 30/18/30
f 34/22/34 30/18/30 35/23/35
f 34/22/34 31/19/31 30/18/30
f 36/24/36 31/19/31 34/22/34
f 36/24/36 37/25/37 31/19/31
f 37/25/37 32/20/32 31/19/31
f 37/25/37 38/26/38 32/20/32
f 32/20/32 38/26/38 39/27/39
f 32/20/32 39/27/39 33/21/33
f 40/28/40 33/21/33 39/27/39
f 41/29/41 40/28/40 39/27/39
f 41/29/41 39/27/39 38/26/38
f 38/26/38 42/30/42 41/29/41
f 38/26/38 43/31/43 42/30/42
f 37/25/37 43/31/43 38/26/38
f 37/25/37 44/32/44 43/31/43
f 36/24/36 44/32/44 37/25/37
f 36/24/36 45/33/45 44/32/44
f 36/24/36 42/34/42 45/33/45
f 36/24/36 41/35/41 42/34/42
f 36/24/36 34/22/34 41/35/41
f 34/22/34 40/36/40 41/35/41
f 35/23/35 40/36/40 34/22/34
f 35/23/35 46/37/46 40/36/40
f 35/23/35 33/38/33 46/37/46
f 35/23/35 30/18/30 33/38/33
f 40/28/40 46/39/46 33/21/33
f 47/40/47 48/41/48 49/42/49
f 50/43/50 47/40/47 49/42/49
f 47/40/47 50/43/50 51/42/51
f 52/41/52 47/40/47 51/42/51
f 53/44/53 47/40/47 52/41/52
f 47/40/47 53/44/53 48/41/48
f 53/44/53 54/45/54 48/41/48
f 53/44/53 55/46/55 54/45/54
f 55/46/55 56/47/56 54/45/54
f 55/46/55 57/48/57 56/47/56
f 57/48/57 58/49/58 56/47/56
f 59/50/59 58/49/58 57/48/57
f 60/51/60 59/50/59 57/48/57
f 61/45/61 53/44/53 52/41/52
f 55/46/55 53/44/53 61/45/61
f 62/47/62 55/46/55 61/45/61
f 57/48/57 55/46/55 62/47/62
f 63/49/63 57/48/57 62/47/62
f 63/49/63 64/50/64 57/48/57
f 64/50/64 60/51/60 57/48/57
f 60/51/60 64/50/64 65/52/65
f 60/51/60 65/52/65 59/50/59
f 65/52/65 66/53/66 59/50/59
f 67/54/67 66/53/66 65/52/65
f 68/55/68 67/54/67 65/52/65
f 69/56/69 67/54/67 68/55/68
f 70/57/70 69/56/69 68/55/68
f 69/56/69 70/57/70 71/58/71
f 70/57/70 72/59/72 71/58/71
f 71/58/71 72/59/72 49/42/49
f 72/59/72 50/43/50 49/42/49
f 64/50/64 73/53/73 65/52/65
f 73/53/73 74/54/74 65/52/65
f 74/54/74 68/55/68 65/52/65
f 74/54/74 75/56/75 68/55/68
f 75/56/75 70/57/70 68/55/68
f 75/56/75 76/58/76 70/57/70
f 76/58/76 72/59/72 70/57/70
f 76/58/76 51/42/51 72/59/72
f 51/42/51 50/43/50 72/59/72
f 77/60/77 78/61/78 79/62/79
f 78/63/78 80/64/80 81/65/81
f 79/62/79 78/63/78 81/65/81
f 79/62/79 81/65/81 82/66/82
f 82/66/82 77/60/77 79/62/79
f 80/67/80 83/68/83 84/69/84
f 81/65/81 80/67/80 84/69/84
f 81/65/81 84/69/84 82/66/82
f 84/69/84 83/70/83 82/66/82
f 83/70/83 77/71/77 82/66/82
f 85/72/85 86/73/86 87/74/87
f 85/72/85 88/75/85 86/73/86
f 88/75/85 89/76/88 86/73/86
f 89/76/88 88/75/85 90/77/85
f 91/78/88 89/76/88 90/77/85
f 91/78/88 90/77/85 92/79/89
f 90/77/85 93/80/90 92/79/89
f 94/79/91 93/80/90 90/77/85
f 95/78/92 94/79/91 90/77/85
f 95/78/92 90/77/85 96/76/92
f 90/77/85 88/75/85 96/76/92
f 97/73/92 96/76/92 88/75/85
f 85/72/85 97/73/92 88/75/85
f 98/74/93 97/73/92 85/72/85
f 99/81/94 98/74/93 85/72/85
f 99/81/94 85/72/85 87/74/87
f 100/62/95 101/61/78 102/60/77
f 103/66/96 100/62/95 102/60/77
f 100/62/95 103/66/96 104/65/97
f 103/66/96 105/69/98 104/65/97
f 104/65/97 105/69/98 106/67/99
f 105/69/98 107/68/100 106/67/99
f 105/69/98 103/66/96 107/70/100
f 103/66/96 102/71/77 107/70/100
f 100/62/95 104/65/97 101/63/78
f 104/65/97 106/64/99 101/63/78
f 108/69/98 109/68/83 110/67/80
f 111/65/97 108/69/98 110/67/80
f 112/66/101 108/69/98 111/65/97
f 113/62/95 112/66/101 111/65/97
f 112/66/101 113/62/95 114/60/77
f 113/62/95 115/61/78 114/60/77
f 108/69/98 112/66/101 109/70/83
f 112/66/101 114/71/77 109/70/83
f 113/62/95 111/65/97 115/63/78
f 111/65/97 110/64/80 115/63/78
f 116/62/95 117/61/78 118/60/77
f 119/66/96 116/62/95 118/60/77
f 116/62/95 119/66/96 120/65/102
f 119/66/96 121/69/103 120/65/102
f 120/65/102 121/69/103 122/67/80
f 121/69/103 123/68/100 122/67/80
f 121/69/103 119/66/96 123/70/100
f 119/66/96 118/71/77 123/70/100
f 116/62/95 120/65/102 117/63/78
f 120/65/102 122/64/80 117/63/78
f 124/82/104 42/83/42 43/84/43
f 124/82/104 45/85/45 42/83/42
f 124/82/104 44/86/44 45/85/45
f 124/82/104 43/87/43 44/86/44
f 125/88/105 126/89/106 127/90/107
f 125/88/105 127/90/107 128/91/108
f 129/92/109 125/88/105 128/91/108
f 129/92/109 128/91/108 130/93/110
f 131/94/111 129/92/109 130/93/110
f 131/94/111 130/93/110 132/95/112
f 133/96/113 131/94/111 132/95/112
f 133/96/113 132/95/112 134/97/114
f 132/95/112 135/98/115 134/97/114
f 132/95/112 136/99/116 135/98/115
f 130/93/110 136/99/116 132/95/112
f 130/93/110 137/100/117 136/99/116
f 128/91/108 137/100/117 130/93/110
f 128/91/108 138/101/118 137/100/117
f 127/90/107 138/101/118 128/91/108
f 127/90/107 139/102/119 138/101/118
f 140/103/120 141/104/121 142/105/122
f 143/106/123 144/107/124 142/105/122
f 145/108/125 146/109/126 147/110/127
f 146/109/126 141/104/121 147/110/127
f 147/110/127 141/104/121 140/103/120
f 148/111/128 147/110/127 140/103/120
f 149/110/129 148/111/128 140/103/120
f 150/104/130 149/110/129 140/103/120
f 150/104/130 140/103/120 142/105/122
f 151/112/131 150/104/130 142/105/122
f 144/107/124 151/112/131 142/105/122
f 151/112/131 144/107/124 152/113/132
f 144/107/124 153/114/133 152/113/132
f 152/113/132 153/114/133 154/115/134
f 153/114/133 155/116/135 154/115/134
f 156/109/136 152/113/132 154/115/134
f 156/109/136 150/104/130 152/113/132
f 150/104/130 151/112/131 152/113/132
f 157/117/137 158/108/138 156/109/136
f 158/108/138 149/110/129 156/109/136
f 149/110/129 150/104/130 156/109/136
f 142/105/122 159/112/139 160/107/140
f 141/104/121 159/112/139 142/105/122
f 161/113/141 159/112/139 141/104/121
f 146/109/126 161/113/141 141/104/121
f 154/115/134 161/113/141 146/109/126
f 162/118/142 154/115/134 146/109/126
f 162/118/142 156/109/136 154/115/134
f 163/119/143 156/109/136 162/118/142
f 157/117/137 156/109/136 163/119/143
f 157/117/137 163/119/143 64/120/64
f 63/121/63 157/117/137 64/120/64
f 63/121/63 62/122/62 157/117/137
f 62/122/62 158/108/138 157/117/137
f 158/108/138 62/122/62 164/123/144
f 165/124/145 164/123/144 62/122/62
f 61/125/61 165/124/145 62/122/62
f 61/125/61 52/126/52 165/124/145
f 52/126/52 166/127/146 165/124/145
f 160/107/140 159/112/139 161/113/141
f 167/114/147 160/107/140 161/113/141
f 167/114/147 161/113/141 154/115/134
f 155/116/135 167/114/147 154/115/134
f 155/116/135 168/128/148 167/114/147
f 155/116/135 153/114/133 168/128/148
f 153/114/133 169/129/149 168/128/148
f 169/129/149 170/130/150 168/128/148
f 170/130/150 171/131/151 168/128/148
f 172/132/152 173/133/153 174/134/154
f 173/133/153 172/132/152 167/114/147
f 175/129/155 173/133/153 167/114/147
f 168/128/148 175/129/155 167/114/147
f 175/129/155 168/128/148 176/130/156
f 168/128/148 171/131/151 176/130/156
f 171/131/151 177/135/157 176/130/156
f 171/131/151 170/130/150 177/135/157
f 170/130/150 178/136/158 177/135/157
f 170/130/150 169/129/149 178/136/158
f 169/129/149 179/133/159 178/136/158
f 179/133/159 169/129/149 153/114/133
f 180/132/160 179/133/159 153/114/133
f 144/107/124 180/132/160 153/114/133
f 180/132/160 144/107/124 181/137/161
f 144/107/124 143/106/123 181/137/161
f 143/106/123 160/107/140 181/137/161
f 143/106/123 142/105/122 160/107/140
f 167/114/147 172/132/152 160/107/140
f 160/107/140 172/132/152 181/137/161
f 181/137/161 172/132/152 174/134/154
f 180/132/160 181/137/161 174/134/154
f 179/133/159 180/132/160 174/134/154
f 178/136/158 179/133/159 174/134/154
f 177/135/157 178/136/158 174/134/154
f 177/135/157 174/134/154 182/136/162
f 177/135/157 182/136/162 176/130/156
f 175/129/155 176/130/156 182/136/162
f 173/133/153 175/129/155 182/136/162
f 174/134/154 173/133/153 182/136/162
f 183/138/163 184/139/164 185/140/165
f 183/138/163 186/140/166 184/139/164
f 186/140/166 187/141/167 184/139/164
f 91/142/88 92/143/89 185/140/165
f 185/140/165 92/143/89 183/138/163
f 92/143/89 93/144/90 183/138/163
f 183/138/163 93/144/90 94/143/91
f 186/140/166 183/138/163 94/143/91
f 94/143/91 95/142/92 186/140/166
f 95/142/92 187/141/167 186/140/166
f 187/141/167 95/142/92 96/145/92
f 89/145/88 188/146/168 189/147/169
f 86/148/86 89/145/88 189/147/169
f 86/148/86 189/147/169 87/149/87
f 189/147/169 190/150/170 87/149/87
f 190/150/170 189/147/169 191/151/171
f 190/150/170 191/151/171 99/152/94
f 99/152/94 191/151/171 192/150/172
f 98/149/93 99/152/94 192/150/172
f 192/150/172 193/147/173 98/149/93
f 193/147/173 97/148/92 98/149/93
f 97/148/92 193/147/173 96/145/92
f 193/147/173 194/146/174 96/145/92
f 194/146/174 187/141/167 96/145/92
f 194/146/174 195/153/175 187/141/167
f 195/153/175 184/139/164 187/141/167
f 196/141/176 184/139/164 195/153/175
f 184/139/164 196/141/176 185/140/165
f 196/141/176 91/142/88 185/140/165
f 87/149/87 190/150/170 99/152/94
f 192/150/172 191/151/171 193/147/173
f 191/151/171 197/154/177 193/147/173
f 189/147/169 197/154/177 191/151/171
f 189/147/169 188/146/168 197/154/177
f 193/147/173 197/154/177 194/146/174
f 197/154/177 195/153/175 194/146/174
f 188/146/168 195/153/175 197/154/177
f 188/146/168 196/141/176 195/153/175
f 188/146/168 89/145/88 196/141/176
f 89/145/88 91/142/88 196/141/176
f 69/155/69 71/156/71 198/157/178
f 199/158/179 69/155/69 198/157/178
f 67/159/67 69/155/69 199/158/179
f 200/160/180 67/159/67 199/158/179
f 200/160/180 199/158/179 201/161/181
f 202/162/182 200/160/180 201/161/181
f 202/162/182 66/163/66 200/160/180
f 59/120/59 66/163/66 202/162/182
f 203/119/183 59/120/59 202/162/182
f 203/119/183 204/117/184 59/120/59
f 204/117/184 58/121/58 59/120/59
f 58/121/58 204/117/184 56/122/56
f 66/163/66 67/159/67 200/160/180
f 205/164/185 162/118/142 203/119/183
f 162/118/142 146/109/126 203/119/183
f 203/119/183 146/109/126 204/117/184
f 146/109/126 145/108/125 204/117/184
f 204/117/184 145/108/125 56/122/56
f 206/123/186 56/122/56 145/108/125
f 206/123/186 207/124/187 56/122/56
f 207/124/187 54/125/54 56/122/56
f 54/125/54 207/124/187 48/126/48
f 207/124/187 208/127/188 48/126/48
f 48/126/48 208/127/188 49/165/49
f 208/127/188 3/166/3 49/165/49
f 11/167/11 49/165/49 3/166/3
f 13/168/13 49/165/49 11/167/11
f 71/156/71 49/165/49 13/168/13
f 209/169/189 71/156/71 13/168/13
f 209/169/189 198/157/178 71/156/71
f 209/169/189 210/170/190 198/157/178
f 205/164/185 163/119/143 162/118/142
f 211/162/191 163/119/143 205/164/185
f 212/171/192 211/162/191 205/164/185
f 213/161/193 211/162/191 212/171/192
f 214/172/194 213/161/193 212/171/192
f 215/158/195 216/160/196 213/161/193
f 213/161/193 216/160/196 211/162/191
f 73/163/73 211/162/191 216/160/196
f 73/163/73 64/120/64 211/162/191
f 64/120/64 163/119/143 211/162/191
f 76/156/76 75/155/75 217/157/197
f 75/155/75 215/158/195 217/157/197
f 75/155/75 74/159/74 215/158/195
f 74/159/74 216/160/196 215/158/195
f 74/159/74 73/163/73 216/160/196
f 52/126/52 51/165/51 166/127/146
f 51/165/51 25/166/25 166/127/146
f 25/166/25 51/165/51 26/167/26
f 26/167/26 51/165/51 27/168/27
f 51/165/51 76/156/76 27/168/27
f 76/156/76 218/169/198 27/168/27
f 76/156/76 217/157/197 218/169/198
f 217/157/197 219/170/199 218/169/198
f 219/170/199 217/157/197 215/158/195
f 220/173/200 219/170/199 215/158/195
f 220/173/200 215/158/195 213/161/193
f 220/173/200 213/161/193 221/174/201
f 213/161/193 214/172/194 221/174/201
f 214/172/194 201/161/181 221/174/201
f 214/172/194 212/171/192 201/161/181
f 212/171/192 202/162/182 201/161/181
f 212/171/192 205/164/185 202/162/182
f 205/164/185 203/119/183 202/162/182
f 199/158/179 198/157/178 210/170/190
f 222/173/202 199/158/179 210/170/190
f 199/158/179 222/173/202 201/161/181
f 201/161/181 222/173/202 221/174/201
f 221/174/201 222/173/202 223/175/203
f 220/173/200 221/174/201 223/175/203
f 219/170/199 220/173/200 223/175/203
f 218/169/198 219/170/199 223/175/203
f 224/176/204 218/169/198 223/175/203
f 27/168/27 218/169/198 224/176/204
f 14/177/14 27/168/27 224/176/204
f 14/177/14 224/176/204 13/168/13
f 224/176/204 209/169/189 13/168/13
f 224/176/204 223/175/203 209/169/189
f 223/175/203 210/170/190 209/169/189
f 222/173/202 210/170/190 223/175/203
f 225/178/205 226/179/206 227/180/207
f 228/181/208 225/178/205 227/180/207
f 228/181/208 229/180/209 225/178/205
f 229/180/209 228/181/208 230/182/210
f 230/182/210 231/183/211 229/180/209
f 231/183/211 232/184/212 229/180/209
f 232/184/212 233/179/213 229/180/209
f 229/180/209 233/179/213 225/178/205
f 234/182/214 235/185/215 228/181/208
f 228/181/208 235/185/215 230/182/210
f 236/186/216 230/182/210 235/185/215
f 231/183/211 230/182/210 236/186/216
f 237/187/217 231/183/211 236/186/216
f 231/183/211 237/187/217 232/184/212
f 237/187/217 238/188/218 232/184/212
f 238/188/218 237/187/217 239/189/219
f 237/187/217 240/190/220 239/189/219
f 239/189/219 240/190/220 241/191/221
f 242/192/222 241/191/221 240/190/220
f 243/190/223 241/191/221 242/192/222
f 244/186/224 243/190/223 242/192/222
f 244/186/224 245/187/225 243/190/223
f 245/187/225 244/186/224 246/183/226
f 246/183/226 247/184/227 245/187/225
f 246/183/226 227/180/207 247/184/227
f 227/180/207 226/179/206 247/184/227
f 240/190/220 237/187/217 236/186/216
f 236/186/216 242/192/222 240/190/220
f 242/192/222 236/186/216 235/185/215
f 242/192/222 235/185/215 244/186/224
f 235/185/215 234/182/214 244/186/224
f 244/186/224 234/182/214 246/183/226
f 227/180/207 246/183/226 234/182/214
f 227/180/207 234/182/214 228/181/208
f 248/193/228 239/189/219 241/191/221
f 248/193/228 241/191/221 249/189/229
f 241/191/221 243/190/223 249/189/229
f 249/189/229 243/190/223 245/187/225
f 250/188/230 249/189/229 245/187/225
f 247/184/227 250/188/230 245/187/225
f 251/194/231 252/195/232 253/196/233
f 252/195/232 254/197/234 253/196/233
f 254/197/234 255/198/235 253/196/233
f 253/196/233 255/198/235 256/197/236
f 253/196/233 256/197/236 257/195/237
f 253/196/233 257/195/237 258/194/238
f 253/196/233 258/194/238 259/199/239
f 259/199/239 251/194/231 253/196/233
f 260/66/240 261/60/77 262/62/79
f 261/60/77 263/61/78 262/62/79
f 264/70/100 261/71/77 260/66/240
f 265/69/84 264/70/100 260/66/240
f 266/65/81 265/69/84 260/66/240
f 262/62/79 266/65/81 260/66/240
f 262/62/79 263/63/78 266/65/81
f 263/63/78 267/64/241 266/65/81
f 266/65/81 267/67/241 265/69/84
f 267/67/241 264/68/100 265/69/84
f 268/200/242 269/201/243 270/202/244
f 269/201/243 271/203/245 270/202/244
f 272/202/246 271/203/245 269/201/243
f 273/200/247 272/202/246 269/201/243
f 252/204/232 274/205/248 254/206/234
f 274/205/248 275/207/249 254/206/234
f 254/206/234 275/207/249 255/208/235
f 275/207/249 276/209/250 255/208/235
f 255/208/235 276/209/250 277/207/251
f 256/206/236 255/208/235 277/207/251
f 256/206/236 277/207/251 278/205/252
f 257/204/237 256/206/236 278/205/252
f 257/204/237 278/205/252 279/210/253
f 258/211/238 257/204/237 279/210/253
f 258/211/238 279/210/253 280/212/254
f 259/213/239 258/211/238 280/212/254
f 259/213/239 280/212/254 251/211/231
f 280/212/254 281/210/255 251/211/231
f 251/211/231 281/210/255 252/204/232
f 281/210/255 274/205/248 252/204/232
f 270/214/244 282/215/256 283/216/257
f 268/217/242 270/214/244 283/216/257
f 283/216/257 284/218/258 268/217/242
f 284/218/258 269/219/243 268/217/242
f 273/217/247 269/219/243 284/218/258
f 285/216/259 273/217/247 284/218/258
f 273/217/247 285/216/259 272/214/246
f 285/216/259 286/215/260 272/214/246
f 287/220/261 288/221/262 289/222/263
f 290/223/264 287/220/261 289/222/263
f 290/223/264 289/222/263 248/224/228
f 249/225/229 290/223/264 248/224/228
f 249/225/229 250/226/230 290/223/264
f 290/223/264 250/226/230 287/220/261
f 250/226/230 247/227/227 287/220/261
f 226/228/206 287/220/261 247/227/227
f 287/220/261 226/228/206 288/221/262
f 226/228/206 225/229/205 288/221/262
f 288/221/262 225/229/205 233/228/213
f 291/220/265 288/221/262 233/228/213
f 232/227/212 291/220/265 233/228/213
f 291/220/265 232/227/212 238/226/218
f 292/223/266 291/220/265 238/226/218
f 292/223/266 238/226/218 239/225/219
f 239/225/219 248/224/228 292/223/266
f 248/224/228 289/222/263 292/223/266
f 292/223/266 289/222/263 291/220/265
f 289/222/263 288/221/262 291/220/265
f 293/69/84 294/70/100 295/66/82
f 294/70/100 296/71/267 295/66/82
f 297/67/80 294/68/100 293/69/84
f 298/65/268 297/67/80 293/69/84
f 298/65/268 293/69/84 295/66/82
f 299/62/269 298/65/268 295/66/82
f 295/66/82 296/60/267 299/62/269
f 296/60/267 300/61/270 299/62/269
f 299/62/269 300/63/270 298/65/268
f 300/63/270 297/64/80 298/65/268
f 283/230/257 282/231/256 284/232/258
f 282/231/256 301/233/233 284/232/258
f 284/232/258 301/233/233 286/231/260
f 285/230/259 284/232/258 286/231/260
f 281/234/255 280/235/254 302/236/245
f 302/236/245 280/235/254 279/234/253
f 302/236/245 279/234/253 278/237/252
f 302/236/245 278/237/252 277/238/251
f 302/236/245 277/238/251 276/239/250
f 276/239/250 275/238/249 302/236/245
f 275/238/249 274/237/248 302/236/245
f 274/237/248 281/234/255 302/236/245
f 303/240/271 304/241/272 305/242/272
f 305/242/272 304/241/272 306/243/273
f 304/241/272 307/244/273 306/243/273
f 306/243/273 307/244/273 308/245/86
f 307/244/273 309/246/86 308/245/86
f 308/245/86 309/246/86 310/247/85
f 309/246/86 311/248/85 310/247/85
f 310/247/85 311/248/85 312/246/92
f 313/245/92 310/247/85 312/246/92
f 313/245/92 312/246/92 314/244/274
f 315/243/274 313/245/92 314/244/274
f 315/243/274 314/244/274 316/241/275
f 317/242/276 315/243/274 316/241/275
f 317/242/276 316/241/275 303/240/271
f 318/249/271 317/242/276 303/240/271
f 318/249/271 303/240/271 305/242/272
