# Blender 4.4.3
# www.blender.org
mtllib jetpack.mtl
o jetpack
v 0.008536 68.651474 -8.832634
v -0.581768 67.503677 -9.422830
v -0.826168 67.503693 -8.832634
v 0.008532 67.503677 -9.667531
v 1.156327 65.977783 -8.832630
v 0.822828 66.386276 -9.607830
v 1.160029 66.386276 -8.832628
v 0.822829 66.386276 -8.057526
v 0.820028 65.977676 -8.021229
v 0.008529 66.386276 -7.736329
v 0.008528 65.977692 -7.684829
v -0.803172 65.977692 -8.021234
v -0.805771 66.386292 -8.057526
v -1.139373 65.977692 -8.832630
v -1.143171 66.386292 -8.832627
v -0.805772 66.386276 -9.607830
v 0.008528 66.386276 -9.929032
v 0.598632 67.503677 -9.422830
v 0.843132 67.503677 -8.832634
v 0.820027 65.977676 -9.644033
v -0.803173 65.977676 -9.644033
v 0.008527 65.977783 -9.980432
v 0.598632 67.503693 -8.242532
v 0.008533 67.503693 -7.998331
v -0.581768 67.503693 -8.242532
v -5.347032 46.783428 -7.951591
v -4.867323 49.944233 -8.646698
v -5.059134 46.713947 -8.646690
v -5.347033 46.783436 -9.341997
v -4.993125 49.974651 -8.950600
v -6.046032 46.952034 -9.631293
v -5.298820 50.048458 -9.077199
v -5.604321 50.122150 -8.950600
v -6.744628 47.120537 -9.341995
v -5.730022 50.152447 -8.646697
v -7.031932 47.189934 -8.646694
v -6.744629 47.120537 -7.951591
v -5.604322 50.122131 -8.342695
v -6.046032 46.952034 -7.661893
v -5.298822 50.048458 -8.216196
v -4.993124 49.974651 -8.342699
v 3.355909 59.983143 -8.678720
v 1.629609 59.983147 -8.151618
v 1.629609 59.983147 -8.678720
v 3.355909 59.983143 -8.151621
v 3.093887 52.954842 -8.366505
v 3.283287 53.144138 -8.697809
v 3.093887 52.954838 -8.730307
v 3.283287 53.144142 -8.366505
v 3.283310 60.593842 -8.697822
v 3.283311 60.593842 -8.366516
v 1.032486 52.954845 -8.366505
v 1.032486 52.954845 -8.907105
v -5.316878 64.096390 -8.647020
v -5.839480 63.437378 -8.124321
v -5.316875 63.437370 -7.908021
v -6.055882 63.437374 -8.647018
v -5.839480 63.437378 -9.169026
v -4.578083 63.437374 -8.647022
v -4.794480 63.437366 -9.169024
v -5.316875 63.437374 -9.385822
v -5.316883 62.503971 -9.707023
v -6.066879 62.503971 -9.396625
v -6.377584 62.503975 -8.647017
v -6.066878 62.503975 -7.896614
v -5.316876 62.503971 -7.586213
v -4.794480 63.437370 -8.124322
v -4.566981 62.503971 -7.896614
v -4.256281 62.503967 -8.647018
v -4.566982 62.503971 -9.396623
v -4.057817 50.997040 -6.459494
v -6.358504 55.701473 -6.966904
v -6.359818 51.025959 -6.197796
v -2.214919 50.975239 -6.365999
v -4.038404 55.675865 -7.208607
v -4.057087 60.878071 -6.460717
v -6.359587 60.892876 -6.200606
v -5.123682 62.925770 -6.997417
v -2.214687 61.040661 -6.366617
v -2.214678 64.065994 -6.918623
v -1.194587 61.109863 -5.987013
v 0.000025 64.807693 -6.858824
v 0.000014 61.194859 -5.767616
v 1.194613 61.109856 -5.987018
v -0.000004 55.799553 -6.551009
v 1.195196 55.766449 -6.755805
v 1.195681 50.961132 -5.984199
v 2.214881 50.975224 -6.366002
v 2.214796 55.739346 -7.136711
v 4.038396 55.675842 -7.208611
v 4.057013 60.878044 -6.460721
v -2.214804 55.739361 -7.136708
v -1.195304 55.766457 -6.755806
v -1.195819 50.961147 -5.984199
v -0.000018 50.961231 -5.768197
v 2.214713 61.040649 -6.366619
v 6.358496 55.701435 -6.966909
v 6.359613 60.892834 -6.200621
v 5.123719 62.925739 -6.997425
v 2.214722 64.065979 -6.918624
v 4.057777 50.997028 -6.459501
v 6.359784 51.025906 -6.197803
v -4.958133 46.689526 -8.646688
v -5.276630 46.766327 -9.415795
v -4.707123 49.951229 -8.646696
v -4.885820 49.994335 -9.077801
v -4.707223 50.385853 -8.646696
v -6.046032 46.952030 -9.734296
v -6.815132 47.137539 -9.415792
v -5.317123 50.098347 -9.256499
v -4.885819 50.385838 -9.077801
v -4.497921 50.734859 -9.465606
v -4.158619 50.734848 -8.646699
v -5.317122 50.098347 -8.036898
v -5.316921 50.385845 -8.036898
v -5.748222 50.202442 -8.215495
v -6.815131 47.137531 -7.877491
v -7.132932 47.214230 -8.646690
v -5.276629 46.766331 -7.877492
v -4.885820 49.994335 -8.215495
v -4.885821 50.385853 -8.215498
v -6.046032 46.952034 -7.558887
v -4.497920 50.734837 -7.827600
v -4.158586 61.859165 -8.647018
v -4.497885 61.859165 -7.827319
v -4.398582 62.376667 -8.647015
v -4.667483 62.376671 -7.997119
v -4.398583 62.519466 -8.647018
v -4.667483 62.519466 -7.997118
v -5.316876 62.376671 -7.728116
v -5.316883 62.519470 -7.728117
v -5.966383 62.376675 -7.997118
v -5.966386 62.519474 -7.997117
v -6.235384 62.376675 -8.647017
v -6.235385 62.519474 -8.647018
v -5.966384 62.376671 -9.296223
v -5.966384 62.519470 -9.296221
v -5.316884 62.376667 -9.565121
v -5.316884 62.519466 -9.565119
v -4.667484 62.376667 -9.296220
v -4.667484 62.519466 -9.296220
v -6.136081 61.859173 -7.827318
v -6.475386 61.859173 -8.647015
v -6.136084 61.859169 -9.466022
v -5.316884 61.859165 -9.804920
v -4.497886 61.859165 -9.466022
v -6.475420 50.734848 -8.646699
v -6.136116 50.734856 -7.827598
v -5.316884 61.859070 -7.488315
v -5.316915 50.734837 -7.488297
v -5.748121 50.385853 -8.215496
v -5.926724 50.385853 -8.646698
v -5.926423 50.245445 -8.646697
v -5.748119 50.385845 -9.077805
v -5.748220 50.202442 -9.077805
v -5.316917 50.385845 -9.256497
v -6.136119 50.734863 -9.465603
v -5.316919 50.734844 -9.804901
v -6.431289 60.793072 -7.551317
v -5.140981 62.917671 -7.445118
v -2.390917 51.818340 -8.517802
v -2.390311 53.964058 -8.520409
v -2.187217 51.848457 -8.924204
v -3.729417 51.818134 -8.532501
v -3.729389 60.848064 -8.532517
v -4.522195 59.483063 -9.825216
v -4.522219 51.390953 -9.825504
v -6.112295 59.195171 -9.825213
v -6.112316 51.610157 -9.825503
v -6.461215 52.354969 -9.425303
v -6.617913 52.433468 -9.142303
v -6.702113 52.933968 -9.043700
v -6.786413 53.023369 -8.778601
v -6.786390 60.373875 -8.778618
v -6.742013 52.936375 -8.515903
v -6.697817 52.409870 -8.361402
v -6.609316 52.141575 -7.941103
v -6.432117 51.410961 -7.681898
v -6.408018 51.180264 -7.208198
v -2.392992 59.827957 -8.523619
v -2.031092 59.726158 -8.673012
v -2.392289 60.848057 -8.521019
v -2.027489 60.848057 -8.677518
v -1.681893 59.726154 -9.502318
v -1.680089 60.848053 -9.503517
v -1.192090 60.848053 -10.020524
v 1.680111 60.848045 -9.503521
v 2.027511 60.848045 -8.677525
v 1.681907 59.726143 -9.502319
v 1.192111 60.848045 -10.020523
v 1.192089 53.925446 -9.883810
v 0.000010 60.841045 -10.564829
v -0.000012 53.884048 -10.456715
v -1.192111 53.925449 -9.883809
v -1.192120 51.260944 -9.837908
v -1.681919 51.260941 -9.503501
v -1.681911 53.964054 -9.504812
v -2.187011 53.964058 -8.924809
v -2.024010 53.970959 -8.679409
v -1.607693 59.666157 -8.765919
v -2.186519 51.260929 -8.924203
v -1.607710 53.976460 -8.763306
v -0.000020 51.260941 -10.350506
v 1.192080 51.260937 -9.837907
v 1.681881 51.260918 -9.503507
v 1.681889 53.964043 -9.504814
v 2.187183 51.848438 -8.924212
v 2.186990 53.964043 -8.924813
v 2.390290 53.964039 -8.520411
v 2.023989 53.970943 -8.679407
v 2.031108 59.726147 -8.673018
v 1.607707 59.666145 -8.765921
v 2.186481 51.260937 -8.924211
v 1.607689 53.976448 -8.763307
v 2.390883 51.818340 -8.517805
v 3.729383 51.818130 -8.532512
v 6.609182 52.141533 -7.941107
v 6.697785 52.409828 -8.361411
v 6.431315 60.793034 -7.551323
v 6.741989 52.936333 -8.515912
v 6.786410 60.373833 -8.778625
v 6.786386 53.023327 -8.778612
v 6.112303 59.195133 -9.825220
v 6.702086 52.933929 -9.043709
v 6.617885 52.433430 -9.142311
v 6.461190 52.354931 -9.425312
v 6.112282 51.610111 -9.825510
v 4.522182 51.390926 -9.825504
v 4.522207 59.483036 -9.825215
v 3.729411 60.848038 -8.532526
v 2.393008 59.827942 -8.523622
v 2.392311 60.848042 -8.521021
v 6.492585 52.377430 -8.399610
v 6.424984 52.106430 -7.971713
v 6.526487 52.899033 -8.548307
v 6.229384 51.820435 -7.208605
v 6.289682 51.385921 -7.714403
v 6.286481 51.145023 -7.208203
v 6.229984 51.820232 -7.471205
v 6.223091 53.442131 -7.471805
v 6.560288 53.399933 -8.777311
v 6.560286 52.970131 -8.777309
v 6.489587 52.899731 -9.004312
v 5.994786 52.937332 -9.646509
v 6.418988 52.394028 -9.108608
v 6.289386 52.310833 -9.370610
v 5.994782 51.610119 -9.726709
v 4.643483 52.735733 -9.646509
v 4.643479 51.390728 -9.726707
v 3.899683 51.818134 -8.370302
v 4.125188 53.399837 -8.776711
v 3.898485 52.424740 -8.371608
v 3.898188 53.398140 -8.369706
v -3.899717 51.818142 -8.370304
v -2.205317 51.818134 -8.369003
v -3.898515 52.424763 -8.371607
v -2.181815 52.424553 -8.370301
v -0.000017 51.818241 -8.369703
v -0.000015 52.424145 -8.370303
v 2.181785 52.424541 -8.370303
v 2.205283 51.818142 -8.369011
v -6.526514 52.899071 -8.548305
v -6.425016 52.106472 -7.971702
v -6.492615 52.377472 -8.399602
v -6.223111 53.442173 -7.471802
v -6.560310 53.399975 -8.777304
v -6.560314 52.970173 -8.777302
v -5.994816 52.937370 -9.646503
v -6.489614 52.899769 -9.004303
v -6.419015 52.394070 -9.108601
v -6.289416 52.310871 -9.370602
v -5.994818 51.610165 -9.726706
v -4.643614 52.735764 -9.646503
v -4.643618 51.390755 -9.726702
v -4.125212 53.399860 -8.776707
v -3.898312 53.398167 -8.369705
v -6.230016 51.820271 -7.471201
v -6.289719 51.385960 -7.714402
v -6.286519 51.145069 -7.208199
v -6.229416 51.820469 -7.208600
v 6.432082 51.410919 -7.681907
v 5.141019 62.917641 -7.445123
v 6.407982 51.180210 -7.208204
v 3.898188 53.392342 -7.471805
v 1.032485 52.596039 -8.907108
v 3.595611 60.593838 -8.366522
v 3.595610 60.593838 -8.697822
v 3.595586 52.785439 -8.697812
v 3.406185 52.596031 -8.730307
v 1.032485 52.596043 -8.366505
v 3.595586 52.785439 -8.366508
v 3.406185 52.596043 -8.366506
v -1.629591 60.304058 -8.678719
v -3.355890 60.304062 -8.151614
v -1.629590 60.304058 -8.151619
v -3.355891 60.304062 -8.678716
v -1.629592 59.983158 -8.678719
v -3.355891 59.983162 -8.678719
v 3.898185 52.419640 -7.209204
v -0.000015 52.419052 -7.209201
v 3.898085 52.420143 -7.469306
v -3.898115 52.420166 -7.469301
v -3.898215 52.419662 -7.209199
v 5.599176 50.122097 -8.950601
v 5.724877 50.152409 -8.646703
v 5.599176 50.122105 -8.342704
v 5.293777 50.048405 -8.216205
v 4.988078 49.974613 -8.342705
v 4.988077 49.974606 -8.950601
v 5.293777 50.048405 -9.077209
v 4.862077 49.944218 -8.646702
v -1.107981 63.679165 -9.991829
v -1.014480 63.679165 -9.761126
v -0.496681 63.679157 -10.611830
v 1.111019 63.679150 -9.991827
v 1.017620 63.679150 -9.761129
v 0.499819 63.679165 -10.611831
v 0.001619 63.679157 -10.791233
v 6.061816 62.503933 -9.396626
v 6.372518 62.503933 -8.647025
v 6.061817 62.503937 -7.896619
v 4.561920 62.503941 -7.896618
v 4.561919 62.503937 -9.396627
v 4.251217 62.503941 -8.647021
v 5.311917 62.503933 -9.707027
v 5.311922 62.503941 -7.586218
v 1.456081 51.288330 -8.832605
v 1.032081 51.288338 -7.809199
v 0.008482 51.288227 -7.385001
v -1.439319 51.288334 -8.832603
v 0.008480 51.288334 -10.280311
v -1.015219 51.288342 -9.856409
v 1.032081 51.288319 -9.856406
v -1.015218 51.288345 -7.809200
v 0.820025 65.250885 -9.644032
v 0.008524 65.250885 -9.980430
v -0.803175 65.250885 -9.644032
v -0.803175 65.250885 -8.021226
v 0.820025 65.250885 -8.021232
v 0.008526 65.250885 -7.684827
v 1.156325 65.250885 -8.832626
v -1.139375 65.250885 -8.832628
v 1.032121 64.187271 -9.856431
v 0.008521 64.187286 -10.280631
v -1.015179 64.187286 -9.856430
v -1.015178 64.187286 -7.808925
v 1.032122 64.187286 -7.808924
v 0.008522 64.187286 -7.384723
v 1.456122 64.187271 -8.832627
v -1.439278 64.187286 -8.832626
v 3.355910 60.304043 -8.151619
v 1.629610 60.304047 -8.678720
v 1.629610 60.304047 -8.151621
v 3.355910 60.304043 -8.678720
v 4.880681 50.385799 -9.077808
v 4.880579 49.994312 -9.077808
v 4.702076 50.385822 -8.646701
v 5.311977 50.098309 -9.256508
v 5.311978 50.098309 -8.036901
v 5.743078 50.202396 -8.215500
v 5.311879 50.385822 -8.036901
v 4.880679 50.385815 -8.215500
v 4.880578 49.994320 -8.215501
v 4.701977 49.951199 -8.646702
v 5.271469 46.766293 -9.415800
v 6.040967 46.951988 -9.734306
v 6.809868 47.137489 -9.415802
v 5.743080 50.202404 -9.077803
v 5.311881 50.385807 -9.256505
v 5.311881 50.734806 -9.804907
v 4.492781 50.734806 -9.465608
v 4.153379 50.734814 -8.646702
v 5.742979 50.385815 -8.215501
v 4.492785 50.734806 -7.827601
v 5.311883 50.734814 -7.488304
v 6.130880 50.734806 -7.827602
v 6.739469 47.120491 -9.342005
v 7.026866 47.189892 -8.646697
v 7.127768 47.214188 -8.646698
v 5.921378 50.245403 -8.646703
v 5.742980 50.385811 -9.077807
v 6.130879 50.734829 -9.465613
v 6.130914 61.859131 -9.466026
v 5.311916 61.859131 -9.804927
v 4.492816 61.859135 -9.466026
v 4.153414 61.859138 -8.647021
v 4.492820 61.859138 -7.827323
v 5.311916 61.859035 -7.488320
v 6.130915 61.859135 -7.827323
v 6.470214 61.859131 -8.647023
v 6.470181 50.734814 -8.646704
v 5.921576 50.385815 -8.646703
v 5.311922 62.376637 -7.728119
v 5.961317 62.376637 -7.997122
v 4.662517 62.376640 -7.997121
v 4.393416 62.376640 -8.647022
v 4.662516 62.376637 -9.296227
v 5.311916 62.376637 -9.565128
v 5.961316 62.376633 -9.296226
v 6.230318 62.376633 -8.647024
v 4.662516 62.519436 -9.296229
v 4.393417 62.519440 -8.647024
v 4.662515 62.519440 -7.997123
v 5.311917 62.519436 -7.728121
v 5.961315 62.519436 -7.997124
v 6.230318 62.519432 -8.647023
v 5.961316 62.519432 -9.296226
v 5.311916 62.519436 -9.565130
v 6.809869 47.137493 -7.877499
v 6.040968 46.951992 -7.558894
v 5.271470 46.766296 -7.877497
v 4.952967 46.689499 -8.646696
v 5.053866 46.713894 -8.646696
v 5.341867 46.783394 -9.342001
v 6.040967 46.951996 -9.631305
v 5.341868 46.783394 -7.951599
v 6.040968 46.951992 -7.661897
v 6.739470 47.120499 -7.951600
v 3.898181 51.094540 -7.208201
v 3.898183 51.816242 -7.208604
v -0.000019 51.078430 -7.208200
v -3.898219 51.094540 -7.208199
v -3.898217 51.816254 -7.208600
v -0.000016 51.904949 -7.207902
v 2.214722 64.065979 -7.381521
v 0.000024 64.807587 -7.321726
v -2.214678 64.065994 -7.381521
v -3.552388 60.904766 -7.604020
v -2.183387 61.221863 -7.609816
v -1.192187 61.287758 -7.743318
v 0.000013 61.356853 -7.809519
v 1.192113 61.287750 -7.743316
v 2.183413 61.221848 -7.609818
v 3.552412 60.904743 -7.604021
v -1.629591 59.983158 -8.151618
v -3.355891 59.983162 -8.151613
v -1.032514 52.954853 -8.366505
v -3.093913 52.954861 -8.730304
v -3.093913 52.954861 -8.366502
v -1.032514 52.954853 -8.907105
v -3.283313 53.144161 -8.366504
v -3.283289 60.593861 -8.697824
v -3.283289 60.593861 -8.366520
v -3.283313 53.144161 -8.697809
v -3.898217 51.816051 -7.471201
v -6.776515 52.207867 -8.225998
v -6.776515 52.446964 -8.640000
v -6.776516 52.207859 -9.054502
v -6.776517 51.729359 -9.054500
v -6.776520 51.490162 -8.640300
v -6.776517 51.729351 -8.226000
v -3.898212 53.392365 -7.471802
v -0.770318 51.637424 -9.580107
v -1.014505 55.981255 -9.563910
v -0.841318 51.637447 -9.866909
v -1.108005 55.981255 -9.794712
v -0.496705 55.981251 -10.414716
v -0.376919 51.637451 -10.382313
v 0.001595 55.981247 -10.594015
v 0.001581 51.637432 -10.531109
v 0.379981 51.637447 -10.382312
v 0.499795 55.981247 -10.414717
v 0.844482 51.637444 -9.866907
v 1.110995 55.981247 -9.794712
v 1.017595 55.981247 -9.563911
v 0.773382 51.637447 -9.580108
v -6.269820 51.490170 -8.640299
v -6.269817 51.729359 -8.225998
v -6.269817 51.729366 -9.054502
v -6.269816 52.207867 -9.054500
v -6.269815 52.446968 -8.640000
v -6.269815 52.207874 -8.225999
v 3.898183 51.816036 -7.471205
v -1.032515 52.596054 -8.907104
v -3.406215 52.596062 -8.730303
v -3.595614 52.785461 -8.697804
v -3.406214 52.596058 -8.366501
v -3.595614 52.785461 -8.366501
v -3.595690 60.593861 -8.697819
v -3.595689 60.593861 -8.366516
v -1.032515 52.596054 -8.366503
v 6.776489 52.207829 -9.054506
v 6.776485 52.446926 -8.640012
v 6.776485 52.207832 -8.226006
v 6.776484 51.729328 -8.226006
v 6.776482 51.490131 -8.640310
v 6.776483 51.729321 -9.054515
v -2.016317 51.831944 -8.800802
v -2.012719 51.261440 -8.794804
v -1.646818 51.718750 -9.193804
v -1.646719 51.260948 -9.193206
v -1.192218 51.718544 -9.398504
v -1.192219 51.260643 -9.401404
v -0.000018 51.718235 -9.637304
v -0.000019 51.260639 -9.638004
v 1.192081 51.260643 -9.401404
v 1.192182 51.718540 -9.398506
v 1.646681 51.260929 -9.193207
v 1.646782 51.718746 -9.193809
v 2.012681 51.261440 -8.794807
v 2.016283 51.831944 -8.800813
v 6.269783 51.729313 -8.226006
v 6.269785 52.207829 -8.226008
v 6.269785 52.446918 -8.640013
v 6.269788 52.207813 -9.054509
v 6.269783 51.729321 -9.054516
v 6.269782 51.490128 -8.640310
v 0.008528 66.017685 -7.878827
v 0.008525 65.058182 -7.878826
v 0.683128 66.017685 -8.158030
v 0.683125 65.058182 -8.158027
v 0.962427 66.017685 -8.832630
v 0.962424 65.058182 -8.832628
v 0.683127 66.017685 -9.507333
v 0.683124 65.058182 -9.507335
v 0.008527 66.017685 -9.786528
v 0.008524 65.058182 -9.786528
v -0.666073 66.017685 -9.507329
v -0.666076 65.058182 -9.507328
v -0.945572 66.017685 -8.832628
v -0.945576 65.058182 -8.832628
v -0.666072 66.017685 -8.158030
v -0.666075 65.058182 -8.158030
v -0.803179 64.096588 -9.644030
v -1.139379 64.096588 -8.832625
v 0.008521 64.096588 -9.980426
v 0.820021 64.096588 -9.644028
v 1.156321 64.096588 -8.832625
v 0.820022 64.096588 -8.021225
v 0.008522 64.096588 -7.684825
v -0.803178 64.096588 -8.021229
v 6.050817 63.437336 -8.647028
v 5.311922 64.096359 -8.647028
v 5.834320 63.437336 -8.124326
v 5.834320 63.437336 -9.169028
v 5.311923 63.437336 -9.385829
v 4.789420 63.437344 -9.169031
v 4.572917 63.437340 -8.647022
v 4.789420 63.437340 -8.124326
v 5.311923 63.437336 -7.908026
vn -0.0000 1.0000 0.0001
vn -0.6417 0.4081 -0.6494
vn -0.9087 0.4174 -0.0000
vn 0.0001 0.3990 -0.9170
vn 1.0000 0.0022 -0.0000
vn 0.6985 0.1499 -0.6997
vn 0.9917 0.1287 -0.0000
vn 0.6985 0.1500 0.6997
vn 0.6896 0.0651 0.7212
vn -0.0000 0.1724 0.9850
vn -0.0000 0.1251 0.9921
vn -0.6897 0.0654 0.7211
vn -0.6984 0.1501 0.6998
vn -1.0000 0.0021 -0.0000
vn -0.9917 0.1286 -0.0000
vn -0.6984 0.1500 -0.6998
vn -0.0000 0.1722 -0.9851
vn 0.6416 0.4081 -0.6494
vn 0.9087 0.4174 -0.0000
vn 0.6897 0.0649 -0.7212
vn -0.6898 0.0652 -0.7211
vn -0.0000 0.1248 -0.9922
vn 0.6414 0.4082 0.6496
vn 0.0001 0.3991 0.9169
vn -0.6415 0.4082 0.6495
vn -0.7117 -0.0072 -0.7025
vn -0.8628 -0.5056 -0.0000
vn -0.9982 0.0593 -0.0001
vn -0.7116 -0.0073 0.7026
vn -0.6519 -0.5573 0.5143
vn -0.0401 -0.1667 0.9852
vn -0.1631 -0.6760 0.7186
vn 0.3261 -0.7933 0.5141
vn 0.6303 -0.3310 0.7023
vn 0.5371 -0.8435 -0.0000
vn 0.9155 -0.4023 -0.0000
vn 0.6304 -0.3310 -0.7022
vn 0.3262 -0.7932 -0.5142
vn -0.0401 -0.1666 -0.9852
vn -0.1631 -0.6761 -0.7185
vn -0.6519 -0.5573 -0.5143
vn -0.0000 -1.0000 -0.0000
vn -0.3826 0.9239 -0.0000
vn -0.9178 0.3969 -0.0000
vn -0.3570 0.9341 -0.0000
vn -0.9238 0.3828 -0.0000
vn -1.0000 -0.0000 -0.0000
vn -0.0000 1.0000 -0.0000
vn 0.0001 1.0000 -0.0002
vn -0.6008 0.5273 0.6008
vn 0.0001 0.5273 0.8497
vn -0.8497 0.5272 -0.0002
vn -0.6009 0.5271 -0.6009
vn 0.8497 0.5272 -0.0002
vn 0.6010 0.5272 -0.6007
vn -0.0001 0.5270 -0.8499
vn -0.0001 0.3255 -0.9455
vn -0.6683 0.3259 -0.6687
vn -0.9454 0.3258 -0.0002
vn -0.6684 0.3259 0.6686
vn -0.0000 0.3260 0.9454
vn 0.6008 0.5273 0.6008
vn 0.6684 0.3260 0.6685
vn 0.9454 0.3259 -0.0002
vn 0.6685 0.3258 -0.6686
vn 0.0312 0.1595 0.9867
vn 0.1063 0.0071 0.9943
vn 0.1135 0.1612 0.9804
vn -0.2030 0.1554 0.9668
vn 0.0314 0.0104 0.9995
vn 0.0158 0.0494 0.9987
vn 0.1124 0.0348 0.9931
vn -0.0081 0.2394 0.9709
vn -0.2123 0.0237 0.9769
vn -0.1340 0.2205 0.9661
vn -0.2496 0.0482 0.9671
vn -0.0000 0.2704 0.9627
vn -0.0000 0.0820 0.9966
vn 0.2496 0.0482 0.9671
vn -0.0000 0.0056 1.0000
vn 0.2627 0.0079 0.9648
vn 0.2583 0.1537 0.9537
vn 0.2030 0.1554 0.9668
vn 0.1947 0.0074 0.9808
vn -0.0314 0.0104 0.9995
vn -0.0158 0.0494 0.9987
vn -0.1947 0.0074 0.9808
vn -0.2627 0.0079 0.9648
vn -0.2584 0.1537 0.9537
vn -0.0000 0.1597 0.9872
vn 0.2123 0.0237 0.9769
vn -0.1063 0.0071 0.9943
vn -0.1124 0.0348 0.9931
vn 0.0081 0.2394 0.9709
vn 0.1340 0.2205 0.9661
vn -0.0312 0.1595 0.9867
vn -0.1135 0.1612 0.9804
vn 0.9971 -0.0767 -0.0000
vn 0.7101 -0.0123 -0.7040
vn 0.9992 -0.0401 -0.0000
vn 0.7213 -0.0060 -0.6926
vn 1.0000 0.0001 -0.0000
vn 0.0362 0.1419 -0.9892
vn -0.6400 0.3007 -0.7071
vn 0.0447 0.0730 -0.9963
vn 0.7071 -0.0001 -0.7071
vn 0.3796 -0.8437 -0.3796
vn 0.5368 -0.8437 -0.0000
vn 0.0447 0.0730 0.9963
vn 0.0002 -0.0000 1.0000
vn -0.6678 0.1521 0.7286
vn -0.6401 0.3008 0.7070
vn -0.9291 0.3698 -0.0000
vn -0.2339 -0.9723 -0.0000
vn -0.2344 -0.9721 -0.0001
vn -0.2338 -0.9723 -0.0000
vn -0.2344 -0.9721 0.0001
vn -0.2345 -0.9721 0.0001
vn -0.2345 -0.9721 -0.0000
vn -0.2353 -0.9719 0.0007
vn -0.2353 -0.9719 0.0008
vn -0.2350 -0.9720 -0.0000
vn -0.2353 -0.9719 -0.0007
vn 0.7101 -0.0123 0.7040
vn 0.7212 -0.0059 0.6927
vn 0.7071 -0.0000 0.7071
vn 0.3796 -0.8437 0.3795
vn -0.2345 -0.9721 -0.0001
vn 0.0362 0.1419 0.9892
vn -0.0000 -0.8437 0.5367
vn 1.0000 -0.0000 -0.0000
vn 1.0000 -0.0000 -0.0001
vn 0.9072 0.4207 -0.0001
vn 0.6414 0.4207 0.6415
vn 0.6416 0.4206 0.6414
vn 1.0000 -0.0000 -0.0002
vn 0.7072 -0.0000 0.7070
vn -0.0000 -0.0000 1.0000
vn -0.7072 -0.0000 0.7070
vn -1.0000 -0.0000 -0.0002
vn -0.7070 -0.0000 -0.7072
vn -0.0000 -0.0000 -1.0000
vn 0.7071 -0.0000 -0.7071
vn 0.7071 -0.0000 -0.7072
vn -0.6415 0.4207 0.6415
vn -0.6415 0.4208 0.6414
vn -0.9072 0.4207 -0.0001
vn -0.9072 0.4207 -0.0002
vn -0.6413 0.4208 -0.6416
vn -0.6413 0.4207 -0.6416
vn -0.0000 0.4205 -0.9073
vn 0.6414 0.4207 -0.6416
vn 0.6415 0.4207 -0.6415
vn -0.7071 -0.0000 0.7071
vn -0.3795 -0.8438 0.3795
vn -0.5367 -0.8438 -0.0000
vn -0.9827 0.1852 -0.0000
vn -0.7072 0.0001 0.7070
vn -1.0000 -0.0021 -0.0000
vn -0.7073 0.0001 -0.7069
vn -0.6679 0.1521 -0.7286
vn 0.0002 -0.0000 -1.0000
vn -0.3795 -0.8437 -0.3796
vn -0.3796 -0.8437 -0.3796
vn 0.0001 -0.8437 -0.5369
vn -0.0000 -0.8437 -0.5369
vn -0.7071 -0.0000 -0.7071
vn -0.7069 -0.0000 -0.7073
vn 0.0001 -0.0000 -1.0000
vn 0.7070 -0.0000 -0.7073
vn 0.0001 0.4204 0.9073
vn 0.0002 0.4205 0.9073
vn -0.9682 0.2473 0.0366
vn -0.6598 0.7514 0.0093
vn -0.6556 0.7550 0.0117
vn -0.9635 0.2657 0.0315
vn -0.9949 -0.0010 0.1010
vn -0.5088 -0.0009 -0.8609
vn -0.3536 -0.0000 -0.9354
vn -0.8076 -0.0004 -0.5897
vn 0.0103 -0.0008 -0.9999
vn 0.0076 0.0008 -1.0000
vn 0.8525 -0.0000 -0.5228
vn 0.8525 -0.0000 -0.5227
vn 0.6033 -0.0000 -0.7975
vn 0.4637 -0.0000 -0.8860
vn -0.5451 0.0008 -0.8384
vn -0.2155 -0.0000 -0.9765
vn -0.8013 0.0059 -0.5982
vn -0.8569 0.0120 -0.5154
vn -0.8459 0.0131 -0.5331
vn -0.9956 0.0230 -0.0906
vn -0.9995 0.0030 0.0313
vn -0.9684 0.0021 0.2495
vn -0.9592 0.0039 0.2827
vn -0.9745 0.0093 0.2244
vn -0.8876 -0.0025 0.4606
vn -0.8353 -0.0076 0.5497
vn -0.9982 0.0073 0.0590
vn -0.9986 0.0082 0.0513
vn -0.9988 0.0083 0.0489
vn -0.1920 -0.0004 -0.9814
vn -0.5220 -0.1600 -0.8378
vn -0.1971 0.0026 -0.9804
vn -0.7094 0.0014 -0.7049
vn -0.7942 -0.0069 -0.6076
vn -0.8378 0.0008 -0.5460
vn -0.5780 -0.0115 -0.8160
vn 0.8378 0.0008 -0.5460
vn 0.7094 0.0014 -0.7048
vn 0.8885 -0.0055 -0.4588
vn 0.5780 -0.0115 -0.8160
vn 0.5256 -0.0083 -0.8507
vn -0.0000 -0.0192 -0.9998
vn -0.0000 -0.0198 -0.9998
vn -0.5256 -0.0083 -0.8507
vn -0.4875 -0.0225 -0.8728
vn -0.6675 -0.0064 -0.7446
vn -0.6621 -0.0001 -0.7494
vn -0.8303 -0.0001 -0.5573
vn -0.0198 0.9997 -0.0150
vn -0.0196 0.9997 -0.0145
vn -0.0241 0.9996 -0.0121
vn -0.3008 0.0001 -0.9537
vn -0.7010 -0.5100 -0.4985
vn -0.9503 -0.3032 0.0710
vn -0.9950 -0.0000 0.0996
vn -0.7541 -0.0009 -0.6568
vn -0.0171 0.9997 -0.0156
vn -0.0172 0.9997 -0.0150
vn -0.1976 -0.0004 -0.9803
vn -0.0000 -0.0405 -0.9992
vn 0.4875 -0.0225 -0.8728
vn 0.6675 -0.0064 -0.7446
vn 0.8106 -0.0000 -0.5856
vn 0.8076 -0.0004 -0.5897
vn 0.8303 -0.0001 -0.5573
vn 0.3536 -0.0000 -0.9354
vn 0.0196 0.9997 -0.0145
vn 0.0197 0.9997 -0.0150
vn 0.0241 0.9996 -0.0121
vn 0.3008 0.0001 -0.9537
vn 0.5150 -0.0002 -0.8572
vn 0.2135 0.0008 -0.9769
vn 0.1539 -0.9860 -0.0648
vn 0.9950 -0.0000 0.1002
vn 0.7541 -0.0009 -0.6568
vn 0.1976 -0.0005 -0.9803
vn 0.0171 0.9997 -0.0156
vn 0.0172 0.9997 -0.0150
vn 0.9950 -0.0000 0.0996
vn 0.5088 -0.0009 -0.8609
vn -0.0103 -0.0008 -0.9999
vn 0.8877 -0.0025 0.4604
vn 0.9744 0.0093 0.2245
vn 0.9592 0.0039 0.2827
vn 0.9684 0.0021 0.2495
vn 0.9995 0.0030 0.0313
vn 0.9956 0.0230 -0.0907
vn 0.5451 0.0008 -0.8384
vn 0.8459 0.0131 -0.5331
vn 0.8569 0.0120 -0.5154
vn 0.8013 0.0059 -0.5982
vn 0.2155 -0.0000 -0.9765
vn -0.4637 -0.0000 -0.8860
vn -0.6033 -0.0000 -0.7975
vn -0.8525 -0.0000 -0.5227
vn -0.8525 -0.0000 -0.5228
vn -0.0076 0.0008 -1.0000
vn 0.1920 -0.0004 -0.9814
vn 0.1971 0.0026 -0.9804
vn -0.9897 0.0241 -0.1411
vn -0.6667 -0.7451 -0.0172
vn -0.9880 -0.0391 -0.1495
vn -0.9954 -0.0842 -0.0464
vn -0.9153 -0.3578 -0.1850
vn -0.9462 -0.0064 -0.3235
vn -0.9602 -0.0404 -0.2763
vn -0.9736 -0.0399 -0.2247
vn -0.9943 -0.0672 0.0828
vn -0.9970 -0.0000 0.0770
vn -0.8330 -0.0806 0.5474
vn -0.5110 -0.0836 0.8555
vn -0.8263 -0.0955 0.5551
vn -0.7969 -0.1134 0.5934
vn -0.1761 -0.0591 0.9826
vn 0.5646 -0.0368 0.8245
vn 0.4794 -0.0522 0.8761
vn 0.8680 -0.0096 0.4965
vn 0.8673 0.0037 0.4978
vn 0.9411 0.0016 0.3382
vn 0.9677 -0.0002 0.2522
vn -0.0008 0.0022 1.0000
vn -0.0002 0.0021 1.0000
vn -0.0000 0.0012 1.0000
vn -0.0000 0.0010 1.0000
vn 0.0002 0.0020 1.0000
vn 0.0002 0.0021 1.0000
vn 0.0008 0.0022 1.0000
vn 0.9897 0.0241 -0.1411
vn 0.9602 -0.0404 -0.2763
vn 0.9462 -0.0064 -0.3235
vn 0.9736 -0.0399 -0.2247
vn 0.9939 -0.0222 0.1076
vn 0.9738 -0.0761 0.2145
vn 0.5187 -0.0853 0.8507
vn 0.6953 -0.5106 0.5058
vn 0.8263 -0.0955 0.5551
vn 0.7969 -0.1134 0.5934
vn 0.1761 -0.0591 0.9826
vn -0.5646 -0.0367 0.8246
vn -0.4794 -0.0522 0.8761
vn -0.8679 -0.0096 0.4966
vn -0.8673 0.0036 0.4977
vn -0.9411 0.0016 0.3382
vn -0.9677 -0.0003 0.2521
vn 0.9793 -0.0426 -0.1981
vn 0.9880 -0.0391 -0.1495
vn 0.9954 -0.0842 -0.0464
vn 0.9939 -0.1073 -0.0263
vn 0.8355 -0.0076 0.5495
vn 0.6598 0.7514 0.0093
vn 0.9682 0.2473 0.0366
vn 0.6556 0.7550 0.0117
vn 0.9635 0.2657 0.0315
vn 0.9949 -0.0010 0.1010
vn 0.9982 0.0073 0.0590
vn 0.9986 0.0082 0.0513
vn 0.9988 0.0083 0.0489
vn 0.0298 -0.8546 0.5184
vn 0.0318 -0.9760 0.2153
vn 0.1128 -0.7562 0.6446
vn 0.0001 -0.9727 0.2322
vn 0.0066 -0.9997 0.0218
vn 0.0186 -0.9998 -0.0025
vn -0.0041 -1.0000 -0.0065
vn 0.0817 0.0679 -0.9943
vn 0.0842 0.0071 -0.9964
vn 0.0855 -0.0000 -0.9963
vn 0.0349 0.0304 -0.9989
vn 0.0635 0.0552 -0.9965
vn 0.0849 0.0739 -0.9936
vn 0.3585 -0.9335 -0.0000
vn 0.9239 -0.3827 -0.0000
vn 0.9179 -0.3968 -0.0000
vn 0.3827 -0.9239 -0.0000
vn 0.0002 -1.0000 -0.0019
vn -0.0000 -1.0000 -0.0044
vn 0.0001 -1.0000 -0.0035
vn 0.0001 -1.0000 -0.0051
vn -0.0000 -1.0000 -0.0048
vn -0.0001 -1.0000 -0.0035
vn -0.0002 -1.0000 -0.0019
vn -0.0001 -1.0000 -0.0051
vn -0.3261 -0.7933 0.5141
vn -0.5371 -0.8435 -0.0000
vn -0.3261 -0.7933 -0.5142
vn 0.1630 -0.6760 -0.7186
vn 0.6517 -0.5574 -0.5144
vn 0.6517 -0.5574 0.5144
vn 0.1630 -0.6760 0.7187
vn 0.8627 -0.5058 -0.0000
vn 0.0001 -1.0000 0.0001
vn -0.0001 -1.0000 0.0001
vn -0.0000 -1.0000 -0.0003
vn 0.0001 -1.0000 -0.0001
vn 0.0001 -1.0000 -0.0000
vn 0.0003 -1.0000 -0.0000
vn -0.7071 0.0001 -0.7071
vn -0.7213 -0.0059 -0.6926
vn -1.0000 0.0002 -0.0000
vn -0.0447 0.0730 -0.9963
vn -0.0447 0.0730 0.9963
vn 0.6678 0.1520 0.7287
vn -0.0001 -0.0000 1.0000
vn -0.7070 0.0001 0.7072
vn -0.7213 -0.0059 0.6926
vn -0.9992 -0.0401 -0.0000
vn -0.7101 -0.0123 -0.7040
vn -0.0362 0.1419 -0.9892
vn 0.6400 0.3007 -0.7071
vn 0.6678 0.1521 -0.7286
vn -0.0001 -0.0000 -1.0000
vn -0.5367 -0.8438 -0.0001
vn -0.3795 -0.8437 0.3796
vn 0.7072 0.0002 0.7070
vn -0.0000 -0.8437 0.5368
vn 0.2346 -0.9721 -0.0001
vn 0.2345 -0.9721 0.0001
vn 0.2342 -0.9722 -0.0000
vn 0.9291 0.3698 -0.0000
vn 0.9827 0.1854 -0.0000
vn 0.7073 0.0002 -0.7070
vn -1.0000 -0.0000 -0.0001
vn -0.7071 -0.0000 0.7072
vn 1.0000 -0.0014 -0.0000
vn -0.0001 0.4204 0.9073
vn 0.6415 0.4206 0.6415
vn 0.6416 0.4207 0.6413
vn -0.0001 0.4205 0.9073
vn -0.6414 0.4208 0.6415
vn -0.9072 0.4208 -0.0001
vn -0.6414 0.4208 -0.6415
vn 0.0001 0.4205 -0.9073
vn 0.6413 0.4207 -0.6416
vn 0.9073 0.4206 -0.0002
vn 0.9073 0.4206 -0.0001
vn 0.7070 -0.0000 -0.7072
vn 0.6400 0.3008 0.7070
vn -0.0362 0.1419 0.9892
vn -0.7101 -0.0123 0.7040
vn -0.9971 -0.0767 -0.0000
vn 0.2353 -0.9719 0.0007
vn 0.2350 -0.9720 -0.0000
vn 0.2344 -0.9721 0.0001
vn 0.2352 -0.9719 -0.0007
vn 0.2345 -0.9721 -0.0000
vn -0.4325 -0.7293 0.5300
vn -0.0063 -1.0000 -0.0046
vn -0.3281 -0.8602 0.3903
vn 0.0754 -0.9930 0.0907
vn 0.0816 -0.9929 0.0864
vn 0.1214 -0.9844 0.1274
vn 0.0022 -0.9998 -0.0179
vn -0.0249 -0.9997 0.0061
vn -0.2661 -0.9201 -0.2875
vn -0.2752 -0.6763 -0.6833
vn -0.1828 -0.9581 -0.2205
vn -0.2725 -0.6467 -0.7124
vn -0.2442 -0.6075 -0.7558
vn -0.2417 -0.6755 -0.6966
vn -0.2392 -0.6217 -0.7458
vn -0.2329 -0.5764 -0.7833
vn -0.2262 -0.6713 -0.7059
vn -0.2278 -0.7280 -0.6466
vn -0.2194 -0.9756 -0.0045
vn -0.2288 -0.9731 -0.0263
vn -0.2433 -0.7387 0.6286
vn -0.2375 -0.6290 0.7403
vn -0.2492 -0.6057 0.7557
vn -0.2677 -0.7843 0.5597
vn -0.3288 -0.8558 0.3994
vn -0.3740 -0.7666 0.5220
vn -0.0000 -0.0006 -1.0000
vn -0.0001 -0.0007 -1.0000
vn -0.0000 0.0003 -1.0000
vn 0.0001 -0.0007 -1.0000
vn -0.0000 -0.0010 -1.0000
vn -0.0002 -0.0011 -1.0000
vn -0.0000 -0.0025 -1.0000
vn 0.0002 -0.0011 -1.0000
vn 0.3417 0.9398 -0.0001
vn 0.3410 0.9401 -0.0000
vn -0.0000 1.0000 -0.0002
vn -0.3410 0.9401 -0.0000
vn -0.3417 0.9398 -0.0001
vn -0.0165 0.0689 -0.9975
vn -0.0195 0.0634 -0.9978
vn -0.0207 0.0624 -0.9978
vn -0.0711 0.0754 -0.9946
vn -0.0264 0.1017 -0.9945
vn -0.0832 0.1114 -0.9903
vn -0.0000 0.1280 -0.9918
vn -0.0000 0.1400 -0.9902
vn 0.0832 0.1114 -0.9903
vn 0.0264 0.1017 -0.9945
vn 0.0711 0.0754 -0.9946
vn 0.0165 0.0689 -0.9975
vn 0.0195 0.0633 -0.9978
vn 0.0207 0.0624 -0.9978
vn -0.1048 0.8293 -0.5488
vn -0.0715 0.6779 -0.7316
vn -0.1128 0.6229 -0.7741
vn -0.0403 0.9679 -0.2480
vn -0.1095 0.9627 -0.2475
vn -0.0655 0.9908 -0.1183
vn -0.1426 0.9467 -0.2887
vn -0.1592 0.9279 -0.3372
vn -0.2376 0.9407 -0.2420
vn -0.1286 0.9645 -0.2306
vn -0.2317 0.9569 -0.1748
vn -0.1096 0.9765 -0.1854
vn -0.0000 0.9822 -0.1879
vn -0.0000 0.9829 -0.1840
vn 0.1096 0.9765 -0.1854
vn 0.1286 0.9645 -0.2306
vn 0.2317 0.9569 -0.1748
vn 0.2376 0.9407 -0.2420
vn 0.1592 0.9279 -0.3372
vn 0.1426 0.9467 -0.2887
vn 0.0655 0.9908 -0.1183
vn 0.0403 0.9679 -0.2480
vn 0.1095 0.9627 -0.2475
vn 0.1048 0.8293 -0.5488
vn 0.0715 0.6779 -0.7316
vn 0.1128 0.6229 -0.7741
vn 1.0000 -0.0000 0.0001
vn -1.0000 -0.0000 0.0001
vn 0.7072 -0.0000 -0.7070
vn 0.3570 0.9341 -0.0000
vn 0.3826 0.9239 -0.0000
vn 0.9238 0.3828 -0.0000
vn 0.9178 0.3969 -0.0000
vn -0.0018 -1.0000 0.0008
vn 0.7064 -0.7079 0.0006
vn 0.7055 -0.7087 0.0005
vn 1.0000 -0.0000 0.0003
vn 1.0000 -0.0000 0.0004
vn 0.0041 -1.0000 -0.0065
vn -0.0186 -0.9998 -0.0025
vn -0.0318 -0.9760 0.2153
vn -0.0066 -0.9997 0.0218
vn -0.0001 -0.9727 0.2322
vn -0.0298 -0.8546 0.5184
vn -0.1128 -0.7562 0.6446
vn -0.9692 -0.0554 0.2399
vn -0.9276 -0.0270 0.3725
vn -0.9666 -0.0462 -0.2520
vn -0.9268 0.0096 0.3755
vn -0.9820 -0.0307 -0.1864
vn -0.5415 -0.0231 -0.8404
vn -0.5663 -0.0201 -0.8240
vn -0.0000 -0.0214 -0.9998
vn -0.0000 -0.0145 -0.9999
vn 0.5663 -0.0201 -0.8240
vn 0.5415 -0.0231 -0.8404
vn 0.9666 -0.0462 -0.2519
vn 0.9820 -0.0307 -0.1865
vn 0.9278 -0.0270 0.3722
vn 0.9269 0.0096 0.3752
vn 0.7120 -0.0180 -0.7019
vn 0.5371 -0.0216 -0.8432
vn -0.0000 -0.0256 -0.9997
vn -0.5370 -0.0216 -0.8433
vn -0.7120 -0.0180 -0.7020
vn -0.9820 -0.0306 -0.1863
vn -0.9267 0.0096 0.3756
vn 0.9691 -0.0554 0.2403
vn -0.0000 0.0031 -1.0000
vn 0.0008 0.0002 -1.0000
vn 0.0002 0.0003 -1.0000
vn 0.0007 -0.0009 -1.0000
vn -0.0001 -0.0026 -1.0000
vn -1.0000 -0.0001 0.0004
vn -1.0000 0.0001 0.0003
vn -0.0000 -0.5000 0.8660
vn -0.0000 -1.0000 -0.0001
vn -0.0000 -0.5000 -0.8660
vn -0.0000 -0.4999 -0.8661
vn -0.0000 0.5002 -0.8659
vn -0.0000 1.0000 0.0002
vn -0.0000 1.0000 0.0003
vn -0.0000 0.5000 0.8660
vn -0.0000 0.4999 0.8661
vn 0.0018 -1.0000 0.0008
vn -1.0000 -0.0001 0.0001
vn -1.0000 -0.0000 0.0003
vn -1.0000 -0.0002 -0.0000
vn -1.0000 -0.0000 0.0004
vn -0.0842 0.0071 -0.9964
vn -0.0817 0.0679 -0.9943
vn -0.0855 -0.0000 -0.9963
vn -0.0849 0.0739 -0.9936
vn -0.0817 0.0678 -0.9943
vn -0.0635 0.0552 -0.9965
vn -0.3585 -0.9335 -0.0000
vn -0.3827 -0.9239 -0.0000
vn -0.9179 -0.3968 -0.0000
vn -0.9239 -0.3827 -0.0000
vn -0.0349 0.0304 -0.9989
vn -0.4601 -0.7022 0.5433
vn -0.4305 -0.6879 0.5843
vn -0.5146 -0.8502 0.1114
vn -0.4073 -0.7292 0.5499
vn 0.7330 0.0070 0.6802
vn 0.5936 0.0042 0.8047
vn 0.7302 0.0118 0.6831
vn 0.5867 -0.0005 0.8098
vn 0.3072 -0.0043 0.9516
vn 0.3081 -0.0055 0.9513
vn -0.0000 -0.0026 1.0000
vn -0.0000 -0.0015 1.0000
vn -0.3081 -0.0054 0.9513
vn -0.3072 -0.0043 0.9516
vn -0.5866 -0.0005 0.8098
vn -0.5936 0.0042 0.8047
vn -0.7330 0.0070 0.6802
vn -0.7302 0.0118 0.6831
vn 0.4306 -0.6879 0.5843
vn 0.5880 0.0005 0.8088
vn 0.4073 -0.7292 0.5499
vn 0.5854 -0.0007 0.8107
vn 0.7115 -0.0073 0.7027
vn 0.9982 0.0593 -0.0001
vn 0.7116 -0.0072 -0.7025
vn 0.0400 -0.1667 -0.9852
vn -0.6304 -0.3310 -0.7022
vn -0.9155 -0.4023 -0.0000
vn -0.6302 -0.3310 0.7023
vn 0.0400 -0.1667 0.9852
vn -0.0000 -1.0000 0.0001
vn 0.0315 -0.9955 -0.0895
vn -0.0023 -0.9998 -0.0179
vn 0.3338 -0.9236 -0.1886
vn 0.0249 -0.9997 0.0061
vn -0.0358 -0.9890 0.1434
vn -0.0147 -0.9948 0.1004
vn -0.0000 -0.9962 0.0867
vn -0.0000 -0.9969 0.0786
vn 0.0147 -0.9948 0.1004
vn 0.0358 -0.9890 0.1434
vn -0.0000 0.5001 -0.8659
vn 1.0000 0.0001 0.0002
vn 1.0000 -0.0001 0.0004
vn 0.0001 -0.0026 -1.0000
vn -0.0007 -0.0009 -1.0000
vn -0.0002 0.0003 -1.0000
vn -0.0008 0.0002 -1.0000
vn 0.2660 -0.9201 -0.2875
vn 0.0465 -0.9916 -0.1203
vn 0.1827 -0.9581 -0.2205
vn 0.0148 -0.9914 -0.1302
vn 0.0118 -0.9912 -0.1320
vn -0.0000 -0.9927 -0.1210
vn -0.0000 -0.9957 -0.0927
vn -0.0157 -0.9967 -0.0802
vn -0.0000 -0.9967 -0.0811
vn 0.0156 -0.9967 -0.0802
vn -0.0118 -0.9912 -0.1319
vn -0.0149 -0.9914 -0.1302
vn -0.0466 -0.9916 -0.1203
vn 0.7071 -0.0000 0.7072
vn -0.7070 -0.0000 0.7072
vn 0.0001 -1.0000 0.0003
vn 0.0004 -1.0000 -0.0001
vn 0.0003 -1.0000 -0.0005
vn 0.0002 -1.0000 -0.0006
vn -0.0000 -1.0000 -0.0005
vn -0.0000 -1.0000 -0.0004
vn -0.0003 -1.0000 -0.0006
vn -0.0004 -1.0000 -0.0005
vn -0.0004 -1.0000 -0.0001
vn -0.0001 -1.0000 0.0003
vn 0.6008 0.5273 0.6009
vn 0.6009 0.5271 -0.6009
vn 0.0002 0.5270 -0.8499
vn -0.6010 0.5272 -0.6008
vn -0.6007 0.5273 0.6009
vn -0.0000 0.5273 0.8497
vn -0.6684 0.3260 0.6686
vn -0.9454 0.3259 -0.0002
vn -0.6685 0.3258 -0.6686
vn 0.0001 0.3256 -0.9455
vn 0.6683 0.3259 -0.6687
vn -0.1214 -0.9844 0.1274
vn -0.0816 -0.9929 0.0864
vn 0.0063 -1.0000 -0.0045
vn -0.0754 -0.9930 0.0906
vn 0.4326 -0.7294 0.5300
vn 0.3281 -0.8603 0.3903
vn 0.3740 -0.7666 0.5220
vn 0.3288 -0.8558 0.3994
vn 0.2677 -0.7843 0.5597
vn 0.2492 -0.6057 0.7557
vn 0.2375 -0.6290 0.7403
vn 0.2433 -0.7387 0.6286
vn 0.2194 -0.9756 -0.0045
vn 0.2288 -0.9731 -0.0263
vn 0.2278 -0.7280 -0.6466
vn 0.2262 -0.6713 -0.7059
vn 0.2329 -0.5764 -0.7833
vn 0.2393 -0.6217 -0.7458
vn 0.2419 -0.6755 -0.6966
vn 0.2444 -0.6075 -0.7558
vn 0.2724 -0.6467 -0.7124
vn 0.2751 -0.6763 -0.6833
vt 0.797800 0.714559
vt 0.843300 0.669059
vt 0.820300 0.669059
vt 0.797400 0.669059
vt 0.743700 0.604659
vt 0.770200 0.621859
vt 0.743700 0.621859
vt 0.770200 0.604659
vt 0.797400 0.621859
vt 0.797400 0.604659
vt 0.824600 0.604659
vt 0.824600 0.621859
vt 0.851100 0.604659
vt 0.851100 0.621859
vt 0.774500 0.669059
vt 0.751500 0.669059
vt 0.797200 0.714559
vt 0.825100 0.004459
vt 0.850300 0.143059
vt 0.850200 0.004459
vt 0.825100 0.143059
vt 0.803800 0.004559
vt 0.803800 0.143059
vt 0.781300 0.143059
vt 0.781200 0.004659
vt 0.756600 0.143059
vt 0.756600 0.004659
vt 0.633300 0.971359
vt 0.731300 0.995259
vt 0.731300 0.971359
vt 0.633300 0.995259
vt 0.489600 0.971259
vt 0.469400 0.946159
vt 0.489600 0.946059
vt 0.469400 0.971459
vt 0.972000 0.946159
vt 0.469400 0.971359
vt 0.972500 0.971359
vt 0.662100 0.971359
vt 0.489600 0.946159
vt 0.662100 0.946159
vt 0.489600 0.971359
vt 0.925800 0.756759
vt 0.896600 0.716859
vt 0.925700 0.716859
vt 0.867400 0.716859
vt 0.984000 0.716859
vt 0.954900 0.716859
vt 0.925700 0.665959
vt 0.891900 0.665959
vt 0.858100 0.665959
vt 0.959500 0.665959
vt 0.993300 0.665959
vt 0.598900 0.109459
vt 0.395400 0.005759
vt 0.598900 0.005759
vt 0.598900 0.191259
vt 0.395700 0.109359
vt 0.173500 0.109259
vt 0.173700 0.005559
vt 0.083600 0.060559
vt 0.166500 0.191059
vt 0.036100 0.190859
vt 0.164100 0.240159
vt 0.002500 0.283659
vt 0.160400 0.294259
vt 0.390700 0.294259
vt 0.392000 0.239959
vt 0.598900 0.240359
vt 0.392800 0.190959
vt 0.598900 0.294259
vt 0.976700 0.002559
vt 0.948800 0.002559
vt 0.976800 0.128659
vt 0.948800 0.128659
vt 0.976800 0.160559
vt 0.925100 0.002659
vt 0.900000 0.002759
vt 0.925100 0.128659
vt 0.948800 0.160559
vt 0.959600 0.196259
vt 0.995400 0.196259
vt 0.925100 0.160559
vt 0.900100 0.128659
vt 0.872600 0.002759
vt 0.995400 0.611659
vt 0.959600 0.611659
vt 0.995400 0.638059
vt 0.959600 0.638059
vt 0.995400 0.655659
vt 0.959600 0.655659
vt 0.929200 0.638059
vt 0.929200 0.655659
vt 0.897500 0.638059
vt 0.897500 0.655659
vt 0.857400 0.638059
vt 0.857400 0.655659
vt 0.897200 0.611659
vt 0.857400 0.611659
vt 0.929200 0.611659
vt 0.857400 0.196259
vt 0.897200 0.196259
vt 0.929200 0.196259
vt 0.900100 0.160559
vt 0.872600 0.160559
vt 0.872600 0.128659
vt 0.054100 0.671559
vt 0.034300 0.759459
vt 0.051700 0.759059
vt 0.003800 0.675059
vt 0.034700 0.480159
vt 0.335800 0.327659
vt 0.335800 0.408559
vt 0.363400 0.328559
vt 0.263300 0.326959
vt 0.265100 0.680559
vt 0.211400 0.627259
vt 0.211400 0.311259
vt 0.148400 0.611559
vt 0.148300 0.325159
vt 0.128000 0.353559
vt 0.114600 0.356459
vt 0.109200 0.375359
vt 0.099400 0.379059
vt 0.099400 0.656559
vt 0.089800 0.376059
vt 0.083100 0.356159
vt 0.065300 0.346059
vt 0.054700 0.318259
vt 0.036600 0.308459
vt 0.001200 0.301259
vt 0.335800 0.640659
vt 0.365000 0.640459
vt 0.336000 0.680559
vt 0.364700 0.680559
vt 0.395900 0.637859
vt 0.395700 0.680559
vt 0.428800 0.679859
vt 0.428800 0.408459
vt 0.496500 0.680159
vt 0.496500 0.409059
vt 0.428700 0.306259
vt 0.395900 0.307159
vt 0.395800 0.407259
vt 0.364300 0.406959
vt 0.365400 0.412559
vt 0.387100 0.635559
vt 0.364300 0.307159
vt 0.387100 0.414659
vt 0.496500 0.307059
vt 0.484200 0.900559
vt 0.459600 0.913059
vt 0.492900 0.876759
vt 0.415000 0.920759
vt 0.443500 0.945859
vt 0.415100 0.956959
vt 0.429200 0.920759
vt 0.429100 0.851859
vt 0.506000 0.851859
vt 0.506000 0.873459
vt 0.518000 0.878559
vt 0.566000 0.868159
vt 0.525200 0.901659
vt 0.541500 0.905659
vt 0.566100 0.937759
vt 0.643600 0.868159
vt 0.643600 0.937959
vt 0.729200 0.937659
vt 0.695400 0.866459
vt 0.728900 0.909959
vt 0.728300 0.866459
vt 0.813200 0.937259
vt 0.813200 0.910059
vt 0.901400 0.937359
vt 0.901400 0.909859
vt 0.095000 0.983359
vt 0.013400 0.938259
vt 0.035800 0.983459
vt 0.119600 0.938259
vt 0.106800 0.881359
vt 0.005500 0.881259
vt 0.005500 0.920459
vt 0.513600 0.995259
vt 0.662200 0.971359
vt 0.662200 0.995259
vt 0.996800 0.971359
vt 0.972200 0.971359
vt 0.996600 0.995259
vt 0.972100 0.995259
vt 0.496300 0.995259
vt 0.662200 0.946159
vt 0.469500 0.946159
vt 0.972500 0.946159
vt 0.731300 0.946159
vt 0.633300 0.946159
vt 0.769500 0.819659
vt 0.995400 0.819659
vt 0.769500 0.829159
vt 0.769500 0.862059
vt 0.869500 0.861959
vt 0.995400 0.861959
vt 0.652100 0.703759
vt 0.615900 0.668259
vt 0.615500 0.617459
vt 0.651000 0.581159
vt 0.701800 0.580959
vt 0.738400 0.667159
vt 0.702800 0.703359
vt 0.738000 0.616359
vt 0.613500 0.510659
vt 0.618700 0.491559
vt 0.647500 0.544859
vt 0.736800 0.510659
vt 0.731600 0.491559
vt 0.702800 0.544859
vt 0.675200 0.554759
vt 0.700700 0.703759
vt 0.736900 0.668259
vt 0.737300 0.617459
vt 0.651000 0.580959
vt 0.614400 0.667159
vt 0.614800 0.616359
vt 0.649900 0.703359
vt 0.701700 0.581159
vt 0.529600 0.519159
vt 0.540700 0.530459
vt 0.556500 0.530559
vt 0.567900 0.503659
vt 0.541000 0.492259
vt 0.556800 0.492259
vt 0.529700 0.503259
vt 0.567800 0.519459
vt 0.903500 0.160559
vt 0.903500 0.128659
vt 0.875500 0.160559
vt 0.927300 0.128659
vt 0.952300 0.128659
vt 0.927300 0.160559
vt 0.875500 0.128659
vt 0.903500 0.002559
vt 0.927300 0.002659
vt 0.952400 0.002759
vt 0.923200 0.196259
vt 0.892800 0.196259
vt 0.856900 0.196259
vt 0.952300 0.160559
vt 0.955100 0.196259
vt 0.979800 0.002759
vt 0.979800 0.128659
vt 0.955100 0.611659
vt 0.923200 0.611659
vt 0.892800 0.611659
vt 0.856900 0.611659
vt 0.994900 0.611659
vt 0.994900 0.196259
vt 0.979800 0.160559
vt 0.923100 0.638059
vt 0.954800 0.638059
vt 0.892700 0.638059
vt 0.856900 0.638059
vt 0.994900 0.638059
vt 0.892700 0.655659
vt 0.856900 0.655659
vt 0.923100 0.655659
vt 0.954800 0.655659
vt 0.994900 0.655659
vt 0.875600 0.002559
vt 0.503400 0.509759
vt 0.517700 0.449059
vt 0.517700 0.509859
vt 0.503400 0.446059
vt 0.503400 0.379159
vt 0.517700 0.382659
vt 0.503400 0.320259
vt 0.517700 0.314559
vt 0.503400 0.725959
vt 0.517800 0.701459
vt 0.517900 0.724859
vt 0.503400 0.702159
vt 0.517700 0.669859
vt 0.503400 0.668459
vt 0.517700 0.647459
vt 0.503400 0.648559
vt 0.517700 0.620159
vt 0.503400 0.617659
vt 0.517800 0.607859
vt 0.503400 0.608359
vt 0.503400 0.598659
vt 0.517700 0.595259
vt 0.503400 0.579259
vt 0.517800 0.575259
vt 0.503400 0.548259
vt 0.517800 0.550459
vt 0.523400 0.570559
vt 0.564000 0.725859
vt 0.523400 0.725959
vt 0.564400 0.570559
vt 0.523400 0.318559
vt 0.564000 0.318559
vt 0.595300 0.570559
vt 0.595200 0.318559
vt 0.305800 0.943159
vt 0.161700 0.919459
vt 0.167200 0.899359
vt 0.300000 0.963959
vt 0.409500 0.972359
vt 0.404400 0.993359
vt 0.235900 0.801959
vt 0.103100 0.804559
vt 0.299300 0.810059
vt 0.346500 0.809659
vt 0.402700 0.811959
vt 0.085100 0.747659
vt 0.185500 0.675759
vt 0.110500 0.672059
vt 0.229500 0.759059
vt 0.293500 0.764759
vt 0.312500 0.760059
vt 0.334200 0.724859
vt 0.359400 0.703159
vt 0.416900 0.683459
vt 0.743500 0.149559
vt 0.743500 0.529859
vt 0.770400 0.149559
vt 0.770400 0.529859
vt 0.797200 0.149559
vt 0.797200 0.529859
vt 0.824100 0.149559
vt 0.824100 0.529859
vt 0.850900 0.149559
vt 0.850900 0.529859
vt 0.571000 0.726159
vt 0.600700 0.611959
vt 0.600700 0.726259
vt 0.571000 0.611959
vt 0.571200 0.573559
vt 0.600700 0.573559
vt 0.613100 0.785459
vt 0.589300 0.771759
vt 0.565500 0.785459
vt 0.565500 0.812959
vt 0.589300 0.826659
vt 0.613100 0.812959
vt 0.606700 0.002259
vt 0.606700 0.242659
vt 0.619100 0.002259
vt 0.606700 0.483059
vt 0.619100 0.242659
vt 0.648800 0.242659
vt 0.648800 0.002259
vt 0.673000 0.242659
vt 0.673000 0.002259
vt 0.697200 0.002259
vt 0.697200 0.242659
vt 0.726900 0.002259
vt 0.726900 0.242659
vt 0.739300 0.242659
vt 0.739300 0.483059
vt 0.726900 0.483059
vt 0.697200 0.483059
vt 0.673000 0.483059
vt 0.648800 0.483059
vt 0.619100 0.483059
vt 0.739300 0.002259
vt 0.469200 0.759459
vt 0.549800 0.759659
vt 0.469200 0.784859
vt 0.549900 0.826559
vt 0.469200 0.826559
vt 0.429100 0.784859
vt 0.429100 0.826559
vt 0.719300 0.773259
vt 0.744500 0.743359
vt 0.719300 0.743359
vt 0.744500 0.773259
vt 0.769700 0.743359
vt 0.769700 0.773259
vt 0.795000 0.743359
vt 0.795000 0.773259
vt 0.820200 0.743359
vt 0.820200 0.773259
vt 0.845400 0.743359
vt 0.845400 0.773259
vt 0.870700 0.743359
vt 0.870700 0.773259
vt 0.852200 0.876659
vt 0.852200 0.899459
vt 0.836100 0.876659
vt 0.836200 0.899459
vt 0.812200 0.876659
vt 0.812100 0.899459
vt 0.791100 0.876659
vt 0.791100 0.899559
vt 0.737900 0.876659
vt 0.737900 0.899559
vt 0.870000 0.882959
vt 0.858300 0.861959
vt 0.879100 0.877759
vt 0.868100 0.861959
vt 0.900600 0.892059
vt 0.927100 0.899559
vt 0.995400 0.908259
vt 0.623300 0.819659
vt 0.629800 0.782059
vt 0.630400 0.819659
vt 0.760200 0.791659
vt 0.872700 0.788059
vt 0.926900 0.773659
vt 0.995400 0.764859
vt 0.797200 0.595859
vt 0.797200 0.570459
vt 0.770400 0.595859
vt 0.770400 0.570459
vt 0.743500 0.595859
vt 0.743500 0.570459
vt 0.824100 0.595859
vt 0.824100 0.570459
vt 0.851000 0.595859
vt 0.851000 0.570459
vt 0.851400 0.576059
vt 0.824500 0.533259
vt 0.851400 0.533259
vt 0.824500 0.576059
vt 0.797700 0.533259
vt 0.797700 0.576059
vt 0.770800 0.533259
vt 0.770800 0.576059
vt 0.744000 0.533259
vt 0.744000 0.576059
vt 0.899600 0.904459
vt 0.926900 0.918859
vt 0.995400 0.935759
vt 0.983500 0.716859
vt 0.925100 0.756759
vt 0.954300 0.716859
vt 0.925200 0.716859
vt 0.896000 0.716859
vt 0.866900 0.716859
vt 0.925200 0.665959
vt 0.891400 0.665959
vt 0.857600 0.665959
vt 0.959000 0.665959
vt 0.992800 0.665959
s 1
usemtl jetpack
f 1/1/1 2/2/2 3/3/3
f 1/1/1 4/4/4 2/3/2
f 5/5/5 6/6/6 7/7/7
f 7/7/7 8/6/8 5/5/5
f 5/5/5 8/6/8 9/8/9
f 8/6/8 10/9/10 9/8/9
f 9/8/9 10/9/10 11/10/11
f 11/10/11 10/9/10 12/11/12
f 12/11/12 10/9/10 13/12/13
f 12/11/12 13/12/13 14/13/14
f 14/13/14 13/12/13 15/14/15
f 15/14/15 13/12/13 3/2/3
f 15/14/15 3/2/3 16/12/16
f 16/12/16 3/2/3 2/3/2
f 16/12/16 2/3/2 17/9/17
f 17/9/17 2/3/2 4/4/4
f 18/15/18 17/9/17 4/4/4
f 1/1/1 18/15/18 4/4/4
f 1/1/1 19/16/19 18/15/18
f 20/8/20 6/6/6 5/5/5
f 15/14/15 16/12/16 14/13/14
f 14/13/14 16/12/16 21/11/21
f 16/12/16 17/9/17 21/11/21
f 21/11/21 17/9/17 22/10/22
f 22/10/22 17/9/17 20/8/20
f 20/8/20 17/9/17 6/6/6
f 6/6/6 17/9/17 18/15/18
f 19/16/19 6/6/6 18/15/18
f 7/7/7 6/6/6 19/16/19
f 7/7/7 19/16/19 8/6/8
f 8/6/8 19/16/19 23/15/23
f 8/6/8 23/15/23 10/9/10
f 10/9/10 23/15/23 24/4/24
f 25/3/25 10/9/10 24/4/24
f 1/17/1 25/3/25 24/4/24
f 1/17/1 3/2/3 25/3/25
f 3/2/3 13/12/13 25/3/25
f 13/12/13 10/9/10 25/3/25
f 1/17/1 23/15/23 19/16/19
f 1/17/1 24/4/24 23/15/23
f 26/18/26 27/19/27 28/20/28
f 27/19/27 29/18/29 28/20/28
f 30/21/30 29/18/29 27/19/27
f 30/21/30 31/22/31 29/18/29
f 32/23/32 31/22/31 30/21/30
f 32/23/32 33/24/33 31/22/31
f 31/22/31 33/24/33 34/25/34
f 33/24/33 35/26/35 34/25/34
f 34/25/34 35/26/35 36/27/36
f 35/26/35 37/25/37 36/27/36
f 38/24/38 37/25/37 35/26/35
f 38/24/38 39/22/39 37/25/37
f 40/23/40 39/22/39 38/24/38
f 40/23/40 41/21/41 39/22/39
f 39/22/39 41/21/41 26/18/26
f 41/21/41 27/19/27 26/18/26
f 42/28/42 43/29/42 44/30/42
f 45/31/42 43/29/42 42/28/42
f 46/32/43 47/33/44 48/34/45
f 49/35/46 47/33/44 46/32/43
f 50/36/47 49/37/46 51/38/47
f 47/33/44 49/37/46 50/36/47
f 52/39/48 48/40/45 53/41/48
f 46/42/43 48/40/45 52/39/48
f 54/43/49 55/44/50 56/45/51
f 54/43/49 57/46/52 55/44/50
f 54/43/49 58/44/53 57/46/52
f 54/43/49 59/47/54 60/48/55
f 54/43/49 60/48/55 61/45/56
f 54/43/49 61/45/56 58/44/53
f 61/45/56 62/49/57 58/44/53
f 58/44/53 62/49/57 63/50/58
f 58/44/53 63/50/58 57/46/52
f 57/46/52 63/50/58 64/51/59
f 57/46/52 64/51/59 55/44/50
f 55/44/50 64/51/59 65/50/60
f 66/49/61 55/44/50 65/50/60
f 56/45/51 55/44/50 66/49/61
f 56/45/51 66/49/61 67/48/62
f 54/43/49 56/45/51 67/48/62
f 54/43/49 67/48/62 59/47/54
f 67/48/62 68/52/63 59/47/54
f 59/47/54 68/52/63 69/53/64
f 59/47/54 69/53/64 60/48/55
f 60/48/55 69/53/64 70/52/65
f 60/48/55 70/52/65 61/45/56
f 61/45/56 70/52/65 62/49/57
f 67/48/62 66/49/61 68/52/63
f 71/54/66 72/55/67 73/56/68
f 74/57/69 75/58/70 71/54/66
f 75/58/70 72/55/67 71/54/66
f 76/59/71 72/55/67 75/58/70
f 77/60/72 72/55/67 76/59/71
f 76/59/71 78/61/73 77/60/72
f 76/59/71 79/62/74 78/61/73
f 78/61/73 79/62/74 80/63/75
f 81/64/76 80/63/75 79/62/74
f 82/65/77 80/63/75 81/64/76
f 82/65/77 81/64/76 83/66/78
f 84/64/79 82/65/77 83/66/78
f 83/66/78 85/67/80 84/64/79
f 84/64/79 85/67/80 86/68/81
f 86/68/81 85/67/80 87/69/82
f 88/57/83 86/68/81 87/69/82
f 89/70/84 86/68/81 88/57/83
f 89/70/84 88/57/83 90/58/85
f 91/59/86 89/70/84 90/58/85
f 92/70/87 93/68/88 79/62/74
f 79/62/74 93/68/88 81/64/76
f 85/67/80 81/64/76 93/68/88
f 83/66/78 81/64/76 85/67/80
f 79/62/74 76/59/71 92/70/87
f 92/70/87 76/59/71 75/58/70
f 92/70/87 75/58/70 74/57/69
f 74/57/69 93/68/88 92/70/87
f 94/69/89 93/68/88 74/57/69
f 94/69/89 85/67/80 93/68/88
f 95/71/90 85/67/80 94/69/89
f 87/69/82 85/67/80 95/71/90
f 96/62/91 89/70/84 91/59/86
f 96/62/91 86/68/81 89/70/84
f 84/64/79 86/68/81 96/62/91
f 90/58/85 97/55/92 91/59/86
f 91/59/86 97/55/92 98/60/93
f 99/61/94 91/59/86 98/60/93
f 99/61/94 96/62/91 91/59/86
f 100/63/95 96/62/91 99/61/94
f 100/63/95 84/64/79 96/62/91
f 82/65/77 84/64/79 100/63/95
f 97/55/92 101/54/96 102/56/97
f 90/58/85 101/54/96 97/55/92
f 90/58/85 88/57/83 101/54/96
f 103/72/98 104/73/99 105/74/100
f 105/74/100 106/75/101 107/76/102
f 105/74/100 104/73/99 106/75/101
f 104/73/99 108/77/103 106/75/101
f 108/77/103 109/78/104 110/79/105
f 106/75/101 108/77/103 110/79/105
f 106/75/101 110/79/105 111/80/106
f 107/76/102 106/75/101 111/80/106
f 111/80/107 112/81/107 107/76/108
f 107/76/108 112/81/107 113/82/108
f 114/79/109 115/83/110 116/84/111
f 117/78/112 114/79/109 116/84/111
f 117/78/112 116/84/111 118/85/113
f 36/85/114 117/78/115 118/85/116
f 109/78/117 36/85/114 118/85/116
f 34/78/117 36/85/114 109/78/117
f 108/77/118 34/78/117 109/78/117
f 31/77/119 34/78/117 108/77/118
f 31/77/119 108/77/118 29/73/120
f 29/73/120 108/77/118 104/73/121
f 29/73/120 104/73/121 28/72/122
f 28/72/122 104/73/121 103/72/122
f 119/73/123 28/72/122 103/72/122
f 103/72/98 105/74/100 119/73/124
f 119/73/124 105/74/100 120/75/125
f 105/74/100 107/76/102 120/75/125
f 120/75/125 107/76/102 121/80/126
f 107/76/108 113/82/108 121/80/127
f 37/78/115 117/78/115 36/85/114
f 37/78/115 122/77/128 117/78/115
f 122/77/129 114/79/109 117/78/112
f 122/77/129 120/75/125 114/79/109
f 120/75/125 121/80/126 114/79/109
f 114/79/109 121/80/126 115/83/110
f 121/80/127 123/81/127 115/83/130
f 119/73/124 120/75/125 122/77/129
f 39/77/119 122/77/128 37/78/115
f 39/77/119 26/73/123 122/77/128
f 122/77/128 26/73/123 119/73/123
f 26/73/123 28/72/122 119/73/123
f 121/80/127 113/82/108 123/81/127
f 113/82/131 124/86/132 123/81/126
f 123/81/126 124/86/132 125/87/126
f 124/86/133 126/88/133 125/87/134
f 125/87/134 126/88/133 127/89/135
f 128/90/136 127/89/137 126/88/136
f 129/91/137 127/89/137 128/90/136
f 129/91/137 130/92/138 127/89/137
f 131/93/138 130/92/138 129/91/137
f 131/93/138 132/94/139 130/92/138
f 133/95/139 132/94/139 131/93/138
f 133/95/139 134/96/140 132/94/139
f 135/97/140 134/96/140 133/95/139
f 135/97/140 136/94/141 134/96/140
f 137/95/141 136/94/141 135/97/140
f 137/95/141 138/92/142 136/94/141
f 139/93/142 138/92/142 137/95/141
f 139/93/142 140/89/143 138/92/142
f 141/91/144 140/89/143 139/93/142
f 141/91/144 126/88/136 140/89/143
f 128/90/136 126/88/136 141/91/144
f 142/98/145 132/94/146 143/99/147
f 143/99/147 132/94/146 134/96/148
f 143/99/147 134/96/148 144/98/149
f 144/98/149 134/96/148 136/94/150
f 144/98/149 136/94/150 145/100/151
f 145/100/151 136/94/150 138/92/151
f 145/100/151 138/92/151 146/87/152
f 146/87/152 138/92/151 140/89/153
f 146/87/152 140/89/153 124/86/133
f 124/86/133 140/89/153 126/88/133
f 147/101/47 142/98/154 143/99/140
f 148/102/154 142/98/154 147/101/47
f 148/102/154 149/100/138 142/98/154
f 150/103/138 149/100/138 148/102/154
f 151/104/155 150/103/130 148/102/155
f 151/104/155 148/102/155 152/105/156
f 153/106/157 151/104/158 152/105/159
f 154/104/160 153/106/157 152/105/159
f 155/84/161 153/106/157 154/104/160
f 156/83/162 155/84/161 154/104/160
f 154/104/163 157/102/164 156/83/165
f 156/83/165 157/102/164 158/103/166
f 157/102/167 144/98/168 158/103/142
f 158/103/142 144/98/168 145/100/169
f 158/103/142 145/100/169 112/81/143
f 112/81/143 145/100/169 146/87/170
f 112/81/143 146/87/170 113/82/131
f 113/82/131 146/87/170 124/86/132
f 152/105/156 148/102/155 147/101/156
f 152/105/156 147/101/156 154/104/163
f 154/104/163 147/101/156 157/102/164
f 147/101/47 143/99/140 157/102/167
f 157/102/167 143/99/140 144/98/168
f 111/80/107 158/103/166 112/81/107
f 156/83/165 158/103/166 111/80/107
f 111/80/106 110/79/105 156/83/162
f 110/79/105 155/84/161 156/83/162
f 110/79/105 109/78/104 155/84/161
f 109/78/104 153/106/157 155/84/161
f 118/85/113 153/106/157 109/78/104
f 118/85/113 116/84/111 153/106/157
f 116/84/111 151/104/158 153/106/157
f 116/84/111 115/83/110 151/104/158
f 115/83/130 150/103/130 151/104/155
f 115/83/130 123/81/127 150/103/130
f 123/81/126 125/87/126 150/103/138
f 150/103/138 125/87/126 149/100/138
f 125/87/134 127/89/135 149/100/171
f 149/100/171 127/89/135 130/92/172
f 149/100/171 130/92/172 142/98/145
f 142/98/145 130/92/172 132/94/146
f 159/107/173 78/108/174 160/109/175
f 77/110/176 78/108/174 159/107/173
f 159/107/173 72/111/177 77/110/176
f 161/112/178 162/113/179 163/114/180
f 161/112/178 164/115/181 162/113/179
f 162/113/179 164/115/181 165/116/182
f 165/116/183 164/115/184 166/117/185
f 166/117/185 164/115/184 167/118/186
f 167/118/186 168/119/187 166/117/185
f 169/120/188 168/119/187 167/118/186
f 170/121/189 168/119/187 169/120/188
f 170/121/189 171/122/190 168/119/187
f 168/119/187 171/122/190 172/123/191
f 173/124/192 168/119/187 172/123/191
f 174/125/193 168/119/187 173/124/192
f 174/125/193 173/124/192 175/126/194
f 175/126/194 159/107/195 174/125/193
f 176/127/196 159/107/195 175/126/194
f 159/107/195 176/127/196 177/128/197
f 159/107/195 177/128/197 178/129/198
f 178/129/199 72/111/177 159/107/173
f 72/111/177 178/129/199 179/130/200
f 72/111/177 179/130/200 73/131/201
f 180/132/202 181/133/203 162/113/179
f 165/116/182 180/132/202 162/113/179
f 182/134/204 180/132/202 165/116/182
f 183/135/205 180/132/202 182/134/204
f 181/133/203 180/132/202 183/135/205
f 181/133/203 183/135/205 184/136/206
f 184/136/206 183/135/205 185/137/207
f 185/137/207 186/138/208 184/136/206
f 187/137/209 188/135/210 189/136/211
f 190/138/212 187/137/209 189/136/211
f 189/136/211 191/139/213 190/138/212
f 190/138/212 191/139/213 192/140/214
f 192/140/214 191/139/213 193/141/215
f 193/141/215 194/139/216 192/140/214
f 194/139/216 193/141/215 195/142/217
f 195/142/217 196/143/218 194/139/216
f 194/139/216 196/143/218 197/144/219
f 196/143/218 163/114/180 197/144/219
f 197/144/219 163/114/180 198/145/220
f 163/114/180 162/113/179 198/145/220
f 199/146/221 198/145/222 162/113/223
f 162/113/179 181/133/203 199/146/224
f 181/133/203 200/147/225 199/146/224
f 200/147/225 181/133/203 184/136/226
f 184/136/226 197/144/227 200/147/225
f 197/144/219 184/136/206 194/139/216
f 194/139/216 184/136/206 186/138/208
f 192/140/214 194/139/216 186/138/208
f 201/148/228 163/114/180 196/143/218
f 202/149/229 198/145/222 199/146/221
f 197/144/230 198/145/222 202/149/229
f 200/147/225 197/144/227 202/149/227
f 199/146/224 200/147/225 202/149/231
f 195/142/217 193/141/215 203/150/232
f 193/141/215 204/142/233 203/150/232
f 191/139/213 204/142/233 193/141/215
f 204/142/233 191/139/213 205/143/234
f 205/143/234 191/139/213 206/144/235
f 206/144/235 207/114/236 205/143/234
f 208/145/237 207/114/236 206/144/235
f 208/145/237 209/113/238 207/114/236
f 208/145/239 210/146/240 209/113/241
f 210/146/242 211/133/243 209/113/238
f 211/133/243 210/146/242 212/147/244
f 211/133/245 212/147/245 189/136/245
f 212/147/246 206/144/235 189/136/211
f 206/144/235 191/139/213 189/136/211
f 207/114/236 213/148/247 205/143/234
f 212/147/244 210/146/242 214/149/248
f 208/145/239 214/149/249 210/146/240
f 206/144/250 214/149/249 208/145/239
f 214/149/251 206/144/235 212/147/246
f 207/114/236 209/113/238 215/112/252
f 215/112/252 209/113/238 216/115/253
f 217/128/254 218/127/255 219/107/256
f 218/127/255 220/126/257 219/107/256
f 220/126/257 221/125/258 219/107/256
f 222/124/259 221/125/258 220/126/257
f 222/124/259 223/119/260 221/125/258
f 224/123/261 223/119/260 222/124/259
f 225/122/262 223/119/260 224/123/261
f 223/119/260 225/122/262 226/121/263
f 223/119/260 226/121/263 227/120/264
f 228/118/265 223/119/260 227/120/264
f 229/117/266 223/119/260 228/118/265
f 228/118/265 216/115/267 229/117/266
f 229/117/266 216/115/267 230/116/268
f 216/115/253 209/113/238 230/116/269
f 231/132/270 230/116/269 209/113/238
f 209/113/238 211/133/243 231/132/270
f 211/133/243 188/135/210 231/132/270
f 189/136/211 188/135/210 211/133/243
f 232/134/271 230/116/269 231/132/270
f 231/132/270 188/135/210 232/134/271
f 233/151/272 234/152/272 235/153/272
f 236/154/273 237/155/274 238/156/275
f 239/157/276 237/155/274 236/154/273
f 237/155/274 239/157/276 234/152/277
f 234/152/277 239/157/276 240/158/278
f 235/153/279 234/152/277 240/158/278
f 241/159/280 235/153/279 240/158/278
f 242/160/281 235/153/279 241/159/280
f 241/159/280 243/161/282 242/160/281
f 244/162/283 243/161/282 241/159/280
f 245/163/284 243/161/282 244/162/283
f 244/162/283 246/164/285 245/163/284
f 247/165/286 246/164/285 244/162/283
f 248/166/287 247/165/286 244/162/283
f 249/167/288 247/165/286 248/166/287
f 248/166/287 250/168/289 249/167/288
f 251/169/290 250/168/289 248/166/287
f 250/168/289 251/169/290 252/170/291
f 251/169/290 253/171/292 252/170/291
f 254/168/293 255/172/294 256/170/293
f 256/170/293 255/172/294 257/173/294
f 255/172/294 258/174/295 257/173/294
f 257/173/294 258/174/295 259/175/296
f 259/175/296 258/174/295 260/173/297
f 260/173/297 258/174/295 261/172/298
f 261/172/298 252/170/299 260/173/297
f 250/168/299 252/170/299 261/172/298
f 262/153/300 263/152/300 264/151/300
f 265/158/301 263/152/302 262/153/303
f 265/158/301 262/153/303 266/159/304
f 266/159/304 262/153/303 267/160/305
f 266/159/304 267/160/305 268/162/306
f 269/161/307 268/162/306 267/160/305
f 270/163/308 268/162/306 269/161/307
f 271/164/309 268/162/306 270/163/308
f 272/165/310 268/162/306 271/164/309
f 272/165/310 273/166/311 268/162/306
f 274/167/312 273/166/311 272/165/310
f 274/167/312 254/168/313 273/166/311
f 273/166/311 254/168/313 275/169/314
f 275/169/314 254/168/313 256/170/315
f 276/171/316 275/169/314 256/170/315
f 265/158/301 277/157/317 263/152/302
f 263/152/302 277/157/317 278/155/318
f 279/156/319 278/155/318 280/154/320
f 280/154/320 278/155/318 277/157/317
f 217/128/254 219/107/256 281/129/321
f 99/108/322 219/107/323 282/109/324
f 98/110/325 219/107/323 99/108/322
f 98/110/325 97/111/326 219/107/323
f 219/107/323 97/111/326 281/129/327
f 283/130/328 281/129/327 97/111/326
f 283/130/328 97/111/326 102/131/329
f 244/176/330 251/177/331 248/178/332
f 241/179/333 251/177/331 244/176/330
f 241/179/333 240/180/334 251/177/331
f 251/177/331 240/180/334 284/181/335
f 284/181/335 253/182/336 251/177/331
f 48/183/337 285/184/338 53/185/339
f 286/186/48 287/187/48 51/188/48
f 51/188/48 287/187/48 50/189/48
f 50/189/142 287/187/142 47/190/340
f 47/190/340 287/187/142 288/37/341
f 288/37/341 48/183/337 47/190/340
f 289/42/342 48/183/337 288/37/341
f 289/42/342 285/184/338 48/183/337
f 289/42/343 290/191/42 285/184/42
f 291/192/344 287/187/131 286/193/131
f 288/37/345 287/187/131 291/192/344
f 292/40/346 288/37/345 291/192/344
f 289/42/343 288/37/345 292/40/346
f 292/40/346 290/191/42 289/42/343
f 293/30/48 294/31/48 295/29/48
f 296/28/48 294/31/48 293/30/48
f 297/194/142 296/28/142 293/30/142
f 298/195/142 296/28/142 297/194/142
f 299/196/347 300/197/348 301/198/349
f 252/199/350 301/198/349 260/200/351
f 260/200/351 301/198/349 300/197/348
f 259/201/348 260/200/351 300/197/348
f 257/200/351 259/201/348 300/197/348
f 302/198/352 257/200/351 300/197/348
f 300/197/348 303/196/353 302/198/352
f 256/199/354 257/200/351 302/198/352
f 304/202/355 305/203/356 306/204/357
f 307/205/358 308/206/359 306/204/357
f 306/204/357 308/206/359 304/202/355
f 309/207/360 304/202/355 308/206/359
f 310/208/361 304/202/355 309/207/360
f 311/209/362 309/207/360 308/206/359
f 312/210/48 313/211/48 314/212/48
f 315/213/48 313/211/48 316/214/48
f 315/213/48 317/215/48 313/211/48
f 314/212/48 313/211/48 317/215/48
f 318/216/48 314/212/48 317/215/48
f 319/217/42 320/218/42 321/219/42
f 321/219/42 322/220/42 319/217/42
f 323/221/42 319/217/42 322/220/42
f 324/222/42 323/221/42 322/220/42
f 325/223/42 319/217/42 323/221/42
f 326/224/42 322/220/42 321/219/42
f 327/221/42 328/223/363 329/217/42
f 329/217/42 330/219/42 327/221/42
f 330/219/42 331/220/42 327/221/42
f 332/224/42 331/220/42 330/219/42
f 333/222/42 327/221/42 331/220/42
f 334/218/364 330/219/42 329/217/42
f 335/225/48 336/226/48 337/227/48
f 337/227/48 338/228/48 335/225/48
f 338/228/48 339/229/48 335/225/48
f 340/230/48 339/229/48 338/228/48
f 341/231/48 335/225/48 339/229/48
f 342/232/48 338/228/48 337/227/48
f 343/221/48 344/223/48 345/217/48
f 345/217/48 346/219/48 343/221/48
f 346/219/48 347/220/48 343/221/48
f 348/224/48 347/220/48 346/219/48
f 349/222/48 343/221/48 347/220/48
f 350/218/48 346/219/48 345/217/48
f 68/221/42 66/223/42 65/217/42
f 65/217/42 63/219/42 68/221/42
f 63/219/42 70/220/42 68/221/42
f 62/224/42 70/220/42 63/219/42
f 69/222/42 68/221/42 70/220/42
f 64/218/42 63/219/42 65/217/42
f 351/31/48 352/30/48 353/29/48
f 354/28/48 352/30/48 351/31/48
f 354/28/142 44/194/142 352/30/142
f 42/195/142 44/194/142 354/28/142
f 22/224/365 20/220/366 21/219/42
f 21/219/42 20/220/366 9/221/367
f 12/217/42 21/219/42 9/221/367
f 9/221/367 11/223/42 12/217/42
f 14/218/42 21/219/42 12/217/42
f 5/222/368 9/221/367 20/220/366
f 355/233/369 356/234/370 357/235/371
f 355/233/369 358/236/372 356/234/370
f 359/236/373 360/237/374 361/238/375
f 362/233/376 359/236/373 361/238/375
f 363/234/377 359/236/373 362/233/376
f 357/235/371 363/234/377 362/233/376
f 364/239/378 363/234/377 357/235/371
f 357/235/371 356/234/370 364/239/378
f 356/234/370 365/240/379 364/239/378
f 356/234/370 366/241/380 365/240/379
f 358/236/372 366/241/380 356/234/370
f 358/236/372 367/242/381 366/241/380
f 368/237/382 367/242/381 358/236/372
f 369/238/383 368/237/382 358/236/372
f 369/238/383 358/236/372 355/233/369
f 369/238/166 355/233/164 370/243/166
f 370/243/166 355/233/164 371/244/164
f 355/233/164 357/235/384 371/244/164
f 371/244/164 357/235/384 372/245/156
f 357/235/384 362/233/385 372/245/156
f 361/238/375 360/237/374 373/246/386
f 372/245/156 362/233/385 374/244/385
f 362/233/385 361/238/387 374/244/385
f 374/244/385 361/238/387 375/243/130
f 361/238/387 373/246/127 375/243/130
f 375/243/130 373/246/127 376/247/127
f 367/242/388 377/78/388 366/241/389
f 367/242/388 378/85/390 377/78/388
f 379/248/390 378/85/390 367/242/388
f 379/248/391 367/242/381 380/249/392
f 380/249/392 367/242/381 368/237/382
f 381/246/393 380/249/392 368/237/382
f 381/246/393 368/237/382 369/238/383
f 381/246/107 369/238/166 382/247/107
f 382/247/107 369/238/166 370/243/166
f 382/247/143 370/243/142 383/250/170
f 383/250/170 370/243/142 384/251/142
f 370/243/142 371/244/141 384/251/142
f 384/251/142 371/244/141 385/252/168
f 371/244/141 372/245/47 385/252/168
f 385/252/168 372/245/47 386/253/394
f 372/245/47 374/244/154 386/253/394
f 386/253/394 374/244/154 387/252/395
f 374/244/154 375/243/138 387/252/395
f 387/252/395 375/243/138 388/251/138
f 375/243/138 376/247/126 388/251/138
f 388/251/138 376/247/126 389/250/126
f 390/254/136 382/247/143 383/250/170
f 391/255/131 382/247/143 390/254/136
f 391/255/108 381/246/107 382/247/107
f 392/256/108 381/246/107 391/255/108
f 392/256/396 380/249/392 381/246/393
f 393/257/397 389/250/398 394/258/399
f 388/251/400 389/250/398 393/257/397
f 395/259/145 388/251/400 393/257/397
f 387/252/401 388/251/400 395/259/145
f 396/260/148 387/252/401 395/259/145
f 386/253/402 387/252/401 396/260/148
f 397/259/403 386/253/402 396/260/148
f 385/252/150 386/253/402 397/259/403
f 398/257/404 385/252/150 397/259/403
f 384/251/404 385/252/150 398/257/404
f 399/258/152 384/251/404 398/257/404
f 383/250/405 384/251/404 399/258/152
f 400/261/406 383/250/405 399/258/152
f 390/254/407 383/250/405 400/261/406
f 394/258/399 390/254/407 400/261/406
f 389/250/398 390/254/407 394/258/399
f 389/250/126 391/255/131 390/254/136
f 376/247/126 391/255/131 389/250/126
f 396/260/140 401/262/141 397/259/141
f 402/263/140 401/262/141 396/260/140
f 395/259/154 402/263/140 396/260/140
f 403/262/139 402/263/140 395/259/154
f 393/257/138 403/262/139 395/259/154
f 404/264/138 403/262/139 393/257/138
f 394/258/137 404/264/138 393/257/138
f 405/265/137 404/264/138 394/258/137
f 400/261/136 405/265/137 394/258/137
f 406/266/136 405/265/137 400/261/136
f 399/258/408 406/266/136 400/261/136
f 407/265/408 406/266/136 399/258/408
f 398/257/142 407/265/408 399/258/408
f 408/264/142 407/265/408 398/257/142
f 397/259/141 408/264/142 398/257/142
f 401/262/141 408/264/142 397/259/141
f 376/247/127 392/256/108 391/255/108
f 373/246/127 392/256/108 376/247/127
f 373/246/386 380/249/392 392/256/396
f 360/237/374 380/249/392 373/246/386
f 360/237/374 379/248/391 380/249/392
f 409/242/409 379/248/391 360/237/374
f 359/236/373 409/242/409 360/237/374
f 410/241/410 409/242/409 359/236/373
f 363/234/377 410/241/410 359/236/373
f 411/240/411 410/241/410 363/234/377
f 364/239/378 411/240/411 363/234/377
f 412/267/412 411/240/411 364/239/378
f 364/239/378 365/240/379 412/267/412
f 365/240/413 413/72/414 412/267/414
f 414/73/413 413/72/414 365/240/413
f 366/241/389 414/73/413 365/240/413
f 415/77/415 414/73/413 366/241/389
f 366/241/389 377/78/388 415/77/415
f 412/267/414 413/72/414 411/240/416
f 411/240/416 413/72/414 416/73/416
f 411/240/416 416/73/416 410/241/417
f 410/241/417 416/73/416 417/77/417
f 417/77/417 418/78/417 410/241/417
f 410/241/417 418/78/417 409/242/417
f 418/78/417 378/85/390 409/242/417
f 409/242/417 378/85/390 379/85/390
f 169/268/418 274/269/419 272/270/420
f 167/271/421 274/269/419 169/268/418
f 167/271/421 164/272/422 274/269/419
f 274/269/419 164/272/422 254/273/423
f 164/272/422 161/274/424 254/273/423
f 254/273/423 161/274/424 255/275/425
f 179/276/426 278/277/427 279/278/428
f 178/279/429 278/277/427 179/276/426
f 278/277/427 178/279/429 263/280/430
f 263/280/430 178/279/429 177/281/431
f 263/280/430 177/281/431 264/282/432
f 264/282/432 177/281/431 176/283/433
f 264/282/432 176/283/433 262/284/434
f 262/284/434 176/283/433 175/285/435
f 262/284/434 175/285/435 267/286/436
f 267/286/436 175/285/435 173/287/437
f 173/287/437 172/288/438 267/286/436
f 267/286/436 172/288/438 269/289/439
f 172/288/438 171/290/440 269/289/439
f 269/289/439 171/290/440 270/291/441
f 171/290/440 170/292/442 270/291/441
f 270/291/441 170/292/442 271/293/443
f 170/292/442 169/268/418 271/293/443
f 271/293/443 169/268/418 272/270/420
f 419/294/444 236/295/444 238/296/444
f 420/297/445 236/295/444 419/294/444
f 421/298/446 420/297/445 419/294/444
f 279/296/444 280/295/444 422/294/444
f 422/294/444 280/295/444 423/297/447
f 423/297/447 421/298/446 422/294/444
f 424/299/448 421/298/446 423/297/447
f 424/299/448 420/297/445 421/298/446
f 424/299/448 299/300/449 420/297/445
f 300/301/450 299/300/449 424/299/448
f 424/299/448 303/300/451 300/301/450
f 423/297/447 303/300/451 424/299/448
f 425/302/452 99/303/322 282/304/324
f 100/305/453 99/303/322 425/302/452
f 426/306/454 100/305/453 425/302/452
f 82/307/454 100/305/453 426/306/454
f 426/306/454 80/305/455 82/307/454
f 427/302/456 80/305/455 426/306/454
f 80/305/455 427/302/456 78/303/174
f 78/303/174 427/302/456 160/304/175
f 160/304/457 428/308/458 159/309/459
f 428/308/458 160/304/457 429/310/460
f 429/310/460 160/304/457 427/302/461
f 429/310/460 427/302/461 430/311/462
f 430/311/462 427/302/461 426/306/463
f 430/311/462 426/306/463 431/312/464
f 426/306/463 432/311/465 431/312/464
f 426/306/463 425/302/466 432/311/465
f 432/311/465 425/302/466 433/310/467
f 425/302/466 282/304/468 433/310/467
f 433/310/467 282/304/468 434/308/469
f 434/308/469 282/304/468 219/309/470
f 174/313/471 166/314/472 168/315/473
f 165/316/474 166/314/472 174/313/471
f 174/313/471 159/309/475 165/316/474
f 165/316/474 159/309/475 428/308/476
f 428/308/476 182/317/477 165/316/474
f 429/310/478 182/317/477 428/308/476
f 183/318/479 182/317/477 429/310/478
f 183/318/479 429/310/478 430/311/480
f 185/319/481 183/318/479 430/311/480
f 185/319/481 430/311/480 186/320/482
f 431/312/483 186/320/482 430/311/480
f 192/321/484 186/320/482 431/312/483
f 431/312/483 190/320/485 192/321/484
f 432/311/486 190/320/485 431/312/483
f 432/311/486 187/319/487 190/320/485
f 432/311/486 188/318/488 187/319/487
f 433/310/489 188/318/488 432/311/486
f 232/317/490 188/318/488 433/310/489
f 433/310/489 434/308/491 232/317/490
f 232/317/490 434/308/491 230/316/492
f 434/308/491 219/309/493 230/316/492
f 230/316/492 219/309/493 221/313/494
f 230/316/492 221/313/494 229/314/495
f 229/314/495 221/313/494 223/315/496
f 327/322/497 349/323/131 328/324/126
f 328/324/126 349/323/131 347/325/137
f 328/324/126 347/325/137 329/326/138
f 329/326/138 347/325/137 348/327/138
f 329/326/138 348/327/138 334/328/154
f 334/328/154 348/327/138 346/329/154
f 334/328/154 346/329/154 330/330/498
f 330/330/498 346/329/154 350/331/47
f 330/330/498 350/331/47 332/328/167
f 332/328/167 350/331/47 345/329/167
f 332/328/167 345/329/167 331/326/142
f 331/326/142 345/329/167 344/327/142
f 331/326/142 344/327/142 333/324/143
f 333/324/143 344/327/142 343/325/499
f 333/324/143 343/325/499 327/322/497
f 327/322/497 343/325/499 349/323/131
f 435/29/42 298/28/42 297/30/42
f 436/31/42 298/28/42 435/29/42
f 437/39/48 438/40/500 439/42/501
f 440/41/48 438/40/500 437/39/48
f 441/37/502 442/36/131 443/38/131
f 444/33/503 442/36/131 441/37/502
f 441/35/502 439/32/501 444/33/503
f 444/33/503 439/32/501 438/34/500
f 277/332/504 423/333/505 280/334/504
f 445/335/506 423/333/505 277/332/504
f 302/336/507 423/333/505 445/335/506
f 303/337/508 423/333/505 302/336/507
f 446/338/47 447/339/47 448/340/47
f 449/341/47 450/342/47 448/340/47
f 448/340/47 450/342/47 446/338/47
f 451/343/47 446/338/47 450/342/47
f 276/182/509 452/181/510 275/177/511
f 265/180/512 275/177/511 452/181/510
f 266/179/513 275/177/511 265/180/512
f 266/179/513 268/176/514 275/177/511
f 275/177/511 268/176/514 273/178/515
f 453/344/516 454/345/517 455/346/518
f 454/345/517 313/347/519 456/348/520
f 455/346/518 454/345/517 456/348/520
f 456/348/520 457/349/521 455/346/518
f 455/346/518 457/349/521 458/350/522
f 457/349/521 459/351/523 458/350/522
f 458/350/522 459/351/523 460/352/524
f 460/352/524 459/351/523 461/353/525
f 461/353/525 459/351/523 462/354/526
f 461/353/525 462/354/526 463/355/527
f 463/355/527 462/354/526 464/356/528
f 464/356/528 465/357/529 463/355/527
f 464/356/528 316/358/530 465/357/529
f 315/359/530 316/358/530 464/356/528
f 464/356/528 462/354/526 315/359/531
f 315/359/531 462/354/526 317/360/532
f 462/354/526 459/351/523 317/360/532
f 317/360/532 459/351/523 318/361/533
f 459/351/523 314/362/534 318/361/533
f 457/349/521 314/362/534 459/351/523
f 457/349/521 312/363/535 314/362/534
f 456/348/520 312/363/535 457/349/521
f 456/348/536 313/347/537 312/363/537
f 463/355/527 465/357/529 466/364/538
f 35/218/35 33/219/33 38/217/38
f 41/221/41 40/223/40 38/217/38
f 38/217/38 33/219/33 41/221/41
f 33/219/33 30/220/30 41/221/41
f 32/224/32 30/220/30 33/219/33
f 27/222/27 41/221/41 30/220/30
f 445/365/539 277/366/540 302/367/541
f 265/368/542 302/367/541 277/366/540
f 452/369/543 302/367/541 265/368/542
f 302/367/544 452/369/545 256/370/315
f 256/370/315 452/369/545 276/371/316
f 451/372/546 467/373/42 468/374/546
f 450/375/547 467/373/42 451/372/546
f 450/375/547 469/376/548 467/373/42
f 449/377/549 469/376/548 450/375/547
f 449/377/549 470/378/550 469/376/548
f 448/379/550 470/378/550 449/377/549
f 448/379/550 471/380/551 470/378/550
f 447/381/552 471/380/551 448/379/550
f 447/381/552 472/382/553 471/380/551
f 446/383/554 472/382/553 447/381/552
f 446/383/554 468/384/546 472/382/553
f 451/385/546 468/384/546 446/383/554
f 420/333/555 239/332/276 236/334/273
f 473/335/555 239/332/276 420/333/555
f 420/333/556 301/336/557 473/335/558
f 299/337/559 301/336/557 420/333/556
f 474/184/560 438/183/561 440/185/562
f 475/42/563 438/183/564 474/184/560
f 475/42/563 476/37/565 438/183/564
f 475/42/566 477/40/567 476/37/568
f 476/37/568 477/40/567 478/192/569
f 476/37/568 478/192/569 479/187/47
f 479/187/47 478/192/569 480/193/47
f 474/184/42 481/191/42 475/42/566
f 475/42/566 481/191/42 477/40/567
f 480/186/48 443/188/48 479/187/48
f 479/187/48 443/188/48 442/189/48
f 444/190/570 479/187/142 442/189/142
f 476/37/565 479/187/142 444/190/570
f 438/183/564 476/37/565 444/190/570
f 482/340/131 483/339/131 484/338/131
f 485/343/131 486/342/131 484/338/131
f 484/338/131 486/342/131 482/340/131
f 487/341/131 482/340/131 486/342/131
f 163/386/571 201/387/572 488/388/573
f 488/388/573 201/387/572 489/389/574
f 489/389/575 490/390/576 488/388/577
f 491/391/578 490/390/576 489/389/575
f 491/391/578 492/392/579 490/390/576
f 493/393/580 492/392/579 491/391/578
f 493/393/580 494/394/581 492/392/579
f 495/395/582 494/394/581 493/393/580
f 496/393/583 494/394/581 495/395/582
f 497/392/584 494/394/581 496/393/583
f 498/391/585 497/392/584 496/393/583
f 499/390/586 497/392/584 498/391/585
f 500/389/587 499/390/586 498/391/585
f 501/388/588 499/390/586 500/389/587
f 213/387/589 501/388/590 500/389/591
f 207/386/592 501/388/590 213/387/589
f 309/21/360 311/19/362 414/18/593
f 414/18/593 311/19/362 413/20/594
f 413/20/594 311/19/362 416/18/595
f 416/18/595 311/19/362 308/21/359
f 416/18/595 308/21/359 417/22/596
f 417/22/596 308/21/359 307/23/358
f 307/23/358 306/24/357 417/22/596
f 417/22/596 306/24/357 418/25/597
f 306/24/357 305/26/356 418/25/597
f 418/25/597 305/26/356 378/27/598
f 378/27/598 305/26/356 377/25/599
f 377/25/599 305/26/356 304/24/355
f 377/25/599 304/24/355 415/22/600
f 415/22/600 304/24/355 310/23/361
f 310/23/361 309/21/360 415/22/600
f 415/22/600 309/21/360 414/18/593
f 463/213/42 466/214/42 461/215/42
f 453/211/42 461/215/42 466/214/42
f 455/210/547 461/215/42 453/211/547
f 458/212/42 461/215/42 455/210/547
f 460/216/601 461/215/42 458/212/42
f 207/396/602 215/397/603 501/398/604
f 501/398/604 215/397/603 261/399/605
f 501/398/604 261/399/605 499/400/606
f 499/400/606 261/399/605 497/401/607
f 258/201/608 497/401/607 261/399/605
f 494/402/609 497/401/607 258/201/608
f 494/402/609 258/201/608 492/401/610
f 492/401/610 258/201/608 255/399/425
f 255/399/425 490/400/611 492/401/610
f 488/398/573 490/400/611 255/399/425
f 161/397/424 488/398/573 255/399/425
f 163/396/571 488/398/573 161/397/424
f 485/385/546 484/383/554 502/384/546
f 502/384/546 484/383/554 503/382/553
f 484/383/554 483/381/552 503/382/553
f 503/382/553 483/381/552 504/380/551
f 483/381/552 482/379/550 504/380/551
f 504/380/551 482/379/550 505/378/612
f 482/379/550 487/377/549 505/378/612
f 505/378/612 487/377/549 506/376/548
f 487/377/549 486/375/547 506/376/548
f 506/376/548 486/375/547 507/373/42
f 486/375/547 485/372/546 507/373/42
f 507/373/42 485/372/546 502/374/546
f 253/371/292 284/369/613 252/370/291
f 252/370/291 284/369/613 301/367/614
f 284/369/615 240/368/616 301/367/617
f 301/367/617 240/368/616 239/366/618
f 239/366/618 473/365/539 301/367/617
f 283/403/619 102/404/620 238/405/621
f 101/406/622 238/405/621 102/404/620
f 419/196/623 238/405/621 101/406/622
f 101/406/622 88/407/624 419/196/623
f 419/196/623 88/407/624 421/197/625
f 421/197/625 88/407/624 87/408/626
f 421/197/625 87/408/626 95/409/627
f 94/408/628 421/197/625 95/409/627
f 74/407/624 421/197/625 94/408/628
f 421/197/625 74/407/624 422/196/629
f 422/196/629 74/407/624 71/406/630
f 422/196/629 71/406/630 279/405/428
f 279/405/428 71/406/630 73/404/631
f 73/404/631 179/403/426 279/405/428
f 508/410/138 509/411/138 510/412/632
f 510/412/632 509/411/138 511/413/126
f 510/412/632 511/413/126 512/414/131
f 512/414/131 511/413/126 513/415/131
f 512/414/131 513/415/131 514/412/143
f 514/412/143 513/415/131 515/413/143
f 514/412/143 515/413/143 516/410/142
f 516/410/142 515/413/143 517/411/142
f 516/410/142 517/411/142 518/416/141
f 518/416/141 517/411/142 519/417/141
f 518/416/141 519/417/141 520/418/47
f 520/418/47 519/417/141 521/419/47
f 520/418/47 521/419/47 522/416/633
f 522/416/633 521/419/47 523/417/633
f 522/416/633 523/417/633 508/410/138
f 508/410/138 523/417/633 509/411/138
f 342/420/47 524/421/167 525/422/47
f 337/423/167 524/421/167 342/420/47
f 337/423/167 526/424/142 524/421/167
f 336/425/169 526/424/142 337/423/167
f 336/425/169 527/426/143 526/424/142
f 335/427/143 527/426/143 336/425/169
f 335/427/143 528/428/131 527/426/143
f 341/429/131 528/428/131 335/427/143
f 341/429/131 529/426/126 528/428/131
f 339/427/126 529/426/126 341/429/131
f 339/427/126 530/424/138 529/426/126
f 340/425/138 530/424/138 339/427/126
f 340/425/138 531/421/154 530/424/138
f 338/423/154 531/421/154 340/425/138
f 338/423/154 525/422/47 531/421/154
f 342/420/47 525/422/47 338/423/154
f 498/400/634 213/396/589 500/398/591
f 205/430/635 213/396/589 498/400/634
f 496/401/636 205/430/635 498/400/634
f 204/431/637 205/430/635 496/401/636
f 496/401/636 495/402/638 204/431/637
f 204/431/637 495/402/638 203/432/639
f 495/402/638 195/431/640 203/432/639
f 493/401/641 195/431/640 495/402/638
f 493/401/641 196/430/642 195/431/640
f 491/400/643 196/430/642 493/401/641
f 491/400/643 201/396/572 196/430/642
f 489/398/574 201/396/572 491/400/643
f 532/433/54 533/434/454 534/435/644
f 535/435/645 533/434/454 532/433/54
f 536/436/646 533/434/454 535/435/645
f 537/437/647 533/434/454 536/436/646
f 538/438/52 533/434/454 537/437/647
f 539/437/648 533/434/454 538/438/52
f 540/436/649 533/434/454 539/437/648
f 540/436/649 539/437/648 326/439/61
f 326/439/61 539/437/648 322/440/650
f 539/437/648 538/438/52 322/440/650
f 322/440/650 538/438/52 324/441/651
f 538/438/52 537/437/647 324/441/651
f 324/441/651 537/437/647 323/440/652
f 537/437/647 536/436/646 323/440/652
f 323/440/652 536/436/646 325/439/653
f 536/436/646 535/435/645 325/439/653
f 325/439/653 535/435/645 319/442/654
f 535/435/645 532/433/54 319/442/654
f 319/442/654 532/433/54 320/443/64
f 532/433/54 534/435/644 320/443/64
f 320/443/64 534/435/644 321/442/63
f 534/435/644 326/439/61 321/442/63
f 540/436/649 326/439/61 534/435/644
f 534/435/644 533/434/454 540/436/649
f 215/274/603 250/273/655 261/275/605
f 216/272/656 250/273/655 215/274/603
f 250/273/655 216/272/656 249/269/657
f 249/269/657 216/272/656 228/271/658
f 227/268/659 249/269/657 228/271/658
f 247/270/660 249/269/657 227/268/659
f 247/270/660 227/268/659 246/293/661
f 246/293/661 227/268/659 226/292/662
f 246/293/661 226/292/662 245/291/663
f 245/291/663 226/292/662 225/290/664
f 245/291/663 225/290/664 243/289/665
f 243/289/665 225/290/664 224/288/666
f 243/289/665 224/288/666 242/286/667
f 242/286/667 224/288/666 222/287/668
f 222/287/668 220/285/669 242/286/667
f 242/286/667 220/285/669 235/284/670
f 220/285/669 218/283/671 235/284/670
f 235/284/670 218/283/671 233/282/672
f 218/283/671 217/281/673 233/282/672
f 233/282/672 217/281/673 234/280/674
f 217/281/673 281/279/675 234/280/674
f 234/280/674 281/279/675 237/277/676
f 281/279/675 283/276/619 237/277/676
f 237/277/676 283/276/619 238/278/621
