# Blender 4.4.3
# www.blender.org
mtllib sunvisor.mtl
o sunvisor
v -4.504284 74.371567 -0.434413
v -4.633495 68.999245 -0.374173
v -4.576883 74.371452 -0.434120
v -4.429998 68.999466 -0.374994
v -4.672678 68.167175 -0.249508
v -4.677870 68.176025 -0.153531
v -4.682114 68.203461 -0.061079
v -4.682934 68.190506 -0.055850
v -4.678570 68.162300 -0.150927
v -4.673232 68.153191 -0.249629
v -4.666741 68.177238 -0.345322
v -4.667123 68.163551 -0.348163
v -4.660277 68.205849 -0.437291
v -4.660479 68.192970 -0.442741
v -4.653544 68.251892 -0.521880
v -4.653555 68.240311 -0.529733
v -4.646798 68.313599 -0.595839
v -4.646618 68.303772 -0.605790
v -4.640301 68.388596 -0.656324
v -4.639932 68.380898 -0.667993
v -4.634294 68.474014 -0.701013
v -4.633757 68.468742 -0.713951
v -4.629016 68.566551 -0.728188
v -4.628331 68.563911 -0.741898
v -4.685244 68.248421 0.024296
v -4.687146 68.309181 0.099311
v -4.687742 68.383415 0.161084
v -4.687011 68.468246 0.207243
v -4.684978 68.560440 0.236011
v -4.624668 68.662674 -0.736805
v -4.681728 68.656433 0.246285
v -4.621415 68.758675 -0.726530
v -4.677379 68.752556 0.237669
v -4.619387 68.850868 -0.697761
v -4.672101 68.845100 0.210494
v -4.666461 68.938210 0.177474
v -4.666098 68.930511 0.165805
v -4.672637 68.850365 0.223432
v -4.678068 68.755196 0.251378
v -4.682540 68.656349 0.260239
v -4.685883 68.557625 0.249674
v -4.687971 68.462814 0.220089
v -4.688722 68.375572 0.172621
v -4.688109 68.299232 0.109093
v -4.686154 68.236748 0.031948
v -4.623858 68.662766 -0.750758
v -4.620515 68.761490 -0.740193
v -4.618428 68.856300 -0.710607
v -4.618654 68.935707 -0.651604
v -4.617673 68.943542 -0.663140
v -4.619251 69.009926 -0.589830
v -4.618288 69.019875 -0.599612
v -4.659596 69.005516 0.105318
v -4.652851 69.067223 0.031360
v -4.621149 69.070694 -0.514815
v -4.646120 69.113266 -0.053229
v -4.624287 69.115654 -0.429441
v -4.639657 69.141876 -0.145198
v -4.633719 69.151939 -0.241011
v -4.628526 69.143089 -0.336988
v -4.620241 69.082359 -0.522466
v -4.623461 69.128601 -0.434669
v -4.627826 69.156815 -0.339592
v -4.633167 69.165916 -0.240890
v -4.639276 69.155563 -0.142357
v -4.645918 69.126144 -0.047777
v -4.652841 69.078796 0.039213
v -4.659781 69.015335 0.115272
v -3.611289 67.381027 4.986315
v -3.916283 69.141869 3.160630
v -3.931177 67.762589 2.982821
v -3.429386 68.720985 6.026552
v -3.896623 69.464226 3.199920
v -3.358512 68.956085 6.135535
v -3.828043 65.855896 3.529584
v -3.941750 66.125816 2.736813
v -4.030349 66.421898 1.521957
v -4.060950 68.151367 1.094983
v -4.009561 69.381691 0.772634
v -4.001725 69.821075 0.894991
v -3.678175 69.924759 -0.567324
v -3.690773 70.178177 -0.566466
v -3.396817 70.054596 -1.451745
v -3.410715 70.288048 -1.435712
v -2.676687 70.315651 -2.255385
v -2.657562 70.103142 -2.296315
v -0.835531 69.347961 5.325152
v -0.844444 69.546829 4.834520
v -0.835882 69.610519 4.874715
v -0.844093 69.284271 5.284953
v -0.831848 69.084389 5.894808
v -0.827342 69.014343 5.858301
v -0.271504 69.047913 5.904565
v 0.271470 69.047920 5.904566
v 0.827308 69.014336 5.858301
v 0.844058 69.284271 5.284953
v -0.000018 69.536552 5.035474
v -0.000017 69.076187 5.915940
v 0.844408 69.546829 4.834520
v -0.263650 69.112015 5.944233
v -0.000017 69.140289 5.955608
v 0.263616 69.112022 5.944233
v 0.831814 69.084381 5.894808
v 0.835495 69.347954 5.325152
v 0.835846 69.610512 4.874715
v 3.651473 69.480278 3.707734
v 3.406395 69.475693 3.707735
v 3.651472 69.407516 3.707734
v 3.442798 69.538330 3.707734
v 3.225268 69.655449 3.707734
v 3.288336 69.691620 3.707735
v 3.161342 69.903358 3.707735
v 3.233737 69.903358 3.707735
v 3.225264 70.151291 3.707736
v 3.288333 70.115112 3.707736
v 3.406387 70.331062 3.707739
v 3.442795 70.268425 3.707738
v 3.651463 70.399254 3.707738
v 3.651464 70.326492 3.707739
v 3.896575 70.331070 3.707738
v 3.860176 70.268433 3.707738
v 4.077764 70.151306 3.707738
v 4.014699 70.115128 3.707739
v 4.141716 69.903374 3.707739
v 4.069318 69.903374 3.707738
v 4.077769 69.655449 3.707736
v 4.014705 69.691635 3.707738
v 3.896583 69.475700 3.707735
v 3.860188 69.538330 3.707736
v 3.916270 69.749390 1.978937
v 3.913790 69.626389 2.075919
v 3.803722 69.637711 1.978937
v 4.002062 69.699493 2.099815
v 3.651473 69.595360 1.978936
v 3.651466 69.471588 2.161657
v 3.486333 69.492805 2.185551
v 3.386770 69.749374 1.978936
v 3.499258 69.637718 1.978936
v 3.386526 69.627960 2.080135
v 3.423319 69.569405 2.131438
v 3.225272 69.655449 2.282534
v 3.406397 69.475708 2.282535
v 3.651475 69.407524 2.282534
v 3.816623 69.492805 2.185551
v 3.879214 69.569153 2.130736
v 4.077772 69.655449 2.282535
v 4.020756 69.813042 2.075920
v 3.955993 69.903412 1.978937
v 3.916267 70.057426 1.978937
v 3.896586 69.475716 2.282534
v 4.052696 69.871330 2.130035
v 4.021797 70.096863 2.130737
v 4.087037 69.961472 2.181337
v 3.281248 69.709915 2.130736
v 3.216029 69.845299 2.181337
v 4.141718 69.903374 2.282537
v 4.077766 70.151306 2.282539
v 3.916476 70.178787 2.080137
v 3.803717 70.169060 1.978937
v 3.651467 70.211395 1.978937
v 3.879656 70.237350 2.131441
v 3.816613 70.313957 2.185555
v 3.896577 70.331070 2.282539
v 3.651463 70.399277 2.282539
v 3.651458 70.335190 2.161661
v 3.486326 70.313957 2.185554
v 3.406389 70.331070 2.282539
v 3.225266 70.151299 2.282536
v 3.423760 70.237602 2.130737
v 3.389214 70.180359 2.075920
v 3.300983 70.107285 2.099815
v 3.386766 70.057426 1.978937
v 3.282310 69.993752 2.075920
v 3.347068 69.903412 1.978937
v 3.250368 69.935463 2.130033
v 3.161345 69.903374 2.282535
v 3.499254 70.169052 1.978937
v -3.537202 69.201233 3.561664
v -3.783530 68.155815 1.092202
v -3.806427 69.449257 0.811053
v -3.629189 67.762108 2.986440
v -3.158892 68.708931 5.955385
v -3.339850 67.381790 4.928107
v -3.554852 65.850761 3.480881
v -3.664809 66.144974 2.647473
v -3.734629 66.426117 1.494850
v -2.388460 70.118080 -2.067223
v -2.410517 70.393303 -2.042800
v -0.000018 69.317444 4.753995
v -1.548494 69.064285 5.240142
v -1.586023 69.370880 4.282956
v -0.000017 69.036118 5.484478
v 1.585987 69.370888 4.282955
v 3.806389 69.449272 0.811052
v 3.537166 69.201248 3.561662
v 1.548460 69.064293 5.240142
v -0.000016 68.716995 6.039261
v -1.769818 68.723022 6.013379
v 1.769786 68.723030 6.013378
v 3.158860 68.708954 5.955384
v 2.676644 70.315666 -2.255386
v 2.388418 70.118088 -2.067224
v 2.410473 70.393311 -2.042801
v 2.657520 70.103157 -2.296316
v 2.928362 70.078064 -1.322770
v 3.396775 70.054611 -1.451746
v 3.404437 69.954529 -0.603420
v 3.678134 69.924774 -0.567326
v 4.009523 69.381706 0.772632
v 3.734607 66.426132 1.494848
v 4.060918 68.151382 1.094981
v 4.030327 66.421921 1.521955
v 3.783498 68.155830 1.092200
v 3.554832 65.850777 3.480879
v 3.941730 66.125839 2.736811
v 3.828023 65.855911 3.529582
v 3.664788 66.144989 2.647471
v 3.931149 67.762611 2.982819
v 3.611263 67.381035 4.986313
v 3.916247 69.141891 3.160628
v 3.896587 69.464241 3.199918
v 4.001686 69.821091 0.894989
v 3.690731 70.178192 -0.566468
v 3.410673 70.288063 -1.435714
v 3.358480 68.956093 6.135534
v 3.429354 68.720993 6.026551
v 3.288336 69.691620 3.531655
v 3.442799 69.538330 3.531654
v 3.483636 69.797501 3.531654
v 3.651474 69.480278 3.531652
v 3.651460 69.903389 3.531654
v 4.014700 70.115128 3.531656
v 3.819305 70.009270 3.531655
v 3.900132 69.819359 3.531655
v 3.987174 69.716393 3.531654
v 4.069319 69.903374 3.531656
v 4.014707 69.691635 3.531654
v 3.860188 69.538330 3.531654
v 3.651465 70.326492 3.531657
v 3.402838 69.987404 3.531654
v 3.315826 70.090355 3.531654
v 3.233737 69.903358 3.531654
v 3.288334 70.115112 3.531654
v 3.442795 70.268425 3.531656
v 3.860177 70.268433 3.531656
v 3.547230 69.832458 1.978936
v 3.497049 69.954704 1.978937
v 3.859992 70.019531 1.978937
v 3.805924 69.954712 1.978937
v 3.755720 69.832458 1.978936
v 3.651462 69.864006 1.978937
v 3.443011 70.019531 1.978937
v 4.096719 69.644432 2.995136
v 3.980071 69.517021 3.232668
v 3.819314 69.423538 2.757600
v 3.898953 69.471573 2.995134
v 4.147938 69.809875 2.757604
v 4.146455 69.903374 2.995139
v 4.147935 69.996857 3.232670
v 4.096714 70.162323 2.995139
v 3.980063 70.289749 2.757606
v 3.898943 70.335205 2.995139
v 3.819304 70.383255 3.232673
v 3.651454 70.421310 2.995139
v 3.322927 70.289726 3.232670
v 3.404020 70.335197 2.995139
v 3.206329 69.644424 2.995134
v 3.155129 69.809868 3.232669
v 3.156608 69.903366 2.995135
v 3.155128 69.996857 2.757603
v 3.206325 70.162308 2.995136
v 3.483631 70.383247 2.757605
v 3.322936 69.517014 2.757601
v 3.404028 69.471565 2.995134
v 3.483641 69.423531 3.232667
v 3.651466 69.385483 2.995134
v -1.777218 68.967651 6.143499
v -1.381524 69.617355 4.740851
v -2.269376 69.673622 4.085986
v -3.135685 69.852371 2.874338
v -3.602805 70.039680 1.017989
v -3.021296 70.312492 -0.405957
v -2.741734 70.392693 -1.214703
v -0.000016 68.947205 6.194369
v 1.777186 68.967659 6.143499
v 2.741691 70.392708 -1.214705
v 3.021254 70.312508 -0.405959
v 3.602765 70.039696 1.017987
v 3.135647 69.852394 2.874336
v 2.269338 69.673630 4.085986
v 1.381488 69.617363 4.740849
v 3.629161 67.762123 2.986438
v 3.339824 67.381798 4.928105
v -4.631649 69.015434 0.089725
v -4.428152 69.015755 0.088904
v -4.503451 74.378761 -0.225617
v -4.576052 74.378647 -0.225323
v -3.404478 69.954514 -0.603419
v -2.928404 70.078049 -1.322769
v -4.375154 68.657379 0.278057
v -4.370681 68.756226 0.269196
v -4.365257 68.851395 0.241251
v -4.359081 68.939240 0.195293
v -4.352395 69.016365 0.133089
v -4.345456 69.079826 0.057031
v -4.338534 69.127174 -0.029960
v -4.331891 69.156586 -0.124539
v -4.325782 69.166946 -0.223073
v -4.320444 69.157845 -0.321775
v -4.316079 69.129631 -0.416852
v -4.312859 69.083389 -0.504649
v -4.310903 69.020905 -0.581794
v -4.310292 68.944572 -0.645322
v -4.311042 68.857323 -0.692789
v -4.313132 68.762512 -0.722374
v -4.316475 68.663795 -0.732940
v -4.320947 68.564949 -0.724079
v -4.326376 68.469772 -0.696134
v -4.332551 68.381935 -0.650176
v -4.339235 68.304802 -0.587973
v -4.346174 68.241348 -0.511915
v -4.353093 68.194000 -0.424924
v -4.359738 68.164581 -0.330345
v -4.365847 68.154228 -0.231811
v -4.371188 68.163330 -0.133109
v -4.375550 68.191544 -0.038032
v -4.378773 68.237785 0.049765
v -4.380726 68.300262 0.126911
v -4.381341 68.376595 0.190438
v -4.380587 68.463844 0.237907
v -4.378497 68.558655 0.267491
vn -0.0040 -0.0111 -0.9999
vn -0.9975 0.0400 -0.0576
vn -0.9975 0.0399 -0.0576
vn -0.9975 0.0399 -0.0577
vn -0.9975 0.0401 -0.0577
vn -0.9975 0.0398 -0.0577
vn -0.9975 0.0400 -0.0577
vn -0.9975 0.0398 -0.0578
vn -0.9975 0.0400 -0.0575
vn -0.9975 0.0400 -0.0578
vn -0.9975 0.0401 -0.0574
vn -0.9975 0.0399 -0.0578
vn -0.9975 0.0400 -0.0579
vn -0.9975 0.0399 -0.0575
vn -0.9975 0.0403 -0.0577
vn -0.9868 -0.0029 0.1618
vn -0.9936 0.0278 0.1098
vn -0.9937 -0.0051 0.1118
vn -0.9737 0.1197 0.1939
vn -0.9929 0.0487 0.1087
vn -0.9588 0.1922 0.2090
vn -0.9891 -0.0113 0.1471
vn -0.9942 -0.0097 0.1072
vn -0.9975 -0.0025 0.0700
vn -0.9980 0.0234 0.0580
vn -0.9978 0.0468 -0.0465
vn -0.9965 0.0328 -0.0774
vn -0.9657 -0.0359 -0.2572
vn -0.9620 -0.0460 -0.2692
vn -0.8669 -0.0147 -0.4983
vn -0.8671 -0.0174 -0.4978
vn -0.7520 0.0516 -0.6571
vn -0.7528 0.0585 -0.6556
vn 0.9936 -0.0988 -0.0550
vn 0.9936 -0.0973 -0.0575
vn 0.9943 -0.0921 -0.0531
vn 0.9987 0.0512 -0.0033
vn 0.9980 0.0638 0.0009
vn -0.1112 0.8861 0.4500
vn -0.1125 0.8773 0.4665
vn -0.0898 0.9001 0.4264
vn 0.1112 0.8861 0.4500
vn 0.0899 0.9001 0.4264
vn 0.1126 0.8773 0.4665
vn -0.0000 0.8802 0.4746
vn -0.0000 0.8862 0.4634
vn -0.1087 0.8588 0.5007
vn 0.1087 0.8588 0.5007
vn 0.0065 0.5232 -0.8522
vn 0.0531 0.4692 -0.8815
vn 0.0543 0.4642 -0.8840
vn 0.0137 0.5248 -0.8511
vn -0.0000 0.5265 -0.8502
vn -0.0000 0.5262 -0.8503
vn -0.0137 0.5248 -0.8511
vn -0.0065 0.5232 -0.8522
vn -0.0531 0.4692 -0.8815
vn -0.0543 0.4642 -0.8840
vn -0.9987 0.0512 -0.0033
vn -0.9943 -0.0921 -0.0531
vn -0.9980 0.0638 0.0009
vn -0.9936 -0.0989 -0.0549
vn -0.9936 -0.0973 -0.0575
vn -0.9936 -0.0989 -0.0550
vn -0.0000 -0.0000 1.0000
vn 0.6542 -0.3747 -0.6570
vn 0.5151 -0.6676 -0.5375
vn 0.3463 -0.8020 -0.4866
vn 0.7441 -0.4266 -0.5141
vn -0.0021 -0.8292 -0.5589
vn -0.0000 -0.8560 -0.5170
vn -0.3478 -0.7974 -0.4931
vn -0.7167 -0.3485 -0.6041
vn -0.3504 -0.8110 -0.4685
vn -0.5393 -0.6492 -0.5364
vn -0.4734 -0.7330 -0.4884
vn -0.8435 -0.4859 -0.2289
vn -0.4965 -0.8271 -0.2635
vn -0.0145 -0.9732 -0.2294
vn 0.3473 -0.7981 -0.4923
vn 0.4704 -0.7400 -0.4808
vn 0.8348 -0.4972 -0.2365
vn 0.8363 -0.1104 -0.5370
vn 0.8690 0.1034 -0.4839
vn 0.7166 0.3487 -0.6041
vn 0.5249 -0.8094 -0.2633
vn 0.8732 -0.0417 -0.4857
vn 0.7683 0.3748 -0.5189
vn 0.8698 0.0824 -0.4865
vn -0.7684 -0.3746 -0.5190
vn -0.8698 -0.0824 -0.4865
vn 0.9674 -0.0122 -0.2529
vn 0.8434 0.4860 -0.2289
vn 0.5392 0.6494 -0.5363
vn 0.3502 0.8113 -0.4682
vn 0.0020 0.8292 -0.5589
vn 0.4733 0.7331 -0.4884
vn 0.3478 0.7974 -0.4932
vn 0.4964 0.8271 -0.2636
vn 0.0145 0.9732 -0.2294
vn -0.0000 0.8560 -0.5171
vn -0.3475 0.7980 -0.4923
vn -0.5251 0.8093 -0.2633
vn -0.8349 0.4970 -0.2365
vn -0.4706 0.7398 -0.4809
vn -0.5153 0.6676 -0.5375
vn -0.7442 0.4266 -0.5141
vn -0.6543 0.3747 -0.6569
vn -0.8364 0.1104 -0.5370
vn -0.8689 -0.1033 -0.4840
vn -0.8732 0.0417 -0.4856
vn -0.9674 0.0122 -0.2529
vn -0.3463 0.8021 -0.4865
vn 0.9919 -0.0123 -0.1267
vn 0.9960 -0.0036 -0.0890
vn 0.9952 -0.0036 -0.0977
vn 0.9938 -0.0079 -0.1108
vn 0.9873 -0.0119 -0.1585
vn 0.9883 -0.0060 -0.1523
vn 0.9904 0.0027 -0.1383
vn 0.9952 -0.0015 -0.0975
vn 0.9975 0.0009 -0.0713
vn 0.6169 0.1676 -0.7690
vn 0.6098 0.1481 -0.7786
vn 0.6285 0.2013 -0.7513
vn 0.5984 0.1183 -0.7924
vn -0.0000 -0.9397 -0.3420
vn 0.0707 -0.9378 -0.3399
vn 0.1385 -0.9521 -0.2725
vn -0.0000 -0.8995 -0.4368
vn -0.1385 -0.9521 -0.2725
vn -0.1232 -0.9872 -0.1011
vn -0.1307 -0.9795 -0.1532
vn -0.0707 -0.9378 -0.3399
vn -0.0000 -0.8834 -0.4687
vn 0.0161 -0.9164 -0.3999
vn 0.0921 -0.9587 -0.2690
vn 0.1307 -0.9795 -0.1532
vn 0.1232 -0.9872 -0.1011
vn -0.0160 -0.9164 -0.3999
vn -0.0921 -0.9587 -0.2690
vn -0.6169 0.1676 -0.7690
vn -0.6098 0.1481 -0.7786
vn -0.5984 0.1183 -0.7924
vn -0.6284 0.2013 -0.7514
vn -0.0598 -0.9982 -0.0091
vn -0.0654 -0.9965 -0.0521
vn -0.0625 -0.9980 -0.0083
vn -0.0711 -0.9948 -0.0731
vn -0.0803 -0.9794 -0.1852
vn -0.0865 -0.9655 -0.2457
vn -0.3227 -0.9036 -0.2817
vn -0.3500 -0.8951 -0.2762
vn 0.0775 -0.2390 -0.9679
vn 0.0101 -0.2406 -0.9706
vn 0.0852 -0.2402 -0.9670
vn -0.0073 -0.2378 -0.9713
vn -0.2180 -0.2084 -0.9535
vn -0.2464 -0.2017 -0.9480
vn 0.0667 -0.9467 -0.3153
vn 0.0304 -0.9574 -0.2871
vn 0.0734 -0.9472 -0.3120
vn 0.0225 -0.9609 -0.2759
vn 0.0080 -0.9716 -0.2365
vn 0.0079 -0.9716 -0.2365
vn 0.9891 -0.0113 0.1471
vn 0.9937 -0.0051 0.1118
vn 0.9868 -0.0029 0.1618
vn 0.9942 -0.0097 0.1072
vn 0.9975 -0.0025 0.0700
vn 0.9980 0.0234 0.0580
vn 0.9936 0.0278 0.1098
vn 0.9978 0.0468 -0.0465
vn 0.9929 0.0487 0.1087
vn 0.9965 0.0328 -0.0774
vn 0.9657 -0.0359 -0.2572
vn 0.9620 -0.0460 -0.2692
vn 0.8669 -0.0147 -0.4983
vn 0.8671 -0.0174 -0.4978
vn 0.7520 0.0516 -0.6571
vn 0.7528 0.0585 -0.6556
vn 0.9588 0.1922 0.2090
vn 0.9737 0.1197 0.1939
vn -0.0000 -0.0000 -1.0000
vn 0.8674 -0.4976 -0.0000
vn 0.5904 -0.8068 0.0233
vn 0.4084 -0.9125 -0.0234
vn 0.5026 -0.8645 -0.0000
vn 0.0275 -0.9993 0.0267
vn 0.4753 -0.8798 0.0070
vn 0.8803 -0.4736 0.0267
vn 0.9943 -0.1043 -0.0232
vn 1.0000 -0.0000 -0.0000
vn 0.9943 0.1043 0.0232
vn 0.9995 -0.0309 0.0070
vn 0.8532 0.5210 0.0266
vn 0.8674 0.4976 -0.0000
vn 0.5905 0.8067 -0.0233
vn 0.5027 0.8645 -0.0000
vn 0.4085 0.9125 0.0234
vn 0.5290 0.8486 0.0072
vn -0.0276 0.9993 0.0268
vn -0.0000 1.0000 -0.0000
vn -0.5906 0.8066 0.0234
vn -0.5028 0.8644 0.0001
vn -0.8674 -0.4975 -0.0000
vn -0.9943 -0.1043 0.0232
vn -1.0000 -0.0000 -0.0000
vn -0.9943 0.1042 -0.0232
vn -0.8675 0.4975 -0.0000
vn -0.8804 0.4735 0.0267
vn -0.4754 0.8797 0.0070
vn -0.4086 0.9124 -0.0234
vn -0.9995 0.0309 0.0070
vn -0.8532 -0.5209 0.0266
vn -0.5905 -0.8067 -0.0234
vn -0.5027 -0.8644 -0.0000
vn -0.4085 -0.9125 0.0234
vn -0.5291 -0.8485 0.0071
vn -0.0000 -1.0000 -0.0000
vn -0.0363 0.9272 0.3729
vn -0.1359 0.9040 0.4053
vn -0.1963 0.9378 0.2862
vn -0.0941 0.9542 0.2840
vn -0.3197 0.9186 0.2322
vn -0.3589 0.8974 0.2567
vn -0.4940 0.8569 0.1474
vn -0.4809 0.8616 0.1627
vn -0.2427 0.9669 0.0783
vn -0.2038 0.9765 0.0709
vn -0.1615 0.9868 -0.0073
vn -0.1563 0.9874 -0.0228
vn -0.1795 0.9802 -0.0838
vn -0.2155 0.9728 -0.0855
vn -0.1121 0.8585 0.5005
vn -0.0265 0.8982 0.4388
vn -0.0079 0.9007 0.4344
vn -0.0000 0.8139 0.5810
vn -0.0965 0.7814 0.6166
vn -0.0000 0.7776 0.6288
vn 0.0965 0.7814 0.6166
vn 0.0079 0.9007 0.4344
vn 0.0363 0.9272 0.3729
vn 0.0265 0.8982 0.4388
vn 0.1563 0.9874 -0.0228
vn 0.1794 0.9802 -0.0838
vn 0.2155 0.9728 -0.0855
vn 0.1615 0.9868 -0.0073
vn 0.2038 0.9765 0.0709
vn 0.2427 0.9669 0.0783
vn 0.4808 0.8616 0.1627
vn 0.4940 0.8569 0.1474
vn 0.3589 0.8974 0.2567
vn 0.3197 0.9186 0.2322
vn 0.1963 0.9378 0.2862
vn 0.0941 0.9542 0.2840
vn 0.1359 0.9040 0.4053
vn 0.1120 0.8585 0.5005
vn -0.9919 -0.0123 -0.1267
vn -0.9952 -0.0036 -0.0977
vn -0.9960 -0.0036 -0.0890
vn -0.9938 -0.0079 -0.1108
vn -0.9975 0.0009 -0.0713
vn -0.9952 -0.0015 -0.0975
vn -0.9904 0.0027 -0.1383
vn -0.9883 -0.0060 -0.1523
vn -0.9873 -0.0119 -0.1585
vn 0.0001 -1.0000 -0.0000
vn 0.5025 -0.8646 -0.0000
vn 0.8675 -0.4975 -0.0000
vn 0.5025 0.8646 -0.0000
vn -0.5024 0.8646 -0.0000
vn -0.8674 0.4976 -0.0000
vn -0.8674 -0.4976 -0.0000
vn -0.8674 -0.4977 -0.0000
vn -0.5024 -0.8646 -0.0000
vn 0.0014 -0.9994 0.0349
vn 0.0016 -0.9994 0.0350
vn 0.0012 -0.9994 0.0349
vn 0.0017 -0.9994 0.0351
vn 0.0040 0.0586 0.9983
vn 0.0039 0.0586 0.9983
vn 0.9999 0.0138 -0.0045
vn -0.9999 0.0106 0.0036
vn -0.0019 0.9994 -0.0344
vn -0.0018 0.9994 -0.0344
vn 0.0866 -0.9655 -0.2457
vn 0.3227 -0.9036 -0.2817
vn 0.3500 -0.8951 -0.2762
vn 0.0864 -0.9655 -0.2456
vn 0.0802 -0.9794 -0.1852
vn 0.3225 -0.9037 -0.2817
vn 0.0711 -0.9948 -0.0731
vn 0.0654 -0.9965 -0.0521
vn 0.0598 -0.9982 -0.0091
vn 0.0625 -0.9980 -0.0083
vn -0.1170 -0.6943 0.7101
vn -0.1136 -0.6946 0.7103
vn -0.1587 -0.6546 0.7391
vn -0.1605 -0.6558 0.7377
vn -0.1906 -0.5429 0.8179
vn -0.0991 -0.5755 0.8118
vn -0.0965 -0.5342 0.8398
vn 0.0219 -0.4831 0.8753
vn 0.0232 -0.4700 0.8823
vn -0.0000 -0.5503 0.8350
vn -0.0000 -0.5588 0.8293
vn -0.0219 -0.4831 0.8753
vn -0.0232 -0.4700 0.8823
vn 0.0990 -0.5755 0.8118
vn 0.0965 -0.5342 0.8398
vn 0.1905 -0.5429 0.8179
vn 0.1605 -0.6558 0.7377
vn 0.1587 -0.6546 0.7391
vn 0.1169 -0.6943 0.7101
vn 0.1136 -0.6946 0.7103
vn -0.0579 -0.0036 0.9983
vn -0.0574 0.1915 0.9798
vn -0.0575 0.1863 0.9808
vn -0.0549 0.3745 0.9256
vn -0.0548 0.3792 0.9237
vn -0.0502 0.5485 0.8347
vn -0.0501 0.5522 0.8322
vn -0.0436 0.7013 0.7115
vn -0.0435 0.7040 0.7088
vn -0.0353 0.8271 0.5609
vn -0.0352 0.8288 0.5584
vn -0.0256 0.9210 0.3886
vn -0.0255 0.9219 0.3867
vn -0.0150 0.9794 0.2013
vn -0.0148 0.9796 0.2002
vn -0.0038 1.0000 0.0061
vn -0.0037 1.0000 0.0062
vn 0.0077 0.9819 -0.1892
vn 0.0076 0.9821 -0.1882
vn 0.0188 0.9259 -0.3773
vn 0.0186 0.9267 -0.3754
vn 0.0291 0.8342 -0.5507
vn 0.0290 0.8358 -0.5482
vn 0.0383 0.7103 -0.7029
vn 0.0382 0.7130 -0.7002
vn 0.0461 0.5590 -0.8279
vn 0.0460 0.5627 -0.8254
vn 0.0521 0.3863 -0.9209
vn 0.0520 0.3908 -0.9190
vn 0.0561 0.1987 -0.9785
vn 0.0560 0.2039 -0.9774
vn 0.0579 0.0036 -0.9983
vn 0.0578 0.0090 -0.9983
vn 0.0574 -0.1915 -0.9798
vn 0.0575 -0.1863 -0.9808
vn 0.0548 -0.3792 -0.9237
vn 0.0549 -0.3745 -0.9256
vn 0.0501 -0.5522 -0.8322
vn 0.0502 -0.5485 -0.8347
vn 0.0434 -0.7040 -0.7089
vn 0.0436 -0.7013 -0.7115
vn 0.0351 -0.8288 -0.5584
vn 0.0353 -0.8271 -0.5609
vn 0.0255 -0.9219 -0.3867
vn 0.0256 -0.9210 -0.3886
vn 0.0149 -0.9796 -0.2003
vn 0.0150 -0.9794 -0.2013
vn 0.0037 -1.0000 -0.0061
vn -0.0076 -0.9821 0.1882
vn -0.0077 -0.9819 0.1892
vn -0.0187 -0.9267 0.3754
vn -0.0187 -0.9259 0.3773
vn -0.0290 -0.8358 0.5482
vn -0.0291 -0.8342 0.5507
vn -0.0382 -0.7129 0.7002
vn -0.0384 -0.7103 0.7029
vn -0.0460 -0.5627 0.8254
vn -0.0461 -0.5590 0.8279
vn -0.0520 -0.3909 0.9190
vn -0.0521 -0.3862 0.9209
vn -0.0560 -0.2039 0.9774
vn -0.0560 -0.1987 0.9785
vn -0.0578 -0.0090 0.9983
vn -0.0225 -0.9609 -0.2759
vn -0.0080 -0.9716 -0.2365
vn -0.0078 -0.9716 -0.2365
vn -0.0304 -0.9574 -0.2871
vn -0.0667 -0.9467 -0.3153
vn -0.0734 -0.9472 -0.3120
vn 0.0073 -0.2378 -0.9713
vn 0.2180 -0.2084 -0.9535
vn 0.2464 -0.2017 -0.9480
vn -0.0101 -0.2406 -0.9706
vn -0.0775 -0.2390 -0.9679
vn -0.0852 -0.2402 -0.9670
vt 0.218903 0.412090
vt 0.992514 0.431926
vt 0.218903 0.431926
vt 0.992514 0.412090
vt 0.613013 0.752771
vt 0.625280 0.757650
vt 0.636387 0.764846
vt 0.637599 0.763316
vt 0.626170 0.755921
vt 0.613550 0.750905
vt 0.600055 0.750373
vt 0.600218 0.748441
vt 0.586875 0.750551
vt 0.586660 0.748622
vt 0.573956 0.753288
vt 0.573370 0.751431
vt 0.561771 0.758487
vt 0.560837 0.756773
vt 0.550761 0.765932
vt 0.549515 0.764423
vt 0.541355 0.775366
vt 0.539840 0.774122
vt 0.533920 0.786451
vt 0.532191 0.785521
vt 0.645939 0.774081
vt 0.653556 0.785027
vt 0.658938 0.797284
vt 0.661873 0.810381
vt 0.662229 0.823815
vt 0.528750 0.798775
vt 0.659961 0.837069
vt 0.526065 0.811875
vt 0.655133 0.849628
vt 0.525991 0.825253
vt 0.647908 0.860996
vt 0.639847 0.872235
vt 0.638560 0.870723
vt 0.649466 0.862218
vt 0.656899 0.850516
vt 0.661866 0.837591
vt 0.664198 0.823953
vt 0.663831 0.810135
vt 0.660809 0.796666
vt 0.655267 0.784063
vt 0.647427 0.772809
vt 0.526873 0.798196
vt 0.524110 0.811672
vt 0.524033 0.825439
vt 0.528562 0.838391
vt 0.526676 0.838962
vt 0.533695 0.850789
vt 0.531954 0.851725
vt 0.627443 0.878411
vt 0.614989 0.883747
vt 0.541203 0.861963
vt 0.601694 0.886518
vt 0.550808 0.871471
vt 0.588091 0.886619
vt 0.574727 0.884055
vt 0.562134 0.878935
vt 0.539677 0.863229
vt 0.549555 0.873019
vt 0.561206 0.880703
vt 0.574160 0.885973
vt 0.587910 0.888612
vt 0.601908 0.888505
vt 0.615589 0.885649
vt 0.628405 0.880151
vt 0.012264 0.525969
vt 0.089323 0.534860
vt 0.060136 0.565110
vt 0.028345 0.482855
vt 0.095803 0.527575
vt 0.031584 0.477491
vt 0.010935 0.582733
vt 0.026184 0.598859
vt 0.053864 0.615910
vt 0.103486 0.606887
vt 0.151576 0.597024
vt 0.159039 0.580796
vt 0.207696 0.606643
vt 0.211816 0.598620
vt 0.236842 0.613902
vt 0.238805 0.607715
vt 0.260079 0.615963
vt 0.258599 0.619646
vt 0.057410 0.403638
vt 0.076990 0.402472
vt 0.076644 0.405300
vt 0.058017 0.400735
vt 0.036162 0.399933
vt 0.038708 0.397853
vt 0.036449 0.379765
vt 0.036449 0.362420
vt 0.038708 0.344333
vt 0.058017 0.341450
vt 0.071135 0.371093
vt 0.036365 0.371093
vt 0.076990 0.339713
vt 0.034185 0.379403
vt 0.034022 0.371093
vt 0.034185 0.362782
vt 0.036163 0.342252
vt 0.057410 0.338547
vt 0.076645 0.336886
vt 0.801577 0.904509
vt 0.780467 0.904164
vt 0.801758 0.898274
vt 0.783629 0.909483
vt 0.764729 0.919515
vt 0.770209 0.922575
vt 0.758250 0.940928
vt 0.764943 0.940765
vt 0.757324 0.965332
vt 0.767926 0.959632
vt 0.779541 0.977193
vt 0.786379 0.970015
vt 0.801758 0.982585
vt 0.801758 0.976399
vt 0.823049 0.976695
vt 0.819888 0.971376
vt 0.838786 0.961344
vt 0.833122 0.958341
vt 0.845266 0.939931
vt 0.838575 0.940092
vt 0.846192 0.915527
vt 0.835593 0.921227
vt 0.823975 0.903666
vt 0.817140 0.910842
vt 0.961426 0.746908
vt 0.966034 0.738342
vt 0.957804 0.737427
vt 0.970287 0.744410
vt 0.955892 0.728679
vt 0.959025 0.720235
vt 0.967207 0.726774
vt 0.966332 0.738424
vt 0.967520 0.733414
vt 0.981608 0.741211
vt 0.974691 0.726196
vt 0.965332 0.711914
vt 0.967470 0.733401
vt 0.969855 0.751970
vt 0.962891 0.757325
vt 0.961426 0.767741
vt 0.973583 0.755588
vt 0.972475 0.769696
vt 0.977274 0.760974
vt 0.972475 0.744952
vt 0.977274 0.753674
vt 0.984049 0.757324
vt 0.981608 0.773437
vt 0.966332 0.776225
vt 0.957804 0.777222
vt 0.955892 0.785970
vt 0.967520 0.781234
vt 0.967207 0.787874
vt 0.974691 0.788452
vt 0.965332 0.802734
vt 0.959025 0.794413
vt 0.967470 0.781248
vt 0.966034 0.776306
vt 0.970287 0.770239
vt 0.969855 0.762679
vt 0.973583 0.759060
vt 0.072825 0.715855
vt 0.125149 0.673915
vt 0.140920 0.704092
vt 0.076074 0.677784
vt 0.011756 0.725183
vt 0.025704 0.683934
vt 0.049574 0.635237
vt 0.072289 0.636062
vt 0.102620 0.634387
vt 0.267139 0.625343
vt 0.269343 0.613684
vt 0.046324 0.806641
vt 0.032190 0.766815
vt 0.058001 0.765653
vt 0.026217 0.806641
vt 0.058001 0.847628
vt 0.140920 0.909189
vt 0.072825 0.897426
vt 0.032190 0.846467
vt 0.009759 0.806641
vt 0.010428 0.761063
vt 0.010428 0.852218
vt 0.011756 0.888099
vt 0.260079 0.126224
vt 0.267139 0.116845
vt 0.269343 0.128504
vt 0.258600 0.122542
vt 0.238150 0.112073
vt 0.236842 0.128285
vt 0.209842 0.125785
vt 0.207696 0.135544
vt 0.153572 0.136967
vt 0.151577 0.145163
vt 0.052751 0.117591
vt 0.103487 0.135299
vt 0.053865 0.126277
vt 0.105223 0.126980
vt 0.002890 0.155922
vt 0.026185 0.143327
vt 0.010936 0.159453
vt 0.022085 0.135042
vt 0.060137 0.177076
vt 0.012265 0.216217
vt 0.089323 0.207326
vt 0.095804 0.214612
vt 0.159040 0.161390
vt 0.211817 0.143567
vt 0.238805 0.134472
vt 0.031584 0.264695
vt 0.028346 0.259330
vt 0.787178 0.931534
vt 0.801758 0.940429
vt 0.816338 0.949324
vt 0.823358 0.933148
vt 0.831149 0.924366
vt 0.780158 0.947711
vt 0.772367 0.956493
vt 0.967773 0.860514
vt 0.974182 0.837488
vt 0.977268 0.844916
vt 0.954854 0.848913
vt 0.958279 0.844916
vt 0.958008 0.858175
vt 0.948242 0.853027
vt 0.948649 0.842031
vt 0.951497 0.832438
vt 0.961364 0.837488
vt 0.967773 0.839405
vt 0.967773 0.823079
vt 0.977132 0.825653
vt 0.984050 0.832438
vt 0.980693 0.848913
vt 0.977539 0.858175
vt 0.987305 0.853027
vt 0.986898 0.842031
vt 0.958415 0.825653
vt 0.931641 0.900065
vt 0.890137 0.900029
vt 0.876302 0.888533
vt 0.903972 0.877121
vt 0.931641 0.882833
vt 0.890137 0.882828
vt 0.848633 0.865723
vt 0.848633 0.882833
vt 0.848633 0.900065
vt 0.903972 0.911640
vt 0.931641 0.917481
vt 0.931641 0.934896
vt 0.890137 0.917481
vt 0.876302 0.923321
vt 0.848633 0.917481
vt 0.848633 0.934896
vt 0.890137 0.934932
vt 0.903539 0.946250
vt 0.888984 0.951658
vt 0.929912 0.951416
vt 0.917806 0.963542
vt 0.875870 0.957662
vt 0.848633 0.952128
vt 0.848633 0.969238
vt 0.888408 0.968526
vt 0.931641 0.796550
vt 0.876735 0.785195
vt 0.891290 0.779788
vt 0.931641 0.831380
vt 0.890137 0.831417
vt 0.876302 0.819806
vt 0.890137 0.813965
vt 0.903972 0.808124
vt 0.931641 0.813965
vt 0.890137 0.796514
vt 0.848633 0.796550
vt 0.850362 0.780030
vt 0.862468 0.767904
vt 0.904404 0.773783
vt 0.931641 0.779317
vt 0.931641 0.762207
vt 0.891866 0.762919
vt 0.848633 0.813965
vt 0.848633 0.831380
vt 0.903972 0.842913
vt 0.931641 0.848613
vt 0.931641 0.865723
vt 0.890137 0.848617
vt 0.876302 0.854325
vt 0.848633 0.848613
vt 0.890137 0.865723
vt 0.024926 0.432389
vt 0.079169 0.425239
vt 0.097424 0.460546
vt 0.122961 0.510435
vt 0.166342 0.564636
vt 0.223071 0.574990
vt 0.253471 0.588725
vt 0.024940 0.371093
vt 0.024927 0.309796
vt 0.253471 0.153462
vt 0.223071 0.167197
vt 0.166342 0.177551
vt 0.122962 0.231751
vt 0.097424 0.281639
vt 0.079169 0.316946
vt 0.125149 0.939366
vt 0.076075 0.935497
vt 0.102620 0.978894
vt 0.072290 0.977219
vt 0.049575 0.978044
vt 0.025704 0.929347
vt 0.992514 0.396976
vt 0.992514 0.508436
vt 0.992514 0.446094
vt 0.992514 0.348803
vt 0.218903 0.529217
vt 0.992514 0.529217
vt 0.218903 0.508436
vt 0.218903 0.348803
vt 0.218903 0.396976
vt 0.218903 0.494268
vt 0.992514 0.494268
vt 0.218903 0.446094
vt 0.212291 0.348803
vt 0.195288 0.396976
vt 0.195288 0.348803
vt 0.212291 0.396976
vt 0.153571 0.605220
vt 0.209842 0.616403
vt 0.238150 0.630114
vt 0.004100 0.217630
vt 0.021619 0.264592
vt 0.015770 0.309310
vt 0.015324 0.371092
vt 0.015770 0.432875
vt 0.021618 0.477593
vt 0.004099 0.524555
vt 0.002889 0.586264
vt 0.719541 0.857628
vt 0.709559 0.881516
vt 0.695090 0.902946
vt 0.676715 0.921089
vt 0.655171 0.935250
vt 0.631307 0.944902
vt 0.606057 0.949702
vt 0.580395 0.949497
vt 0.555297 0.944322
vt 0.531710 0.934391
vt 0.510521 0.920094
vt 0.492532 0.901976
vt 0.478418 0.880730
vt 0.468710 0.857165
vt 0.463764 0.832173
vt 0.463757 0.806698
vt 0.468681 0.781696
vt 0.478348 0.758098
vt 0.492404 0.736785
vt 0.510331 0.718566
vt 0.531474 0.704137
vt 0.555051 0.694071
vt 0.580178 0.688783
vt 0.605896 0.688516
vt 0.631207 0.693309
vt 0.655121 0.702998
vt 0.676699 0.717220
vt 0.695089 0.735430
vt 0.709562 0.756919
vt 0.719542 0.780851
vt 0.724635 0.806285
vt 0.724635 0.832218
vt 0.022083 0.607145
vt 0.052750 0.624595
vt 0.105222 0.615207
s 1
usemtl sunvisor
f 1/1/1 2/2/1 3/3/1
f 1/1/1 4/4/1 2/2/1
f 5/5/2 6/6/3 7/7/3
f 6/6/3 8/8/3 7/7/3
f 6/6/3 9/9/4 8/8/3
f 5/5/2 9/9/4 6/6/3
f 5/5/2 10/10/2 9/9/4
f 11/11/5 10/10/2 5/5/2
f 11/11/5 12/12/6 10/10/2
f 13/13/2 12/12/6 11/11/5
f 13/13/2 14/14/2 12/12/6
f 15/15/7 14/14/2 13/13/2
f 15/15/7 16/16/7 14/14/2
f 17/17/2 16/16/7 15/15/7
f 17/17/2 18/18/2 16/16/7
f 19/19/4 18/18/2 17/17/2
f 19/19/4 20/20/8 18/18/2
f 21/21/2 20/20/8 19/19/4
f 21/21/2 22/22/2 20/20/8
f 23/23/2 22/22/2 21/21/2
f 23/23/2 24/24/9 22/22/2
f 13/13/2 11/11/5 5/5/2
f 13/13/2 5/5/2 7/7/3
f 15/15/7 13/13/2 7/7/3
f 17/17/2 15/15/7 7/7/3
f 7/7/3 25/25/2 17/17/2
f 25/25/2 26/26/3 17/17/2
f 26/26/3 27/27/3 17/17/2
f 19/19/4 17/17/2 27/27/3
f 28/28/7 19/19/4 27/27/3
f 21/21/2 19/19/4 28/28/7
f 23/23/2 21/21/2 28/28/7
f 28/28/7 29/29/10 23/23/2
f 30/30/2 23/23/2 29/29/10
f 29/29/10 31/31/7 30/30/2
f 32/32/3 30/30/2 31/31/7
f 31/31/7 33/33/7 32/32/3
f 34/34/3 32/32/3 33/33/7
f 33/33/7 35/35/2 34/34/3
f 35/35/2 36/36/11 37/37/9
f 35/35/2 38/38/2 36/36/11
f 33/33/7 38/38/2 35/35/2
f 33/33/7 39/39/12 38/38/2
f 31/31/7 39/39/12 33/33/7
f 31/31/7 40/40/10 39/39/12
f 29/29/10 40/40/10 31/31/7
f 29/29/10 41/41/13 40/40/10
f 28/28/7 41/41/13 29/29/10
f 28/28/7 42/42/7 41/41/13
f 27/27/3 42/42/7 28/28/7
f 27/27/3 43/43/3 42/42/7
f 26/26/3 43/43/3 27/27/3
f 26/26/3 44/44/3 43/43/3
f 25/25/2 44/44/3 26/26/3
f 25/25/2 45/45/7 44/44/3
f 7/7/3 45/45/7 25/25/2
f 7/7/3 8/8/3 45/45/7
f 30/30/2 24/24/9 23/23/2
f 30/30/2 46/46/2 24/24/9
f 32/32/3 46/46/2 30/30/2
f 32/32/3 47/47/14 46/46/2
f 34/34/3 47/47/14 32/32/3
f 34/34/3 48/48/3 47/47/14
f 49/49/7 48/48/3 34/34/3
f 49/49/7 50/50/7 48/48/3
f 51/51/3 50/50/7 49/49/7
f 51/51/3 52/52/3 50/50/7
f 35/35/2 37/37/9 34/34/3
f 34/34/3 37/37/9 49/49/7
f 37/37/9 53/53/4 49/49/7
f 51/51/3 49/49/7 53/53/4
f 53/53/4 54/54/2 51/51/3
f 51/51/3 54/54/2 55/55/3
f 54/54/2 56/56/2 55/55/3
f 57/57/5 55/55/3 56/56/2
f 56/56/2 58/58/4 57/57/5
f 58/58/4 59/59/3 57/57/5
f 59/59/3 60/60/5 57/57/5
f 55/55/3 52/52/3 51/51/3
f 55/55/3 61/61/3 52/52/3
f 57/57/5 61/61/3 55/55/3
f 57/57/5 62/62/15 61/61/3
f 60/60/5 62/62/15 57/57/5
f 60/60/5 63/63/4 62/62/15
f 59/59/3 63/63/4 60/60/5
f 59/59/3 64/64/4 63/63/4
f 58/58/4 64/64/4 59/59/3
f 58/58/4 65/65/6 64/64/4
f 56/56/2 65/65/6 58/58/4
f 56/56/2 66/66/2 65/65/6
f 54/54/2 66/66/2 56/56/2
f 54/54/2 67/67/3 66/66/2
f 53/53/4 67/67/3 54/54/2
f 53/53/4 68/68/8 67/67/3
f 37/37/9 68/68/8 53/53/4
f 37/37/9 36/36/11 68/68/8
f 69/69/16 70/70/17 71/71/18
f 69/69/16 72/72/19 70/70/17
f 73/73/20 70/70/17 72/72/19
f 73/73/20 72/72/19 74/74/21
f 75/75/22 69/69/16 71/71/18
f 75/75/22 71/71/18 76/76/23
f 77/77/24 76/76/23 71/71/18
f 77/77/24 71/71/18 78/78/25
f 78/78/25 71/71/18 70/70/17
f 78/78/25 70/70/17 79/79/26
f 79/79/26 70/70/17 73/73/20
f 79/79/26 73/73/20 80/80/27
f 80/80/27 81/81/28 79/79/26
f 80/80/27 82/82/29 81/81/28
f 82/82/29 83/83/30 81/81/28
f 82/82/29 84/84/31 83/83/30
f 85/85/32 83/83/30 84/84/31
f 85/85/32 86/86/33 83/83/30
f 87/87/34 88/88/35 89/89/35
f 87/87/34 90/90/36 88/88/35
f 91/91/37 90/90/36 87/87/34
f 91/91/37 92/92/38 90/90/36
f 93/93/39 90/90/40 92/92/41
f 94/94/42 95/95/43 96/96/44
f 94/94/42 96/96/44 97/97/45
f 97/97/45 98/98/46 94/94/42
f 93/93/39 98/98/46 97/97/45
f 97/97/45 90/90/40 93/93/39
f 97/97/45 88/88/47 90/90/40
f 96/96/44 99/99/48 97/97/45
f 100/100/49 92/92/50 91/91/51
f 100/100/49 93/93/52 92/92/50
f 101/101/53 93/93/52 100/100/49
f 101/101/53 98/98/54 93/93/52
f 101/101/53 94/94/55 98/98/54
f 101/101/53 102/102/56 94/94/55
f 102/102/56 95/95/57 94/94/55
f 102/102/56 103/103/58 95/95/57
f 103/103/59 96/96/60 95/95/61
f 103/103/59 104/104/62 96/96/60
f 104/104/62 99/99/63 96/96/60
f 104/104/64 105/105/63 99/99/63
f 106/106/65 107/107/65 108/108/65
f 106/106/65 109/109/65 107/107/65
f 109/109/65 110/110/65 107/107/65
f 109/109/65 111/111/65 110/110/65
f 111/111/65 112/112/65 110/110/65
f 111/111/65 113/113/65 112/112/65
f 113/113/65 114/114/65 112/112/65
f 113/113/65 115/115/65 114/114/65
f 115/115/65 116/116/65 114/114/65
f 115/115/65 117/117/65 116/116/65
f 117/117/65 118/118/65 116/116/65
f 117/117/65 119/119/65 118/118/65
f 119/119/65 120/120/65 118/118/65
f 119/119/65 121/121/65 120/120/65
f 121/121/65 122/122/65 120/120/65
f 121/121/65 123/123/65 122/122/65
f 123/123/65 124/124/65 122/122/65
f 123/123/65 125/125/65 124/124/65
f 125/125/65 126/126/65 124/124/65
f 125/125/65 127/127/65 126/126/65
f 127/127/65 128/128/65 126/126/65
f 127/127/65 129/129/65 128/128/65
f 129/129/65 108/108/65 128/128/65
f 129/129/65 106/106/65 108/108/65
f 130/130/66 131/131/67 132/132/68
f 130/130/66 133/133/69 131/131/67
f 134/134/70 132/132/68 131/131/67
f 134/134/70 135/135/71 136/136/72
f 137/130/73 138/132/74 139/137/75
f 134/134/70 139/137/75 138/132/74
f 134/134/70 140/138/76 139/137/75
f 134/134/70 136/136/72 140/138/76
f 141/139/77 140/138/76 136/136/72
f 141/139/77 136/136/72 142/140/78
f 143/141/79 142/140/78 136/136/72
f 143/141/79 136/136/72 135/135/71
f 143/141/79 135/135/71 144/136/80
f 134/134/70 144/136/80 135/135/71
f 134/134/70 145/142/81 144/136/80
f 134/134/70 131/131/67 145/142/81
f 146/139/82 145/142/81 131/131/67
f 146/139/82 131/131/67 133/133/69
f 146/139/82 133/133/69 147/143/83
f 130/130/66 147/143/83 133/133/69
f 130/130/66 148/144/84 147/143/83
f 149/145/85 147/143/83 148/144/84
f 141/139/77 139/137/75 140/138/76
f 146/139/82 144/136/80 145/142/81
f 146/139/82 150/140/86 144/136/80
f 143/141/79 144/136/80 150/140/86
f 146/139/82 147/143/83 151/146/87
f 149/145/85 152/147/88 153/148/89
f 137/130/73 154/149/90 155/150/91
f 149/145/85 151/146/87 147/143/83
f 149/145/85 153/148/89 151/146/87
f 146/139/82 151/146/87 153/148/89
f 146/139/82 153/148/89 156/151/92
f 157/152/93 156/151/92 153/148/89
f 157/152/93 153/148/89 152/147/88
f 157/152/93 152/147/88 158/153/94
f 149/145/85 158/153/94 152/147/88
f 149/145/85 159/154/95 158/153/94
f 160/155/96 158/153/94 159/154/95
f 160/155/96 161/156/97 158/153/94
f 160/155/96 162/157/98 161/156/97
f 157/152/93 161/156/97 162/157/98
f 157/152/93 162/157/98 163/158/99
f 164/159/100 163/158/99 162/157/98
f 164/159/100 162/157/98 165/160/101
f 164/159/100 165/160/101 166/157/102
f 164/159/100 166/157/102 167/158/103
f 168/152/104 167/158/103 166/157/102
f 157/152/93 158/153/94 161/156/97
f 160/155/96 165/160/101 162/157/98
f 160/155/96 166/157/102 165/160/101
f 160/155/96 169/161/105 166/157/102
f 168/152/104 166/157/102 169/161/105
f 168/152/104 169/161/105 170/162/106
f 168/152/104 170/162/106 171/163/107
f 172/145/108 171/163/107 170/162/106
f 172/145/108 173/164/109 171/163/107
f 172/145/108 174/144/110 173/164/109
f 137/130/73 173/164/109 174/144/110
f 137/130/73 175/165/111 173/164/109
f 137/130/73 155/150/91 175/165/111
f 168/152/104 175/165/111 155/150/91
f 168/152/104 155/150/91 176/151/112
f 141/139/77 176/151/112 155/150/91
f 141/139/77 155/150/91 154/149/90
f 141/139/77 154/149/90 139/137/75
f 137/130/73 139/137/75 154/149/90
f 168/152/104 173/164/109 175/165/111
f 168/152/104 171/163/107 173/164/109
f 160/155/96 170/162/106 169/161/105
f 160/155/96 177/154/113 170/162/106
f 172/145/108 170/162/106 177/154/113
f 178/166/114 179/167/115 180/168/116
f 178/166/114 181/169/117 179/167/115
f 178/166/114 182/170/118 183/171/119
f 178/166/114 183/171/119 181/169/117
f 181/169/117 183/171/119 184/172/120
f 181/169/117 184/172/120 185/173/121
f 186/174/122 181/169/117 185/173/121
f 186/174/122 179/167/115 181/169/117
f 85/85/123 187/175/124 86/86/125
f 85/85/123 188/176/126 187/175/124
f 189/177/127 190/178/128 191/179/129
f 189/177/127 192/180/130 190/178/128
f 193/181/131 194/182/132 195/183/133
f 193/181/131 195/183/133 196/184/134
f 189/177/127 193/181/131 196/184/134
f 189/177/127 196/184/134 192/180/130
f 196/184/134 197/185/135 192/180/130
f 190/178/128 192/180/130 197/185/135
f 190/178/128 197/185/135 198/186/136
f 182/170/137 190/178/128 198/186/136
f 182/170/137 178/166/138 190/178/128
f 191/179/129 190/178/128 178/166/138
f 191/179/129 178/166/138 180/168/139
f 196/184/134 199/187/140 197/185/135
f 200/188/141 199/187/140 196/184/134
f 200/188/141 196/184/134 195/183/133
f 201/189/142 202/190/143 203/191/144
f 201/189/142 204/192/145 202/190/143
f 204/192/146 205/193/147 202/190/148
f 204/192/146 206/194/149 205/193/147
f 206/194/149 207/195/150 205/193/147
f 206/194/149 208/196/151 207/195/150
f 208/196/151 194/197/152 207/195/150
f 208/196/151 209/198/153 194/197/152
f 210/199/154 211/200/155 212/201/156
f 210/199/154 213/202/157 211/200/155
f 213/202/157 209/198/158 211/200/155
f 213/202/157 194/197/159 209/198/158
f 214/203/160 215/204/161 216/205/162
f 214/203/160 217/206/163 215/204/161
f 217/206/163 212/201/164 215/204/161
f 217/206/163 210/199/165 212/201/164
f 216/205/166 218/207/167 219/208/168
f 216/205/166 215/204/169 218/207/167
f 212/201/170 218/207/167 215/204/169
f 212/201/170 211/200/171 218/207/167
f 211/200/171 220/209/172 218/207/167
f 211/200/171 209/198/173 220/209/172
f 209/198/173 221/210/174 220/209/172
f 209/198/173 222/211/175 221/210/174
f 222/211/175 209/198/173 208/196/176
f 222/211/175 208/196/176 223/212/177
f 223/212/177 208/196/176 206/194/178
f 223/212/177 206/194/178 224/213/179
f 201/189/180 224/213/179 206/194/178
f 201/189/180 206/194/178 204/192/181
f 221/210/174 225/214/182 226/215/183
f 221/210/174 226/215/183 220/209/172
f 219/208/168 220/209/172 226/215/183
f 219/208/168 218/207/167 220/209/172
f 227/111/65 228/109/65 229/216/65
f 230/106/65 229/216/65 228/109/65
f 230/106/65 231/217/65 229/216/65
f 232/123/65 233/218/65 234/219/65
f 232/123/65 234/219/65 235/220/65
f 232/123/65 235/220/65 236/125/65
f 237/127/65 236/125/65 235/220/65
f 237/127/65 235/220/65 238/129/65
f 230/106/65 238/129/65 235/220/65
f 230/106/65 235/220/65 234/219/65
f 230/106/65 234/219/65 233/218/65
f 230/106/65 233/218/65 231/217/65
f 239/119/65 231/217/65 233/218/65
f 239/119/65 229/216/65 231/217/65
f 239/119/65 240/221/65 229/216/65
f 227/111/65 229/216/65 240/221/65
f 227/111/65 240/221/65 241/222/65
f 227/111/65 241/222/65 242/113/65
f 243/115/65 242/113/65 241/222/65
f 243/115/65 241/222/65 244/117/65
f 239/119/65 244/117/65 241/222/65
f 239/119/65 241/222/65 240/221/65
f 239/119/65 233/218/65 245/121/65
f 232/123/65 245/121/65 233/218/65
f 160/223/184 246/224/184 247/225/184
f 160/223/184 248/226/184 249/227/184
f 160/223/184 159/228/184 248/226/184
f 149/229/184 248/226/184 159/228/184
f 149/229/184 148/230/184 248/226/184
f 130/231/184 248/226/184 148/230/184
f 130/231/184 249/227/184 248/226/184
f 130/231/184 250/232/184 249/227/184
f 160/223/184 249/227/184 250/232/184
f 160/223/184 250/232/184 251/233/184
f 160/223/184 251/233/184 246/224/184
f 134/234/184 246/224/184 251/233/184
f 134/234/184 138/235/184 246/224/184
f 137/236/184 246/224/184 138/235/184
f 137/236/184 247/225/184 246/224/184
f 137/236/184 252/237/184 247/225/184
f 160/223/184 247/225/184 252/237/184
f 160/223/184 252/237/184 177/238/184
f 172/239/184 177/238/184 252/237/184
f 172/239/184 252/237/184 174/240/184
f 137/236/184 174/240/184 252/237/184
f 130/231/184 132/241/184 250/232/184
f 134/234/184 250/232/184 132/241/184
f 134/234/184 251/233/184 250/232/184
f 146/242/82 253/243/185 254/244/186
f 146/242/82 255/245/187 150/246/86
f 146/242/82 256/247/188 255/245/187
f 146/242/82 254/244/186 256/247/188
f 108/248/189 256/247/188 254/244/186
f 108/248/189 254/244/186 128/249/190
f 126/250/191 128/249/190 254/244/186
f 126/250/191 254/244/186 253/243/185
f 126/250/191 253/243/185 257/251/192
f 146/242/82 257/251/192 253/243/185
f 146/242/82 156/252/92 257/251/192
f 157/253/93 257/251/192 156/252/92
f 157/253/93 258/254/193 257/251/192
f 157/253/93 259/255/194 258/254/193
f 126/250/191 258/254/193 259/255/194
f 126/250/191 259/255/194 124/256/195
f 122/257/196 124/256/195 259/255/194
f 122/257/196 259/255/194 260/258/197
f 122/257/196 260/258/197 261/259/198
f 157/253/93 260/258/197 259/255/194
f 108/248/189 255/245/187 256/247/188
f 126/250/191 257/251/192 258/254/193
f 122/257/196 261/259/198 262/260/199
f 157/253/93 261/259/198 260/258/197
f 157/253/93 163/261/99 261/259/198
f 164/262/100 261/259/198 163/261/99
f 164/262/100 262/260/199 261/259/198
f 164/262/100 263/263/200 262/260/199
f 122/257/196 262/260/199 263/263/200
f 122/257/196 263/263/200 120/264/201
f 118/265/202 120/264/201 263/263/200
f 118/265/202 263/263/200 264/266/203
f 164/262/100 264/266/203 263/263/200
f 168/267/104 265/268/204 266/269/205
f 141/270/77 267/271/206 268/272/207
f 141/270/77 268/272/207 269/273/208
f 141/270/77 269/273/208 270/274/209
f 141/270/77 270/274/209 176/275/112
f 168/267/104 176/275/112 270/274/209
f 168/267/104 270/274/209 271/276/210
f 168/267/104 271/276/210 265/268/204
f 114/277/211 265/268/204 271/276/210
f 114/277/211 116/278/212 265/268/204
f 118/279/202 265/268/204 116/278/212
f 118/279/202 266/269/205 265/268/204
f 118/279/202 272/280/213 266/269/205
f 168/267/104 266/269/205 272/280/213
f 168/267/104 272/280/213 167/281/103
f 164/282/100 167/281/103 272/280/213
f 164/282/100 272/280/213 264/283/203
f 118/279/202 264/283/203 272/280/213
f 114/277/211 271/276/210 270/274/209
f 114/277/211 270/274/209 269/273/208
f 114/277/211 269/273/208 268/272/207
f 114/277/211 268/272/207 112/284/214
f 110/285/215 112/284/214 268/272/207
f 110/285/215 268/272/207 267/271/206
f 110/285/215 267/271/206 273/286/216
f 141/270/77 273/286/216 267/271/206
f 141/270/77 142/287/78 273/286/216
f 143/288/79 273/286/216 142/287/78
f 143/288/79 274/289/217 273/286/216
f 143/288/79 275/290/218 274/289/217
f 110/285/215 274/289/217 275/290/218
f 110/285/215 275/290/218 107/291/219
f 108/248/189 107/291/219 275/290/218
f 108/248/189 275/290/218 276/292/220
f 108/248/189 276/292/220 255/245/187
f 143/288/79 255/245/187 276/292/220
f 143/288/79 150/246/86 255/245/187
f 110/285/215 273/286/216 274/289/217
f 143/288/79 276/292/220 275/290/218
f 277/293/221 278/294/222 279/295/223
f 277/293/221 279/295/223 74/74/224
f 279/295/223 73/73/225 74/74/224
f 279/295/223 280/296/226 73/73/225
f 280/296/226 80/80/227 73/73/225
f 280/296/226 281/297/228 80/80/227
f 281/297/228 82/82/229 80/80/227
f 281/297/228 282/298/230 82/82/229
f 282/298/230 84/84/231 82/82/229
f 282/298/230 283/299/232 84/84/231
f 283/299/232 85/85/233 84/84/231
f 283/299/232 188/176/234 85/85/233
f 89/89/235 278/294/222 87/87/236
f 87/87/236 278/294/222 277/293/221
f 91/91/237 87/87/236 277/293/221
f 277/293/221 284/300/238 91/91/237
f 284/300/238 100/100/239 91/91/237
f 284/300/238 101/101/240 100/100/239
f 284/300/238 102/102/241 101/101/240
f 102/102/241 284/300/238 103/103/242
f 284/300/238 285/301/243 103/103/242
f 285/301/243 104/104/244 103/103/242
f 286/302/245 201/189/246 203/191/247
f 286/302/245 224/213/248 201/189/246
f 287/303/249 224/213/248 286/302/245
f 287/303/249 223/212/250 224/213/248
f 288/304/251 223/212/250 287/303/249
f 288/304/251 222/211/252 223/212/250
f 289/305/253 222/211/252 288/304/251
f 289/305/253 221/210/254 222/211/252
f 290/306/255 221/210/254 289/305/253
f 290/306/255 225/214/256 221/210/254
f 285/301/243 225/214/256 290/306/255
f 285/301/243 290/306/255 291/307/257
f 285/301/243 291/307/257 104/104/244
f 105/105/258 104/104/244 291/307/257
f 195/183/259 194/182/260 213/308/261
f 195/183/259 213/308/261 292/309/262
f 210/310/263 292/309/262 213/308/261
f 210/310/263 217/311/264 292/309/262
f 292/309/262 217/311/264 214/312/265
f 292/309/262 214/312/265 293/313/266
f 195/183/259 292/309/262 293/313/266
f 195/183/259 293/313/266 200/188/267
f 119/119/268 244/117/269 239/119/268
f 119/119/268 117/117/269 244/117/269
f 117/117/269 243/115/270 244/117/269
f 117/117/269 115/115/270 243/115/270
f 115/115/270 242/113/193 243/115/270
f 115/115/270 113/113/193 242/113/193
f 113/113/193 227/111/197 242/113/193
f 113/113/193 111/111/197 227/111/197
f 111/111/197 228/109/271 227/111/197
f 111/111/197 109/109/271 228/109/271
f 109/109/271 230/106/203 228/109/271
f 109/109/271 106/106/203 230/106/203
f 106/106/203 238/129/272 230/106/203
f 106/106/203 129/129/272 238/129/272
f 129/129/272 237/127/273 238/129/272
f 129/129/272 127/127/273 237/127/273
f 127/127/273 236/125/208 237/127/273
f 127/127/273 125/125/208 236/125/208
f 125/125/208 232/123/274 236/125/208
f 125/125/208 123/123/275 232/123/274
f 123/123/275 245/121/276 232/123/274
f 123/123/275 121/121/276 245/121/276
f 121/121/276 239/119/268 245/121/276
f 121/121/276 119/119/268 239/119/268
f 4/314/277 294/315/278 2/316/279
f 4/314/277 295/317/280 294/315/278
f 296/318/281 294/315/282 295/319/282
f 296/318/281 297/320/281 294/315/282
f 296/321/283 4/314/283 1/322/283
f 296/321/283 295/317/283 4/314/283
f 297/323/284 2/316/284 294/324/284
f 297/323/284 3/325/284 2/316/284
f 3/326/285 296/327/286 1/328/285
f 3/326/285 297/329/286 296/327/286
f 81/81/287 180/330/288 79/79/289
f 81/81/290 298/331/291 180/330/292
f 83/83/293 298/331/291 81/81/290
f 83/83/293 299/332/294 298/331/291
f 86/86/295 299/332/294 83/83/293
f 86/86/295 187/175/296 299/332/294
f 214/203/297 216/205/298 219/208/299
f 214/203/297 219/208/299 293/333/300
f 293/333/300 219/208/299 226/215/301
f 293/333/300 226/215/301 200/334/302
f 225/214/303 200/334/302 226/215/301
f 200/334/302 225/214/303 285/301/304
f 200/334/302 285/301/304 199/335/305
f 285/301/304 197/336/306 199/335/305
f 285/301/304 284/300/307 197/336/306
f 277/293/308 197/336/306 284/300/307
f 277/293/308 198/337/309 197/336/306
f 182/338/310 198/337/309 277/293/308
f 182/338/310 277/293/308 74/74/311
f 74/74/311 72/72/312 182/338/310
f 183/339/313 182/338/310 72/72/312
f 183/339/313 72/72/312 69/69/314
f 184/340/315 183/339/313 69/69/314
f 184/340/315 69/69/314 75/75/316
f 300/341/317 301/342/318 39/39/319
f 301/342/318 38/38/320 39/39/319
f 301/342/318 302/343/321 38/38/320
f 302/343/321 36/36/322 38/38/320
f 302/343/321 303/344/323 36/36/322
f 303/344/323 68/68/324 36/36/322
f 303/344/323 304/345/325 68/68/324
f 304/345/325 67/67/326 68/68/324
f 304/345/325 305/346/327 67/67/326
f 305/346/327 66/66/328 67/67/326
f 305/346/327 306/347/329 66/66/328
f 306/347/329 65/65/330 66/66/328
f 306/347/329 307/348/331 65/65/330
f 307/348/331 64/64/332 65/65/330
f 307/348/331 308/349/333 64/64/332
f 308/349/333 63/63/334 64/64/332
f 308/349/333 309/350/335 63/63/334
f 309/350/335 62/62/336 63/63/334
f 309/350/335 310/351/337 62/62/336
f 310/351/337 61/61/338 62/62/336
f 310/351/337 311/352/339 61/61/338
f 311/352/339 52/52/340 61/61/338
f 311/352/339 312/353/341 52/52/340
f 312/353/341 50/50/342 52/52/340
f 312/353/341 313/354/343 50/50/342
f 313/354/343 48/48/344 50/50/342
f 313/354/343 314/355/345 48/48/344
f 314/355/345 47/47/346 48/48/344
f 314/355/345 315/356/347 47/47/346
f 315/356/347 46/46/348 47/47/346
f 315/356/347 316/357/349 46/46/348
f 316/357/349 24/24/350 46/46/348
f 316/357/349 317/358/351 24/24/350
f 317/358/351 22/22/352 24/24/350
f 317/358/351 318/359/353 22/22/352
f 318/359/353 20/20/354 22/22/352
f 318/359/353 319/360/355 20/20/354
f 319/360/355 18/18/356 20/20/354
f 319/360/355 320/361/357 18/18/356
f 320/361/357 16/16/358 18/18/356
f 320/361/357 321/362/359 16/16/358
f 321/362/359 14/14/360 16/16/358
f 321/362/359 322/363/361 14/14/360
f 322/363/361 12/12/362 14/14/360
f 322/363/361 323/364/363 12/12/362
f 323/364/363 10/10/364 12/12/362
f 323/364/363 324/365/364 10/10/364
f 324/365/364 9/9/365 10/10/364
f 324/365/364 325/366/366 9/9/365
f 325/366/366 8/8/367 9/9/365
f 325/366/366 326/367/368 8/8/367
f 326/367/368 45/45/369 8/8/367
f 326/367/368 327/368/370 45/45/369
f 327/368/370 44/44/371 45/45/369
f 327/368/370 328/369/372 44/44/371
f 328/369/372 43/43/373 44/44/371
f 328/369/372 329/370/374 43/43/373
f 329/370/374 42/42/375 43/43/373
f 329/370/374 330/371/376 42/42/375
f 330/371/376 41/41/377 42/42/375
f 330/371/376 331/372/378 41/41/377
f 331/372/378 40/40/379 41/41/377
f 331/372/378 300/341/317 40/40/379
f 300/341/317 39/39/319 40/40/379
f 185/373/380 77/77/381 186/374/382
f 185/373/380 76/76/383 77/77/381
f 184/340/384 76/76/383 185/373/380
f 184/340/384 75/75/385 76/76/383
f 179/375/386 79/79/387 180/330/388
f 179/375/386 78/78/389 79/79/387
f 186/374/390 78/78/389 179/375/386
f 186/374/390 77/77/391 78/78/389
